<svg width="752" height="752" viewBox="0 0 752 752" fill="none" xmlns="http://www.w3.org/2000/svg">
<circle cx="376" cy="376" r="376" fill="#1A597D"/>
<g clip-path="url(#clip0_168_63)">
<path d="M468.707 283.23H441.416C441.416 288.384 441.21 293.212 441.456 298.018C442.163 311.793 441.927 325.742 444.124 339.289C447.698 361.32 460.551 378.723 475.625 394.495C489.104 408.597 505.74 418.558 521.828 429.241C541.088 442.031 560.061 455.242 575.082 473.146C593.401 494.981 601.143 520.028 597.21 548.447C596.197 555.768 591.023 560.222 584.535 559.449C578.252 558.701 574.263 553.359 575.431 545.957C577.703 531.559 575.837 517.834 569.681 504.72C562.775 490.007 551.949 478.379 539.046 468.939C521.725 456.267 503.733 444.515 486.212 432.111C461.888 414.89 441.646 394.062 429.274 366.412C421.289 348.564 418.818 329.753 418.992 310.421C419.073 301.496 419.005 292.567 419.005 283.252H386.718C386.718 291.021 386.715 298.685 386.718 306.345C386.777 412.736 386.836 519.13 386.892 625.522C386.898 638.723 386.967 651.925 386.83 665.123C386.749 672.902 381.984 677.424 374.794 676.972C370.172 676.682 366.199 672.877 365.142 667.476C364.721 665.335 364.553 663.11 364.55 660.922C364.485 546.986 364.435 433.049 364.438 319.113C364.438 308.589 364.796 298.061 364.983 287.537C365.008 286.169 364.986 284.8 364.986 283.161H332.051C332.051 284.966 332.07 286.627 332.051 288.288C331.883 302.106 332.31 315.966 331.403 329.734C329.679 355.9 318.145 378.015 301.974 398.201C285.59 418.654 264.476 433.233 243.112 447.703C225.451 459.664 207.746 471.644 193.457 487.853C181.212 501.743 174.808 517.812 174.82 536.33C174.82 539.587 175.537 542.86 176.086 546.098C177.108 552.128 174.085 557.535 168.693 559.097C162.856 560.789 156.592 558.202 155.464 551.882C153.856 542.881 152.693 533.451 153.584 524.425C156.548 494.42 173.147 471.838 196.075 453.949C215.101 439.102 235.358 425.838 254.977 411.742C273.741 398.257 288.9 381.559 299.677 360.98C308.391 344.341 310.092 326.365 310.189 308.046C310.232 299.903 310.195 291.76 310.195 283.239H283.642C283.642 284.785 283.652 286.275 283.642 287.761C283.546 303.63 283.499 319.5 283.328 335.366C283.178 348.919 278.965 361.251 271.762 372.642C269.244 376.622 266.957 380.755 264.295 384.631C259.941 390.97 252.892 392.703 247.631 388.963C242.579 385.373 242.093 379.14 246.313 372.602C249.797 367.207 254.176 362.149 256.454 356.284C259.072 349.546 260.864 342.119 261.166 334.917C261.861 318.287 261.497 301.608 261.359 284.953C261.347 283.538 260.119 281.307 258.925 280.852C229.534 269.692 218.688 238.654 221.21 211.291C227.012 148.198 281.034 86.9398 351.215 75.9323C430.869 63.4414 506.906 112.626 526.96 190.682C531.782 209.447 533.433 228.488 525.948 247.156C519.824 262.427 509.368 273.637 494.022 279.914C491.289 281.033 490.354 282.313 490.401 285.358C490.631 300.127 490.756 314.906 490.51 329.672C490.264 344.372 494.471 357.502 503.094 369.314C504.484 371.215 505.89 373.122 507.096 375.139C509.751 379.577 509.268 384.544 506.011 387.717C502.368 391.263 497.497 392.024 493.084 389.337C491.127 388.144 489.248 386.511 487.908 384.66C475.85 368.014 467.965 349.992 468.62 328.824C469.084 313.775 468.71 298.7 468.71 283.233L468.707 283.23ZM400.137 98.6766C406.61 107.637 414.221 116.319 419.75 126.17C437.691 158.133 442.117 193.091 440.571 229.115C440.365 233.886 436.364 237.928 431.698 238.748C424.77 239.963 419.207 234.391 418.852 226.079C418.294 213.077 418.272 200.007 416.823 187.098C414.91 170.041 410.135 153.63 401.901 138.412C395.344 126.292 386.671 115.886 376.143 106.832C375.031 107.711 374.146 108.344 373.335 109.061C350.47 129.359 339.228 155.659 335.14 185.216C333.21 199.162 333.083 213.361 332.229 227.451C331.886 233.116 329.041 237.33 324.462 238.471C316.952 240.344 310.123 234.681 310.547 225.74C311.342 209.013 311.803 192.144 314.455 175.66C318.139 152.757 326.052 131.116 340.615 112.52C344.417 107.665 348.696 103.177 353.084 98.1437C350.333 98.742 348.061 99.2033 345.804 99.7362C343.523 100.275 341.226 100.786 338.988 101.485C304.32 112.274 277.818 133.398 259.549 164.731C248.167 184.253 241.501 205.171 243.552 228.018C245.054 244.753 255.734 260.171 276.864 260.277C297.608 260.38 318.354 260.451 339.101 260.433C384.521 260.398 429.944 260.473 475.364 260.133C492.448 260.006 504.649 248.898 507.554 232.153C510.512 215.09 507.635 198.645 501.349 182.86C488.079 149.538 465.098 124.893 433.07 108.811C422.448 103.479 411.316 99.4838 400.137 98.6672V98.6766Z" fill="white"/>
<path d="M513.674 586.254C520.92 574.277 523.744 561.303 522.229 547.297C520.079 527.398 509.367 512.324 495.144 499.284C487.748 492.506 480.075 486.027 472.583 479.351C470.48 477.475 468.429 475.506 466.587 473.377C462.336 468.468 462.321 463.563 466.341 458.972C470.084 454.697 476.579 453.615 481.132 457.648C494.498 469.497 507.903 481.361 520.49 494.021C532.813 506.412 540.358 521.717 543.502 539.026C549.536 572.251 538.429 598.847 511.985 619.232C506.559 623.415 500.579 627.086 494.396 630.025C486.012 634.008 478.146 628.785 479.38 620.248C479.764 617.593 482.085 614.701 484.326 612.95C488.103 610.001 492.523 607.876 496.406 605.567C489.699 599.951 482.802 595.023 476.953 589.068C468.476 580.441 463.552 569.823 463.224 557.504C463.025 550.04 467.419 544.492 473.49 543.947C479.866 543.374 484.491 547.821 485.623 555.615C487.845 570.905 498.204 582.349 513.684 586.263L513.674 586.254Z" fill="white"/>
<path d="M238.114 586.132C247.167 583.016 254.108 577.306 260.07 570.235C263.99 565.585 265.184 559.988 265.988 554.169C266.904 547.556 270.918 543.878 276.718 543.928C282.755 543.981 287.239 547.902 287.888 554.459C289.094 566.638 284.353 577.076 276.515 585.802C271.233 591.683 264.564 596.32 258.493 601.49C257.312 602.494 256.028 603.376 254.631 604.432C255.654 605.856 256.585 607.066 257.417 608.334C260.213 612.597 260.073 617.095 257.084 620.495C253.79 624.244 248.517 625.702 244.347 622.555C237.506 617.397 230.438 612.068 225.081 605.495C201.074 576.041 200.202 537.795 222.142 505.608C233.137 489.477 247.872 476.936 262.285 464.099C264.395 462.22 266.502 460.325 268.743 458.611C274.437 454.257 281.028 454.659 285.186 459.505C289.284 464.28 288.96 470.419 283.724 475.453C277.622 481.321 271.08 486.731 264.81 492.428C254.7 501.612 244.487 510.7 237.684 522.858C227.253 541.497 226.377 560.639 234.43 580.295C234.96 581.591 235.723 582.801 236.462 583.994C236.945 584.773 237.584 585.456 238.114 586.129V586.132Z" fill="white"/>
<path d="M332.207 537.377C332.207 573.342 332.216 609.306 332.185 645.271C332.185 647.926 332.251 650.666 331.646 653.215C330.287 658.959 325.893 662.147 320.402 661.86C315.524 661.604 311.333 657.675 310.426 652.183C309.968 649.413 309.768 646.567 309.768 643.753C309.703 581.248 309.678 518.744 309.659 456.242C309.656 446.042 309.64 435.842 309.799 425.641C309.837 423.179 310.117 420.543 311.052 418.308C312.766 414.223 316.129 411.982 320.688 412.053C325.089 412.125 329.692 415.382 331.004 419.729C331.761 422.229 331.992 424.971 331.998 427.605C332.061 464.196 332.039 500.79 332.039 537.381C332.095 537.381 332.148 537.381 332.204 537.381L332.207 537.377Z" fill="white"/>
<path d="M441.481 505.951C441.487 532.033 441.49 558.115 441.481 584.2C441.481 586.085 441.547 587.983 441.341 589.85C440.761 595.095 436.831 599.168 432.076 599.617C426.425 600.153 421.56 597.274 419.971 592.057C419.251 589.697 418.971 587.117 418.967 584.636C418.911 542.685 418.88 500.731 418.967 458.779C418.992 447.011 419.276 435.237 419.694 423.475C419.959 416.027 423.87 412.029 430.137 412.128C436.953 412.234 441.453 417.027 441.462 424.404C441.494 451.586 441.475 478.769 441.481 505.951Z" fill="white"/>
<path d="M668.718 312.154C638.298 313.036 607.881 313.899 577.464 314.822C573.244 314.95 570.143 313.394 568.342 309.539C566.379 305.341 566.263 300.963 569.732 297.781C571.833 295.855 575.142 294.396 577.985 294.259C603.076 293.037 628.185 292.212 653.286 291.136C658.129 290.928 662.937 290.071 667.774 289.631C673.001 289.154 677.42 290.697 680.309 295.34C682.871 299.461 682.752 303.674 680.203 307.757C677.554 311.995 673.265 312.749 668.722 312.154H668.718Z" fill="white"/>
<path d="M133.352 312.413C119.537 312.413 105.718 312.385 91.9027 312.435C88.7799 312.444 85.6447 312.958 82.5344 312.821C75.2075 312.5 70.3489 306.946 70.8195 299.744C71.2278 293.492 76.6723 289.497 83.8527 289.846C113.952 291.305 144.054 292.707 174.157 294.057C183.138 294.459 188.218 302.692 183.874 310.119C181.973 313.369 179.165 314.828 175.291 314.797C161.313 314.682 147.333 314.753 133.352 314.753C133.352 313.974 133.352 313.192 133.352 312.413Z" fill="white"/>
<path d="M621.989 347.822C637.36 347.822 652.73 347.878 668.101 347.797C675.238 347.76 680.947 351.55 681.979 357.321C683.085 363.511 679.838 368.983 673.757 370.822C672.152 371.308 670.367 371.402 668.674 371.361C642.499 370.729 616.326 370.043 590.151 369.379C587.324 369.308 584.488 369.451 581.674 369.264C575.154 368.834 571.452 364.701 571.523 358.132C571.595 351.724 575.089 348.137 581.951 348.065C595.296 347.922 608.641 348.025 621.989 348.025C621.989 347.959 621.989 347.891 621.989 347.825V347.822Z" fill="white"/>
<path d="M130.23 370.233C117.194 370.233 104.157 370.162 91.1212 370.286C88.0171 370.317 84.9193 371.337 81.8184 371.333C75.6352 371.327 70.6675 366.384 70.0474 360.08C69.5238 354.769 73.5784 349.387 79.6275 348.589C83.9033 348.025 88.3444 348.826 92.7106 348.782C118.004 348.539 143.301 348.234 168.594 347.928C177.124 347.826 182.569 354.376 180.21 361.965C178.757 366.637 174.846 369.301 168.887 369.336C156.004 369.411 143.117 369.358 130.233 369.358C130.233 369.65 130.233 369.94 130.233 370.233H130.23Z" fill="white"/>
<path d="M536.326 345.136C543.447 345.522 549.191 351.335 548.879 357.839C548.53 365.075 542.531 370.694 535.6 370.28C528.731 369.869 523.212 363.748 523.664 357.041C524.134 350.038 529.731 344.778 536.326 345.136Z" fill="white"/>
<path d="M529.37 294.243C536.544 294.156 542.328 299.526 542.316 306.261C542.303 313.556 536.718 319.322 529.713 319.275C523.015 319.232 517.24 313.407 517.156 306.61C517.072 300.018 522.697 294.325 529.367 294.243H529.37Z" fill="white"/>
<path d="M203.916 357.462C203.879 351.023 209.753 345.173 216.279 345.155C222.765 345.136 228.935 350.954 229.063 357.209C229.204 364.147 223.089 370.47 216.364 370.342C209.728 370.214 203.957 364.243 203.916 357.465V357.462Z" fill="white"/>
<path d="M234.845 306.744C235.001 313.083 229.276 318.992 222.7 319.272C216.003 319.559 209.81 313.435 209.773 306.494C209.738 300.068 215.043 294.586 221.578 294.293C228.394 293.988 234.677 299.884 234.842 306.744H234.845Z" fill="white"/>
<path d="M564.081 387.352C570.769 387.321 576.301 392.815 576.37 399.556C576.442 406.488 571.249 411.851 564.396 411.92C557.739 411.988 551.862 405.973 551.986 399.217C552.108 392.725 557.555 387.377 564.081 387.349V387.352Z" fill="white"/>
<path d="M199.996 399.668C199.965 406.185 194.099 411.982 187.595 411.923C181.331 411.863 175.612 405.792 175.612 399.207C175.612 392.728 181.069 387.371 187.698 387.343C194.243 387.315 200.027 393.114 199.996 399.668Z" fill="white"/>
</g>
<defs>
<clipPath id="clip0_168_63">
<rect width="612.194" height="603" fill="white" transform="translate(70 74)"/>
</clipPath>
</defs>
</svg>
