<svg width="728" height="728" viewBox="0 0 728 728" fill="none" xmlns="http://www.w3.org/2000/svg">
<circle cx="364" cy="364" r="364" fill="#D7972B"/>
<g clip-path="url(#clip0_168_104)">
<path d="M265.536 566.085C257.417 570.663 250.104 575.031 242.568 578.975C232.403 584.293 221.718 588.358 210.526 591.013C200.028 593.502 195.892 590.316 195.711 579.396C195.449 563.424 196.42 547.553 199.884 531.904C199.939 531.657 199.78 531.363 199.652 530.786C189.587 532.347 179.589 534.43 169.399 535.282C165.05 535.646 160.715 535.884 156.369 535.832C150.864 535.768 147.755 532.704 147.727 527.2C147.669 515.978 149.563 505.012 152.508 494.211C153.525 490.475 154.548 486.739 155.611 482.845C138.967 481.433 122.695 479.76 107.19 473.977C105.431 473.321 103.61 472.804 101.912 472.025C96.3007 469.453 94.4771 465.51 96.5451 459.657C100.95 447.186 108.473 436.522 116.497 426.195C123.444 417.254 131.498 409.315 139.85 401.248C131.584 397.793 123.602 394.595 115.737 391.134C104.692 386.278 94.3366 380.187 84.6262 373.024C82.9981 371.824 81.3822 370.553 79.9741 369.108C74.65 363.643 74.6194 357.996 80.2856 352.855C89.9869 344.048 100.739 336.699 112.377 330.639C121.235 326.026 130.53 322.407 139.801 318.57C136.319 314.969 132.922 311.438 129.501 307.928C118.22 296.357 108.064 283.922 100.122 269.777C98.4878 266.866 96.9697 263.897 96.2427 260.607C95.1339 255.591 96.4229 252.546 101.011 250.231C111.549 244.909 122.854 241.855 134.364 239.619C140.592 238.409 146.921 237.6 153.244 237.044C156.161 236.787 155.819 235.55 155.135 233.736C152.211 225.99 150.226 218.014 149.056 209.819C148.299 204.507 147.62 199.198 147.694 193.816C147.779 187.438 150.831 184.072 157.212 183.867C169.555 183.476 181.813 184.469 193.94 186.803C195.675 187.135 197.343 187.297 199.548 187.19C197.883 177.651 196.402 168.176 196.078 158.566C195.849 151.755 195.195 144.924 196.209 138.156C197.196 131.57 201.482 128.723 208.012 130.061C224.052 133.345 238.839 139.775 252.82 148.165C256.91 150.618 260.951 153.15 265.444 155.912C265.988 150.704 266.483 145.752 267.029 140.804C268.376 128.628 271.611 116.945 276.535 105.756C280.213 97.3986 283.548 95.6849 292.278 98.4554C306.363 102.924 318.82 110.542 330.522 119.443C330.845 119.691 331.212 119.88 331.826 120.259C336.16 107.98 341.64 96.3997 348.498 85.5071C350.196 82.813 351.989 80.1586 353.953 77.6539C359.958 70.0052 367.977 70.1121 373.863 77.9349C380.424 86.6557 385.47 96.2623 389.966 106.168C392.044 110.747 393.971 115.39 396.097 120.305C406.382 112.684 417.115 105.945 428.753 100.722C443.22 94.231 447.646 96.1187 453.138 110.961C458.547 125.583 461.009 140.74 461.468 156.828C472.076 149.21 482.877 142.918 494.521 138.082C502.289 134.857 510.203 132.187 518.38 130.278C525.613 128.589 530.828 132.413 531.066 139.768C531.545 154.568 531.06 169.303 527.663 183.812C526.786 187.56 527.416 188.082 532.114 187.157C543.944 184.829 555.863 183.656 567.928 183.779C576.066 183.858 578.983 186.638 578.998 194.634C579.019 208.111 575.659 220.943 571.692 233.663C571.386 234.64 570.952 235.544 571.166 236.852C585.37 238.04 599.5 240.132 613.108 244.818C617.189 246.223 621.301 247.674 625.156 249.589C631.472 252.729 632.902 256.755 630.04 263.173C624.435 275.739 616.187 286.574 607.259 296.907C601.47 303.606 595.319 309.987 588.702 315.867C586.134 318.149 587.08 318.741 589.503 319.67C604.134 325.26 618.286 331.821 631.289 340.652C636.32 344.07 641.314 347.549 645.74 351.752C653.05 358.695 653.157 363.582 645.526 370.238C638.519 376.353 630.443 380.978 622.287 385.422C612.345 390.838 601.837 394.962 591.284 398.979C589.817 399.538 588.391 400.2 586.613 400.958C594.472 408.542 602.204 415.77 608.771 424.084C617.04 434.552 624.841 445.313 629.85 457.819C632.96 465.583 631.497 469.179 623.662 472.386C607.781 478.889 590.999 481.079 574.083 482.576C573.225 482.652 572.364 482.704 571.242 482.787C573.243 491.333 576.295 499.437 577.48 508.026C578.296 513.919 579.081 519.78 578.983 525.743C578.858 533.37 575.577 536.626 567.922 536.174C554.473 535.38 541.161 533.486 527.434 530.575C528.14 535.872 528.705 540.973 529.517 546.037C531.506 558.421 531.509 570.88 530.977 583.346C530.754 588.594 527.529 591.376 522.287 591.697C517.064 592.018 512.271 590.194 507.482 588.621C492.545 583.709 478.601 576.696 465.399 568.18C464.446 567.566 463.423 567.065 462.112 566.335C460.954 577.878 459.953 589.11 457.005 600.039C455.197 606.744 453.336 613.43 450.184 619.652C446.891 626.149 442.578 627.939 435.892 625.322C423.279 620.385 411.605 613.717 400.624 605.797C399.597 605.058 398.767 603.918 397.053 603.79C392.407 616.335 387.031 628.627 379.77 639.99C377.589 643.405 375.317 646.801 372.736 649.917C367.124 656.692 359.748 656.713 354.372 649.801C344.499 637.103 337.486 622.774 331.759 607.847C330.21 603.811 329.007 604.309 326.205 606.405C315.826 614.173 304.53 620.355 292.419 624.989C284.046 628.193 280.286 626.605 276.547 618.342C270.628 605.275 267.72 591.422 266.269 577.237C265.915 573.782 264.968 570.379 265.542 566.075L265.536 566.085ZM138.952 279.686C139.398 280.703 140.118 281.427 141.175 281.793L141.31 281.955C144.227 285.117 147.404 287.97 151.148 290.135C151.912 291.553 153.354 292.051 154.664 292.729L154.652 292.72C155.187 293.81 156.155 294.259 157.276 294.479L157.258 294.467C157.82 294.836 158.379 295.206 158.941 295.579C161.345 297.167 163.675 298.878 166.162 300.322C189.074 313.652 213.752 320.971 240.284 321.655C250.804 321.927 256.509 316.084 256.326 305.836C256.186 302.228 253.843 299.748 251.796 297.155C245.699 289.43 238.1 283.373 229.788 278.29C211.552 267.144 191.475 261.465 170.325 259.764C157.148 258.704 144.025 260.097 131.169 263.292C129.357 263.741 126.706 263.952 126.266 266.163C125.973 267.626 127.796 268.79 129.25 269.557C131.196 273.595 134.779 276.072 138.069 278.824L138.063 278.809C138.124 279.344 138.383 279.677 138.958 279.686H138.952ZM288.952 230.804C288.732 230.428 288.515 230.052 288.295 229.676L288.344 229.591C287.446 227.156 286.46 224.774 284.535 222.929L284.569 222.959C284.404 221.805 283.891 220.876 282.834 220.302H282.849C281.633 217.14 279.385 214.627 277.479 211.92C270.625 202.204 263.382 192.808 254.106 185.205L253.873 184.89C253.91 184.386 253.736 184.047 253.183 184.005C252.826 183.647 252.468 183.29 252.108 182.929C243.525 173.448 233.261 166.065 222.494 159.33C220.023 157.784 221.012 160.206 220.722 161.114C219.647 162.39 220.802 163.505 220.982 164.688C219.992 172.962 221.471 181.051 223.141 189.06C226.165 203.532 231.783 216.963 240.048 229.276C245.455 237.328 244.612 241.082 236.508 246.37C231.166 249.855 230.558 254.373 235.577 258.86C242.486 265.039 249.857 270.702 257.047 276.567C257.6 277.019 258.257 277.404 258.929 277.633C261.247 278.418 263.251 277.651 264.876 276.011C266.672 274.2 264.848 272.856 264.033 271.451C263.233 270.073 262.277 268.784 261.446 267.425C259.149 263.668 258.529 259.556 259.179 255.274C259.811 251.107 262.396 248.349 266.394 247.521C270.518 246.666 273.701 248.523 275.741 252.286C277.736 255.967 278.851 260.133 281.7 263.338C284.789 266.808 291.118 267.794 295.751 265.601C299.341 263.903 300.397 260.836 299.142 255.032C298.439 251.776 297.453 248.584 295.843 245.627C295.886 244.687 295.687 243.843 294.872 243.254L294.801 243.086C293.876 239.928 292.764 236.855 290.647 234.258L290.678 234.277C290.492 232.905 289.96 231.702 288.921 230.755L288.952 230.804ZM440.406 538.401C440.119 538.105 439.832 537.812 439.545 537.515L439.557 537.524C437.859 534.907 436.038 532.393 433.573 530.419L433.592 530.432C432.898 528.648 431.814 527.142 430.366 525.896L430.1 526.213L430.348 525.88C430.216 525.187 429.96 524.582 429.23 524.316L429.251 524.326C428.405 522.633 427.583 520.923 426.001 519.75L426.026 519.68C424.816 516.955 423.331 514.401 421.303 512.193L421.322 512.217C419.312 507.874 417.112 503.634 414.44 499.654C414.495 499.44 414.421 499.293 414.217 499.214C412.87 495.796 411.559 492.36 409.338 489.372L409.384 489.378C407.112 484.839 405.151 484.219 400.441 485.93C396.182 487.478 397.154 490.447 398.162 493.352C403.119 507.651 404.524 522.557 405.85 537.482C405.881 538.352 405.911 539.226 405.942 540.096C405.792 550.088 405.868 560.095 404.008 569.976C403.721 571.5 403.962 572.872 405.471 573.721L405.554 574.023C407.478 577.273 409.528 580.423 412.582 582.759L412.601 582.778C415.939 587.103 420.152 590.42 424.758 593.279L425.082 593.423C429.77 597.617 431.328 597.751 433.47 594.15L433.463 594.165C434.988 592.4 435.314 590.289 435.217 588.056V588.065C437.107 582.979 437.45 577.695 437.239 572.337C437.676 570.892 437.642 569.454 437.159 568.027C437.954 566.405 437.016 565.034 436.484 563.623C435.632 561.362 434.948 559.099 435.751 556.67C435.98 556.652 436.103 556.527 436.121 556.298C436.371 556.148 436.619 555.998 436.869 555.849L436.982 555.8C439.007 555.717 440.996 555.907 442.838 556.817C445.428 558.094 447.688 557.416 449.375 555.357C451.244 553.075 451 550.464 449.222 548.237C447.634 546.245 445.712 544.522 443.938 542.677L443.962 542.705C443.131 540.976 441.885 539.589 440.403 538.395L440.406 538.401ZM482.523 265.897L482.48 265.974C484.682 264.752 486.625 263.2 488.342 261.361L488.351 261.355C491.054 259.687 493.822 258.072 494.72 254.69C496.012 249.821 492.6 247.701 489.353 245.407C483.305 241.134 482.431 236.387 486.42 230.22C487.905 227.926 489.719 225.822 490.52 223.13C490.785 222.99 490.874 222.776 490.785 222.489C502.032 204.482 506.507 184.689 506.281 163.658C506.361 162.155 507.482 160.219 505.808 159.324C504.491 158.618 503.233 160.28 502.084 161.034C478.384 176.603 458.682 196.159 443.718 220.308C438.629 228.522 434.129 237.084 431.588 246.513C430.583 247.802 429.954 249.232 429.929 250.89C428.656 252.738 428.503 254.935 428.234 257.033C427.449 263.139 430.562 266.563 436.778 266.643C443.519 266.731 447.484 263.215 449.323 255.521L449.384 255.457C451.076 253.114 452.771 250.774 454.464 248.431H454.43C458.126 246.996 461.779 246.504 464.98 249.479C468.42 252.677 468.97 256.825 467.928 261.09C467.25 263.857 465.842 266.444 464.76 269.114L464.733 269.157C463.939 269.444 463.759 270.094 463.731 270.837L463.771 270.772C462.344 271.823 460.89 273.002 461.599 274.985C462.143 276.509 463.413 277.612 465.093 277.893C467.021 278.216 468.82 277.938 470.066 276.179C470.341 276.023 470.613 275.864 470.888 275.709C472.104 275.397 472.904 274.572 473.542 273.552C476.142 271.393 478.744 269.236 481.344 267.076C482.019 266.967 482.385 266.545 482.52 265.894L482.523 265.897ZM247.883 547.1H247.886C248.006 547.904 247.636 549.193 248.73 549.248C250.348 549.333 251.967 547.565 251.76 546.709C250.584 541.895 255.605 540.906 256.943 537.708C257.365 536.7 258.44 535.96 258.241 534.659C258.483 534.415 258.724 534.171 258.965 533.926C260.737 534.296 262.054 533.535 263.168 532.246C268.486 526.091 274.021 520.11 279.08 513.748C285.198 506.047 290.464 497.754 294.243 488.603C294.469 488.059 294.777 487.42 295.455 487.714C298.498 489.027 297.306 487.161 296.998 485.78C296.491 483.492 296.029 481.159 298.87 479.601C299.252 480.251 299.637 480.835 299.951 481.455C300.312 482.17 300.284 483.419 301.522 483.013C302.646 482.643 302.792 481.525 302.676 480.459C302.551 479.326 301.854 478.648 300.788 478.324C299.582 477.96 298.928 477.029 299.701 476.054C301.549 473.733 300.422 470.947 301.158 468.562C302.548 464.059 300.52 462.4 296.527 461.866L296.54 461.875C294.035 457.363 284.123 456.612 281.059 460.888C278.539 464.404 275.93 467.831 273.291 471.253C271.284 473.852 268.755 475.404 265.918 474.408C262.46 473.195 261.256 469.579 260.193 466.286C259.918 465.437 260.441 464.352 261.525 464.523C266.559 465.321 264.665 461.191 264.045 459.978C262.796 457.541 263.624 456.615 265.288 455.085C268.416 452.207 267.811 448.527 264.265 447.125L264.234 447.097C262.588 444.076 256.772 442.983 253.091 445.307C248.473 448.221 244.239 451.789 239.48 454.431C228.799 460.36 228.258 467.028 238.21 474.393C240.968 476.436 242.306 482.075 241.429 485.343C240.552 488.618 238.396 490.942 236.389 493.319C232.864 497.491 231.957 502.916 229.486 507.581C227.971 510.44 225.405 513.393 225.258 517.065C225.124 520.425 224.177 523.308 221.614 525.773C220.441 526.904 219.189 528.859 221.07 530.722C221.895 531.537 222.1 532.762 221.651 533.55C219.152 537.952 220.741 543.126 218.566 547.748C216.907 551.27 216.583 555.583 218.233 559.603C219.048 561.591 220.194 563.256 222.414 563.555C225.133 563.922 231.438 559.151 232.452 556.172L232.711 556.017C234.7 557.373 235.803 555.849 237.202 554.789C240.702 552.137 244.322 549.648 247.893 547.094L247.883 547.1ZM475.192 318.928C475.253 320.657 475.781 321.765 477.733 322.388C483.671 324.288 489.502 325.663 495.865 324.236C500.166 323.274 504.488 322.309 508.994 321.982C512.855 321.704 517.128 321.713 520.641 319.517C524.034 317.397 527.816 316.047 531.573 315.598C536.243 315.042 541.305 316.438 544.087 311.001L544.097 311.01C545.621 312.321 548.116 312.541 548.737 311.224C551.403 305.579 557.964 305.665 561.709 301.767C568.041 295.175 578.79 294.876 583.781 286.326C584.197 285.615 585.08 285.856 585.767 286.109C586.769 286.479 587.218 285.657 587.948 285.306C591.057 283.797 591.183 278.094 596.293 279.399C596.773 279.521 597.093 278.534 596.705 278.03C594.308 274.93 597.374 274.108 598.923 272.727C600.276 271.518 602.283 270.479 599.008 269.221C601.364 266.142 600.499 264.379 596.806 263.637C594.976 263.267 593.211 262.598 591.381 262.229C575.476 259.012 559.501 258.524 543.507 261.429C524.392 264.902 506.159 270.794 490.373 282.548C482.33 288.538 474.896 295.249 470.879 304.846C468.13 305.778 469.245 307.745 469.703 309.459C470.723 313.258 473.228 316.893 470.521 321.216C472.443 320.583 473.121 318.332 475.192 318.931V318.928ZM292.914 162.106C291.047 167.867 290.455 168.246 284.535 166.242C281.798 165.317 279.706 165.824 277.98 168.023C276.263 170.213 276.129 172.593 277.675 174.878C278.722 176.429 280.014 177.825 281.288 179.209C292.059 190.899 300.993 203.884 308.373 217.925C311.941 224.716 315.081 231.726 318.548 238.571C320.292 242.014 323.31 241.999 326.398 240.728C329.614 239.402 330.577 237.017 329.324 233.684C328.46 231.384 327.748 229.02 327.082 226.652C319.727 200.469 319.944 174.007 324.232 147.402C328.032 139.756 324.666 134.591 318.374 130.415C315.481 128.497 312.729 126.347 309.729 124.615C298.769 118.283 295.171 119.575 292.624 131.756C290.528 141.781 287.306 152.057 292.914 162.106ZM403.562 148.504C403.819 151.098 404.051 153.694 404.335 156.287C405.905 170.726 406.498 185.168 405.074 199.671C403.938 211.251 401.821 222.605 398.122 233.635C396.827 237.502 398.119 239.818 401.812 240.972C406.476 242.432 408.468 239.329 409.998 235.847C419.696 213.771 432.086 193.455 448.742 175.867C451.546 172.907 450.826 168.781 447.621 166.441C445.449 164.852 443.437 166.062 441.411 166.587C436.622 167.834 434.438 165.897 435.369 161.065C435.562 160.072 435.993 159.122 436.164 158.126C437.941 147.674 437.398 137.444 433.149 127.584C432.064 121.096 429.147 119.401 423.2 122.061C418.013 124.383 413.621 127.984 408.972 131.194C402.875 135.406 399.704 140.352 403.104 147.781C403.22 148.037 403.41 148.263 403.562 148.501V148.504ZM610.28 363.576C612.357 362.907 614.972 362.174 615.228 359.984C615.436 358.206 612.84 357.33 611.279 356.416C582.563 339.659 551.874 332.655 518.765 338.01C508.725 339.635 498.877 342.106 490.324 347.897C485.629 351.077 481.393 354.91 481.463 361.386C481.066 368.448 485.736 372.092 491.036 375.049C497.292 378.544 504.241 380.26 511.211 381.5C532.468 385.282 553.532 384.118 574.37 378.461C586.986 375.037 599.091 370.421 610.28 363.573V363.576ZM245.877 361.27C245.907 355.277 241.799 351.841 237.623 348.786C228.756 342.304 218.352 339.717 207.719 338C175.197 332.759 144.942 339.43 116.549 355.582C114.604 356.688 111.302 357.614 111.436 359.703C111.604 362.321 114.979 362.987 117.319 363.989C119.491 365.977 122.176 367.119 124.754 368.402C151.723 381.833 180.28 385.926 209.979 382.285C219.583 381.106 229.125 378.938 237.605 373.891C242.284 371.109 246.439 367.642 245.877 361.267V361.27ZM253.082 410.054C249.395 402.03 244.743 399.101 236.081 399.525C224.079 400.115 212.295 402.11 200.678 405.167C172.851 412.492 148.619 425.718 130.103 448.264C128.474 450.249 125.997 451.92 126.461 455.082C131.685 458.882 137.867 458.659 143.863 459.263C169.583 461.866 194.438 458.827 218.092 447.925C230.033 442.421 241.182 435.719 250.358 426.152C255.694 420.587 256.25 416.61 253.079 410.054H253.082ZM345.211 175.653C343.858 176.848 343.904 178.494 343.833 180.076C343.436 189.063 343.537 198.065 344.924 206.944C346.439 216.633 348.033 226.335 352.343 235.358C354.686 240.264 358.171 243.611 363.557 243.572C369.088 243.529 372.827 240.178 375.091 235.068C380.503 222.846 382.929 209.898 383.579 196.724C385.036 167.183 378.072 139.292 365.887 112.555C365.469 111.639 365.139 110.585 363.755 110.912C361.278 111.392 361.073 113.753 360.349 115.433C354.399 129.224 349.151 143.29 346.497 158.126C345.471 163.869 343.381 169.657 345.205 175.66L345.211 175.653ZM474.41 409.758C470.451 417.107 471.801 422.548 479.493 429.46C487.514 436.669 496.4 442.607 506.202 447.137C520.363 453.683 535.141 457.913 550.74 459.202C565.634 460.433 580.486 460.748 595.163 457.33C597.2 456.856 599.891 456.93 600.484 453.964C599.87 451.288 597.878 449.501 596.189 447.583C568.185 415.788 531.723 402.4 490.599 399.574C481.784 398.969 477.113 402.519 474.41 409.755V409.758ZM362.277 484.91C358.679 485.643 356.091 487.72 354.249 490.851C349.909 498.237 347.12 506.102 346.711 514.725C344.267 520.923 344.374 527.527 343.968 533.984C342.172 562.596 349.164 589.394 361.36 615.034C361.947 616.265 362.158 618.299 363.719 618.357C365.383 618.418 365.576 616.344 366.138 615.119C379.404 586.171 386.759 556.102 382.742 524.029C381.392 513.238 379.165 502.595 374.092 492.803C371.621 488.031 368.145 484.653 362.277 484.906V484.91ZM452.719 343.016C452.53 341.88 452.466 340.707 452.136 339.613C443.165 309.709 424.031 289.039 394.945 277.978C356.553 263.38 311.773 277.56 288.161 311.459C280.057 323.094 274.583 335.85 273.111 350.115C272.845 350.924 272.442 351.718 272.332 352.549C270.933 363.292 271.666 373.913 274.024 384.479C284.676 432.249 329.489 463.567 379.395 455.277C410.71 450.075 433.283 432.145 446.861 403.505C456.018 384.191 458.007 363.879 452.722 343.013L452.719 343.016ZM468.34 465.706C468.38 472.731 463.673 477.38 457.32 476.674C453.074 476.204 451.36 472.813 449.466 469.802C447.524 466.717 445.804 463.473 442.575 461.551C438.751 459.276 434.783 459.312 431.124 461.884C427.733 464.267 427.012 467.673 428.252 471.537C428.958 473.742 429.572 475.987 430.452 478.122C439.554 500.158 453.034 519.191 470.127 535.728C479.737 545.023 489.997 553.509 501.382 560.568C505.42 563.073 506.492 562.535 506.614 557.938C506.721 553.879 506.611 549.825 506.064 545.778C503.401 525.972 497.576 507.403 486.026 490.771C480.369 482.622 482.214 475.963 490.602 470.568C495.703 467.288 496.109 463.253 491.201 459.486C485.461 455.082 479.358 451.144 473.396 447.03C471.914 446.007 470.155 445.698 468.426 445.634C465.845 445.539 463.395 446.361 461.932 448.521C460.353 450.851 462.454 452.549 463.627 454.288C465.985 457.776 468.557 461.16 468.334 465.706H468.34ZM289.902 571.097C290.467 578.587 290.934 586.08 293.421 593.313C294.664 596.923 296.442 597.473 299.548 595.579C307.316 590.839 313.66 584.565 319.611 577.75C322.922 573.956 323.172 570.022 322.519 565.303C320.661 551.899 320.863 538.444 322.406 524.992C323.679 513.885 325.854 503.002 329.575 492.448C330.821 488.917 329.202 486.91 326.053 485.728C321.862 484.155 319.363 485.374 316.972 490.606C309.451 507.055 299.915 522.221 288.362 536.119C285.03 540.13 281.465 543.945 278.087 547.919C276.19 550.152 275.888 552.629 277.742 555.061C279.428 557.272 281.572 558.011 284.233 556.774C285.015 556.411 285.855 556.133 286.698 555.946C290.797 555.048 292.404 556.664 291.585 560.861C290.922 564.249 289.309 567.477 289.902 571.091V571.097ZM516.835 244.613C524.941 243.266 533.198 241.116 541.68 240.202C543.272 240.031 543.984 238.486 544.485 237.13C547.139 229.939 550.102 222.849 551.996 215.402C552.475 213.515 553.914 211.245 552.164 209.687C550.499 208.206 548.312 209.724 546.375 210.133C545.957 210.222 545.569 210.448 545.172 210.619C534.279 215.384 524.813 222.235 516.389 230.544C514.122 232.78 512.155 235.364 511.636 238.675C511.059 242.356 513.026 244.69 516.835 244.619V244.613ZM210.914 474.991C201.897 476.833 193.259 478.574 184.636 480.389C183.435 480.642 182.888 481.672 182.415 482.832C179.467 490.069 176.608 497.336 174.644 504.914C174.268 506.365 172.998 508.127 174.464 509.37C175.927 510.611 177.775 509.661 179.394 509.068C189.718 505.296 198.873 499.544 207.108 492.335C210.028 489.779 213.086 487.249 214.836 483.627C216.941 479.265 214.772 474.967 210.914 474.991ZM210.551 244.512C212.154 244.152 213.981 244.106 214.906 242.261C216.397 239.295 214.974 236.656 213.275 234.628C203.693 223.188 191.945 214.7 177.864 209.574C174.757 208.444 173.535 209.028 174.491 212.699C176.685 221.127 179.565 229.31 182.583 237.459C183.081 238.8 183.808 239.778 185.234 240.034C193.634 241.534 202.037 243.01 210.551 244.512ZM516.169 474.997C513.004 475.089 510.985 477.997 511.553 481.226C512.106 484.372 514 486.767 516.163 488.914C525.332 498.029 536.103 504.63 548.202 509.12C549.61 509.642 551.153 510.107 552.35 509.236C553.77 508.207 552.979 506.521 552.582 505.21C550.273 497.589 547.392 490.179 544.271 482.857C543.522 481.101 542.499 480.099 540.474 479.891C532.834 479.106 525.433 477.072 517.974 475.352C517.275 475.19 516.563 475.074 516.169 474.994V474.997ZM278.16 462.373C278.185 461.475 277.754 461.032 276.923 461.038C276.147 461.044 275.558 461.46 275.356 462.184C275.185 462.795 275.533 463.237 276.196 463.332C277.082 463.457 277.882 463.384 278.16 462.373ZM600.053 275.816C600.151 275.586 600.377 275.305 600.313 275.14C600.249 274.976 599.891 274.927 599.662 274.829C599.564 275.058 599.335 275.339 599.403 275.501C599.467 275.666 599.824 275.715 600.056 275.816H600.053ZM245.623 551.688C245.855 551.789 246.136 552.021 246.301 551.954C246.466 551.89 246.518 551.53 246.619 551.297C246.39 551.197 246.106 550.964 245.944 551.032C245.776 551.099 245.724 551.456 245.623 551.688Z" fill="url(#paint0_linear_168_104)"/>
<path d="M468.344 465.703C468.564 461.157 465.992 457.773 463.634 454.285C462.458 452.547 460.359 450.848 461.939 448.518C463.402 446.358 465.848 445.536 468.433 445.631C470.161 445.692 471.921 446.004 473.402 447.027C479.365 451.145 485.465 455.079 491.207 459.484C496.116 463.25 495.71 467.285 490.609 470.565C482.221 475.963 480.376 482.622 486.033 490.768C497.579 507.4 503.404 525.972 506.071 545.775C506.615 549.822 506.728 553.876 506.621 557.935C506.499 562.532 505.426 563.073 501.388 560.565C490.004 553.503 479.744 545.02 470.134 535.725C453.041 519.191 439.561 500.155 430.458 478.119C429.575 475.987 428.965 473.739 428.259 471.534C427.019 467.67 427.74 464.264 431.13 461.881C434.79 459.309 438.754 459.273 442.582 461.548C445.807 463.47 447.53 466.711 449.473 469.799C451.367 472.811 453.08 476.201 457.326 476.672C463.68 477.377 468.387 472.728 468.35 465.7L468.344 465.703Z" fill="#E89212"/>
<path d="M258.959 533.932C258.717 534.177 258.476 534.421 258.235 534.665C249.942 542.048 241.45 549.193 232.696 556.026C232.696 556.026 232.436 556.182 232.439 556.185C229.827 557.724 227.204 559.249 224.604 560.806C222.356 562.153 220.765 562.269 220.746 558.955C220.716 553.891 220.676 548.842 221.351 543.792C223.966 524.259 230.444 506.261 241.581 489.873C246.777 482.228 244.966 475.786 237.226 470.633C231.474 466.805 231.245 462.422 236.942 458.347C242.351 454.477 248.045 451.01 253.613 447.363C257.095 445.081 260.636 445.072 264.225 447.1L264.255 447.128C266.424 450.085 265.102 452.516 263.113 454.874C259.554 459.086 257.841 463.815 259.2 469.359C260.092 473.006 262.114 475.777 265.92 476.546C269.573 477.285 272.866 476.345 275.136 473.119C276.468 471.225 277.735 469.283 278.936 467.303C283.398 459.954 288.692 458.307 296.533 461.884C296.533 461.884 296.521 461.875 296.524 461.875C300.088 465.788 299.96 470.132 298.164 474.762C294.34 484.626 289.514 493.954 283.924 502.941C276.855 514.307 267.802 524.023 258.962 533.935L258.959 533.932Z" fill="#E79212"/>
<path d="M362.277 484.907C368.145 484.65 371.621 488.032 374.092 492.803C379.166 502.599 381.392 513.238 382.742 524.03C386.759 556.102 379.404 586.172 366.138 615.12C365.576 616.345 365.383 618.419 363.719 618.358C362.158 618.3 361.947 616.265 361.361 615.034C349.167 589.394 342.175 562.596 343.968 533.984C344.374 527.527 344.267 520.923 346.711 514.731C353.51 518.806 358.08 517.591 360.569 510.409C363.438 502.144 363.309 493.518 362.277 484.907Z" fill="#E89212"/>
<path d="M295.84 245.63C297.45 248.587 298.436 251.779 299.139 255.035C300.391 260.839 299.337 263.906 295.748 265.604C291.114 267.797 284.785 266.814 281.697 263.341C278.847 260.137 277.732 255.967 275.738 252.289C273.697 248.529 270.515 246.672 266.391 247.524C262.395 248.352 259.811 251.11 259.176 255.277C258.525 259.559 259.145 263.671 261.442 267.428C262.273 268.79 263.229 270.076 264.03 271.454C264.845 272.859 266.669 274.2 264.873 276.014C263.248 277.655 261.247 278.421 258.925 277.636C258.253 277.407 257.597 277.022 257.044 276.57C249.853 270.708 242.486 265.042 235.573 258.863C230.555 254.376 231.166 249.858 236.505 246.373C244.609 241.085 245.452 237.331 240.045 229.279C231.78 216.966 226.162 203.536 223.138 189.063C221.464 181.054 219.989 172.965 220.979 164.691C223.856 166.056 224.998 169.337 227.76 170.83L227.745 170.818C227.9 171.988 228.502 172.84 229.577 173.344L229.593 173.366C230.637 175.443 232.082 177.187 233.899 178.629L233.89 178.619C238.481 184.762 242.742 191.155 247.868 196.889C248.867 199.244 250.156 201.394 252.242 202.967C253.433 204.941 254.625 206.917 255.816 208.89C255.068 212.608 256.616 214.611 260.361 214.978L260.511 214.911C260.523 220.308 270.398 226.148 274.889 223.118C277.421 221.411 280.066 220.861 282.849 220.296C282.849 220.296 282.834 220.296 282.834 220.299C282.675 221.667 282.696 222.917 284.569 222.956L284.535 222.926C284.816 224.588 285.189 226.237 285.36 227.911C285.574 229.997 286.762 230.083 288.347 229.588L288.298 229.673C288.179 230.248 288.43 230.605 288.955 230.801C288.955 230.801 288.924 230.752 288.921 230.752C288.955 232.2 288.188 234.051 290.678 234.274L290.647 234.255C290.345 237.991 290.696 241.421 294.801 243.083L294.872 243.251C294.914 244.158 294.853 245.105 295.843 245.627L295.84 245.63Z" fill="#E89212"/>
<path d="M600.487 453.964C599.892 456.93 597.204 456.854 595.166 457.33C580.489 460.748 565.638 460.433 550.744 459.202C535.144 457.913 520.366 453.68 506.205 447.137C496.403 442.607 487.517 436.669 479.496 429.46C471.805 422.548 470.454 417.108 474.413 409.764C478.39 410.497 482.349 411.368 486.35 411.927C511.899 415.507 536.241 423.091 559.532 434.063C573.262 440.533 586.842 447.323 600.49 453.967L600.487 453.964Z" fill="#E89212"/>
<path d="M363.761 110.909C365.145 110.582 365.475 111.636 365.893 112.552C378.078 139.289 385.042 167.18 383.585 196.721C382.935 209.898 380.506 222.843 375.097 235.065C372.833 240.175 369.094 243.526 363.562 243.569C358.177 243.608 354.692 240.261 352.349 235.355C348.036 226.332 346.442 216.627 344.93 206.941C343.543 198.065 343.442 189.06 343.839 180.073C343.909 178.491 343.864 176.845 345.217 175.65C345.806 176.06 346.42 176.439 346.982 176.878C353.153 181.729 359.094 179.78 361.076 172.281C361.635 170.171 361.852 168.051 361.974 165.876C363.01 147.567 363.914 129.252 363.764 110.906L363.761 110.909Z" fill="#E79212"/>
<path d="M253.083 410.058C256.253 416.613 255.697 420.59 250.361 426.155C241.188 435.722 230.036 442.424 218.096 447.928C194.441 458.833 169.589 461.869 143.867 459.267C137.871 458.659 131.688 458.882 126.462 455.085C127.928 453.161 130.097 452.204 132.162 451.206C145.593 444.702 158.984 438.111 172.534 431.858C198.134 420.046 225.286 413.824 253.083 410.058Z" fill="#E89212"/>
<path d="M245.876 361.273C246.435 367.648 242.284 371.115 237.605 373.898C229.125 378.941 219.583 381.113 209.979 382.292C180.28 385.933 151.723 381.84 124.754 368.409C122.176 367.123 119.488 365.983 117.325 363.995C118.507 363.445 119.634 362.739 120.862 362.364C137.223 357.363 153.885 353.728 170.893 351.877C189.474 349.855 207.908 351.282 226.107 355.323C232.815 356.813 239.868 357.376 245.88 361.273H245.876Z" fill="#E89212"/>
<path d="M610.279 363.576C599.093 370.428 586.985 375.04 574.37 378.464C553.531 384.121 532.467 385.285 511.21 381.503C504.24 380.263 497.288 378.544 491.035 375.052C485.735 372.092 481.065 368.451 481.462 361.389C497.236 354.556 513.984 351.963 530.912 351.236C558.11 350.069 584.413 355.653 610.279 363.576Z" fill="#E89212"/>
<path d="M256.319 305.836C256.503 316.084 250.797 321.927 240.277 321.656C213.745 320.968 189.067 313.653 166.155 300.323C163.668 298.878 161.338 297.167 158.934 295.579C158.717 294.69 158.063 294.461 157.251 294.467L157.269 294.479C157.19 292.704 155.919 292.711 154.645 292.72L154.657 292.729C154.893 289.955 153.026 290.032 151.142 290.136C151.258 289.577 151.218 288.911 151.517 288.48C153.692 285.334 151.612 283.361 149.352 282.001C146.868 280.508 143.985 278.284 141.303 281.955C141.303 281.955 141.169 281.794 141.175 281.794C141.376 280.092 140.347 279.695 138.948 279.689C138.649 279.396 138.352 279.106 138.053 278.812L138.059 278.828C138.316 277.117 137.61 275.66 136.633 274.395C135.212 272.55 135.899 271.949 137.879 271.686C139.009 271.536 140.026 271.219 141.254 271.512C153.02 274.331 165.254 273.595 177.099 276.68C183.838 278.437 190.668 279.881 197.336 282.023C201.661 283.412 205.8 285.994 210.684 284.772C216.228 285.939 221.219 288.596 226.293 290.905C236.468 295.53 247.211 299.058 256.316 305.839L256.319 305.836ZM197.999 285.242C197.898 285.468 197.8 285.694 197.699 285.923C197.925 286.024 198.2 286.247 198.368 286.186C198.53 286.125 198.71 285.719 198.646 285.56C198.579 285.395 198.228 285.343 197.999 285.245V285.242Z" fill="#E9920F"/>
<path d="M289.902 571.094C289.309 567.481 290.919 564.249 291.585 560.864C292.407 556.668 290.797 555.052 286.698 555.95C285.854 556.133 285.014 556.414 284.232 556.778C281.572 558.015 279.425 557.275 277.742 555.064C275.887 552.629 276.19 550.152 278.087 547.922C281.465 543.948 285.03 540.133 288.362 536.123C299.915 522.224 309.451 507.058 316.971 490.61C319.363 485.377 321.862 484.161 326.053 485.731C329.202 486.914 330.818 488.917 329.574 492.451C325.854 503.005 323.679 513.888 322.405 524.995C320.863 538.447 320.661 551.902 322.518 565.306C323.172 570.022 322.922 573.959 319.61 577.753C313.66 584.565 307.316 590.842 299.548 595.583C296.445 597.476 294.664 596.927 293.421 593.316C290.934 586.083 290.467 578.59 289.902 571.1V571.094Z" fill="#E79212"/>
<path d="M433.149 127.587C437.398 137.447 437.941 147.677 436.164 158.129C435.996 159.125 435.562 160.075 435.369 161.068C434.438 165.9 436.622 167.837 441.411 166.591C443.433 166.062 445.449 164.856 447.621 166.444C450.825 168.787 451.543 172.914 448.742 175.87C432.083 193.459 419.693 213.774 409.998 235.85C408.468 239.332 406.476 242.435 401.812 240.975C398.119 239.818 396.827 237.502 398.122 233.638C401.821 222.608 403.938 211.254 405.074 199.675C406.498 185.172 405.905 170.73 404.335 156.291C404.054 153.7 403.819 151.101 403.565 148.508C409.558 143.999 415.472 139.381 421.572 135.022C425.298 132.358 428.707 129.151 433.152 127.59L433.149 127.587Z" fill="#E79212"/>
<path d="M324.229 147.402C319.944 174.007 319.724 200.469 327.079 226.653C327.745 229.02 328.457 231.384 329.321 233.684C330.574 237.017 329.611 239.405 326.395 240.728C323.31 241.999 320.289 242.014 318.545 238.571C315.078 231.726 311.938 224.713 308.37 217.926C300.99 203.884 292.056 190.896 281.285 179.209C280.011 177.825 278.719 176.429 277.672 174.878C276.129 172.593 276.26 170.213 277.977 168.023C279.703 165.824 281.795 165.317 284.532 166.242C290.452 168.246 291.045 167.867 292.914 162.107C301.968 161.23 305.071 157.354 303.797 148.26C303.043 142.872 302.062 137.514 301.021 131.158C309.855 136.008 316.495 142.521 324.229 147.405V147.402Z" fill="#E69414"/>
<path d="M425.079 593.429L424.756 593.286C424.875 591.82 424.27 590.833 422.92 590.188C420.024 588.811 417.599 586.822 415.998 584.03C415.131 582.515 413.823 582.931 412.598 582.781L412.58 582.763C411.322 578.978 410.237 575.053 405.552 574.027C405.552 574.027 405.469 573.724 405.469 573.721C405.762 570.881 406.153 567.936 406.101 565.196C406.01 560.128 409.434 555.595 407.971 550.519C407.308 548.216 407.222 546.087 407.931 543.78C408.438 542.131 408.698 540.179 405.939 540.097C405.909 539.226 405.878 538.352 405.848 537.482C407.519 532.598 405.903 527.775 405.518 522.945C404.693 512.624 402.833 502.48 399.726 492.586C399.058 490.457 399.849 489.125 401.602 487.836C404.892 485.414 406.871 488.508 409.382 489.382L409.336 489.376C410.317 492.977 410.866 496.789 414.214 499.214C414.419 499.294 414.495 499.44 414.437 499.654C414.853 504.871 416.997 509.142 421.319 512.218L421.301 512.193C420.995 515.877 423.042 518.073 426.023 519.68C426.023 519.68 425.999 519.75 425.996 519.753C426.439 521.733 426.503 523.984 429.246 524.326C429.246 524.326 429.224 524.317 429.224 524.32C429.148 525.163 429.27 525.862 430.342 525.884L430.095 526.217L430.361 525.899C429.646 528.688 429.518 531.058 433.589 530.435L433.571 530.423C433.565 534.476 437.27 535.405 439.555 537.528L439.543 537.519C439.83 537.815 440.117 538.108 440.404 538.404V538.407C440.948 540.375 441.681 542.186 443.963 542.717L443.938 542.69C443.868 545.228 443.321 547.681 447.094 548.555C449.183 549.037 449.821 551.377 448.297 553.524C446.641 555.858 444.375 556.243 441.791 555.544C440.147 555.098 438.501 554.239 436.98 555.812L436.867 555.861C436.616 556.011 436.366 556.161 436.115 556.31C436.1 556.539 435.975 556.665 435.746 556.683C433.635 559.478 434.234 564.325 437.151 568.043C437.634 569.472 437.67 570.908 437.233 572.353C435.19 577.42 435.731 582.818 435.208 588.081L435.211 588.072C433.754 589.859 433.29 591.929 433.458 594.181L433.464 594.165C430.474 596.169 427.868 593.704 425.076 593.438L425.079 593.429Z" fill="#E9920F"/>
<path d="M506.284 163.664C506.51 184.695 502.038 204.486 490.788 222.492C488.396 221.374 485.482 218.185 484.096 223.176C482.684 228.253 480.07 232.609 477.409 237.008C476.89 237.866 476.31 239.164 475.185 238.315C473.933 237.371 475.375 236.595 475.916 235.877C477.98 233.134 477.473 229.625 479.468 226.488C482.895 221.093 474.77 222.972 473.673 219.85C473.628 219.719 473.527 219.6 473.429 219.49C472.91 218.906 472.265 218.485 471.578 219.08C470.793 219.761 471.52 220.339 471.884 220.928C472.403 221.777 473.509 223.775 472.635 223.454C469.641 222.346 466.947 226.32 464.198 223.574C463.38 222.758 462.601 222.581 461.623 223.567C460.811 224.386 459.934 224.771 460.328 226.35C461.345 230.401 461.214 230.434 457.252 230.938C458.156 233.214 460.884 234.139 461.571 236.235C462.411 238.798 463.38 240.63 466.281 240.939C466.773 240.991 467.222 241.745 466.92 242.344C466.538 243.101 465.735 243.089 465.02 242.93C462.237 242.31 460.453 240.022 458.126 238.63C457.322 238.15 457.946 235.52 455.881 236.54C454.463 237.243 454.228 238.709 455.337 240.233C456.556 241.907 455.988 242.903 453.904 243.046C452.374 243.15 450.318 242.765 450.358 245.139C450.401 247.622 452.065 248.615 454.463 248.435C452.771 250.778 451.076 253.117 449.384 255.457C448.66 253.389 449.521 251.477 450.874 248.508C444.747 252.818 443.033 245.579 438.806 245.45C438.68 247.363 439.859 248.114 440.724 249.03C442.447 250.851 442.071 251.703 439.572 251.786C438.668 251.816 437.202 251.498 437.459 253.087C437.642 254.223 438.897 254.266 439.933 254.382C443.067 254.727 446.192 255.136 449.319 255.521C447.481 263.216 443.516 266.731 436.774 266.643C430.558 266.563 427.446 263.139 428.231 257.033C428.5 254.935 428.652 252.739 429.926 250.891C431.487 250.112 432.538 248.835 433.365 247.347L433.384 247.332C436.906 245.423 439.569 242.545 442.153 239.576H442.156C446.075 237.133 449.206 233.871 451.916 230.171H451.894C452.191 229.869 452.487 229.567 452.783 229.264V229.289C457.46 225.486 461.577 221.17 464.818 216.059L464.812 216.065C466.452 214.978 467.855 213.698 468.343 211.685C468.511 211.591 468.588 211.447 468.572 211.258C468.844 210.888 469.116 210.518 469.385 210.146L469.391 210.173C472.168 208.429 473.677 205.686 475.115 202.888L475.146 202.833C477.99 199.748 480.616 196.507 482.434 192.686L482.4 192.713C482.669 192.377 482.935 192.041 483.204 191.702C487.847 185.303 492.373 178.815 497.178 172.541C499.753 169.178 502.029 165.372 506.272 163.661L506.284 163.664Z" fill="#E39217"/>
<path d="M253.082 410.058C225.286 413.827 198.134 420.046 172.533 431.858C158.986 438.111 145.592 444.7 132.161 451.206C130.096 452.205 127.927 453.164 126.461 455.085C125.997 451.924 128.474 450.25 130.105 448.267C148.619 425.722 172.851 412.495 200.681 405.17C212.294 402.113 224.079 400.118 236.083 399.529C244.746 399.104 249.398 402.033 253.085 410.058H253.082Z" fill="#F8F8F3"/>
<path d="M245.876 361.273C239.868 357.379 232.812 356.813 226.104 355.323C207.905 351.279 189.471 349.855 170.89 351.877C153.882 353.728 137.219 357.36 120.859 362.364C119.631 362.739 118.504 363.445 117.322 363.995C114.976 362.99 111.601 362.327 111.433 359.709C111.298 357.617 114.6 356.694 116.546 355.589C144.941 339.436 175.197 332.765 207.716 338.007C218.349 339.72 228.752 342.307 237.62 348.792C241.798 351.847 245.907 355.283 245.873 361.276L245.876 361.273Z" fill="#F8F8F3"/>
<path d="M610.28 363.576C584.414 355.653 558.111 350.069 530.913 351.236C513.985 351.963 497.237 354.553 481.463 361.389C481.393 354.913 485.626 351.077 490.324 347.9C498.877 342.112 508.725 339.638 518.765 338.013C551.874 332.658 582.563 339.662 611.279 356.419C612.84 357.33 615.436 358.209 615.228 359.987C614.975 362.177 612.357 362.907 610.28 363.579V363.576Z" fill="#F8F8F3"/>
<path d="M600.487 453.964C586.839 447.317 573.262 440.53 559.529 434.06C536.238 423.088 511.896 415.504 486.347 411.924C482.346 411.365 478.387 410.491 474.41 409.761C477.116 402.519 481.784 398.969 490.599 399.574C531.723 402.4 568.188 415.788 596.189 447.583C597.879 449.501 599.873 451.288 600.484 453.964H600.487Z" fill="#F8F8F3"/>
<path d="M470.875 304.849C474.892 295.252 482.324 288.538 490.369 282.551C506.158 270.797 524.388 264.905 543.503 261.432C559.497 258.524 575.473 259.016 591.378 262.232C593.207 262.602 594.973 263.271 596.803 263.64C600.492 264.385 601.357 266.145 599.005 269.224C598.504 269.444 598.003 269.661 597.502 269.881C596.225 268.857 594.722 269.163 593.32 269.309C577.938 270.913 562.527 272.3 547.371 275.571C528.032 279.744 509.604 286.562 491.866 295.191C484.889 298.584 477.256 300.833 471.257 306.105C471.129 305.686 471 305.271 470.872 304.852L470.875 304.849Z" fill="#F8F8F3"/>
<path d="M256.32 305.836C247.215 299.055 236.472 295.53 226.297 290.902C221.223 288.596 216.232 285.935 210.688 284.769C209.799 283.678 208.44 283.553 207.24 283.122C188.94 276.561 170.023 272.77 150.712 271.008C143.576 270.357 136.462 269.056 129.241 269.557C127.787 268.79 125.964 267.629 126.257 266.163C126.7 263.952 129.348 263.741 131.16 263.292C144.016 260.097 157.139 258.704 170.316 259.764C191.466 261.462 211.543 267.144 229.779 278.29C238.091 283.37 245.693 289.43 251.787 297.155C253.834 299.748 256.177 302.228 256.317 305.836H256.32Z" fill="#F8F8F3"/>
<path d="M468.585 211.258C468.6 211.45 468.524 211.594 468.356 211.685C465.811 212.043 464.727 213.576 464.824 216.065L464.831 216.059C459.302 219.089 455.508 223.699 452.793 229.289V229.264C452.24 229.316 451.943 229.619 451.904 230.171C451.904 230.171 451.925 230.171 451.922 230.171C447.618 232.215 443.287 234.231 442.163 239.573H442.16C438.079 240.85 435.644 243.99 433.39 247.329L433.372 247.344C432.779 247.066 432.183 246.788 431.591 246.51C434.132 237.081 438.632 228.522 443.72 220.305C458.682 196.156 478.384 176.601 502.087 161.031C503.236 160.277 504.494 158.615 505.811 159.321C507.481 160.219 506.363 162.152 506.284 163.658C502.041 165.369 499.766 169.175 497.191 172.538C492.386 178.812 487.859 185.3 483.216 191.699C482.947 192.035 482.681 192.371 482.413 192.71L482.446 192.683C479.404 195.624 475.467 197.924 475.158 202.83L475.128 202.885C471.004 203.572 470.152 206.832 469.403 210.17L469.397 210.143C468.756 210.243 468.505 210.628 468.585 211.255V211.258Z" fill="#F8F8F3"/>
<path d="M454.466 248.438C452.068 248.618 450.404 247.625 450.361 245.142C450.321 242.768 452.377 243.153 453.907 243.049C455.99 242.906 456.559 241.91 455.34 240.236C454.231 238.712 454.466 237.246 455.884 236.543C457.948 235.523 457.328 238.153 458.129 238.633C460.453 240.025 462.237 242.313 465.023 242.933C465.735 243.092 466.541 243.101 466.923 242.347C467.225 241.748 466.779 240.994 466.284 240.942C463.383 240.633 462.411 238.801 461.574 236.238C460.887 234.139 458.159 233.214 457.255 230.941C461.214 230.437 461.348 230.404 460.331 226.353C459.934 224.774 460.814 224.389 461.626 223.57C462.604 222.584 463.383 222.758 464.201 223.577C466.95 226.32 469.644 222.349 472.638 223.457C473.511 223.781 472.406 221.781 471.886 220.931C471.523 220.342 470.796 219.765 471.581 219.083C472.268 218.488 472.913 218.909 473.432 219.493C473.527 219.6 473.628 219.719 473.676 219.853C474.773 222.978 482.898 221.099 479.471 226.491C477.476 229.628 477.983 233.137 475.918 235.88C475.378 236.598 473.939 237.374 475.188 238.318C476.312 239.167 476.893 237.869 477.412 237.011C480.073 232.612 482.69 228.256 484.099 223.18C485.485 218.188 488.399 221.377 490.791 222.495C490.883 222.785 490.791 222.999 490.525 223.137C484.163 225.941 480.461 237.322 483.711 244.207C484.874 246.675 485.989 249.128 489.026 250.06C492.193 251.031 493.052 254.672 490.663 257.033C489.38 258.301 488.106 259.37 488.354 261.365L488.344 261.371C485.046 261.197 482.767 262.321 482.483 265.983L482.525 265.907C481.74 265.907 481.453 266.408 481.353 267.089C478.753 269.248 476.151 271.405 473.551 273.565C472.106 273.595 471.181 274.261 470.897 275.721C470.622 275.877 470.35 276.036 470.075 276.191C464.036 276.045 463.673 275.73 463.78 270.785C463.78 270.785 463.74 270.849 463.743 270.849C464.592 270.595 464.785 269.951 464.745 269.169L464.772 269.126C466.956 269.261 467.014 267.382 467.861 266.102C468.624 264.948 468.639 263.075 470.161 262.678C471.886 262.226 471.214 265.268 473.515 265.097C473.515 261.331 473.539 257.607 473.499 253.884C473.487 252.809 473.16 251.492 471.77 252.47C469.315 254.196 468.942 252.158 468.716 250.765C467.909 245.838 464.198 245.313 460.328 244.83C457.362 244.461 455.166 245.215 454.445 248.441H454.479L454.466 248.438ZM475.631 267.798C472.198 267.165 470.823 269.23 468.997 270.067C468.352 270.363 468.193 271.335 468.664 271.982C469.305 272.868 470.216 272.673 470.93 272.068C472.32 270.892 473.637 269.624 475.634 267.801L475.631 267.798ZM476.065 224.044C475.772 224.612 475.436 224.969 475.479 225.272C475.521 225.568 475.949 225.809 476.209 226.072C476.419 225.761 476.792 225.452 476.798 225.137C476.804 224.844 476.419 224.542 476.065 224.047V224.044Z" fill="#E9920F"/>
<path d="M516.834 244.613C513.025 244.684 511.058 242.35 511.635 238.669C512.155 235.361 514.122 232.774 516.388 230.538C524.813 222.23 534.276 215.378 545.171 210.613C545.569 210.439 545.96 210.213 546.375 210.127C548.312 209.718 550.499 208.2 552.163 209.681C553.914 211.242 552.475 213.512 551.995 215.396C550.102 222.844 547.139 229.933 544.484 237.124C543.983 238.48 543.272 240.025 541.68 240.196C533.201 241.11 524.944 243.26 516.834 244.607V244.613Z" fill="#E39217"/>
<path d="M363.761 110.909C363.911 129.258 363.007 147.57 361.971 165.879C361.849 168.054 361.629 170.177 361.073 172.284C359.088 179.783 353.15 181.732 346.98 176.882C346.418 176.439 345.804 176.06 345.214 175.654C343.39 169.651 345.48 163.863 346.506 158.12C349.157 143.287 354.405 129.221 360.359 115.427C361.082 113.75 361.29 111.386 363.764 110.906L363.761 110.909Z" fill="#F8F8F3"/>
<path d="M210.914 474.992C214.772 474.967 216.941 479.265 214.836 483.627C213.086 487.249 210.028 489.779 207.108 492.335C198.873 499.544 189.718 505.296 179.394 509.068C177.775 509.661 175.927 510.611 174.464 509.371C172.998 508.127 174.268 506.368 174.644 504.914C176.608 497.336 179.467 490.069 182.415 482.833C182.888 481.669 183.435 480.639 184.636 480.389C193.259 478.575 201.897 476.833 210.914 474.992Z" fill="#E69414"/>
<path d="M210.551 244.513C202.037 243.01 193.634 241.534 185.234 240.035C183.808 239.778 183.081 238.8 182.583 237.46C179.562 229.31 176.685 221.127 174.491 212.699C173.535 209.028 174.76 208.444 177.864 209.574C191.948 214.7 203.693 223.189 213.275 234.628C214.977 236.659 216.397 239.298 214.906 242.261C213.981 244.106 212.154 244.152 210.551 244.513Z" fill="#E39217"/>
<path d="M516.169 474.998C516.563 475.074 517.275 475.193 517.974 475.355C525.434 477.075 532.835 479.109 540.474 479.894C542.496 480.102 543.52 481.101 544.271 482.86C547.393 490.182 550.273 497.595 552.583 505.213C552.98 506.524 553.771 508.207 552.35 509.239C551.153 510.107 549.614 509.645 548.202 509.123C536.1 504.636 525.333 498.032 516.163 488.917C514 486.77 512.107 484.375 511.554 481.229C510.989 478 513.005 475.092 516.169 475.001V474.998Z" fill="#E39217"/>
<path d="M324.229 147.402C316.495 142.518 309.855 136.005 301.021 131.155C302.062 137.511 303.043 142.869 303.797 148.257C305.071 157.351 301.968 161.227 292.914 162.103C287.303 152.051 290.525 141.778 292.621 131.753C295.165 119.572 298.767 118.28 309.726 124.612C312.723 126.344 315.478 128.494 318.371 130.412C324.663 134.588 328.029 139.753 324.229 147.399V147.402Z" fill="#F8F8F3"/>
<path d="M597.502 269.875C598.003 269.655 598.504 269.438 599.005 269.218C602.28 270.48 600.273 271.518 598.92 272.725C597.371 274.105 594.304 274.93 596.702 278.027C597.09 278.531 596.772 279.518 596.29 279.396C591.179 278.092 591.054 283.794 587.944 285.303C587.218 285.658 586.768 286.476 585.764 286.107C585.076 285.853 584.193 285.612 583.778 286.324C578.784 294.876 568.038 295.173 561.706 301.764C557.961 305.665 551.4 305.58 548.733 311.221C548.113 312.535 545.617 312.318 544.093 311.007C544.154 310.888 544.218 310.772 544.28 310.653C544.215 310.769 544.151 310.885 544.084 310.998C541.304 316.435 536.243 315.04 531.569 315.595C527.812 316.041 524.031 317.395 520.637 319.514C517.121 321.711 512.851 321.702 508.99 321.979C504.485 322.303 500.159 323.269 495.862 324.234C489.499 325.657 483.671 324.283 477.73 322.386C475.778 321.763 475.249 320.654 475.191 318.925L475.475 318.635C478.42 320.635 481.603 321.607 485.229 321.637C493.381 321.714 501.476 320.975 509.436 319.459C538.149 313.998 563.374 301.291 585.293 282.026C589.603 278.238 594.304 274.796 597.502 269.869V269.875Z" fill="#2C291A"/>
<path d="M433.148 127.587C428.704 129.148 425.295 132.355 421.568 135.019C415.468 139.378 409.555 143.996 403.561 148.505C403.406 148.266 403.219 148.04 403.103 147.784C399.704 140.358 402.874 135.41 408.971 131.198C413.62 127.987 418.013 124.386 423.199 122.064C429.147 119.401 432.064 121.099 433.148 127.587Z" fill="#F8F8F3"/>
<path d="M220.723 161.12C221.013 160.213 220.023 157.79 222.494 159.336C233.259 166.071 243.522 173.457 252.108 182.936C249.677 186.625 252.817 189.512 254.579 191.281C256.574 193.284 249.167 198.459 256.938 197.396C257.057 197.381 257.497 198.175 257.414 198.496C256.861 200.673 260.072 201.523 259.54 202.815C258.443 205.481 256.544 201.483 254.802 202.83C254.246 203.261 253.116 202.946 252.249 202.974C251.992 200.084 251.216 197.564 247.875 196.892C247.82 195.291 248.003 193.758 248.797 192.313C249.176 191.623 249.646 190.059 248.641 190.273C243.589 191.345 243.607 186.048 240.855 184.512C238.073 182.96 238.512 177.783 233.897 178.623L233.906 178.632C234.205 176.701 231.905 174.041 235.635 173.027C236.435 172.81 235.699 171.71 235.238 171.273C234.664 170.73 233.701 170.702 233.43 171.493C232.739 173.497 231.197 173.408 229.599 173.366L229.584 173.344C229.611 172.037 229.572 170.781 227.751 170.818L227.766 170.83C227.302 166.227 222.974 164.425 220.726 161.117L220.723 161.12Z" fill="#FAFBFC"/>
<path d="M362.277 484.907C363.309 493.518 363.438 502.141 360.569 510.409C358.08 517.591 353.51 518.809 346.711 514.731C347.12 506.102 349.909 498.234 354.25 490.851C356.091 487.72 358.679 485.643 362.277 484.91V484.907Z" fill="#F8F8F3"/>
<path d="M264.225 447.1C260.636 445.072 257.096 445.084 253.613 447.363C248.045 451.01 242.351 454.477 236.942 458.347C231.245 462.425 231.471 466.805 237.226 470.633C244.966 475.783 246.777 482.228 241.581 489.873C230.444 506.261 223.966 524.259 221.351 543.793C220.676 548.842 220.716 553.891 220.746 558.955C220.765 562.27 222.356 562.154 224.604 560.806C227.207 559.249 229.831 557.724 232.439 556.185C231.422 559.16 225.117 563.934 222.399 563.568C220.175 563.268 219.03 561.601 218.217 559.615C216.568 555.595 216.891 551.279 218.55 547.76C220.728 543.139 219.14 537.964 221.635 533.563C222.084 532.772 221.879 531.55 221.055 530.734C219.173 528.868 220.426 526.913 221.598 525.786C224.161 523.321 225.108 520.437 225.243 517.077C225.389 513.403 227.958 510.452 229.47 507.593C231.941 502.929 232.848 497.504 236.373 493.331C238.383 490.952 240.537 488.63 241.413 485.356C242.29 482.084 240.952 476.446 238.194 474.405C228.242 467.041 228.783 460.369 239.465 454.444C244.224 451.801 248.457 448.234 253.076 445.32C256.756 442.995 262.572 444.089 264.219 447.11L264.225 447.1Z" fill="#2C291A"/>
<path d="M282.849 220.302C280.066 220.867 277.421 221.417 274.889 223.125C270.399 226.155 260.526 220.314 260.511 214.917C263.789 217.208 265.902 221.154 270.249 221.897C271.596 222.129 273.276 222.831 274.22 221.249C275.112 219.752 273.652 218.873 272.796 217.987C267.42 212.4 263.11 206.031 259.821 199.073C257.692 194.57 254.185 190.569 254.103 185.208C263.382 192.811 270.625 202.207 277.476 211.923C279.385 214.63 281.63 217.144 282.846 220.302H282.849Z" fill="#D7972B"/>
<path d="M254.105 185.208C254.188 190.572 257.694 194.57 259.823 199.073C263.113 206.031 267.423 212.4 272.799 217.987C273.654 218.876 275.114 219.755 274.223 221.249C273.279 222.831 271.599 222.126 270.252 221.896C265.905 221.151 263.791 217.208 260.514 214.917C260.514 214.917 260.367 214.984 260.364 214.984C259.435 212.519 257.49 210.811 255.822 208.896C254.631 206.923 253.439 204.947 252.248 202.973C253.116 202.946 254.246 203.258 254.802 202.83C256.546 201.486 258.443 205.484 259.539 202.815C260.071 201.523 256.86 200.673 257.413 198.495C257.496 198.175 257.056 197.378 256.937 197.396C249.166 198.459 256.573 193.284 254.579 191.281C252.816 189.512 249.676 186.622 252.108 182.936C252.465 183.293 252.822 183.65 253.18 184.008C253.112 184.533 253.369 184.808 253.87 184.894L254.102 185.208H254.105Z" fill="#FAF2DB"/>
<path d="M258.959 533.933C267.799 524.02 276.85 514.304 283.921 502.938C289.511 493.948 294.337 484.623 298.161 474.76C299.957 470.132 300.086 465.785 296.521 461.872C300.513 462.407 302.541 464.066 301.152 468.568C300.416 470.954 301.543 473.739 299.695 476.061C298.919 477.035 299.572 477.967 300.782 478.33C301.848 478.651 302.545 479.332 302.67 480.465C302.789 481.531 302.642 482.649 301.515 483.019C300.278 483.425 300.306 482.176 299.945 481.461C299.631 480.841 299.246 480.258 298.864 479.607C296.023 481.168 296.484 483.499 296.991 485.787C297.297 487.167 298.491 489.033 295.449 487.72C294.768 487.427 294.459 488.065 294.236 488.609C290.458 497.76 285.192 506.054 279.073 513.754C274.018 520.117 268.483 526.098 263.162 532.253C262.047 533.542 260.731 534.299 258.959 533.933Z" fill="#2C291A"/>
<path d="M296.53 461.881C288.689 458.304 283.395 459.951 278.933 467.3C277.732 469.28 276.464 471.222 275.133 473.116C272.863 476.342 269.57 477.286 265.917 476.543C262.111 475.774 260.092 473.003 259.197 469.356C257.841 463.815 259.554 459.086 263.11 454.871C265.101 452.513 266.421 450.085 264.252 447.125C267.796 448.527 268.403 452.211 265.276 455.085C263.611 456.615 262.783 457.541 264.032 459.978C264.652 461.191 266.546 465.321 261.512 464.524C260.428 464.353 259.906 465.437 260.181 466.286C261.244 469.582 262.45 473.195 265.905 474.408C268.742 475.404 271.272 473.855 273.279 471.253C275.918 467.832 278.526 464.401 281.046 460.889C284.11 456.612 294.022 457.364 296.527 461.875L296.53 461.881Z" fill="#2C291A"/>
<path d="M129.241 269.557C136.462 269.056 143.576 270.357 150.712 271.008C170.026 272.77 188.94 276.561 207.239 283.122C208.44 283.553 209.799 283.678 210.688 284.769C205.807 285.991 201.665 283.409 197.34 282.02C190.672 279.878 183.842 278.434 177.103 276.677C165.258 273.589 153.024 274.328 141.258 271.509C140.03 271.216 139.013 271.533 137.883 271.683C135.903 271.946 135.216 272.547 136.636 274.392C137.614 275.66 138.316 277.114 138.063 278.825C134.77 276.069 131.187 273.592 129.244 269.557H129.241Z" fill="#D7972B"/>
<path d="M454.433 248.431C455.154 245.206 457.353 244.451 460.316 244.821C464.186 245.304 467.894 245.829 468.704 250.756C468.933 252.149 469.305 254.186 471.758 252.46C473.151 251.483 473.475 252.8 473.487 253.875C473.527 257.598 473.502 261.322 473.502 265.088C471.202 265.259 471.874 262.214 470.148 262.669C468.63 263.066 468.612 264.938 467.848 266.093C467.002 267.373 466.947 269.254 464.76 269.117C465.842 266.447 467.253 263.86 467.928 261.093C468.969 256.828 468.42 252.68 464.98 249.482C461.779 246.504 458.126 246.999 454.43 248.428L454.433 248.431Z" fill="#E39217"/>
<path d="M488.348 261.358C488.101 259.364 489.374 258.298 490.657 257.027C493.043 254.669 492.188 251.025 489.02 250.054C485.987 249.122 484.872 246.669 483.705 244.201C480.455 237.316 484.157 225.935 490.52 223.131C489.72 225.822 487.905 227.929 486.421 230.223C482.431 236.39 483.302 241.137 489.353 245.411C492.597 247.702 496.012 249.824 494.72 254.693C493.822 258.075 491.054 259.694 488.351 261.358H488.348Z" fill="#E39217"/>
<path d="M409.381 489.382C406.87 488.511 404.89 485.417 401.601 487.836C399.847 489.125 399.059 490.457 399.725 492.586C402.829 502.48 404.692 512.624 405.517 522.945C405.902 527.774 407.514 532.601 405.847 537.482C404.521 522.557 403.116 507.651 398.158 493.353C397.15 490.448 396.179 487.479 400.437 485.93C405.147 484.216 407.108 484.84 409.381 489.379V489.382Z" fill="#D7972B"/>
<path d="M232.696 556.026C241.448 549.193 249.942 542.048 258.235 534.666C258.437 535.967 257.359 536.706 256.937 537.714C255.599 540.912 250.578 541.902 251.754 546.716C251.961 547.571 250.343 549.34 248.724 549.254C247.63 549.196 248 547.91 247.881 547.11C248.436 547.027 249.069 547.021 249.173 546.291C249.194 546.148 248.84 545.793 248.696 545.815C247.966 545.919 247.963 546.554 247.877 547.107C244.307 549.66 240.684 552.15 237.187 554.801C235.788 555.861 234.685 557.385 232.696 556.029V556.026Z" fill="#2C291A"/>
<path d="M405.939 540.1C408.7 540.185 408.438 542.134 407.931 543.783C407.222 546.09 407.307 548.219 407.97 550.522C409.43 555.598 406.006 560.131 406.101 565.199C406.15 567.939 405.762 570.884 405.469 573.724C403.96 572.875 403.721 571.504 404.005 569.979C405.866 560.098 405.789 550.091 405.939 540.1Z" fill="#D7972B"/>
<path d="M141.307 281.955C143.989 278.284 146.872 280.507 149.355 282.001C151.616 283.36 153.696 285.334 151.521 288.48C151.222 288.911 151.261 289.576 151.145 290.135C147.4 287.97 144.224 285.12 141.307 281.955Z" fill="#D7972B"/>
<path d="M436.982 555.809C438.504 554.236 440.15 555.094 441.793 555.54C444.378 556.24 446.644 555.855 448.3 553.521C449.824 551.374 449.185 549.037 447.096 548.552C443.324 547.678 443.87 545.225 443.941 542.687C445.715 544.529 447.637 546.254 449.225 548.246C451.003 550.473 451.247 553.081 449.378 555.366C447.692 557.425 445.431 558.106 442.841 556.826C440.999 555.916 439.011 555.727 436.985 555.809H436.982Z" fill="#D7972B"/>
<path d="M470.875 304.849C471.003 305.268 471.132 305.683 471.257 306.099C471.08 310.809 473.142 314.771 475.472 318.641L475.188 318.931C473.117 318.335 472.439 320.586 470.518 321.219C473.224 316.897 470.719 313.265 469.699 309.462C469.238 307.748 468.123 305.781 470.875 304.849Z" fill="#2C291A"/>
<path d="M412.598 582.784C413.823 582.931 415.13 582.518 415.997 584.033C417.598 586.822 420.026 588.814 422.919 590.191C424.269 590.833 424.874 591.822 424.755 593.289C420.149 590.43 415.936 587.112 412.598 582.787V582.784Z" fill="#D7972B"/>
<path d="M421.315 512.221C416.992 509.145 414.848 504.877 414.433 499.657C417.105 503.637 419.305 507.877 421.315 512.221Z" fill="#D7972B"/>
<path d="M463.774 270.779C463.67 275.727 464.034 276.039 470.069 276.185C468.823 277.945 467.024 278.223 465.097 277.899C463.413 277.618 462.143 276.515 461.602 274.991C460.896 273.006 462.347 271.83 463.774 270.779Z" fill="#E39217"/>
<path d="M220.722 161.12C222.97 164.428 227.299 166.233 227.763 170.833C225.002 169.34 223.856 166.059 220.982 164.694C220.801 163.509 219.647 162.394 220.722 161.12Z" fill="#FAF2DB"/>
<path d="M435.214 588.075C435.739 582.812 435.199 577.414 437.239 572.347C437.45 577.704 437.108 582.989 435.214 588.075Z" fill="#D7972B"/>
<path d="M405.551 574.03C410.24 575.056 411.321 578.981 412.579 582.766C409.525 580.426 407.472 577.28 405.551 574.03Z" fill="#D7972B"/>
<path d="M437.16 568.037C434.242 564.319 433.644 559.472 435.754 556.677C434.951 559.105 435.632 561.369 436.484 563.629C437.016 565.04 437.954 566.412 437.16 568.034V568.037Z" fill="#D7972B"/>
<path d="M294.798 243.089C290.693 241.427 290.341 237.997 290.644 234.261C292.761 236.858 293.873 239.931 294.798 243.089Z" fill="#D7972B"/>
<path d="M414.21 499.217C410.862 496.792 410.313 492.98 409.332 489.378C411.553 492.363 412.863 495.799 414.21 499.217Z" fill="#D7972B"/>
<path d="M426.02 519.683C423.038 518.076 420.989 515.88 421.297 512.196C423.326 514.405 424.81 516.958 426.02 519.683Z" fill="#D7972B"/>
<path d="M288.341 229.594C286.756 230.089 285.568 230.003 285.354 227.917C285.183 226.246 284.813 224.594 284.529 222.932C286.457 224.777 287.443 227.16 288.338 229.594H288.341Z" fill="#D7972B"/>
<path d="M425.079 593.429C427.874 593.695 430.477 596.163 433.467 594.156C431.326 597.758 429.765 597.62 425.079 593.429Z" fill="#D7972B"/>
<path d="M482.477 265.977C482.758 262.315 485.036 261.19 488.338 261.365C486.622 263.203 484.679 264.755 482.477 265.977Z" fill="#E39217"/>
<path d="M439.55 537.528C437.262 535.405 433.56 534.476 433.566 530.423C436.031 532.396 437.852 534.91 439.55 537.528Z" fill="#D7972B"/>
<path d="M433.585 530.435C429.514 531.058 429.642 528.688 430.357 525.899C431.808 527.145 432.889 528.651 433.585 530.435Z" fill="#D7972B"/>
<path d="M278.16 462.373C277.879 463.387 277.082 463.458 276.196 463.332C275.533 463.238 275.185 462.795 275.356 462.184C275.557 461.457 276.147 461.045 276.923 461.038C277.757 461.032 278.184 461.475 278.16 462.373Z" fill="#2C291A"/>
<path d="M431.59 246.516C432.183 246.794 432.775 247.072 433.371 247.35C432.54 248.841 431.493 250.115 429.932 250.894C429.956 249.235 430.585 247.802 431.59 246.516Z" fill="#FCEEBD"/>
<path d="M429.245 524.329C426.502 523.987 426.438 521.735 425.995 519.756C427.577 520.926 428.399 522.637 429.245 524.329Z" fill="#D7972B"/>
<path d="M443.965 542.714C441.683 542.183 440.95 540.371 440.406 538.404C441.888 539.596 443.134 540.982 443.965 542.714Z" fill="#D7972B"/>
<path d="M433.463 594.175C433.295 591.923 433.76 589.852 435.217 588.065C435.314 590.298 434.988 592.409 433.463 594.175Z" fill="#D7972B"/>
<path d="M151.146 290.136C153.03 290.032 154.897 289.955 154.661 292.729C153.351 292.051 151.909 291.553 151.146 290.136Z" fill="#D7972B"/>
<path d="M290.674 234.28C288.185 234.054 288.952 232.206 288.918 230.758C289.957 231.705 290.488 232.908 290.674 234.28Z" fill="#D7972B"/>
<path d="M284.568 222.963C282.696 222.92 282.674 221.671 282.833 220.305C283.89 220.879 284.403 221.808 284.568 222.963Z" fill="#D7972B"/>
<path d="M470.891 275.715C471.172 274.255 472.1 273.589 473.545 273.558C472.907 274.579 472.106 275.403 470.891 275.715Z" fill="#E39217"/>
<path d="M154.652 292.717C155.926 292.707 157.197 292.701 157.276 294.476C156.155 294.256 155.187 293.81 154.652 292.717Z" fill="#D7972B"/>
<path d="M138.951 279.689C140.35 279.695 141.38 280.092 141.178 281.794C140.115 281.427 139.397 280.703 138.951 279.689Z" fill="#D7972B"/>
<path d="M600.053 275.819C599.823 275.718 599.466 275.669 599.402 275.504C599.338 275.339 599.564 275.061 599.662 274.832C599.891 274.933 600.248 274.982 600.312 275.144C600.376 275.309 600.15 275.59 600.053 275.819Z" fill="#2C291A"/>
<path d="M245.622 551.689C245.723 551.456 245.775 551.102 245.943 551.035C246.105 550.971 246.389 551.2 246.618 551.301C246.517 551.53 246.465 551.89 246.3 551.957C246.135 552.021 245.854 551.792 245.622 551.689Z" fill="#2C291A"/>
<path d="M295.84 245.631C294.85 245.111 294.911 244.161 294.868 243.254C295.684 243.847 295.882 244.69 295.84 245.631Z" fill="#D7972B"/>
<path d="M430.341 525.884C429.269 525.862 429.147 525.163 429.224 524.32C429.954 524.586 430.21 525.19 430.341 525.884Z" fill="#D7972B"/>
<path d="M464.736 269.16C464.776 269.942 464.584 270.586 463.734 270.84C463.762 270.098 463.942 269.447 464.736 269.16Z" fill="#E39217"/>
<path d="M481.344 267.083C481.445 266.402 481.732 265.904 482.517 265.901C482.382 266.551 482.019 266.97 481.344 267.083Z" fill="#E39217"/>
<path d="M157.254 294.464C158.066 294.455 158.72 294.684 158.937 295.576C158.375 295.206 157.816 294.837 157.254 294.464Z" fill="#D7972B"/>
<path d="M288.952 230.807C288.426 230.611 288.176 230.254 288.295 229.68C288.515 230.052 288.735 230.431 288.952 230.807Z" fill="#D7972B"/>
<path d="M253.87 184.894C253.369 184.808 253.109 184.533 253.179 184.008C253.735 184.051 253.909 184.39 253.87 184.894Z" fill="#D7972B"/>
<path d="M138.057 278.809C138.356 279.102 138.652 279.393 138.952 279.686C138.377 279.677 138.118 279.344 138.057 278.809Z" fill="#D7972B"/>
<path d="M364.426 433.049C333.129 433.489 307.404 412.721 300.58 384.277C300.345 383.294 300.14 382.298 300.024 381.296C299.422 376.125 299.59 371.146 291.645 371.054C286.776 370.999 284.055 365.437 284.678 360.635C285.322 355.69 288.933 352.14 294.611 352.204C298.533 352.25 299.816 350.811 301.001 347.341C309.701 321.821 327.103 306.404 354.056 302.125C389.804 296.449 420.084 319.224 427.57 350.882C428.242 353.729 429.11 354.798 432.39 354.41C437.458 353.811 441.569 357.507 442.153 362.248C442.715 366.796 439.101 372.477 434.379 372.725C429.119 373 428.071 375.584 427.369 380.05C422.469 411.188 396.084 433.291 364.423 433.052L364.426 433.049ZM407.355 367.822C408.852 344.348 388.869 322.077 362.798 322.752C340.97 323.317 320.05 341.55 319.906 366.765C319.781 388.63 337.207 411.475 364.604 411.102C390.082 410.754 408.18 389.577 407.355 367.822Z" fill="#1B4054"/>
<path d="M233.896 178.626C238.512 177.786 238.072 182.96 240.855 184.515C243.607 186.051 243.589 191.348 248.641 190.276C249.649 190.062 249.178 191.623 248.797 192.316C248.002 193.761 247.819 195.298 247.874 196.895C242.749 191.162 238.487 184.768 233.896 178.626Z" fill="#FAF2DB"/>
<path d="M229.596 173.369C231.193 173.411 232.736 173.497 233.426 171.496C233.698 170.705 234.66 170.733 235.234 171.276C235.696 171.713 236.432 172.813 235.632 173.03C231.902 174.044 234.205 176.704 233.903 178.635C232.085 177.193 230.637 175.446 229.596 173.372V173.369Z" fill="#FAF2DB"/>
<path d="M255.819 208.896C257.487 210.811 259.433 212.519 260.361 214.984C256.619 214.617 255.071 212.614 255.819 208.896Z" fill="#D7972B"/>
<path d="M247.871 196.892C251.213 197.564 251.989 200.084 252.245 202.973C250.159 201.397 248.87 199.25 247.871 196.892Z" fill="#FAF2DB"/>
<path d="M227.748 170.821C229.569 170.788 229.608 172.043 229.581 173.347C228.506 172.84 227.907 171.991 227.748 170.821Z" fill="#FAF2DB"/>
<path d="M198.002 285.242C198.232 285.343 198.583 285.392 198.65 285.557C198.714 285.716 198.534 286.125 198.372 286.183C198.204 286.244 197.929 286.021 197.703 285.92C197.804 285.694 197.902 285.468 198.002 285.239V285.242Z" fill="#D7972B"/>
<path d="M449.325 255.524C446.197 255.139 443.069 254.73 439.938 254.385C438.903 254.272 437.648 254.226 437.464 253.09C437.208 251.501 438.674 251.819 439.578 251.789C442.074 251.706 442.449 250.854 440.73 249.033C439.865 248.117 438.683 247.366 438.811 245.453C443.036 245.582 444.752 252.818 450.88 248.511C449.527 251.48 448.665 253.395 449.389 255.46L449.328 255.524H449.325Z" fill="#E9920F"/>
<path d="M452.789 229.292C455.502 223.699 459.295 219.093 464.827 216.062C461.583 221.173 457.469 225.489 452.789 229.292Z" fill="#FCEEBD"/>
<path d="M442.163 239.573C443.287 234.231 447.619 232.215 451.922 230.171C449.213 233.867 446.082 237.13 442.163 239.573Z" fill="#FCEEBD"/>
<path d="M433.39 247.335C435.644 243.993 438.078 240.856 442.159 239.579C439.575 242.548 436.912 245.429 433.39 247.335Z" fill="#FCEEBD"/>
<path d="M475.157 202.833C475.466 197.927 479.406 195.63 482.445 192.686C480.628 196.507 477.998 199.748 475.157 202.833Z" fill="#FCEEBD"/>
<path d="M469.403 210.173C470.152 206.834 471.004 203.575 475.128 202.888C473.689 205.683 472.183 208.429 469.403 210.173Z" fill="#FCEEBD"/>
<path d="M464.821 216.068C464.724 213.579 465.808 212.046 468.353 211.688C467.861 213.701 466.462 214.981 464.821 216.068Z" fill="#FCEEBD"/>
<path d="M451.903 230.175C451.94 229.622 452.239 229.319 452.792 229.267C452.496 229.57 452.2 229.872 451.903 230.175Z" fill="#FCEEBD"/>
<path d="M482.412 192.713C482.678 192.377 482.947 192.041 483.215 191.702C482.95 192.038 482.681 192.374 482.412 192.713Z" fill="#FCEEBD"/>
<path d="M468.585 211.258C468.505 210.631 468.756 210.247 469.397 210.146C469.128 210.515 468.856 210.888 468.585 211.258Z" fill="#FCEEBD"/>
<path d="M475.476 318.638C473.145 314.767 471.083 310.806 471.261 306.096C477.26 300.826 484.893 298.578 491.87 295.185C509.605 286.556 528.033 279.738 547.374 275.565C562.531 272.294 577.941 270.907 593.324 269.303C594.726 269.157 596.229 268.851 597.506 269.875C594.308 274.802 589.607 278.244 585.297 282.032C563.377 301.294 538.153 314.004 509.44 319.465C501.479 320.98 493.385 321.72 485.232 321.643C481.606 321.61 478.421 320.641 475.479 318.641L475.476 318.638Z" fill="#E89212"/>
<path d="M475.632 267.794C473.634 269.618 472.32 270.886 470.928 272.062C470.216 272.666 469.303 272.862 468.661 271.976C468.194 271.329 468.349 270.357 468.994 270.061C470.824 269.224 472.195 267.159 475.629 267.791L475.632 267.794Z" fill="#E39217"/>
<path d="M476.065 224.041C476.419 224.539 476.804 224.838 476.798 225.131C476.792 225.446 476.419 225.755 476.208 226.066C475.949 225.8 475.521 225.562 475.478 225.266C475.436 224.963 475.772 224.609 476.065 224.038V224.041Z" fill="#E39217"/>
<path d="M544.085 311.007C544.149 310.891 544.213 310.775 544.28 310.662C544.219 310.781 544.155 310.897 544.094 311.016L544.085 311.01V311.007Z" fill="#0D222D"/>
<path d="M247.88 547.104C247.965 546.548 247.968 545.912 248.699 545.811C248.842 545.79 249.196 546.147 249.175 546.288C249.071 547.018 248.439 547.024 247.883 547.107H247.88V547.104Z" fill="#0D222D"/>
<path d="M332.394 367.117C332.702 349.052 346.759 335.27 364.69 335.45C381.288 335.618 395.626 350.255 395.501 366.906C395.367 384.98 380.83 398.508 361.962 398.12C345.886 397.788 332.116 383.352 332.394 367.117ZM354.982 366.707C354.94 371.656 358.804 375.95 363.33 375.981C368.392 376.018 372.549 371.952 372.5 367.019C372.457 362.66 368.257 358.597 363.761 358.564C358.91 358.527 355.022 362.132 354.982 366.707Z" fill="#1B4155"/>
</g>
<defs>
<linearGradient id="paint0_linear_168_104" x1="363.622" y1="71.9917" x2="363.622" y2="654.992" gradientUnits="userSpaceOnUse">
<stop stop-color="#0D222D"/>
<stop offset="1" stop-color="#1D465C"/>
</linearGradient>
<clipPath id="clip0_168_104">
<rect width="575.226" height="583" fill="white" transform="translate(76 72)"/>
</clipPath>
</defs>
</svg>
