<svg width="648" height="423" viewBox="0 0 648 423" fill="none" xmlns="http://www.w3.org/2000/svg">
<rect x="0.5" y="0.5" width="298" height="421" rx="18.14" fill="#3C3C43" fill-opacity="0.29" stroke="#353535"/>
<rect x="354.123" y="133.239" width="164.794" height="75.8209" rx="10.8316" fill="#5D5D5D"/>
<rect x="492.469" y="79.4907" width="117.362" height="29.2027" rx="7.71392" fill="#363636" fill-opacity="0.8"/>
<rect x="470.107" y="220.688" width="164.794" height="41.0052" rx="10.8316" fill="#5D5D5D"/>
<rect x="468" y="377.693" width="179.025" height="44.546" rx="11.7669" fill="#B7B4B4"/>
<rect x="380.016" y="41" width="117.362" height="29.2027" rx="7.71392" fill="#363636" fill-opacity="0.8"/>
<rect x="493" width="104" height="25.8779" rx="6.83568" fill="#262626" fill-opacity="0.8"/>
<rect x="342" y="280.693" width="255" height="84" rx="11.77" fill="#B7B4B4"/>
<path d="M468 405H345.722C335.427 405 327.082 396.655 327.082 386.36V130.64C327.082 120.345 318.736 112 308.442 112H299" stroke="url(#paint0_linear_170_24)" stroke-width="2"/>
<circle cx="394.912" cy="404.912" r="14.9123" fill="#353535"/>
<rect x="29.5" y="133.5" width="241" height="267" rx="10.5" stroke="#4D4E4F"/>
<rect x="29" y="91" width="242" height="19" fill="#1A597D"/>
<rect x="29" y="33" width="242" height="19" fill="#4D4E4F"/>
<rect x="29" y="65" width="183" height="11" fill="#A7D910"/>
<path d="M389.5 51H482.5" stroke="#2FA2E3"/>
<path d="M504.5 90H597.5" stroke="#A7D910"/>
<path d="M504 9H586.5" stroke="#1A597D" stroke-width="0.887097"/>
<path d="M525 99H597" stroke="#A7D910"/>
<path d="M492 232H618" stroke="#A7D910"/>
<path d="M521 242H618" stroke="#A7D910"/>
<path d="M521 252H618" stroke="#A7D910"/>
<path d="M389 60H461" stroke="#2FA2E3"/>
<path d="M368 154H496" stroke="#2FA2E3"/>
<path d="M368 164H496" stroke="#2FA2E3"/>
<path d="M368 174H467" stroke="#2FA2E3"/>
<path d="M368 184H496" stroke="#2FA2E3"/>
<path d="M522.186 16.9839H586.057" stroke="#1A597D" stroke-width="0.887097"/>
<path d="M363.684 309V302.257H361.044V301.3H367.413V302.257H364.773V309H363.684ZM370.451 309.066C369.828 309.066 369.278 308.938 368.801 308.681C368.332 308.424 367.965 308.072 367.701 307.625C367.445 307.178 367.316 306.664 367.316 306.085C367.316 305.506 367.441 304.992 367.69 304.545C367.947 304.098 368.295 303.749 368.735 303.5C369.183 303.243 369.685 303.115 370.242 303.115C370.807 303.115 371.306 303.24 371.738 303.489C372.171 303.738 372.508 304.09 372.75 304.545C373 304.992 373.124 305.517 373.124 306.118C373.124 306.162 373.121 306.213 373.113 306.272C373.113 306.331 373.11 306.386 373.102 306.437H368.141V305.678H372.552L372.123 305.942C372.131 305.568 372.054 305.234 371.892 304.941C371.731 304.648 371.507 304.42 371.221 304.259C370.943 304.09 370.616 304.006 370.242 304.006C369.876 304.006 369.549 304.09 369.263 304.259C368.977 304.42 368.754 304.651 368.592 304.952C368.431 305.245 368.35 305.583 368.35 305.964V306.14C368.35 306.529 368.438 306.877 368.614 307.185C368.798 307.486 369.051 307.72 369.373 307.889C369.696 308.058 370.066 308.142 370.484 308.142C370.829 308.142 371.141 308.083 371.419 307.966C371.705 307.849 371.955 307.673 372.167 307.438L372.75 308.12C372.486 308.428 372.156 308.663 371.76 308.824C371.372 308.985 370.935 309.066 370.451 309.066ZM377.704 303.115C378.181 303.115 378.599 303.207 378.958 303.39C379.325 303.573 379.611 303.852 379.816 304.226C380.021 304.6 380.124 305.073 380.124 305.645V309H379.068V305.766C379.068 305.201 378.929 304.776 378.65 304.49C378.379 304.204 377.994 304.061 377.495 304.061C377.121 304.061 376.795 304.134 376.516 304.281C376.237 304.428 376.021 304.644 375.867 304.93C375.72 305.216 375.647 305.572 375.647 305.997V309H374.591V303.17H375.603V304.743L375.438 304.325C375.629 303.944 375.922 303.647 376.318 303.434C376.714 303.221 377.176 303.115 377.704 303.115ZM384.63 311.2C384.095 311.2 383.574 311.123 383.068 310.969C382.569 310.822 382.162 310.61 381.847 310.331L382.353 309.517C382.624 309.752 382.958 309.935 383.354 310.067C383.75 310.206 384.164 310.276 384.597 310.276C385.286 310.276 385.792 310.115 386.115 309.792C386.438 309.469 386.599 308.978 386.599 308.318V307.086L386.709 305.931L386.654 304.765V303.17H387.655V308.208C387.655 309.235 387.398 309.99 386.885 310.474C386.372 310.958 385.62 311.2 384.63 311.2ZM384.498 308.758C383.933 308.758 383.427 308.641 382.98 308.406C382.54 308.164 382.188 307.83 381.924 307.405C381.667 306.98 381.539 306.488 381.539 305.931C381.539 305.366 381.667 304.875 381.924 304.457C382.188 304.032 382.54 303.702 382.98 303.467C383.427 303.232 383.933 303.115 384.498 303.115C384.997 303.115 385.451 303.218 385.862 303.423C386.273 303.621 386.599 303.929 386.841 304.347C387.09 304.765 387.215 305.293 387.215 305.931C387.215 306.562 387.09 307.086 386.841 307.504C386.599 307.922 386.273 308.237 385.862 308.45C385.451 308.655 384.997 308.758 384.498 308.758ZM384.619 307.834C385.008 307.834 385.352 307.753 385.653 307.592C385.954 307.431 386.188 307.207 386.357 306.921C386.533 306.635 386.621 306.305 386.621 305.931C386.621 305.557 386.533 305.227 386.357 304.941C386.188 304.655 385.954 304.435 385.653 304.281C385.352 304.12 385.008 304.039 384.619 304.039C384.23 304.039 383.882 304.12 383.574 304.281C383.273 304.435 383.035 304.655 382.859 304.941C382.69 305.227 382.606 305.557 382.606 305.931C382.606 306.305 382.69 306.635 382.859 306.921C383.035 307.207 383.273 307.431 383.574 307.592C383.882 307.753 384.23 307.834 384.619 307.834ZM392.17 309.066C391.583 309.066 391.063 308.938 390.608 308.681C390.153 308.424 389.794 308.072 389.53 307.625C389.266 307.17 389.134 306.657 389.134 306.085C389.134 305.506 389.266 304.992 389.53 304.545C389.794 304.098 390.153 303.749 390.608 303.5C391.063 303.243 391.583 303.115 392.17 303.115C392.749 303.115 393.266 303.243 393.721 303.5C394.183 303.749 394.542 304.098 394.799 304.545C395.063 304.985 395.195 305.498 395.195 306.085C395.195 306.664 395.063 307.178 394.799 307.625C394.542 308.072 394.183 308.424 393.721 308.681C393.266 308.938 392.749 309.066 392.17 309.066ZM392.17 308.142C392.544 308.142 392.878 308.058 393.171 307.889C393.472 307.72 393.706 307.482 393.875 307.174C394.044 306.859 394.128 306.496 394.128 306.085C394.128 305.667 394.044 305.308 393.875 305.007C393.706 304.699 393.472 304.461 393.171 304.292C392.878 304.123 392.544 304.039 392.17 304.039C391.796 304.039 391.462 304.123 391.169 304.292C390.876 304.461 390.641 304.699 390.465 305.007C390.289 305.308 390.201 305.667 390.201 306.085C390.201 306.496 390.289 306.859 390.465 307.174C390.641 307.482 390.876 307.72 391.169 307.889C391.462 308.058 391.796 308.142 392.17 308.142ZM402.062 309.066C401.564 309.066 401.124 308.974 400.742 308.791C400.368 308.608 400.075 308.329 399.862 307.955C399.657 307.574 399.554 307.097 399.554 306.525V303.17H400.61V306.404C400.61 306.976 400.746 307.405 401.017 307.691C401.296 307.977 401.685 308.12 402.183 308.12C402.55 308.12 402.869 308.047 403.14 307.9C403.412 307.746 403.621 307.526 403.767 307.24C403.914 306.947 403.987 306.595 403.987 306.184V303.17H405.043V309H404.042V307.427L404.207 307.845C404.017 308.234 403.731 308.534 403.349 308.747C402.968 308.96 402.539 309.066 402.062 309.066ZM410.167 303.115C410.643 303.115 411.061 303.207 411.421 303.39C411.787 303.573 412.073 303.852 412.279 304.226C412.484 304.6 412.587 305.073 412.587 305.645V309H411.531V305.766C411.531 305.201 411.391 304.776 411.113 304.49C410.841 304.204 410.456 304.061 409.958 304.061C409.584 304.061 409.257 304.134 408.979 304.281C408.7 304.428 408.484 304.644 408.33 304.93C408.183 305.216 408.11 305.572 408.11 305.997V309H407.054V303.17H408.066V304.743L407.901 304.325C408.091 303.944 408.385 303.647 408.781 303.434C409.177 303.221 409.639 303.115 410.167 303.115ZM418.16 309V307.768L418.105 307.537V305.436C418.105 304.989 417.973 304.644 417.709 304.402C417.452 304.153 417.064 304.028 416.543 304.028C416.198 304.028 415.861 304.087 415.531 304.204C415.201 304.314 414.922 304.464 414.695 304.655L414.255 303.863C414.556 303.621 414.915 303.438 415.333 303.313C415.758 303.181 416.202 303.115 416.664 303.115C417.463 303.115 418.079 303.309 418.512 303.698C418.945 304.087 419.161 304.681 419.161 305.48V309H418.16ZM416.246 309.066C415.813 309.066 415.432 308.993 415.102 308.846C414.779 308.699 414.53 308.498 414.354 308.241C414.178 307.977 414.09 307.68 414.09 307.35C414.09 307.035 414.163 306.749 414.31 306.492C414.464 306.235 414.71 306.03 415.047 305.876C415.392 305.722 415.854 305.645 416.433 305.645H418.281V306.404H416.477C415.949 306.404 415.593 306.492 415.41 306.668C415.227 306.844 415.135 307.057 415.135 307.306C415.135 307.592 415.249 307.823 415.476 307.999C415.703 308.168 416.019 308.252 416.422 308.252C416.818 308.252 417.163 308.164 417.456 307.988C417.757 307.812 417.973 307.555 418.105 307.218L418.314 307.944C418.175 308.289 417.929 308.564 417.577 308.769C417.225 308.967 416.781 309.066 416.246 309.066ZM425.741 309.066C425.257 309.066 424.795 309 424.355 308.868C423.923 308.736 423.582 308.575 423.332 308.384L423.772 307.548C424.022 307.717 424.33 307.86 424.696 307.977C425.063 308.094 425.437 308.153 425.818 308.153C426.31 308.153 426.662 308.083 426.874 307.944C427.094 307.805 427.204 307.61 427.204 307.361C427.204 307.178 427.138 307.035 427.006 306.932C426.874 306.829 426.698 306.752 426.478 306.701C426.266 306.65 426.027 306.606 425.763 306.569C425.499 306.525 425.235 306.474 424.971 306.415C424.707 306.349 424.465 306.261 424.245 306.151C424.025 306.034 423.849 305.876 423.717 305.678C423.585 305.473 423.519 305.201 423.519 304.864C423.519 304.512 423.618 304.204 423.816 303.94C424.014 303.676 424.293 303.474 424.652 303.335C425.019 303.188 425.452 303.115 425.95 303.115C426.332 303.115 426.717 303.163 427.105 303.258C427.501 303.346 427.824 303.474 428.073 303.643L427.622 304.479C427.358 304.303 427.083 304.182 426.797 304.116C426.511 304.05 426.225 304.017 425.939 304.017C425.477 304.017 425.133 304.094 424.905 304.248C424.678 304.395 424.564 304.585 424.564 304.82C424.564 305.018 424.63 305.172 424.762 305.282C424.902 305.385 425.078 305.465 425.29 305.524C425.51 305.583 425.752 305.634 426.016 305.678C426.28 305.715 426.544 305.766 426.808 305.832C427.072 305.891 427.311 305.975 427.523 306.085C427.743 306.195 427.919 306.349 428.051 306.547C428.191 306.745 428.26 307.009 428.26 307.339C428.26 307.691 428.158 307.995 427.952 308.252C427.747 308.509 427.457 308.71 427.083 308.857C426.709 308.996 426.262 309.066 425.741 309.066ZM431.582 309.066C430.995 309.066 430.541 308.908 430.218 308.593C429.895 308.278 429.734 307.827 429.734 307.24V301.894H430.79V307.196C430.79 307.511 430.867 307.753 431.021 307.922C431.182 308.091 431.41 308.175 431.703 308.175C432.033 308.175 432.308 308.083 432.528 307.9L432.858 308.659C432.697 308.798 432.502 308.901 432.275 308.967C432.055 309.033 431.824 309.066 431.582 309.066ZM428.744 304.039V303.17H432.462V304.039H428.744ZM437.754 309V307.768L437.699 307.537V305.436C437.699 304.989 437.567 304.644 437.303 304.402C437.046 304.153 436.657 304.028 436.137 304.028C435.792 304.028 435.455 304.087 435.125 304.204C434.795 304.314 434.516 304.464 434.289 304.655L433.849 303.863C434.149 303.621 434.509 303.438 434.927 303.313C435.352 303.181 435.796 303.115 436.258 303.115C437.057 303.115 437.673 303.309 438.106 303.698C438.538 304.087 438.755 304.681 438.755 305.48V309H437.754ZM435.84 309.066C435.407 309.066 435.026 308.993 434.696 308.846C434.373 308.699 434.124 308.498 433.948 308.241C433.772 307.977 433.684 307.68 433.684 307.35C433.684 307.035 433.757 306.749 433.904 306.492C434.058 306.235 434.303 306.03 434.641 305.876C434.985 305.722 435.447 305.645 436.027 305.645H437.875V306.404H436.071C435.543 306.404 435.187 306.492 435.004 306.668C434.82 306.844 434.729 307.057 434.729 307.306C434.729 307.592 434.842 307.823 435.07 307.999C435.297 308.168 435.612 308.252 436.016 308.252C436.412 308.252 436.756 308.164 437.05 307.988C437.35 307.812 437.567 307.555 437.699 307.218L437.908 307.944C437.768 308.289 437.523 308.564 437.171 308.769C436.819 308.967 436.375 309.066 435.84 309.066ZM440.709 309V303.17H441.721V304.754L441.622 304.358C441.783 303.955 442.055 303.647 442.436 303.434C442.817 303.221 443.287 303.115 443.844 303.115V304.138C443.8 304.131 443.756 304.127 443.712 304.127C443.675 304.127 443.639 304.127 443.602 304.127C443.037 304.127 442.59 304.296 442.26 304.633C441.93 304.97 441.765 305.458 441.765 306.096V309H440.709ZM447.384 309.066C446.797 309.066 446.343 308.908 446.02 308.593C445.697 308.278 445.536 307.827 445.536 307.24V301.894H446.592V307.196C446.592 307.511 446.669 307.753 446.823 307.922C446.984 308.091 447.212 308.175 447.505 308.175C447.835 308.175 448.11 308.083 448.33 307.9L448.66 308.659C448.499 308.798 448.304 308.901 448.077 308.967C447.857 309.033 447.626 309.066 447.384 309.066ZM444.546 304.039V303.17H448.264V304.039H444.546ZM452.39 309.066C451.891 309.066 451.451 308.974 451.07 308.791C450.696 308.608 450.402 308.329 450.19 307.955C449.984 307.574 449.882 307.097 449.882 306.525V303.17H450.938V306.404C450.938 306.976 451.073 307.405 451.345 307.691C451.623 307.977 452.012 308.12 452.511 308.12C452.877 308.12 453.196 308.047 453.468 307.9C453.739 307.746 453.948 307.526 454.095 307.24C454.241 306.947 454.315 306.595 454.315 306.184V303.17H455.371V309H454.37V307.427L454.535 307.845C454.344 308.234 454.058 308.534 453.677 308.747C453.295 308.96 452.866 309.066 452.39 309.066ZM460.472 309.066C459.988 309.066 459.544 308.956 459.141 308.736C458.745 308.509 458.426 308.175 458.184 307.735C457.949 307.295 457.832 306.745 457.832 306.085C457.832 305.425 457.946 304.875 458.173 304.435C458.408 303.995 458.723 303.665 459.119 303.445C459.522 303.225 459.973 303.115 460.472 303.115C461.044 303.115 461.55 303.24 461.99 303.489C462.43 303.738 462.778 304.087 463.035 304.534C463.292 304.974 463.42 305.491 463.42 306.085C463.42 306.679 463.292 307.2 463.035 307.647C462.778 308.094 462.43 308.443 461.99 308.692C461.55 308.941 461.044 309.066 460.472 309.066ZM457.381 311.134V303.17H458.393V304.743L458.327 306.096L458.437 307.449V311.134H457.381ZM460.384 308.142C460.758 308.142 461.092 308.058 461.385 307.889C461.686 307.72 461.92 307.482 462.089 307.174C462.265 306.859 462.353 306.496 462.353 306.085C462.353 305.667 462.265 305.308 462.089 305.007C461.92 304.699 461.686 304.461 461.385 304.292C461.092 304.123 460.758 304.039 460.384 304.039C460.017 304.039 459.684 304.123 459.383 304.292C459.09 304.461 458.855 304.699 458.679 305.007C458.51 305.308 458.426 305.667 458.426 306.085C458.426 306.496 458.51 306.859 458.679 307.174C458.855 307.482 459.09 307.72 459.383 307.889C459.684 308.058 460.017 308.142 460.384 308.142ZM470.242 309.066C469.677 309.066 469.171 308.941 468.724 308.692C468.284 308.443 467.936 308.094 467.679 307.647C467.422 307.2 467.294 306.679 467.294 306.085C467.294 305.491 467.422 304.974 467.679 304.534C467.936 304.087 468.284 303.738 468.724 303.489C469.171 303.24 469.677 303.115 470.242 303.115C470.733 303.115 471.177 303.225 471.573 303.445C471.969 303.665 472.284 303.995 472.519 304.435C472.761 304.875 472.882 305.425 472.882 306.085C472.882 306.745 472.765 307.295 472.53 307.735C472.303 308.175 471.991 308.509 471.595 308.736C471.199 308.956 470.748 309.066 470.242 309.066ZM470.33 308.142C470.697 308.142 471.027 308.058 471.32 307.889C471.621 307.72 471.855 307.482 472.024 307.174C472.2 306.859 472.288 306.496 472.288 306.085C472.288 305.667 472.2 305.308 472.024 305.007C471.855 304.699 471.621 304.461 471.32 304.292C471.027 304.123 470.697 304.039 470.33 304.039C469.956 304.039 469.622 304.123 469.329 304.292C469.036 304.461 468.801 304.699 468.625 305.007C468.449 305.308 468.361 305.667 468.361 306.085C468.361 306.496 468.449 306.859 468.625 307.174C468.801 307.482 469.036 307.72 469.329 307.889C469.622 308.058 469.956 308.142 470.33 308.142ZM472.321 309V307.427L472.387 306.074L472.277 304.721V300.838H473.333V309H472.321ZM477.927 309.066C477.304 309.066 476.754 308.938 476.277 308.681C475.808 308.424 475.441 308.072 475.177 307.625C474.92 307.178 474.792 306.664 474.792 306.085C474.792 305.506 474.917 304.992 475.166 304.545C475.423 304.098 475.771 303.749 476.211 303.5C476.658 303.243 477.161 303.115 477.718 303.115C478.283 303.115 478.781 303.24 479.214 303.489C479.647 303.738 479.984 304.09 480.226 304.545C480.475 304.992 480.6 305.517 480.6 306.118C480.6 306.162 480.596 306.213 480.589 306.272C480.589 306.331 480.585 306.386 480.578 306.437H475.617V305.678H480.028L479.599 305.942C479.606 305.568 479.529 305.234 479.368 304.941C479.207 304.648 478.983 304.42 478.697 304.259C478.418 304.09 478.092 304.006 477.718 304.006C477.351 304.006 477.025 304.09 476.739 304.259C476.453 304.42 476.229 304.651 476.068 304.952C475.907 305.245 475.826 305.583 475.826 305.964V306.14C475.826 306.529 475.914 306.877 476.09 307.185C476.273 307.486 476.526 307.72 476.849 307.889C477.172 308.058 477.542 308.142 477.96 308.142C478.305 308.142 478.616 308.083 478.895 307.966C479.181 307.849 479.43 307.673 479.643 307.438L480.226 308.12C479.962 308.428 479.632 308.663 479.236 308.824C478.847 308.985 478.411 309.066 477.927 309.066ZM487.023 309.066C486.436 309.066 485.981 308.908 485.659 308.593C485.336 308.278 485.175 307.827 485.175 307.24V301.894H486.231V307.196C486.231 307.511 486.308 307.753 486.462 307.922C486.623 308.091 486.85 308.175 487.144 308.175C487.474 308.175 487.749 308.083 487.969 307.9L488.299 308.659C488.137 308.798 487.943 308.901 487.716 308.967C487.496 309.033 487.265 309.066 487.023 309.066ZM484.185 304.039V303.17H487.903V304.039H484.185ZM491.978 309.066C491.355 309.066 490.805 308.938 490.328 308.681C489.859 308.424 489.492 308.072 489.228 307.625C488.971 307.178 488.843 306.664 488.843 306.085C488.843 305.506 488.968 304.992 489.217 304.545C489.474 304.098 489.822 303.749 490.262 303.5C490.709 303.243 491.212 303.115 491.769 303.115C492.334 303.115 492.832 303.24 493.265 303.489C493.698 303.738 494.035 304.09 494.277 304.545C494.526 304.992 494.651 305.517 494.651 306.118C494.651 306.162 494.647 306.213 494.64 306.272C494.64 306.331 494.636 306.386 494.629 306.437H489.668V305.678H494.079L493.65 305.942C493.657 305.568 493.58 305.234 493.419 304.941C493.258 304.648 493.034 304.42 492.748 304.259C492.469 304.09 492.143 304.006 491.769 304.006C491.402 304.006 491.076 304.09 490.79 304.259C490.504 304.42 490.28 304.651 490.119 304.952C489.958 305.245 489.877 305.583 489.877 305.964V306.14C489.877 306.529 489.965 306.877 490.141 307.185C490.324 307.486 490.577 307.72 490.9 307.889C491.223 308.058 491.593 308.142 492.011 308.142C492.356 308.142 492.667 308.083 492.946 307.966C493.232 307.849 493.481 307.673 493.694 307.438L494.277 308.12C494.013 308.428 493.683 308.663 493.287 308.824C492.898 308.985 492.462 309.066 491.978 309.066ZM498.658 309.066C498.064 309.066 497.533 308.938 497.063 308.681C496.601 308.424 496.238 308.072 495.974 307.625C495.71 307.178 495.578 306.664 495.578 306.085C495.578 305.506 495.71 304.992 495.974 304.545C496.238 304.098 496.601 303.749 497.063 303.5C497.533 303.243 498.064 303.115 498.658 303.115C499.186 303.115 499.656 303.221 500.066 303.434C500.484 303.639 500.807 303.947 501.034 304.358L500.231 304.875C500.041 304.589 499.806 304.38 499.527 304.248C499.256 304.109 498.963 304.039 498.647 304.039C498.266 304.039 497.925 304.123 497.624 304.292C497.324 304.461 497.085 304.699 496.909 305.007C496.733 305.308 496.645 305.667 496.645 306.085C496.645 306.503 496.733 306.866 496.909 307.174C497.085 307.482 497.324 307.72 497.624 307.889C497.925 308.058 498.266 308.142 498.647 308.142C498.963 308.142 499.256 308.076 499.527 307.944C499.806 307.805 500.041 307.592 500.231 307.306L501.034 307.812C500.807 308.215 500.484 308.527 500.066 308.747C499.656 308.96 499.186 309.066 498.658 309.066ZM505.514 303.115C505.991 303.115 506.409 303.207 506.768 303.39C507.135 303.573 507.421 303.852 507.626 304.226C507.832 304.6 507.934 305.073 507.934 305.645V309H506.878V305.766C506.878 305.201 506.739 304.776 506.46 304.49C506.189 304.204 505.804 304.061 505.305 304.061C504.931 304.061 504.605 304.134 504.326 304.281C504.048 304.428 503.831 304.644 503.677 304.93C503.531 305.216 503.457 305.572 503.457 305.997V309H502.401V303.17H503.413V304.743L503.248 304.325C503.439 303.944 503.732 303.647 504.128 303.434C504.524 303.221 504.986 303.115 505.514 303.115ZM512.386 309.066C511.799 309.066 511.278 308.938 510.824 308.681C510.369 308.424 510.01 308.072 509.746 307.625C509.482 307.17 509.35 306.657 509.35 306.085C509.35 305.506 509.482 304.992 509.746 304.545C510.01 304.098 510.369 303.749 510.824 303.5C511.278 303.243 511.799 303.115 512.386 303.115C512.965 303.115 513.482 303.243 513.937 303.5C514.399 303.749 514.758 304.098 515.015 304.545C515.279 304.985 515.411 305.498 515.411 306.085C515.411 306.664 515.279 307.178 515.015 307.625C514.758 308.072 514.399 308.424 513.937 308.681C513.482 308.938 512.965 309.066 512.386 309.066ZM512.386 308.142C512.76 308.142 513.093 308.058 513.387 307.889C513.687 307.72 513.922 307.482 514.091 307.174C514.259 306.859 514.344 306.496 514.344 306.085C514.344 305.667 514.259 305.308 514.091 305.007C513.922 304.699 513.687 304.461 513.387 304.292C513.093 304.123 512.76 304.039 512.386 304.039C512.012 304.039 511.678 304.123 511.385 304.292C511.091 304.461 510.857 304.699 510.681 305.007C510.505 305.308 510.417 305.667 510.417 306.085C510.417 306.496 510.505 306.859 510.681 307.174C510.857 307.482 511.091 307.72 511.385 307.889C511.678 308.058 512.012 308.142 512.386 308.142ZM516.871 309V300.838H517.927V309H516.871ZM522.44 309.066C521.854 309.066 521.333 308.938 520.878 308.681C520.424 308.424 520.064 308.072 519.8 307.625C519.536 307.17 519.404 306.657 519.404 306.085C519.404 305.506 519.536 304.992 519.8 304.545C520.064 304.098 520.424 303.749 520.878 303.5C521.333 303.243 521.854 303.115 522.44 303.115C523.02 303.115 523.537 303.243 523.991 303.5C524.453 303.749 524.813 304.098 525.069 304.545C525.333 304.985 525.465 305.498 525.465 306.085C525.465 306.664 525.333 307.178 525.069 307.625C524.813 308.072 524.453 308.424 523.991 308.681C523.537 308.938 523.02 309.066 522.44 309.066ZM522.44 308.142C522.814 308.142 523.148 308.058 523.441 307.889C523.742 307.72 523.977 307.482 524.145 307.174C524.314 306.859 524.398 306.496 524.398 306.085C524.398 305.667 524.314 305.308 524.145 305.007C523.977 304.699 523.742 304.461 523.441 304.292C523.148 304.123 522.814 304.039 522.44 304.039C522.066 304.039 521.733 304.123 521.439 304.292C521.146 304.461 520.911 304.699 520.735 305.007C520.559 305.308 520.471 305.667 520.471 306.085C520.471 306.496 520.559 306.859 520.735 307.174C520.911 307.482 521.146 307.72 521.439 307.889C521.733 308.058 522.066 308.142 522.44 308.142ZM529.478 311.2C528.942 311.2 528.422 311.123 527.916 310.969C527.417 310.822 527.01 310.61 526.695 310.331L527.201 309.517C527.472 309.752 527.806 309.935 528.202 310.067C528.598 310.206 529.012 310.276 529.445 310.276C530.134 310.276 530.64 310.115 530.963 309.792C531.285 309.469 531.447 308.978 531.447 308.318V307.086L531.557 305.931L531.502 304.765V303.17H532.503V308.208C532.503 309.235 532.246 309.99 531.733 310.474C531.219 310.958 530.468 311.2 529.478 311.2ZM529.346 308.758C528.781 308.758 528.275 308.641 527.828 308.406C527.388 308.164 527.036 307.83 526.772 307.405C526.515 306.98 526.387 306.488 526.387 305.931C526.387 305.366 526.515 304.875 526.772 304.457C527.036 304.032 527.388 303.702 527.828 303.467C528.275 303.232 528.781 303.115 529.346 303.115C529.844 303.115 530.299 303.218 530.71 303.423C531.12 303.621 531.447 303.929 531.689 304.347C531.938 304.765 532.063 305.293 532.063 305.931C532.063 306.562 531.938 307.086 531.689 307.504C531.447 307.922 531.12 308.237 530.71 308.45C530.299 308.655 529.844 308.758 529.346 308.758ZM529.467 307.834C529.855 307.834 530.2 307.753 530.501 307.592C530.801 307.431 531.036 307.207 531.205 306.921C531.381 306.635 531.469 306.305 531.469 305.931C531.469 305.557 531.381 305.227 531.205 304.941C531.036 304.655 530.801 304.435 530.501 304.281C530.2 304.12 529.855 304.039 529.467 304.039C529.078 304.039 528.73 304.12 528.422 304.281C528.121 304.435 527.883 304.655 527.707 304.941C527.538 305.227 527.454 305.557 527.454 305.931C527.454 306.305 527.538 306.635 527.707 306.921C527.883 307.207 528.121 307.431 528.422 307.592C528.73 307.753 529.078 307.834 529.467 307.834ZM534.521 309V303.17H535.577V309H534.521ZM534.224 302.323L535.72 300.893H537.062L535.214 302.323H534.224ZM541.212 309V307.768L541.157 307.537V305.436C541.157 304.989 541.025 304.644 540.761 304.402C540.504 304.153 540.115 304.028 539.595 304.028C539.25 304.028 538.913 304.087 538.583 304.204C538.253 304.314 537.974 304.464 537.747 304.655L537.307 303.863C537.607 303.621 537.967 303.438 538.385 303.313C538.81 303.181 539.254 303.115 539.716 303.115C540.515 303.115 541.131 303.309 541.564 303.698C541.996 304.087 542.213 304.681 542.213 305.48V309H541.212ZM539.298 309.066C538.865 309.066 538.484 308.993 538.154 308.846C537.831 308.699 537.582 308.498 537.406 308.241C537.23 307.977 537.142 307.68 537.142 307.35C537.142 307.035 537.215 306.749 537.362 306.492C537.516 306.235 537.761 306.03 538.099 305.876C538.443 305.722 538.905 305.645 539.485 305.645H541.333V306.404H539.529C539.001 306.404 538.645 306.492 538.462 306.668C538.278 306.844 538.187 307.057 538.187 307.306C538.187 307.592 538.3 307.823 538.528 307.999C538.755 308.168 539.07 308.252 539.474 308.252C539.87 308.252 540.214 308.164 540.508 307.988C540.808 307.812 541.025 307.555 541.157 307.218L541.366 307.944C541.226 308.289 540.981 308.564 540.629 308.769C540.277 308.967 539.833 309.066 539.298 309.066ZM547.374 311.2C547.095 311.2 546.824 311.152 546.56 311.057C546.296 310.969 546.069 310.837 545.878 310.661L546.329 309.869C546.476 310.008 546.637 310.115 546.813 310.188C546.989 310.261 547.176 310.298 547.374 310.298C547.631 310.298 547.843 310.232 548.012 310.1C548.181 309.968 548.338 309.733 548.485 309.396L548.848 308.593L548.958 308.461L551.246 303.17H552.28L549.453 309.583C549.284 309.994 549.094 310.316 548.881 310.551C548.676 310.786 548.448 310.951 548.199 311.046C547.95 311.149 547.675 311.2 547.374 311.2ZM548.76 309.187L546.098 303.17H547.198L549.464 308.362L548.76 309.187ZM364.41 326.066C363.845 326.066 363.339 325.941 362.892 325.692C362.452 325.443 362.104 325.094 361.847 324.647C361.59 324.2 361.462 323.679 361.462 323.085C361.462 322.491 361.59 321.974 361.847 321.534C362.104 321.087 362.452 320.738 362.892 320.489C363.339 320.24 363.845 320.115 364.41 320.115C364.916 320.115 365.367 320.225 365.763 320.445C366.159 320.665 366.471 320.995 366.698 321.435C366.933 321.875 367.05 322.425 367.05 323.085C367.05 323.745 366.929 324.295 366.687 324.735C366.452 325.175 366.137 325.509 365.741 325.736C365.345 325.956 364.901 326.066 364.41 326.066ZM364.498 325.142C364.865 325.142 365.195 325.058 365.488 324.889C365.789 324.72 366.023 324.482 366.192 324.174C366.368 323.859 366.456 323.496 366.456 323.085C366.456 322.667 366.368 322.308 366.192 322.007C366.023 321.699 365.789 321.461 365.488 321.292C365.195 321.123 364.865 321.039 364.498 321.039C364.124 321.039 363.79 321.123 363.497 321.292C363.204 321.461 362.969 321.699 362.793 322.007C362.617 322.308 362.529 322.667 362.529 323.085C362.529 323.496 362.617 323.859 362.793 324.174C362.969 324.482 363.204 324.72 363.497 324.889C363.79 325.058 364.124 325.142 364.498 325.142ZM366.445 328.134V324.449L366.555 323.096L366.489 321.743V320.17H367.501V328.134H366.445ZM371.952 326.066C371.453 326.066 371.013 325.974 370.632 325.791C370.258 325.608 369.965 325.329 369.752 324.955C369.547 324.574 369.444 324.097 369.444 323.525V320.17H370.5V323.404C370.5 323.976 370.636 324.405 370.907 324.691C371.186 324.977 371.574 325.12 372.073 325.12C372.44 325.12 372.759 325.047 373.03 324.9C373.301 324.746 373.51 324.526 373.657 324.24C373.804 323.947 373.877 323.595 373.877 323.184V320.17H374.933V326H373.932V324.427L374.097 324.845C373.906 325.234 373.62 325.534 373.239 325.747C372.858 325.96 372.429 326.066 371.952 326.066ZM376.943 326V320.17H377.999V326H376.943ZM377.471 319.048C377.266 319.048 377.094 318.982 376.954 318.85C376.822 318.718 376.756 318.557 376.756 318.366C376.756 318.168 376.822 318.003 376.954 317.871C377.094 317.739 377.266 317.673 377.471 317.673C377.677 317.673 377.845 317.739 377.977 317.871C378.117 317.996 378.186 318.153 378.186 318.344C378.186 318.542 378.12 318.711 377.988 318.85C377.856 318.982 377.684 319.048 377.471 319.048ZM382.612 326.066C381.988 326.066 381.438 325.938 380.962 325.681C380.492 325.424 380.126 325.072 379.862 324.625C379.605 324.178 379.477 323.664 379.477 323.085C379.477 322.506 379.601 321.992 379.851 321.545C380.107 321.098 380.456 320.749 380.896 320.5C381.343 320.243 381.845 320.115 382.403 320.115C382.967 320.115 383.466 320.24 383.899 320.489C384.331 320.738 384.669 321.09 384.911 321.545C385.16 321.992 385.285 322.517 385.285 323.118C385.285 323.162 385.281 323.213 385.274 323.272C385.274 323.331 385.27 323.386 385.263 323.437H380.302V322.678H384.713L384.284 322.942C384.291 322.568 384.214 322.234 384.053 321.941C383.891 321.648 383.668 321.42 383.382 321.259C383.103 321.09 382.777 321.006 382.403 321.006C382.036 321.006 381.71 321.09 381.424 321.259C381.138 321.42 380.914 321.651 380.753 321.952C380.591 322.245 380.511 322.583 380.511 322.964V323.14C380.511 323.529 380.599 323.877 380.775 324.185C380.958 324.486 381.211 324.72 381.534 324.889C381.856 325.058 382.227 325.142 382.645 325.142C382.989 325.142 383.301 325.083 383.58 324.966C383.866 324.849 384.115 324.673 384.328 324.438L384.911 325.12C384.647 325.428 384.317 325.663 383.921 325.824C383.532 325.985 383.096 326.066 382.612 326.066ZM386.751 326V320.17H387.763V321.754L387.664 321.358C387.825 320.955 388.097 320.647 388.478 320.434C388.859 320.221 389.329 320.115 389.886 320.115V321.138C389.842 321.131 389.798 321.127 389.754 321.127C389.717 321.127 389.681 321.127 389.644 321.127C389.079 321.127 388.632 321.296 388.302 321.633C387.972 321.97 387.807 322.458 387.807 323.096V326H386.751ZM393.631 326.066C393.044 326.066 392.523 325.938 392.069 325.681C391.614 325.424 391.255 325.072 390.991 324.625C390.727 324.17 390.595 323.657 390.595 323.085C390.595 322.506 390.727 321.992 390.991 321.545C391.255 321.098 391.614 320.749 392.069 320.5C392.523 320.243 393.044 320.115 393.631 320.115C394.21 320.115 394.727 320.243 395.182 320.5C395.644 320.749 396.003 321.098 396.26 321.545C396.524 321.985 396.656 322.498 396.656 323.085C396.656 323.664 396.524 324.178 396.26 324.625C396.003 325.072 395.644 325.424 395.182 325.681C394.727 325.938 394.21 326.066 393.631 326.066ZM393.631 325.142C394.005 325.142 394.338 325.058 394.632 324.889C394.932 324.72 395.167 324.482 395.336 324.174C395.504 323.859 395.589 323.496 395.589 323.085C395.589 322.667 395.504 322.308 395.336 322.007C395.167 321.699 394.932 321.461 394.632 321.292C394.338 321.123 394.005 321.039 393.631 321.039C393.257 321.039 392.923 321.123 392.63 321.292C392.336 321.461 392.102 321.699 391.926 322.007C391.75 322.308 391.662 322.667 391.662 323.085C391.662 323.496 391.75 323.859 391.926 324.174C392.102 324.482 392.336 324.72 392.63 324.889C392.923 325.058 393.257 325.142 393.631 325.142ZM403.611 326.066C403.017 326.066 402.486 325.938 402.016 325.681C401.554 325.424 401.191 325.072 400.927 324.625C400.663 324.178 400.531 323.664 400.531 323.085C400.531 322.506 400.663 321.992 400.927 321.545C401.191 321.098 401.554 320.749 402.016 320.5C402.486 320.243 403.017 320.115 403.611 320.115C404.139 320.115 404.609 320.221 405.019 320.434C405.437 320.639 405.76 320.947 405.987 321.358L405.184 321.875C404.994 321.589 404.759 321.38 404.48 321.248C404.209 321.109 403.916 321.039 403.6 321.039C403.219 321.039 402.878 321.123 402.577 321.292C402.277 321.461 402.038 321.699 401.862 322.007C401.686 322.308 401.598 322.667 401.598 323.085C401.598 323.503 401.686 323.866 401.862 324.174C402.038 324.482 402.277 324.72 402.577 324.889C402.878 325.058 403.219 325.142 403.6 325.142C403.916 325.142 404.209 325.076 404.48 324.944C404.759 324.805 404.994 324.592 405.184 324.306L405.987 324.812C405.76 325.215 405.437 325.527 405.019 325.747C404.609 325.96 404.139 326.066 403.611 326.066ZM407.355 326V320.17H408.367V321.754L408.268 321.358C408.429 320.955 408.7 320.647 409.082 320.434C409.463 320.221 409.932 320.115 410.49 320.115V321.138C410.446 321.131 410.402 321.127 410.358 321.127C410.321 321.127 410.284 321.127 410.248 321.127C409.683 321.127 409.236 321.296 408.906 321.633C408.576 321.97 408.411 322.458 408.411 323.096V326H407.355ZM414.333 326.066C413.71 326.066 413.16 325.938 412.683 325.681C412.214 325.424 411.847 325.072 411.583 324.625C411.327 324.178 411.198 323.664 411.198 323.085C411.198 322.506 411.323 321.992 411.572 321.545C411.829 321.098 412.177 320.749 412.617 320.5C413.065 320.243 413.567 320.115 414.124 320.115C414.689 320.115 415.188 320.24 415.62 320.489C416.053 320.738 416.39 321.09 416.632 321.545C416.882 321.992 417.006 322.517 417.006 323.118C417.006 323.162 417.003 323.213 416.995 323.272C416.995 323.331 416.992 323.386 416.984 323.437H412.023V322.678H416.434L416.005 322.942C416.013 322.568 415.936 322.234 415.774 321.941C415.613 321.648 415.389 321.42 415.103 321.259C414.825 321.09 414.498 321.006 414.124 321.006C413.758 321.006 413.431 321.09 413.145 321.259C412.859 321.42 412.636 321.651 412.474 321.952C412.313 322.245 412.232 322.583 412.232 322.964V323.14C412.232 323.529 412.32 323.877 412.496 324.185C412.68 324.486 412.933 324.72 413.255 324.889C413.578 325.058 413.948 325.142 414.366 325.142C414.711 325.142 415.023 325.083 415.301 324.966C415.587 324.849 415.837 324.673 416.049 324.438L416.632 325.12C416.368 325.428 416.038 325.663 415.642 325.824C415.254 325.985 414.817 326.066 414.333 326.066ZM421.931 326V324.768L421.876 324.537V322.436C421.876 321.989 421.744 321.644 421.48 321.402C421.223 321.153 420.834 321.028 420.314 321.028C419.969 321.028 419.632 321.087 419.302 321.204C418.972 321.314 418.693 321.464 418.466 321.655L418.026 320.863C418.326 320.621 418.686 320.438 419.104 320.313C419.529 320.181 419.973 320.115 420.435 320.115C421.234 320.115 421.85 320.309 422.283 320.698C422.715 321.087 422.932 321.681 422.932 322.48V326H421.931ZM420.017 326.066C419.584 326.066 419.203 325.993 418.873 325.846C418.55 325.699 418.301 325.498 418.125 325.241C417.949 324.977 417.861 324.68 417.861 324.35C417.861 324.035 417.934 323.749 418.081 323.492C418.235 323.235 418.48 323.03 418.818 322.876C419.162 322.722 419.624 322.645 420.204 322.645H422.052V323.404H420.248C419.72 323.404 419.364 323.492 419.181 323.668C418.997 323.844 418.906 324.057 418.906 324.306C418.906 324.592 419.019 324.823 419.247 324.999C419.474 325.168 419.789 325.252 420.193 325.252C420.589 325.252 420.933 325.164 421.227 324.988C421.527 324.812 421.744 324.555 421.876 324.218L422.085 324.944C421.945 325.289 421.7 325.564 421.348 325.769C420.996 325.967 420.552 326.066 420.017 326.066ZM424.886 326V320.17H425.898V321.754L425.799 321.358C425.96 320.955 426.231 320.647 426.613 320.434C426.994 320.221 427.463 320.115 428.021 320.115V321.138C427.977 321.131 427.933 321.127 427.889 321.127C427.852 321.127 427.815 321.127 427.779 321.127C427.214 321.127 426.767 321.296 426.437 321.633C426.107 321.97 425.942 322.458 425.942 323.096V326H424.886ZM434.805 326.066C434.306 326.066 433.866 325.974 433.485 325.791C433.111 325.608 432.817 325.329 432.605 324.955C432.399 324.574 432.297 324.097 432.297 323.525V320.17H433.353V323.404C433.353 323.976 433.488 324.405 433.76 324.691C434.038 324.977 434.427 325.12 434.926 325.12C435.292 325.12 435.611 325.047 435.883 324.9C436.154 324.746 436.363 324.526 436.51 324.24C436.656 323.947 436.73 323.595 436.73 323.184V320.17H437.786V326H436.785V324.427L436.95 324.845C436.759 325.234 436.473 325.534 436.092 325.747C435.71 325.96 435.281 326.066 434.805 326.066ZM442.909 320.115C443.386 320.115 443.804 320.207 444.163 320.39C444.53 320.573 444.816 320.852 445.021 321.226C445.226 321.6 445.329 322.073 445.329 322.645V326H444.273V322.766C444.273 322.201 444.134 321.776 443.855 321.49C443.584 321.204 443.199 321.061 442.7 321.061C442.326 321.061 442 321.134 441.721 321.281C441.442 321.428 441.226 321.644 441.072 321.93C440.925 322.216 440.852 322.572 440.852 322.997V326H439.796V320.17H440.808V321.743L440.643 321.325C440.834 320.944 441.127 320.647 441.523 320.434C441.919 320.221 442.381 320.115 442.909 320.115ZM450.902 326V324.768L450.847 324.537V322.436C450.847 321.989 450.715 321.644 450.451 321.402C450.195 321.153 449.806 321.028 449.285 321.028C448.941 321.028 448.603 321.087 448.273 321.204C447.943 321.314 447.665 321.464 447.437 321.655L446.997 320.863C447.298 320.621 447.657 320.438 448.075 320.313C448.501 320.181 448.944 320.115 449.406 320.115C450.206 320.115 450.822 320.309 451.254 320.698C451.687 321.087 451.903 321.681 451.903 322.48V326H450.902ZM448.988 326.066C448.556 326.066 448.174 325.993 447.844 325.846C447.522 325.699 447.272 325.498 447.096 325.241C446.92 324.977 446.832 324.68 446.832 324.35C446.832 324.035 446.906 323.749 447.052 323.492C447.206 323.235 447.452 323.03 447.789 322.876C448.134 322.722 448.596 322.645 449.175 322.645H451.023V323.404H449.219C448.691 323.404 448.336 323.492 448.152 323.668C447.969 323.844 447.877 324.057 447.877 324.306C447.877 324.592 447.991 324.823 448.218 324.999C448.446 325.168 448.761 325.252 449.164 325.252C449.56 325.252 449.905 325.164 450.198 324.988C450.499 324.812 450.715 324.555 450.847 324.218L451.056 324.944C450.917 325.289 450.671 325.564 450.319 325.769C449.967 325.967 449.524 326.066 448.988 326.066ZM456.812 326V320.17H457.868V326H456.812ZM457.34 319.048C457.134 319.048 456.962 318.982 456.823 318.85C456.691 318.718 456.625 318.557 456.625 318.366C456.625 318.168 456.691 318.003 456.823 317.871C456.962 317.739 457.134 317.673 457.34 317.673C457.545 317.673 457.714 317.739 457.846 317.871C457.985 317.996 458.055 318.153 458.055 318.344C458.055 318.542 457.989 318.711 457.857 318.85C457.725 318.982 457.552 319.048 457.34 319.048ZM462.293 326.066C461.728 326.066 461.222 325.941 460.775 325.692C460.335 325.443 459.986 325.094 459.73 324.647C459.473 324.2 459.345 323.679 459.345 323.085C459.345 322.491 459.473 321.974 459.73 321.534C459.986 321.087 460.335 320.738 460.775 320.489C461.222 320.24 461.728 320.115 462.293 320.115C462.784 320.115 463.228 320.225 463.624 320.445C464.02 320.665 464.335 320.995 464.57 321.435C464.812 321.875 464.933 322.425 464.933 323.085C464.933 323.745 464.815 324.295 464.581 324.735C464.353 325.175 464.042 325.509 463.646 325.736C463.25 325.956 462.799 326.066 462.293 326.066ZM462.381 325.142C462.747 325.142 463.077 325.058 463.371 324.889C463.671 324.72 463.906 324.482 464.075 324.174C464.251 323.859 464.339 323.496 464.339 323.085C464.339 322.667 464.251 322.308 464.075 322.007C463.906 321.699 463.671 321.461 463.371 321.292C463.077 321.123 462.747 321.039 462.381 321.039C462.007 321.039 461.673 321.123 461.38 321.292C461.086 321.461 460.852 321.699 460.676 322.007C460.5 322.308 460.412 322.667 460.412 323.085C460.412 323.496 460.5 323.859 460.676 324.174C460.852 324.482 461.086 324.72 461.38 324.889C461.673 325.058 462.007 325.142 462.381 325.142ZM464.372 326V324.427L464.438 323.074L464.328 321.721V317.838H465.384V326H464.372ZM469.978 326.066C469.355 326.066 468.805 325.938 468.328 325.681C467.859 325.424 467.492 325.072 467.228 324.625C466.971 324.178 466.843 323.664 466.843 323.085C466.843 322.506 466.968 321.992 467.217 321.545C467.474 321.098 467.822 320.749 468.262 320.5C468.709 320.243 469.212 320.115 469.769 320.115C470.334 320.115 470.832 320.24 471.265 320.489C471.698 320.738 472.035 321.09 472.277 321.545C472.526 321.992 472.651 322.517 472.651 323.118C472.651 323.162 472.647 323.213 472.64 323.272C472.64 323.331 472.636 323.386 472.629 323.437H467.668V322.678H472.079L471.65 322.942C471.657 322.568 471.58 322.234 471.419 321.941C471.258 321.648 471.034 321.42 470.748 321.259C470.469 321.09 470.143 321.006 469.769 321.006C469.402 321.006 469.076 321.09 468.79 321.259C468.504 321.42 468.28 321.651 468.119 321.952C467.958 322.245 467.877 322.583 467.877 322.964V323.14C467.877 323.529 467.965 323.877 468.141 324.185C468.324 324.486 468.577 324.72 468.9 324.889C469.223 325.058 469.593 325.142 470.011 325.142C470.356 325.142 470.667 325.083 470.946 324.966C471.232 324.849 471.481 324.673 471.694 324.438L472.277 325.12C472.013 325.428 471.683 325.663 471.287 325.824C470.898 325.985 470.462 326.066 469.978 326.066ZM477.23 320.115C477.707 320.115 478.125 320.207 478.484 320.39C478.851 320.573 479.137 320.852 479.342 321.226C479.548 321.6 479.65 322.073 479.65 322.645V326H478.594V322.766C478.594 322.201 478.455 321.776 478.176 321.49C477.905 321.204 477.52 321.061 477.021 321.061C476.647 321.061 476.321 321.134 476.042 321.281C475.764 321.428 475.547 321.644 475.393 321.93C475.247 322.216 475.173 322.572 475.173 322.997V326H474.117V320.17H475.129V321.743L474.964 321.325C475.155 320.944 475.448 320.647 475.844 320.434C476.24 320.221 476.702 320.115 477.23 320.115ZM483.607 326.066C483.02 326.066 482.565 325.908 482.243 325.593C481.92 325.278 481.759 324.827 481.759 324.24V318.894H482.815V324.196C482.815 324.511 482.892 324.753 483.046 324.922C483.207 325.091 483.434 325.175 483.728 325.175C484.058 325.175 484.333 325.083 484.553 324.9L484.883 325.659C484.721 325.798 484.527 325.901 484.3 325.967C484.08 326.033 483.849 326.066 483.607 326.066ZM480.769 321.039V320.17H484.487V321.039H480.769ZM486.159 326V320.17H487.215V326H486.159ZM486.687 319.048C486.482 319.048 486.31 318.982 486.17 318.85C486.038 318.718 485.972 318.557 485.972 318.366C485.972 318.168 486.038 318.003 486.17 317.871C486.31 317.739 486.482 317.673 486.687 317.673C486.893 317.673 487.061 317.739 487.193 317.871C487.333 317.996 487.402 318.153 487.402 318.344C487.402 318.542 487.336 318.711 487.204 318.85C487.072 318.982 486.9 319.048 486.687 319.048ZM491.64 326.066C491.076 326.066 490.57 325.941 490.122 325.692C489.682 325.443 489.334 325.094 489.077 324.647C488.821 324.2 488.692 323.679 488.692 323.085C488.692 322.491 488.821 321.974 489.077 321.534C489.334 321.087 489.682 320.738 490.122 320.489C490.57 320.24 491.076 320.115 491.64 320.115C492.132 320.115 492.575 320.225 492.971 320.445C493.367 320.665 493.683 320.995 493.917 321.435C494.159 321.875 494.28 322.425 494.28 323.085C494.28 323.745 494.163 324.295 493.928 324.735C493.701 325.175 493.389 325.509 492.993 325.736C492.597 325.956 492.146 326.066 491.64 326.066ZM491.728 325.142C492.095 325.142 492.425 325.058 492.718 324.889C493.019 324.72 493.254 324.482 493.422 324.174C493.598 323.859 493.686 323.496 493.686 323.085C493.686 322.667 493.598 322.308 493.422 322.007C493.254 321.699 493.019 321.461 492.718 321.292C492.425 321.123 492.095 321.039 491.728 321.039C491.354 321.039 491.021 321.123 490.727 321.292C490.434 321.461 490.199 321.699 490.023 322.007C489.847 322.308 489.759 322.667 489.759 323.085C489.759 323.496 489.847 323.859 490.023 324.174C490.199 324.482 490.434 324.72 490.727 324.889C491.021 325.058 491.354 325.142 491.728 325.142ZM493.719 326V324.427L493.785 323.074L493.675 321.721V317.838H494.731V326H493.719ZM500.349 326V324.768L500.294 324.537V322.436C500.294 321.989 500.162 321.644 499.898 321.402C499.641 321.153 499.252 321.028 498.732 321.028C498.387 321.028 498.05 321.087 497.72 321.204C497.39 321.314 497.111 321.464 496.884 321.655L496.444 320.863C496.744 320.621 497.104 320.438 497.522 320.313C497.947 320.181 498.391 320.115 498.853 320.115C499.652 320.115 500.268 320.309 500.701 320.698C501.133 321.087 501.35 321.681 501.35 322.48V326H500.349ZM498.435 326.066C498.002 326.066 497.621 325.993 497.291 325.846C496.968 325.699 496.719 325.498 496.543 325.241C496.367 324.977 496.279 324.68 496.279 324.35C496.279 324.035 496.352 323.749 496.499 323.492C496.653 323.235 496.898 323.03 497.236 322.876C497.58 322.722 498.042 322.645 498.622 322.645H500.47V323.404H498.666C498.138 323.404 497.782 323.492 497.599 323.668C497.415 323.844 497.324 324.057 497.324 324.306C497.324 324.592 497.437 324.823 497.665 324.999C497.892 325.168 498.207 325.252 498.611 325.252C499.007 325.252 499.351 325.164 499.645 324.988C499.945 324.812 500.162 324.555 500.294 324.218L500.503 324.944C500.363 325.289 500.118 325.564 499.766 325.769C499.414 325.967 498.97 326.066 498.435 326.066ZM505.713 326.066C505.148 326.066 504.642 325.941 504.195 325.692C503.755 325.443 503.406 325.094 503.15 324.647C502.893 324.2 502.765 323.679 502.765 323.085C502.765 322.491 502.893 321.974 503.15 321.534C503.406 321.087 503.755 320.738 504.195 320.489C504.642 320.24 505.148 320.115 505.713 320.115C506.204 320.115 506.648 320.225 507.044 320.445C507.44 320.665 507.755 320.995 507.99 321.435C508.232 321.875 508.353 322.425 508.353 323.085C508.353 323.745 508.235 324.295 508.001 324.735C507.773 325.175 507.462 325.509 507.066 325.736C506.67 325.956 506.219 326.066 505.713 326.066ZM505.801 325.142C506.167 325.142 506.497 325.058 506.791 324.889C507.091 324.72 507.326 324.482 507.495 324.174C507.671 323.859 507.759 323.496 507.759 323.085C507.759 322.667 507.671 322.308 507.495 322.007C507.326 321.699 507.091 321.461 506.791 321.292C506.497 321.123 506.167 321.039 505.801 321.039C505.427 321.039 505.093 321.123 504.8 321.292C504.506 321.461 504.272 321.699 504.096 322.007C503.92 322.308 503.832 322.667 503.832 323.085C503.832 323.496 503.92 323.859 504.096 324.174C504.272 324.482 504.506 324.72 504.8 324.889C505.093 325.058 505.427 325.142 505.801 325.142ZM507.792 326V324.427L507.858 323.074L507.748 321.721V317.838H508.804V326H507.792ZM516.165 326.066C515.6 326.066 515.094 325.941 514.647 325.692C514.207 325.443 513.859 325.094 513.602 324.647C513.345 324.2 513.217 323.679 513.217 323.085C513.217 322.491 513.345 321.974 513.602 321.534C513.859 321.087 514.207 320.738 514.647 320.489C515.094 320.24 515.6 320.115 516.165 320.115C516.656 320.115 517.1 320.225 517.496 320.445C517.892 320.665 518.207 320.995 518.442 321.435C518.684 321.875 518.805 322.425 518.805 323.085C518.805 323.745 518.688 324.295 518.453 324.735C518.226 325.175 517.914 325.509 517.518 325.736C517.122 325.956 516.671 326.066 516.165 326.066ZM516.253 325.142C516.62 325.142 516.95 325.058 517.243 324.889C517.544 324.72 517.778 324.482 517.947 324.174C518.123 323.859 518.211 323.496 518.211 323.085C518.211 322.667 518.123 322.308 517.947 322.007C517.778 321.699 517.544 321.461 517.243 321.292C516.95 321.123 516.62 321.039 516.253 321.039C515.879 321.039 515.545 321.123 515.252 321.292C514.959 321.461 514.724 321.699 514.548 322.007C514.372 322.308 514.284 322.667 514.284 323.085C514.284 323.496 514.372 323.859 514.548 324.174C514.724 324.482 514.959 324.72 515.252 324.889C515.545 325.058 515.879 325.142 516.253 325.142ZM518.244 326V324.427L518.31 323.074L518.2 321.721V317.838H519.256V326H518.244ZM523.85 326.066C523.227 326.066 522.677 325.938 522.2 325.681C521.731 325.424 521.364 325.072 521.1 324.625C520.843 324.178 520.715 323.664 520.715 323.085C520.715 322.506 520.84 321.992 521.089 321.545C521.346 321.098 521.694 320.749 522.134 320.5C522.581 320.243 523.084 320.115 523.641 320.115C524.206 320.115 524.704 320.24 525.137 320.489C525.57 320.738 525.907 321.09 526.149 321.545C526.398 321.992 526.523 322.517 526.523 323.118C526.523 323.162 526.519 323.213 526.512 323.272C526.512 323.331 526.508 323.386 526.501 323.437H521.54V322.678H525.951L525.522 322.942C525.529 322.568 525.452 322.234 525.291 321.941C525.13 321.648 524.906 321.42 524.62 321.259C524.341 321.09 524.015 321.006 523.641 321.006C523.274 321.006 522.948 321.09 522.662 321.259C522.376 321.42 522.152 321.651 521.991 321.952C521.83 322.245 521.749 322.583 521.749 322.964V323.14C521.749 323.529 521.837 323.877 522.013 324.185C522.196 324.486 522.449 324.72 522.772 324.889C523.095 325.058 523.465 325.142 523.883 325.142C524.228 325.142 524.539 325.083 524.818 324.966C525.104 324.849 525.353 324.673 525.566 324.438L526.149 325.12C525.885 325.428 525.555 325.663 525.159 325.824C524.77 325.985 524.334 326.066 523.85 326.066ZM538.236 320.115C538.706 320.115 539.12 320.207 539.479 320.39C539.839 320.573 540.117 320.852 540.315 321.226C540.521 321.6 540.623 322.073 540.623 322.645V326H539.567V322.766C539.567 322.201 539.435 321.776 539.171 321.49C538.907 321.204 538.537 321.061 538.06 321.061C537.708 321.061 537.4 321.134 537.136 321.281C536.872 321.428 536.667 321.644 536.52 321.93C536.381 322.216 536.311 322.572 536.311 322.997V326H535.255V322.766C535.255 322.201 535.123 321.776 534.859 321.49C534.603 321.204 534.232 321.061 533.748 321.061C533.404 321.061 533.099 321.134 532.835 321.281C532.571 321.428 532.366 321.644 532.219 321.93C532.073 322.216 531.999 322.572 531.999 322.997V326H530.943V320.17H531.955V321.721L531.79 321.325C531.974 320.944 532.256 320.647 532.637 320.434C533.019 320.221 533.462 320.115 533.968 320.115C534.526 320.115 535.006 320.254 535.409 320.533C535.813 320.804 536.077 321.219 536.201 321.776L535.772 321.6C535.948 321.153 536.256 320.793 536.696 320.522C537.136 320.251 537.65 320.115 538.236 320.115ZM546.185 326V324.768L546.13 324.537V322.436C546.13 321.989 545.998 321.644 545.734 321.402C545.478 321.153 545.089 321.028 544.568 321.028C544.224 321.028 543.886 321.087 543.556 321.204C543.226 321.314 542.948 321.464 542.72 321.655L542.28 320.863C542.581 320.621 542.94 320.438 543.358 320.313C543.784 320.181 544.227 320.115 544.689 320.115C545.489 320.115 546.105 320.309 546.537 320.698C546.97 321.087 547.186 321.681 547.186 322.48V326H546.185ZM544.271 326.066C543.839 326.066 543.457 325.993 543.127 325.846C542.805 325.699 542.555 325.498 542.379 325.241C542.203 324.977 542.115 324.68 542.115 324.35C542.115 324.035 542.189 323.749 542.335 323.492C542.489 323.235 542.735 323.03 543.072 322.876C543.417 322.722 543.879 322.645 544.458 322.645H546.306V323.404H544.502C543.974 323.404 543.619 323.492 543.435 323.668C543.252 323.844 543.16 324.057 543.16 324.306C543.16 324.592 543.274 324.823 543.501 324.999C543.729 325.168 544.044 325.252 544.447 325.252C544.843 325.252 545.188 325.164 545.481 324.988C545.782 324.812 545.998 324.555 546.13 324.218L546.339 324.944C546.2 325.289 545.954 325.564 545.602 325.769C545.25 325.967 544.807 326.066 544.271 326.066ZM549.141 326V320.17H550.153V321.754L550.054 321.358C550.215 320.955 550.486 320.647 550.868 320.434C551.249 320.221 551.718 320.115 552.276 320.115V321.138C552.232 321.131 552.188 321.127 552.144 321.127C552.107 321.127 552.07 321.127 552.034 321.127C551.469 321.127 551.022 321.296 550.692 321.633C550.362 321.97 550.197 322.458 550.197 323.096V326H549.141ZM556.064 326.066C555.47 326.066 554.939 325.938 554.469 325.681C554.007 325.424 553.644 325.072 553.38 324.625C553.116 324.178 552.984 323.664 552.984 323.085C552.984 322.506 553.116 321.992 553.38 321.545C553.644 321.098 554.007 320.749 554.469 320.5C554.939 320.243 555.47 320.115 556.064 320.115C556.592 320.115 557.062 320.221 557.472 320.434C557.89 320.639 558.213 320.947 558.44 321.358L557.637 321.875C557.447 321.589 557.212 321.38 556.933 321.248C556.662 321.109 556.369 321.039 556.053 321.039C555.672 321.039 555.331 321.123 555.03 321.292C554.73 321.461 554.491 321.699 554.315 322.007C554.139 322.308 554.051 322.667 554.051 323.085C554.051 323.503 554.139 323.866 554.315 324.174C554.491 324.482 554.73 324.72 555.03 324.889C555.331 325.058 555.672 325.142 556.053 325.142C556.369 325.142 556.662 325.076 556.933 324.944C557.212 324.805 557.447 324.592 557.637 324.306L558.44 324.812C558.213 325.215 557.89 325.527 557.472 325.747C557.062 325.96 556.592 326.066 556.064 326.066ZM563.427 326V324.768L563.372 324.537V322.436C563.372 321.989 563.24 321.644 562.976 321.402C562.719 321.153 562.33 321.028 561.81 321.028C561.465 321.028 561.128 321.087 560.798 321.204C560.468 321.314 560.189 321.464 559.962 321.655L559.522 320.863C559.822 320.621 560.182 320.438 560.6 320.313C561.025 320.181 561.469 320.115 561.931 320.115C562.73 320.115 563.346 320.309 563.779 320.698C564.211 321.087 564.428 321.681 564.428 322.48V326H563.427ZM561.513 326.066C561.08 326.066 560.699 325.993 560.369 325.846C560.046 325.699 559.797 325.498 559.621 325.241C559.445 324.977 559.357 324.68 559.357 324.35C559.357 324.035 559.43 323.749 559.577 323.492C559.731 323.235 559.976 323.03 560.314 322.876C560.658 322.722 561.12 322.645 561.7 322.645H563.548V323.404H561.744C561.216 323.404 560.86 323.492 560.677 323.668C560.493 323.844 560.402 324.057 560.402 324.306C560.402 324.592 560.515 324.823 560.743 324.999C560.97 325.168 561.285 325.252 561.689 325.252C562.085 325.252 562.429 325.164 562.723 324.988C563.023 324.812 563.24 324.555 563.372 324.218L563.581 324.944C563.441 325.289 563.196 325.564 562.844 325.769C562.492 325.967 562.048 326.066 561.513 326.066ZM363.673 343.066C363.189 343.066 362.727 343 362.287 342.868C361.854 342.736 361.513 342.575 361.264 342.384L361.704 341.548C361.953 341.717 362.261 341.86 362.628 341.977C362.995 342.094 363.369 342.153 363.75 342.153C364.241 342.153 364.593 342.083 364.806 341.944C365.026 341.805 365.136 341.61 365.136 341.361C365.136 341.178 365.07 341.035 364.938 340.932C364.806 340.829 364.63 340.752 364.41 340.701C364.197 340.65 363.959 340.606 363.695 340.569C363.431 340.525 363.167 340.474 362.903 340.415C362.639 340.349 362.397 340.261 362.177 340.151C361.957 340.034 361.781 339.876 361.649 339.678C361.517 339.473 361.451 339.201 361.451 338.864C361.451 338.512 361.55 338.204 361.748 337.94C361.946 337.676 362.225 337.474 362.584 337.335C362.951 337.188 363.383 337.115 363.882 337.115C364.263 337.115 364.648 337.163 365.037 337.258C365.433 337.346 365.756 337.474 366.005 337.643L365.554 338.479C365.29 338.303 365.015 338.182 364.729 338.116C364.443 338.05 364.157 338.017 363.871 338.017C363.409 338.017 363.064 338.094 362.837 338.248C362.61 338.395 362.496 338.585 362.496 338.82C362.496 339.018 362.562 339.172 362.694 339.282C362.833 339.385 363.009 339.465 363.222 339.524C363.442 339.583 363.684 339.634 363.948 339.678C364.212 339.715 364.476 339.766 364.74 339.832C365.004 339.891 365.242 339.975 365.455 340.085C365.675 340.195 365.851 340.349 365.983 340.547C366.122 340.745 366.192 341.009 366.192 341.339C366.192 341.691 366.089 341.995 365.884 342.252C365.679 342.509 365.389 342.71 365.015 342.857C364.641 342.996 364.194 343.066 363.673 343.066ZM370.009 343.066C369.422 343.066 368.901 342.938 368.447 342.681C367.992 342.424 367.633 342.072 367.369 341.625C367.105 341.17 366.973 340.657 366.973 340.085C366.973 339.506 367.105 338.992 367.369 338.545C367.633 338.098 367.992 337.749 368.447 337.5C368.901 337.243 369.422 337.115 370.009 337.115C370.588 337.115 371.105 337.243 371.56 337.5C372.022 337.749 372.381 338.098 372.638 338.545C372.902 338.985 373.034 339.498 373.034 340.085C373.034 340.664 372.902 341.178 372.638 341.625C372.381 342.072 372.022 342.424 371.56 342.681C371.105 342.938 370.588 343.066 370.009 343.066ZM370.009 342.142C370.383 342.142 370.716 342.058 371.01 341.889C371.31 341.72 371.545 341.482 371.714 341.174C371.882 340.859 371.967 340.496 371.967 340.085C371.967 339.667 371.882 339.308 371.714 339.007C371.545 338.699 371.31 338.461 371.01 338.292C370.716 338.123 370.383 338.039 370.009 338.039C369.635 338.039 369.301 338.123 369.008 338.292C368.714 338.461 368.48 338.699 368.304 339.007C368.128 339.308 368.04 339.667 368.04 340.085C368.04 340.496 368.128 340.859 368.304 341.174C368.48 341.482 368.714 341.72 369.008 341.889C369.301 342.058 369.635 342.142 370.009 342.142ZM369.173 336.323L370.669 334.893H372.011L370.163 336.323H369.173ZM374.494 343V334.838H375.55V343H374.494ZM377.566 343V337.17H378.622V343H377.566ZM378.094 336.048C377.889 336.048 377.717 335.982 377.577 335.85C377.445 335.718 377.379 335.557 377.379 335.366C377.379 335.168 377.445 335.003 377.577 334.871C377.717 334.739 377.889 334.673 378.094 334.673C378.3 334.673 378.468 334.739 378.6 334.871C378.74 334.996 378.809 335.153 378.809 335.344C378.809 335.542 378.743 335.711 378.611 335.85C378.479 335.982 378.307 336.048 378.094 336.048ZM383.048 343.066C382.483 343.066 381.977 342.941 381.53 342.692C381.09 342.443 380.741 342.094 380.485 341.647C380.228 341.2 380.1 340.679 380.1 340.085C380.1 339.491 380.228 338.974 380.485 338.534C380.741 338.087 381.09 337.738 381.53 337.489C381.977 337.24 382.483 337.115 383.048 337.115C383.539 337.115 383.983 337.225 384.379 337.445C384.775 337.665 385.09 337.995 385.325 338.435C385.567 338.875 385.688 339.425 385.688 340.085C385.688 340.745 385.57 341.295 385.336 341.735C385.108 342.175 384.797 342.509 384.401 342.736C384.005 342.956 383.554 343.066 383.048 343.066ZM383.136 342.142C383.502 342.142 383.832 342.058 384.126 341.889C384.426 341.72 384.661 341.482 384.83 341.174C385.006 340.859 385.094 340.496 385.094 340.085C385.094 339.667 385.006 339.308 384.83 339.007C384.661 338.699 384.426 338.461 384.126 338.292C383.832 338.123 383.502 338.039 383.136 338.039C382.762 338.039 382.428 338.123 382.135 338.292C381.841 338.461 381.607 338.699 381.431 339.007C381.255 339.308 381.167 339.667 381.167 340.085C381.167 340.496 381.255 340.859 381.431 341.174C381.607 341.482 381.841 341.72 382.135 341.889C382.428 342.058 382.762 342.142 383.136 342.142ZM385.127 343V341.427L385.193 340.074L385.083 338.721V334.838H386.139V343H385.127ZM391.756 343V341.768L391.701 341.537V339.436C391.701 338.989 391.569 338.644 391.305 338.402C391.048 338.153 390.659 338.028 390.139 338.028C389.794 338.028 389.457 338.087 389.127 338.204C388.797 338.314 388.518 338.464 388.291 338.655L387.851 337.863C388.151 337.621 388.511 337.438 388.929 337.313C389.354 337.181 389.798 337.115 390.26 337.115C391.059 337.115 391.675 337.309 392.108 337.698C392.54 338.087 392.757 338.681 392.757 339.48V343H391.756ZM389.842 343.066C389.409 343.066 389.028 342.993 388.698 342.846C388.375 342.699 388.126 342.498 387.95 342.241C387.774 341.977 387.686 341.68 387.686 341.35C387.686 341.035 387.759 340.749 387.906 340.492C388.06 340.235 388.305 340.03 388.643 339.876C388.987 339.722 389.449 339.645 390.029 339.645H391.877V340.404H390.073C389.545 340.404 389.189 340.492 389.006 340.668C388.822 340.844 388.731 341.057 388.731 341.306C388.731 341.592 388.844 341.823 389.072 341.999C389.299 342.168 389.614 342.252 390.018 342.252C390.414 342.252 390.758 342.164 391.052 341.988C391.352 341.812 391.569 341.555 391.701 341.218L391.91 341.944C391.77 342.289 391.525 342.564 391.173 342.769C390.821 342.967 390.377 343.066 389.842 343.066ZM397.918 345.2C397.639 345.2 397.368 345.152 397.104 345.057C396.84 344.969 396.613 344.837 396.422 344.661L396.873 343.869C397.02 344.008 397.181 344.115 397.357 344.188C397.533 344.261 397.72 344.298 397.918 344.298C398.175 344.298 398.387 344.232 398.556 344.1C398.725 343.968 398.882 343.733 399.029 343.396L399.392 342.593L399.502 342.461L401.79 337.17H402.824L399.997 343.583C399.828 343.994 399.638 344.316 399.425 344.551C399.22 344.786 398.992 344.951 398.743 345.046C398.494 345.149 398.219 345.2 397.918 345.2ZM399.304 343.187L396.642 337.17H397.742L400.008 342.362L399.304 343.187ZM409.305 343.066C408.711 343.066 408.179 342.938 407.71 342.681C407.248 342.424 406.885 342.072 406.621 341.625C406.357 341.178 406.225 340.664 406.225 340.085C406.225 339.506 406.357 338.992 406.621 338.545C406.885 338.098 407.248 337.749 407.71 337.5C408.179 337.243 408.711 337.115 409.305 337.115C409.833 337.115 410.302 337.221 410.713 337.434C411.131 337.639 411.453 337.947 411.681 338.358L410.878 338.875C410.687 338.589 410.452 338.38 410.174 338.248C409.902 338.109 409.609 338.039 409.294 338.039C408.912 338.039 408.571 338.123 408.271 338.292C407.97 338.461 407.732 338.699 407.556 339.007C407.38 339.308 407.292 339.667 407.292 340.085C407.292 340.503 407.38 340.866 407.556 341.174C407.732 341.482 407.97 341.72 408.271 341.889C408.571 342.058 408.912 342.142 409.294 342.142C409.609 342.142 409.902 342.076 410.174 341.944C410.452 341.805 410.687 341.592 410.878 341.306L411.681 341.812C411.453 342.215 411.131 342.527 410.713 342.747C410.302 342.96 409.833 343.066 409.305 343.066ZM415.459 343.066C414.872 343.066 414.352 342.938 413.897 342.681C413.442 342.424 413.083 342.072 412.819 341.625C412.555 341.17 412.423 340.657 412.423 340.085C412.423 339.506 412.555 338.992 412.819 338.545C413.083 338.098 413.442 337.749 413.897 337.5C414.352 337.243 414.872 337.115 415.459 337.115C416.038 337.115 416.555 337.243 417.01 337.5C417.472 337.749 417.831 338.098 418.088 338.545C418.352 338.985 418.484 339.498 418.484 340.085C418.484 340.664 418.352 341.178 418.088 341.625C417.831 342.072 417.472 342.424 417.01 342.681C416.555 342.938 416.038 343.066 415.459 343.066ZM415.459 342.142C415.833 342.142 416.167 342.058 416.46 341.889C416.761 341.72 416.995 341.482 417.164 341.174C417.333 340.859 417.417 340.496 417.417 340.085C417.417 339.667 417.333 339.308 417.164 339.007C416.995 338.699 416.761 338.461 416.46 338.292C416.167 338.123 415.833 338.039 415.459 338.039C415.085 338.039 414.751 338.123 414.458 338.292C414.165 338.461 413.93 338.699 413.754 339.007C413.578 339.308 413.49 339.667 413.49 340.085C413.49 340.496 413.578 340.859 413.754 341.174C413.93 341.482 414.165 341.72 414.458 341.889C414.751 342.058 415.085 342.142 415.459 342.142ZM423.057 337.115C423.534 337.115 423.952 337.207 424.311 337.39C424.678 337.573 424.964 337.852 425.169 338.226C425.375 338.6 425.477 339.073 425.477 339.645V343H424.421V339.766C424.421 339.201 424.282 338.776 424.003 338.49C423.732 338.204 423.347 338.061 422.848 338.061C422.474 338.061 422.148 338.134 421.869 338.281C421.591 338.428 421.374 338.644 421.22 338.93C421.074 339.216 421 339.572 421 339.997V343H419.944V334.838H421V338.743L420.791 338.325C420.982 337.944 421.275 337.647 421.671 337.434C422.067 337.221 422.529 337.115 423.057 337.115ZM430.028 343.066C429.404 343.066 428.854 342.938 428.378 342.681C427.908 342.424 427.542 342.072 427.278 341.625C427.021 341.178 426.893 340.664 426.893 340.085C426.893 339.506 427.017 338.992 427.267 338.545C427.523 338.098 427.872 337.749 428.312 337.5C428.759 337.243 429.261 337.115 429.819 337.115C430.383 337.115 430.882 337.24 431.315 337.489C431.747 337.738 432.085 338.09 432.327 338.545C432.576 338.992 432.701 339.517 432.701 340.118C432.701 340.162 432.697 340.213 432.69 340.272C432.69 340.331 432.686 340.386 432.679 340.437H427.718V339.678H432.129L431.7 339.942C431.707 339.568 431.63 339.234 431.469 338.941C431.307 338.648 431.084 338.42 430.798 338.259C430.519 338.09 430.193 338.006 429.819 338.006C429.452 338.006 429.126 338.09 428.84 338.259C428.554 338.42 428.33 338.651 428.169 338.952C428.007 339.245 427.927 339.583 427.927 339.964V340.14C427.927 340.529 428.015 340.877 428.191 341.185C428.374 341.486 428.627 341.72 428.95 341.889C429.272 342.058 429.643 342.142 430.061 342.142C430.405 342.142 430.717 342.083 430.996 341.966C431.282 341.849 431.531 341.673 431.744 341.438L432.327 342.12C432.063 342.428 431.733 342.663 431.337 342.824C430.948 342.985 430.512 343.066 430.028 343.066ZM434.167 343V337.17H435.179V338.754L435.08 338.358C435.241 337.955 435.513 337.647 435.894 337.434C436.275 337.221 436.745 337.115 437.302 337.115V338.138C437.258 338.131 437.214 338.127 437.17 338.127C437.133 338.127 437.097 338.127 437.06 338.127C436.495 338.127 436.048 338.296 435.718 338.633C435.388 338.97 435.223 339.458 435.223 340.096V343H434.167ZM441.146 343.066C440.522 343.066 439.972 342.938 439.496 342.681C439.026 342.424 438.66 342.072 438.396 341.625C438.139 341.178 438.011 340.664 438.011 340.085C438.011 339.506 438.135 338.992 438.385 338.545C438.641 338.098 438.99 337.749 439.43 337.5C439.877 337.243 440.379 337.115 440.937 337.115C441.501 337.115 442 337.24 442.433 337.489C442.865 337.738 443.203 338.09 443.445 338.545C443.694 338.992 443.819 339.517 443.819 340.118C443.819 340.162 443.815 340.213 443.808 340.272C443.808 340.331 443.804 340.386 443.797 340.437H438.836V339.678H443.247L442.818 339.942C442.825 339.568 442.748 339.234 442.587 338.941C442.425 338.648 442.202 338.42 441.916 338.259C441.637 338.09 441.311 338.006 440.937 338.006C440.57 338.006 440.244 338.09 439.958 338.259C439.672 338.42 439.448 338.651 439.287 338.952C439.125 339.245 439.045 339.583 439.045 339.964V340.14C439.045 340.529 439.133 340.877 439.309 341.185C439.492 341.486 439.745 341.72 440.068 341.889C440.39 342.058 440.761 342.142 441.179 342.142C441.523 342.142 441.835 342.083 442.114 341.966C442.4 341.849 442.649 341.673 442.862 341.438L443.445 342.12C443.181 342.428 442.851 342.663 442.455 342.824C442.066 342.985 441.63 343.066 441.146 343.066ZM448.398 337.115C448.875 337.115 449.293 337.207 449.652 337.39C450.019 337.573 450.305 337.852 450.51 338.226C450.716 338.6 450.818 339.073 450.818 339.645V343H449.762V339.766C449.762 339.201 449.623 338.776 449.344 338.49C449.073 338.204 448.688 338.061 448.189 338.061C447.815 338.061 447.489 338.134 447.21 338.281C446.932 338.428 446.715 338.644 446.561 338.93C446.415 339.216 446.341 339.572 446.341 339.997V343H445.285V337.17H446.297V338.743L446.132 338.325C446.323 337.944 446.616 337.647 447.012 337.434C447.408 337.221 447.87 337.115 448.398 337.115ZM454.774 343.066C454.188 343.066 453.733 342.908 453.41 342.593C453.088 342.278 452.926 341.827 452.926 341.24V335.894H453.982V341.196C453.982 341.511 454.059 341.753 454.213 341.922C454.375 342.091 454.602 342.175 454.895 342.175C455.225 342.175 455.5 342.083 455.72 341.9L456.05 342.659C455.889 342.798 455.695 342.901 455.467 342.967C455.247 343.033 455.016 343.066 454.774 343.066ZM451.936 338.039V337.17H455.654V338.039H451.936ZM459.73 343.066C459.106 343.066 458.556 342.938 458.08 342.681C457.61 342.424 457.244 342.072 456.98 341.625C456.723 341.178 456.595 340.664 456.595 340.085C456.595 339.506 456.719 338.992 456.969 338.545C457.225 338.098 457.574 337.749 458.014 337.5C458.461 337.243 458.963 337.115 459.521 337.115C460.085 337.115 460.584 337.24 461.017 337.489C461.449 337.738 461.787 338.09 462.029 338.545C462.278 338.992 462.403 339.517 462.403 340.118C462.403 340.162 462.399 340.213 462.392 340.272C462.392 340.331 462.388 340.386 462.381 340.437H457.42V339.678H461.831L461.402 339.942C461.409 339.568 461.332 339.234 461.171 338.941C461.009 338.648 460.786 338.42 460.5 338.259C460.221 338.09 459.895 338.006 459.521 338.006C459.154 338.006 458.828 338.09 458.542 338.259C458.256 338.42 458.032 338.651 457.871 338.952C457.709 339.245 457.629 339.583 457.629 339.964V340.14C457.629 340.529 457.717 340.877 457.893 341.185C458.076 341.486 458.329 341.72 458.652 341.889C458.974 342.058 459.345 342.142 459.763 342.142C460.107 342.142 460.419 342.083 460.698 341.966C460.984 341.849 461.233 341.673 461.446 341.438L462.029 342.12C461.765 342.428 461.435 342.663 461.039 342.824C460.65 342.985 460.214 343.066 459.73 343.066Z" fill="black"/>
<path d="M486.18 398.08C485.647 398.08 485.153 397.993 484.7 397.82C484.253 397.64 483.863 397.39 483.53 397.07C483.203 396.743 482.947 396.363 482.76 395.93C482.573 395.497 482.48 395.02 482.48 394.5C482.48 393.98 482.573 393.503 482.76 393.07C482.947 392.637 483.207 392.26 483.54 391.94C483.873 391.613 484.263 391.363 484.71 391.19C485.163 391.01 485.657 390.92 486.19 390.92C486.73 390.92 487.227 391.013 487.68 391.2C488.14 391.38 488.53 391.65 488.85 392.01L488.2 392.64C487.933 392.36 487.633 392.153 487.3 392.02C486.967 391.88 486.61 391.81 486.23 391.81C485.837 391.81 485.47 391.877 485.13 392.01C484.797 392.143 484.507 392.33 484.26 392.57C484.013 392.81 483.82 393.097 483.68 393.43C483.547 393.757 483.48 394.113 483.48 394.5C483.48 394.887 483.547 395.247 483.68 395.58C483.82 395.907 484.013 396.19 484.26 396.43C484.507 396.67 484.797 396.857 485.13 396.99C485.47 397.123 485.837 397.19 486.23 397.19C486.61 397.19 486.967 397.123 487.3 396.99C487.633 396.85 487.933 396.637 488.2 396.35L488.85 396.98C488.53 397.34 488.14 397.613 487.68 397.8C487.227 397.987 486.727 398.08 486.18 398.08ZM490.137 398V390.58H491.097V398H490.137ZM496.22 398V396.88L496.17 396.67V394.76C496.17 394.353 496.05 394.04 495.81 393.82C495.576 393.593 495.223 393.48 494.75 393.48C494.436 393.48 494.13 393.533 493.83 393.64C493.53 393.74 493.276 393.877 493.07 394.05L492.67 393.33C492.943 393.11 493.27 392.943 493.65 392.83C494.036 392.71 494.44 392.65 494.86 392.65C495.586 392.65 496.146 392.827 496.54 393.18C496.933 393.533 497.13 394.073 497.13 394.8V398H496.22ZM494.48 398.06C494.086 398.06 493.74 397.993 493.44 397.86C493.146 397.727 492.92 397.543 492.76 397.31C492.6 397.07 492.52 396.8 492.52 396.5C492.52 396.213 492.586 395.953 492.72 395.72C492.86 395.487 493.083 395.3 493.39 395.16C493.703 395.02 494.123 394.95 494.65 394.95H496.33V395.64H494.69C494.21 395.64 493.886 395.72 493.72 395.88C493.553 396.04 493.47 396.233 493.47 396.46C493.47 396.72 493.573 396.93 493.78 397.09C493.986 397.243 494.273 397.32 494.64 397.32C495 397.32 495.313 397.24 495.58 397.08C495.853 396.92 496.05 396.687 496.17 396.38L496.36 397.04C496.233 397.353 496.01 397.603 495.69 397.79C495.37 397.97 494.966 398.06 494.48 398.06ZM498.906 398V392.7H499.826V394.14L499.736 393.78C499.883 393.413 500.129 393.133 500.476 392.94C500.823 392.747 501.249 392.65 501.756 392.65V393.58C501.716 393.573 501.676 393.57 501.636 393.57C501.603 393.57 501.569 393.57 501.536 393.57C501.023 393.57 500.616 393.723 500.316 394.03C500.016 394.337 499.866 394.78 499.866 395.36V398H498.906ZM505.16 398.06C504.627 398.06 504.154 397.943 503.74 397.71C503.327 397.477 503 397.157 502.76 396.75C502.52 396.337 502.4 395.87 502.4 395.35C502.4 394.823 502.52 394.357 502.76 393.95C503 393.543 503.327 393.227 503.74 393C504.154 392.767 504.627 392.65 505.16 392.65C505.687 392.65 506.157 392.767 506.57 393C506.99 393.227 507.317 393.543 507.55 393.95C507.79 394.35 507.91 394.817 507.91 395.35C507.91 395.877 507.79 396.343 507.55 396.75C507.317 397.157 506.99 397.477 506.57 397.71C506.157 397.943 505.687 398.06 505.16 398.06ZM505.16 397.22C505.5 397.22 505.804 397.143 506.07 396.99C506.344 396.837 506.557 396.62 506.71 396.34C506.864 396.053 506.94 395.723 506.94 395.35C506.94 394.97 506.864 394.643 506.71 394.37C506.557 394.09 506.344 393.873 506.07 393.72C505.804 393.567 505.5 393.49 505.16 393.49C504.82 393.49 504.517 393.567 504.25 393.72C503.984 393.873 503.77 394.09 503.61 394.37C503.45 394.643 503.37 394.97 503.37 395.35C503.37 395.723 503.45 396.053 503.61 396.34C503.77 396.62 503.984 396.837 504.25 396.99C504.517 397.143 504.82 397.22 505.16 397.22ZM508.741 399.48L509.241 397.46L509.371 398.04C509.178 398.04 509.014 397.98 508.881 397.86C508.754 397.74 508.691 397.577 508.691 397.37C508.691 397.17 508.754 397.007 508.881 396.88C509.014 396.753 509.174 396.69 509.361 396.69C509.554 396.69 509.711 396.757 509.831 396.89C509.951 397.017 510.011 397.177 510.011 397.37C510.011 397.437 510.004 397.503 509.991 397.57C509.984 397.63 509.968 397.703 509.941 397.79C509.921 397.87 509.888 397.97 509.841 398.09L509.371 399.48H508.741ZM517.362 398V396.88L517.312 396.67V394.76C517.312 394.353 517.192 394.04 516.952 393.82C516.719 393.593 516.365 393.48 515.892 393.48C515.579 393.48 515.272 393.533 514.972 393.64C514.672 393.74 514.419 393.877 514.212 394.05L513.812 393.33C514.085 393.11 514.412 392.943 514.792 392.83C515.179 392.71 515.582 392.65 516.002 392.65C516.729 392.65 517.289 392.827 517.682 393.18C518.075 393.533 518.272 394.073 518.272 394.8V398H517.362ZM515.622 398.06C515.229 398.06 514.882 397.993 514.582 397.86C514.289 397.727 514.062 397.543 513.902 397.31C513.742 397.07 513.662 396.8 513.662 396.5C513.662 396.213 513.729 395.953 513.862 395.72C514.002 395.487 514.225 395.3 514.532 395.16C514.845 395.02 515.265 394.95 515.792 394.95H517.472V395.64H515.832C515.352 395.64 515.029 395.72 514.862 395.88C514.695 396.04 514.612 396.233 514.612 396.46C514.612 396.72 514.715 396.93 514.922 397.09C515.129 397.243 515.415 397.32 515.782 397.32C516.142 397.32 516.455 397.24 516.722 397.08C516.995 396.92 517.192 396.687 517.312 396.38L517.502 397.04C517.375 397.353 517.152 397.603 516.832 397.79C516.512 397.97 516.109 398.06 515.622 398.06ZM522.369 400C521.882 400 521.409 399.93 520.949 399.79C520.495 399.657 520.125 399.463 519.839 399.21L520.299 398.47C520.545 398.683 520.849 398.85 521.209 398.97C521.569 399.097 521.945 399.16 522.339 399.16C522.965 399.16 523.425 399.013 523.719 398.72C524.012 398.427 524.159 397.98 524.159 397.38V396.26L524.259 395.21L524.209 394.15V392.7H525.119V397.28C525.119 398.213 524.885 398.9 524.419 399.34C523.952 399.78 523.269 400 522.369 400ZM522.249 397.78C521.735 397.78 521.275 397.673 520.869 397.46C520.469 397.24 520.149 396.937 519.909 396.55C519.675 396.163 519.559 395.717 519.559 395.21C519.559 394.697 519.675 394.25 519.909 393.87C520.149 393.483 520.469 393.183 520.869 392.97C521.275 392.757 521.735 392.65 522.249 392.65C522.702 392.65 523.115 392.743 523.489 392.93C523.862 393.11 524.159 393.39 524.379 393.77C524.605 394.15 524.719 394.63 524.719 395.21C524.719 395.783 524.605 396.26 524.379 396.64C524.159 397.02 523.862 397.307 523.489 397.5C523.115 397.687 522.702 397.78 522.249 397.78ZM522.359 396.94C522.712 396.94 523.025 396.867 523.299 396.72C523.572 396.573 523.785 396.37 523.939 396.11C524.099 395.85 524.179 395.55 524.179 395.21C524.179 394.87 524.099 394.57 523.939 394.31C523.785 394.05 523.572 393.85 523.299 393.71C523.025 393.563 522.712 393.49 522.359 393.49C522.005 393.49 521.689 393.563 521.409 393.71C521.135 393.85 520.919 394.05 520.759 394.31C520.605 394.57 520.529 394.87 520.529 395.21C520.529 395.55 520.605 395.85 520.759 396.11C520.919 396.37 521.135 396.573 521.409 396.72C521.689 396.867 522.005 396.94 522.359 396.94ZM529.313 398.06C528.746 398.06 528.246 397.943 527.813 397.71C527.386 397.477 527.053 397.157 526.813 396.75C526.58 396.343 526.463 395.877 526.463 395.35C526.463 394.823 526.576 394.357 526.803 393.95C527.036 393.543 527.353 393.227 527.753 393C528.16 392.767 528.616 392.65 529.123 392.65C529.636 392.65 530.09 392.763 530.483 392.99C530.876 393.217 531.183 393.537 531.403 393.95C531.63 394.357 531.743 394.833 531.743 395.38C531.743 395.42 531.74 395.467 531.733 395.52C531.733 395.573 531.73 395.623 531.723 395.67H527.213V394.98H531.223L530.833 395.22C530.84 394.88 530.77 394.577 530.623 394.31C530.476 394.043 530.273 393.837 530.013 393.69C529.76 393.537 529.463 393.46 529.123 393.46C528.79 393.46 528.493 393.537 528.233 393.69C527.973 393.837 527.77 394.047 527.623 394.32C527.476 394.587 527.403 394.893 527.403 395.24V395.4C527.403 395.753 527.483 396.07 527.643 396.35C527.81 396.623 528.04 396.837 528.333 396.99C528.626 397.143 528.963 397.22 529.343 397.22C529.656 397.22 529.94 397.167 530.193 397.06C530.453 396.953 530.68 396.793 530.873 396.58L531.403 397.2C531.163 397.48 530.863 397.693 530.503 397.84C530.15 397.987 529.753 398.06 529.313 398.06ZM535.906 392.65C536.339 392.65 536.719 392.733 537.046 392.9C537.379 393.067 537.639 393.32 537.826 393.66C538.013 394 538.106 394.43 538.106 394.95V398H537.146V395.06C537.146 394.547 537.019 394.16 536.766 393.9C536.519 393.64 536.169 393.51 535.716 393.51C535.376 393.51 535.079 393.577 534.826 393.71C534.573 393.843 534.376 394.04 534.236 394.3C534.103 394.56 534.036 394.883 534.036 395.27V398H533.076V392.7H533.996V394.13L533.846 393.75C534.019 393.403 534.286 393.133 534.646 392.94C535.006 392.747 535.426 392.65 535.906 392.65ZM542.073 398.06C541.559 398.06 541.099 397.947 540.693 397.72C540.293 397.493 539.976 397.177 539.743 396.77C539.509 396.363 539.393 395.89 539.393 395.35C539.393 394.81 539.509 394.34 539.743 393.94C539.976 393.533 540.293 393.217 540.693 392.99C541.099 392.763 541.559 392.65 542.073 392.65C542.519 392.65 542.923 392.75 543.283 392.95C543.643 393.15 543.929 393.45 544.143 393.85C544.363 394.25 544.473 394.75 544.473 395.35C544.473 395.95 544.366 396.45 544.153 396.85C543.946 397.25 543.663 397.553 543.303 397.76C542.943 397.96 542.533 398.06 542.073 398.06ZM542.153 397.22C542.486 397.22 542.786 397.143 543.053 396.99C543.326 396.837 543.539 396.62 543.693 396.34C543.853 396.053 543.933 395.723 543.933 395.35C543.933 394.97 543.853 394.643 543.693 394.37C543.539 394.09 543.326 393.873 543.053 393.72C542.786 393.567 542.486 393.49 542.153 393.49C541.813 393.49 541.509 393.567 541.243 393.72C540.976 393.873 540.763 394.09 540.603 394.37C540.443 394.643 540.363 394.97 540.363 395.35C540.363 395.723 540.443 396.053 540.603 396.34C540.763 396.62 540.976 396.837 541.243 396.99C541.509 397.143 541.813 397.22 542.153 397.22ZM543.963 398V396.57L544.023 395.34L543.923 394.11V390.58H544.883V398H543.963ZM549.989 398V396.88L549.939 396.67V394.76C549.939 394.353 549.819 394.04 549.579 393.82C549.346 393.593 548.992 393.48 548.519 393.48C548.206 393.48 547.899 393.533 547.599 393.64C547.299 393.74 547.046 393.877 546.839 394.05L546.439 393.33C546.712 393.11 547.039 392.943 547.419 392.83C547.806 392.71 548.209 392.65 548.629 392.65C549.356 392.65 549.916 392.827 550.309 393.18C550.702 393.533 550.899 394.073 550.899 394.8V398H549.989ZM548.249 398.06C547.856 398.06 547.509 397.993 547.209 397.86C546.916 397.727 546.689 397.543 546.529 397.31C546.369 397.07 546.289 396.8 546.289 396.5C546.289 396.213 546.356 395.953 546.489 395.72C546.629 395.487 546.852 395.3 547.159 395.16C547.472 395.02 547.892 394.95 548.419 394.95H550.099V395.64H548.459C547.979 395.64 547.656 395.72 547.489 395.88C547.322 396.04 547.239 396.233 547.239 396.46C547.239 396.72 547.342 396.93 547.549 397.09C547.756 397.243 548.042 397.32 548.409 397.32C548.769 397.32 549.082 397.24 549.349 397.08C549.622 396.92 549.819 396.687 549.939 396.38L550.129 397.04C550.002 397.353 549.779 397.603 549.459 397.79C549.139 397.97 548.736 398.06 548.249 398.06ZM552.676 398V392.7H553.596V394.14L553.506 393.78C553.652 393.413 553.899 393.133 554.246 392.94C554.592 392.747 555.019 392.65 555.526 392.65V393.58C555.486 393.573 555.446 393.57 555.406 393.57C555.372 393.57 555.339 393.57 555.306 393.57C554.792 393.57 554.386 393.723 554.086 394.03C553.786 394.337 553.636 394.78 553.636 395.36V398H552.676ZM559.02 398.06C558.453 398.06 557.953 397.943 557.52 397.71C557.093 397.477 556.76 397.157 556.52 396.75C556.287 396.343 556.17 395.877 556.17 395.35C556.17 394.823 556.283 394.357 556.51 393.95C556.743 393.543 557.06 393.227 557.46 393C557.867 392.767 558.323 392.65 558.83 392.65C559.343 392.65 559.797 392.763 560.19 392.99C560.583 393.217 560.89 393.537 561.11 393.95C561.337 394.357 561.45 394.833 561.45 395.38C561.45 395.42 561.447 395.467 561.44 395.52C561.44 395.573 561.437 395.623 561.43 395.67H556.92V394.98H560.93L560.54 395.22C560.547 394.88 560.477 394.577 560.33 394.31C560.183 394.043 559.98 393.837 559.72 393.69C559.467 393.537 559.17 393.46 558.83 393.46C558.497 393.46 558.2 393.537 557.94 393.69C557.68 393.837 557.477 394.047 557.33 394.32C557.183 394.587 557.11 394.893 557.11 395.24V395.4C557.11 395.753 557.19 396.07 557.35 396.35C557.517 396.623 557.747 396.837 558.04 396.99C558.333 397.143 558.67 397.22 559.05 397.22C559.363 397.22 559.647 397.167 559.9 397.06C560.16 396.953 560.387 396.793 560.58 396.58L561.11 397.2C560.87 397.48 560.57 397.693 560.21 397.84C559.857 397.987 559.46 398.06 559.02 398.06ZM569.413 392.65C569.84 392.65 570.216 392.733 570.543 392.9C570.87 393.067 571.123 393.32 571.303 393.66C571.49 394 571.583 394.43 571.583 394.95V398H570.623V395.06C570.623 394.547 570.503 394.16 570.263 393.9C570.023 393.64 569.686 393.51 569.253 393.51C568.933 393.51 568.653 393.577 568.413 393.71C568.173 393.843 567.986 394.04 567.853 394.3C567.726 394.56 567.663 394.883 567.663 395.27V398H566.703V395.06C566.703 394.547 566.583 394.16 566.343 393.9C566.11 393.64 565.773 393.51 565.333 393.51C565.02 393.51 564.743 393.577 564.503 393.71C564.263 393.843 564.076 394.04 563.943 394.3C563.81 394.56 563.743 394.883 563.743 395.27V398H562.783V392.7H563.703V394.11L563.553 393.75C563.72 393.403 563.976 393.133 564.323 392.94C564.67 392.747 565.073 392.65 565.533 392.65C566.04 392.65 566.476 392.777 566.843 393.03C567.21 393.277 567.45 393.653 567.563 394.16L567.173 394C567.333 393.593 567.613 393.267 568.013 393.02C568.413 392.773 568.88 392.65 569.413 392.65ZM575.619 398.06C575.086 398.06 574.613 397.943 574.199 397.71C573.786 397.477 573.459 397.157 573.219 396.75C572.979 396.337 572.859 395.87 572.859 395.35C572.859 394.823 572.979 394.357 573.219 393.95C573.459 393.543 573.786 393.227 574.199 393C574.613 392.767 575.086 392.65 575.619 392.65C576.146 392.65 576.616 392.767 577.029 393C577.449 393.227 577.776 393.543 578.009 393.95C578.249 394.35 578.369 394.817 578.369 395.35C578.369 395.877 578.249 396.343 578.009 396.75C577.776 397.157 577.449 397.477 577.029 397.71C576.616 397.943 576.146 398.06 575.619 398.06ZM575.619 397.22C575.959 397.22 576.263 397.143 576.529 396.99C576.803 396.837 577.016 396.62 577.169 396.34C577.323 396.053 577.399 395.723 577.399 395.35C577.399 394.97 577.323 394.643 577.169 394.37C577.016 394.09 576.803 393.873 576.529 393.72C576.263 393.567 575.959 393.49 575.619 393.49C575.279 393.49 574.976 393.567 574.709 393.72C574.443 393.873 574.229 394.09 574.069 394.37C573.909 394.643 573.829 394.97 573.829 395.35C573.829 395.723 573.909 396.053 574.069 396.34C574.229 396.62 574.443 396.837 574.709 396.99C574.976 397.143 575.279 397.22 575.619 397.22ZM581.217 398.06C580.777 398.06 580.357 398 579.957 397.88C579.564 397.76 579.254 397.613 579.027 397.44L579.427 396.68C579.654 396.833 579.934 396.963 580.267 397.07C580.6 397.177 580.94 397.23 581.287 397.23C581.734 397.23 582.054 397.167 582.247 397.04C582.447 396.913 582.547 396.737 582.547 396.51C582.547 396.343 582.487 396.213 582.367 396.12C582.247 396.027 582.087 395.957 581.887 395.91C581.694 395.863 581.477 395.823 581.237 395.79C580.997 395.75 580.757 395.703 580.517 395.65C580.277 395.59 580.057 395.51 579.857 395.41C579.657 395.303 579.497 395.16 579.377 394.98C579.257 394.793 579.197 394.547 579.197 394.24C579.197 393.92 579.287 393.64 579.467 393.4C579.647 393.16 579.9 392.977 580.227 392.85C580.56 392.717 580.954 392.65 581.407 392.65C581.754 392.65 582.104 392.693 582.457 392.78C582.817 392.86 583.11 392.977 583.337 393.13L582.927 393.89C582.687 393.73 582.437 393.62 582.177 393.56C581.917 393.5 581.657 393.47 581.397 393.47C580.977 393.47 580.664 393.54 580.457 393.68C580.25 393.813 580.147 393.987 580.147 394.2C580.147 394.38 580.207 394.52 580.327 394.62C580.454 394.713 580.614 394.787 580.807 394.84C581.007 394.893 581.227 394.94 581.467 394.98C581.707 395.013 581.947 395.06 582.187 395.12C582.427 395.173 582.644 395.25 582.837 395.35C583.037 395.45 583.197 395.59 583.317 395.77C583.444 395.95 583.507 396.19 583.507 396.49C583.507 396.81 583.414 397.087 583.227 397.32C583.04 397.553 582.777 397.737 582.437 397.87C582.097 397.997 581.69 398.06 581.217 398.06ZM589.212 398.06C588.679 398.06 588.266 397.917 587.972 397.63C587.679 397.343 587.532 396.933 587.532 396.4V391.54H588.492V396.36C588.492 396.647 588.562 396.867 588.702 397.02C588.849 397.173 589.056 397.25 589.322 397.25C589.622 397.25 589.872 397.167 590.072 397L590.372 397.69C590.226 397.817 590.049 397.91 589.842 397.97C589.642 398.03 589.432 398.06 589.212 398.06ZM586.632 393.49V392.7H590.012V393.49H586.632ZM593.763 398.06C593.31 398.06 592.91 397.977 592.563 397.81C592.223 397.643 591.956 397.39 591.763 397.05C591.576 396.703 591.483 396.27 591.483 395.75V392.7H592.443V395.64C592.443 396.16 592.566 396.55 592.813 396.81C593.066 397.07 593.42 397.2 593.873 397.2C594.206 397.2 594.496 397.133 594.743 397C594.99 396.86 595.18 396.66 595.313 396.4C595.446 396.133 595.513 395.813 595.513 395.44V392.7H596.473V398H595.563V396.57L595.713 396.95C595.54 397.303 595.28 397.577 594.933 397.77C594.586 397.963 594.196 398.06 593.763 398.06ZM482.91 411V405.7H483.83V407.14L483.74 406.78C483.887 406.413 484.133 406.133 484.48 405.94C484.827 405.747 485.253 405.65 485.76 405.65V406.58C485.72 406.573 485.68 406.57 485.64 406.57C485.607 406.57 485.573 406.57 485.54 406.57C485.027 406.57 484.62 406.723 484.32 407.03C484.02 407.337 483.87 407.78 483.87 408.36V411H482.91ZM489.254 411.06C488.688 411.06 488.188 410.943 487.754 410.71C487.328 410.477 486.994 410.157 486.754 409.75C486.521 409.343 486.404 408.877 486.404 408.35C486.404 407.823 486.518 407.357 486.744 406.95C486.978 406.543 487.294 406.227 487.694 406C488.101 405.767 488.558 405.65 489.064 405.65C489.578 405.65 490.031 405.763 490.424 405.99C490.818 406.217 491.124 406.537 491.344 406.95C491.571 407.357 491.684 407.833 491.684 408.38C491.684 408.42 491.681 408.467 491.674 408.52C491.674 408.573 491.671 408.623 491.664 408.67H487.154V407.98H491.164L490.774 408.22C490.781 407.88 490.711 407.577 490.564 407.31C490.418 407.043 490.214 406.837 489.954 406.69C489.701 406.537 489.404 406.46 489.064 406.46C488.731 406.46 488.434 406.537 488.174 406.69C487.914 406.837 487.711 407.047 487.564 407.32C487.418 407.587 487.344 407.893 487.344 408.24V408.4C487.344 408.753 487.424 409.07 487.584 409.35C487.751 409.623 487.981 409.837 488.274 409.99C488.568 410.143 488.904 410.22 489.284 410.22C489.598 410.22 489.881 410.167 490.134 410.06C490.394 409.953 490.621 409.793 490.814 409.58L491.344 410.2C491.104 410.48 490.804 410.693 490.444 410.84C490.091 410.987 489.694 411.06 489.254 411.06ZM495.247 411.06C494.794 411.06 494.394 410.977 494.047 410.81C493.707 410.643 493.441 410.39 493.247 410.05C493.061 409.703 492.967 409.27 492.967 408.75V405.7H493.927V408.64C493.927 409.16 494.051 409.55 494.297 409.81C494.551 410.07 494.904 410.2 495.357 410.2C495.691 410.2 495.981 410.133 496.227 410C496.474 409.86 496.664 409.66 496.797 409.4C496.931 409.133 496.997 408.813 496.997 408.44V405.7H497.957V411H497.047V409.57L497.197 409.95C497.024 410.303 496.764 410.577 496.417 410.77C496.071 410.963 495.681 411.06 495.247 411.06ZM502.615 405.65C503.048 405.65 503.428 405.733 503.755 405.9C504.088 406.067 504.348 406.32 504.535 406.66C504.722 407 504.815 407.43 504.815 407.95V411H503.855V408.06C503.855 407.547 503.728 407.16 503.475 406.9C503.228 406.64 502.878 406.51 502.425 406.51C502.085 406.51 501.788 406.577 501.535 406.71C501.282 406.843 501.085 407.04 500.945 407.3C500.812 407.56 500.745 407.883 500.745 408.27V411H499.785V405.7H500.705V407.13L500.555 406.75C500.728 406.403 500.995 406.133 501.355 405.94C501.715 405.747 502.135 405.65 502.615 405.65ZM506.592 411V405.7H507.552V411H506.592ZM507.072 404.68C506.885 404.68 506.728 404.62 506.602 404.5C506.482 404.38 506.422 404.233 506.422 404.06C506.422 403.88 506.482 403.73 506.602 403.61C506.728 403.49 506.885 403.43 507.072 403.43C507.258 403.43 507.412 403.49 507.532 403.61C507.658 403.723 507.722 403.867 507.722 404.04C507.722 404.22 507.662 404.373 507.542 404.5C507.422 404.62 507.265 404.68 507.072 404.68ZM511.655 411.06C511.121 411.06 510.648 410.943 510.235 410.71C509.821 410.477 509.495 410.157 509.255 409.75C509.015 409.337 508.895 408.87 508.895 408.35C508.895 407.823 509.015 407.357 509.255 406.95C509.495 406.543 509.821 406.227 510.235 406C510.648 405.767 511.121 405.65 511.655 405.65C512.181 405.65 512.651 405.767 513.065 406C513.485 406.227 513.811 406.543 514.045 406.95C514.285 407.35 514.405 407.817 514.405 408.35C514.405 408.877 514.285 409.343 514.045 409.75C513.811 410.157 513.485 410.477 513.065 410.71C512.651 410.943 512.181 411.06 511.655 411.06ZM511.655 410.22C511.995 410.22 512.298 410.143 512.565 409.99C512.838 409.837 513.051 409.62 513.205 409.34C513.358 409.053 513.435 408.723 513.435 408.35C513.435 407.97 513.358 407.643 513.205 407.37C513.051 407.09 512.838 406.873 512.565 406.72C512.298 406.567 511.995 406.49 511.655 406.49C511.315 406.49 511.011 406.567 510.745 406.72C510.478 406.873 510.265 407.09 510.105 407.37C509.945 407.643 509.865 407.97 509.865 408.35C509.865 408.723 509.945 409.053 510.105 409.34C510.265 409.62 510.478 409.837 510.745 409.99C511.011 410.143 511.315 410.22 511.655 410.22ZM510.895 404.93L512.255 403.63H513.475L511.795 404.93H510.895ZM518.562 405.65C518.996 405.65 519.376 405.733 519.702 405.9C520.036 406.067 520.296 406.32 520.482 406.66C520.669 407 520.762 407.43 520.762 407.95V411H519.802V408.06C519.802 407.547 519.676 407.16 519.422 406.9C519.176 406.64 518.826 406.51 518.372 406.51C518.032 406.51 517.736 406.577 517.482 406.71C517.229 406.843 517.032 407.04 516.892 407.3C516.759 407.56 516.692 407.883 516.692 408.27V411H515.732V405.7H516.652V407.13L516.502 406.75C516.676 406.403 516.942 406.133 517.302 405.94C517.662 405.747 518.082 405.65 518.562 405.65Z" fill="black"/>
<circle cx="394.91" cy="404.91" r="14.91" fill="#1A597D"/>
<g clip-path="url(#clip0_170_24)">
<path d="M398.586 401.231H397.504C397.504 401.436 397.496 401.627 397.506 401.818C397.534 402.364 397.524 402.917 397.612 403.454C397.753 404.328 398.263 405.018 398.861 405.643C399.395 406.203 400.055 406.598 400.693 407.021C401.457 407.528 402.209 408.052 402.805 408.762C403.531 409.628 403.838 410.621 403.682 411.748C403.642 412.038 403.437 412.215 403.179 412.184C402.93 412.155 402.772 411.943 402.818 411.649C402.909 411.079 402.834 410.534 402.59 410.014C402.317 409.431 401.887 408.97 401.376 408.595C400.689 408.093 399.975 407.627 399.28 407.135C398.316 406.452 397.513 405.626 397.023 404.53C396.706 403.822 396.608 403.076 396.615 402.309C396.618 401.956 396.615 401.601 396.615 401.232H395.335C395.335 401.54 395.335 401.844 395.335 402.148C395.337 406.367 395.34 410.586 395.342 414.805C395.342 415.328 395.345 415.852 395.34 416.375C395.336 416.683 395.147 416.863 394.862 416.845C394.679 416.833 394.521 416.682 394.48 416.468C394.463 416.383 394.456 416.295 394.456 416.208C394.453 411.69 394.451 407.172 394.452 402.654C394.452 402.237 394.466 401.819 394.473 401.402C394.474 401.348 394.473 401.293 394.473 401.228H393.167C393.167 401.3 393.168 401.366 393.167 401.432C393.161 401.98 393.178 402.529 393.142 403.075C393.073 404.113 392.616 404.99 391.975 405.79C391.325 406.601 390.488 407.179 389.641 407.753C388.94 408.228 388.238 408.703 387.671 409.345C387.186 409.896 386.932 410.533 386.932 411.268C386.932 411.397 386.961 411.527 386.983 411.655C387.023 411.894 386.903 412.109 386.69 412.17C386.458 412.238 386.21 412.135 386.165 411.884C386.101 411.527 386.055 411.154 386.09 410.796C386.208 409.606 386.866 408.71 387.775 408.001C388.53 407.412 389.333 406.886 390.111 406.327C390.855 405.793 391.456 405.13 391.884 404.314C392.229 403.655 392.297 402.942 392.3 402.215C392.302 401.892 392.301 401.569 392.301 401.232H391.248C391.248 401.293 391.248 401.352 391.248 401.411C391.244 402.04 391.242 402.669 391.235 403.299C391.229 403.836 391.062 404.325 390.777 404.777C390.677 404.935 390.586 405.098 390.481 405.252C390.308 405.504 390.028 405.572 389.82 405.424C389.619 405.282 389.6 405.034 389.767 404.775C389.906 404.561 390.079 404.361 390.17 404.128C390.273 403.861 390.344 403.566 390.356 403.281C390.384 402.621 390.37 401.96 390.364 401.3C390.364 401.243 390.315 401.155 390.268 401.137C389.102 400.694 388.672 399.464 388.772 398.379C389.002 395.877 391.144 393.447 393.927 393.011C397.086 392.516 400.101 394.466 400.896 397.561C401.088 398.305 401.153 399.06 400.856 399.801C400.613 400.406 400.199 400.851 399.59 401.1C399.482 401.144 399.445 401.195 399.447 401.316C399.456 401.901 399.461 402.487 399.451 403.073C399.441 403.656 399.608 404.176 399.95 404.645C400.005 404.72 400.061 404.796 400.109 404.876C400.214 405.052 400.195 405.249 400.066 405.375C399.921 405.515 399.728 405.545 399.553 405.439C399.475 405.391 399.401 405.327 399.348 405.253C398.87 404.593 398.557 403.879 398.583 403.039C398.601 402.442 398.586 401.845 398.586 401.231L398.586 401.231ZM395.867 393.913C396.124 394.268 396.426 394.612 396.645 395.003C397.356 396.271 397.532 397.657 397.471 399.085C397.462 399.275 397.304 399.435 397.119 399.467C396.844 399.515 396.623 399.295 396.609 398.965C396.587 398.449 396.586 397.931 396.529 397.419C396.453 396.743 396.264 396.092 395.937 395.489C395.677 395.008 395.333 394.595 394.916 394.236C394.872 394.271 394.837 394.296 394.804 394.325C393.898 395.13 393.452 396.172 393.29 397.345C393.213 397.898 393.208 398.461 393.174 399.019C393.161 399.244 393.048 399.411 392.866 399.456C392.569 399.531 392.298 399.306 392.315 398.951C392.346 398.288 392.364 397.619 392.47 396.966C392.616 396.057 392.929 395.199 393.507 394.462C393.658 394.269 393.827 394.091 394.001 393.892C393.892 393.915 393.802 393.934 393.713 393.955C393.622 393.976 393.531 393.997 393.442 394.024C392.068 394.452 391.017 395.29 390.292 396.532C389.841 397.306 389.577 398.136 389.658 399.042C389.718 399.705 390.141 400.317 390.979 400.321C391.802 400.325 392.624 400.328 393.447 400.327C395.248 400.326 397.049 400.329 398.85 400.315C399.528 400.31 400.012 399.87 400.127 399.206C400.244 398.529 400.13 397.877 399.881 397.251C399.355 395.93 398.443 394.952 397.173 394.315C396.752 394.103 396.311 393.945 395.867 393.913V393.913Z" fill="white"/>
<path d="M400.369 413.247C400.657 412.773 400.769 412.258 400.709 411.703C400.623 410.914 400.199 410.316 399.635 409.799C399.341 409.53 399.037 409.273 398.74 409.008C398.657 408.934 398.575 408.856 398.502 408.771C398.334 408.577 398.333 408.382 398.492 408.2C398.641 408.031 398.898 407.988 399.079 408.148C399.609 408.618 400.141 409.088 400.64 409.59C401.128 410.081 401.428 410.688 401.552 411.375C401.792 412.692 401.351 413.747 400.302 414.555C400.087 414.721 399.85 414.867 399.605 414.983C399.273 415.141 398.961 414.934 399.01 414.596C399.025 414.49 399.117 414.376 399.206 414.306C399.355 414.189 399.531 414.105 399.685 414.013C399.419 413.791 399.145 413.595 398.913 413.359C398.577 413.017 398.382 412.596 398.369 412.107C398.361 411.811 398.535 411.591 398.776 411.57C399.029 411.547 399.212 411.723 399.257 412.033C399.345 412.639 399.756 413.093 400.37 413.248L400.369 413.247Z" fill="white"/>
<path d="M389.442 413.243C389.802 413.119 390.077 412.893 390.313 412.612C390.469 412.428 390.516 412.206 390.548 411.975C390.584 411.713 390.743 411.567 390.973 411.569C391.213 411.571 391.391 411.727 391.416 411.987C391.464 412.47 391.276 412.884 390.965 413.23C390.756 413.463 390.491 413.647 390.251 413.852C390.204 413.891 390.153 413.926 390.097 413.968C390.138 414.025 390.175 414.073 390.208 414.123C390.319 414.292 390.313 414.47 390.195 414.605C390.064 414.754 389.855 414.812 389.69 414.687C389.418 414.482 389.138 414.271 388.926 414.01C387.974 412.843 387.939 411.326 388.809 410.05C389.245 409.41 389.829 408.913 390.401 408.404C390.485 408.329 390.568 408.254 390.657 408.186C390.883 408.013 391.144 408.029 391.309 408.221C391.472 408.411 391.459 408.654 391.251 408.854C391.009 409.086 390.75 409.301 390.501 409.527C390.1 409.891 389.695 410.251 389.425 410.734C389.012 411.473 388.977 412.232 389.296 413.011C389.317 413.063 389.348 413.111 389.377 413.158C389.396 413.189 389.421 413.216 389.442 413.243V413.243Z" fill="white"/>
<path d="M393.173 411.309C393.173 412.735 393.174 414.162 393.173 415.588C393.173 415.693 393.175 415.802 393.151 415.903C393.097 416.131 392.923 416.257 392.705 416.246C392.512 416.235 392.346 416.08 392.31 415.862C392.292 415.752 392.284 415.639 392.284 415.528C392.281 413.049 392.28 410.57 392.279 408.092C392.279 407.687 392.279 407.283 392.285 406.878C392.286 406.781 392.298 406.676 392.335 406.588C392.403 406.426 392.536 406.337 392.717 406.34C392.891 406.343 393.074 406.472 393.126 406.644C393.156 406.743 393.165 406.852 393.165 406.956C393.168 408.407 393.167 409.858 393.167 411.309C393.169 411.309 393.171 411.309 393.173 411.309L393.173 411.309Z" fill="white"/>
<path d="M397.507 410.063C397.507 411.097 397.507 412.132 397.507 413.166C397.507 413.241 397.509 413.316 397.501 413.39C397.478 413.598 397.322 413.76 397.134 413.777C396.91 413.799 396.717 413.684 396.654 413.478C396.625 413.384 396.614 413.282 396.614 413.183C396.612 411.52 396.61 409.856 396.614 408.193C396.615 407.726 396.626 407.259 396.643 406.793C396.653 406.497 396.808 406.339 397.057 406.343C397.327 406.347 397.506 406.537 397.506 406.829C397.507 407.907 397.506 408.985 397.507 410.063Z" fill="white"/>
<path d="M406.518 402.378C405.311 402.413 404.105 402.448 402.899 402.484C402.732 402.489 402.609 402.428 402.537 402.275C402.46 402.108 402.455 401.935 402.592 401.808C402.676 401.732 402.807 401.674 402.92 401.669C403.915 401.62 404.91 401.588 405.906 401.545C406.098 401.537 406.288 401.503 406.48 401.485C406.688 401.466 406.863 401.527 406.977 401.712C407.079 401.875 407.074 402.042 406.973 402.204C406.868 402.372 406.698 402.402 406.518 402.378H406.518Z" fill="white"/>
<path d="M385.288 402.388C384.74 402.388 384.192 402.387 383.645 402.389C383.521 402.39 383.396 402.41 383.273 402.405C382.983 402.392 382.79 402.172 382.808 401.886C382.825 401.638 383.041 401.48 383.325 401.494C384.519 401.551 385.713 401.607 386.906 401.66C387.262 401.676 387.464 402.003 387.292 402.297C387.216 402.426 387.105 402.484 386.951 402.483C386.397 402.478 385.843 402.481 385.288 402.481C385.288 402.45 385.288 402.419 385.288 402.388Z" fill="white"/>
<path d="M404.665 403.793C405.274 403.793 405.884 403.795 406.493 403.792C406.776 403.79 407.003 403.94 407.044 404.169C407.087 404.415 406.959 404.632 406.717 404.705C406.654 404.724 406.583 404.728 406.516 404.726C405.478 404.701 404.44 404.674 403.402 404.647C403.29 404.644 403.178 404.65 403.066 404.643C402.807 404.626 402.661 404.462 402.663 404.201C402.666 403.947 402.805 403.805 403.077 403.802C403.606 403.796 404.135 403.801 404.665 403.801C404.665 403.798 404.665 403.795 404.665 403.793V403.793Z" fill="white"/>
<path d="M385.164 404.681C384.647 404.681 384.13 404.679 383.613 404.684C383.49 404.685 383.368 404.725 383.245 404.725C382.999 404.725 382.802 404.529 382.778 404.279C382.757 404.068 382.918 403.855 383.158 403.823C383.327 403.801 383.503 403.833 383.676 403.831C384.679 403.821 385.683 403.809 386.686 403.797C387.024 403.793 387.24 404.053 387.146 404.354C387.089 404.539 386.934 404.644 386.697 404.646C386.186 404.649 385.675 404.647 385.164 404.647C385.164 404.658 385.164 404.67 385.164 404.681H385.164Z" fill="white"/>
<path d="M401.268 403.686C401.55 403.702 401.778 403.932 401.765 404.19C401.751 404.477 401.514 404.699 401.239 404.683C400.967 404.667 400.748 404.424 400.766 404.158C400.784 403.881 401.006 403.672 401.268 403.686Z" fill="white"/>
<path d="M400.992 401.668C401.276 401.665 401.506 401.877 401.505 402.144C401.505 402.434 401.283 402.662 401.005 402.66C400.74 402.659 400.511 402.428 400.508 402.158C400.504 401.897 400.727 401.671 400.992 401.668H400.992Z" fill="white"/>
<path d="M388.086 404.175C388.085 403.919 388.318 403.688 388.576 403.687C388.834 403.686 389.078 403.917 389.083 404.165C389.089 404.44 388.846 404.69 388.58 404.685C388.317 404.68 388.088 404.444 388.086 404.175V404.175Z" fill="white"/>
<path d="M389.312 402.163C389.319 402.415 389.092 402.649 388.831 402.66C388.565 402.672 388.32 402.429 388.318 402.154C388.317 401.899 388.527 401.681 388.786 401.67C389.057 401.658 389.306 401.892 389.312 402.163H389.312Z" fill="white"/>
<path d="M402.368 405.36C402.633 405.359 402.853 405.577 402.855 405.844C402.858 406.119 402.652 406.331 402.381 406.334C402.117 406.337 401.884 406.098 401.889 405.83C401.894 405.573 402.11 405.361 402.368 405.36V405.36Z" fill="white"/>
<path d="M387.931 405.848C387.929 406.107 387.697 406.336 387.439 406.334C387.191 406.332 386.964 406.091 386.964 405.83C386.964 405.573 387.18 405.361 387.443 405.36C387.702 405.359 387.932 405.588 387.931 405.848Z" fill="white"/>
</g>
<defs>
<linearGradient id="paint0_linear_170_24" x1="383.5" y1="112" x2="224.058" y2="320.092" gradientUnits="userSpaceOnUse">
<stop offset="0.0231552" stop-color="#1F176A"/>
<stop offset="0.45" stop-color="#1A597D"/>
<stop offset="0.776" stop-color="#2FA2E3"/>
<stop offset="1" stop-color="#2FA2E3"/>
</linearGradient>
<clipPath id="clip0_170_24">
<rect width="24.2761" height="23.9115" fill="white" transform="translate(382.776 392.934)"/>
</clipPath>
</defs>
</svg>
