<svg width="624" height="171" viewBox="0 0 624 171" fill="none" xmlns="http://www.w3.org/2000/svg">
<path d="M33.9624 123.842V149.57H52.4884C52.4884 149.57 78.2162 150.598 95.1999 136.703C95.1999 136.703 117.329 118.691 126.078 105.825L222.82 0.000854492H181.137C179.125 0.000854492 172.251 10.5074 171.012 11.9712C164.207 20.0152 157.343 28.0101 150.567 36.0883C135.699 53.8162 120.835 71.5442 105.966 89.2721C99.0383 97.5314 92.047 105.859 83.5527 112.498C69.2861 123.651 51.6316 127.019 33.9526 123.847L33.9624 123.842Z" fill="url(#paint0_linear_13_172)"/>
<path d="M186.797 170.671C184.839 170.671 177.788 158.945 176.648 157.462C168.888 147.362 161.01 137.369 153.304 127.235C135.865 104.302 118.426 81.3751 100.987 58.4429C94.8574 50.3794 88.576 42.1739 80.2188 36.4556C70.9901 30.135 59.754 27.2611 48.6013 26.4778C45.4092 26.2526 0 28.0543 0 27.0996C0 18.1695 0 9.23944 0 0.304487C14.8394 1.30814 29.7326 -0.165516 44.6062 0.0156306C59.4799 0.196778 74.7746 2.17471 87.7388 9.46465C100.742 16.7742 110.333 28.7788 119.582 40.4849C153.916 83.9454 188.349 127.318 222.821 170.666C222.821 170.666 186.807 170.666 186.797 170.666V170.671Z" fill="url(#paint1_linear_13_172)"/>
<path d="M233.301 112.335H224.795L243.908 59.2239H253.166L272.279 112.335H263.772L248.757 68.8712H248.342L233.301 112.335ZM234.727 91.5369H262.32V98.2796H234.727V91.5369ZM281.409 112.335V59.2239H300.859C304.628 59.2239 307.749 59.8463 310.221 61.0911C312.693 62.3187 314.543 63.987 315.771 66.0963C316.998 68.1882 317.612 70.5482 317.612 73.1761C317.612 75.3891 317.206 77.2563 316.393 78.7777C315.58 80.2818 314.491 81.4921 313.125 82.4084C311.777 83.3074 310.29 83.9644 308.665 84.3793V84.898C310.428 84.9844 312.149 85.5549 313.826 86.6096C315.52 87.6469 316.92 89.1251 318.027 91.0442C319.133 92.9632 319.687 95.2972 319.687 98.0462C319.687 100.761 319.047 103.198 317.768 105.359C316.505 107.503 314.552 109.206 311.907 110.468C309.261 111.713 305.881 112.335 301.767 112.335H281.409ZM289.422 105.463H300.989C304.827 105.463 307.576 104.72 309.235 103.233C310.895 101.746 311.725 99.8874 311.725 97.6572C311.725 95.9801 311.301 94.4414 310.454 93.041C309.607 91.6406 308.397 90.5255 306.824 89.6956C305.268 88.8658 303.418 88.4508 301.274 88.4508H289.422V105.463ZM289.422 82.2009H300.159C301.957 82.2009 303.573 81.8551 305.008 81.1636C306.461 80.472 307.61 79.5038 308.457 78.259C309.322 76.9969 309.754 75.5101 309.754 73.7985C309.754 71.6028 308.985 69.7615 307.446 68.2747C305.907 66.7878 303.547 66.0444 300.366 66.0444H289.422V82.2009ZM359.619 73.1761C359.343 70.7211 358.202 68.8193 356.196 67.4708C354.191 66.1049 351.666 65.422 348.624 65.422C346.445 65.422 344.561 65.7678 342.97 66.4594C341.38 67.1336 340.143 68.0672 339.262 69.2602C338.397 70.4358 337.965 71.7757 337.965 73.2798C337.965 74.5419 338.259 75.6311 338.847 76.5474C339.452 77.4637 340.238 78.2331 341.207 78.8555C342.192 79.4606 343.247 79.9706 344.37 80.3856C345.494 80.7832 346.575 81.1117 347.612 81.371L352.799 82.7196C354.493 83.1345 356.231 83.6964 358.011 84.4052C359.792 85.1141 361.443 86.0477 362.965 87.206C364.486 88.3644 365.714 89.7994 366.647 91.511C367.598 93.2226 368.074 95.2713 368.074 97.6572C368.074 100.665 367.296 103.337 365.74 105.671C364.201 108.005 361.962 109.846 359.023 111.194C356.101 112.543 352.565 113.217 348.416 113.217C344.44 113.217 340.999 112.586 338.095 111.324C335.19 110.062 332.917 108.273 331.274 105.956C329.632 103.622 328.724 100.856 328.551 97.6572H336.59C336.746 99.5762 337.368 101.175 338.458 102.455C339.564 103.717 340.973 104.659 342.685 105.282C344.414 105.887 346.307 106.189 348.364 106.189C350.629 106.189 352.643 105.835 354.407 105.126C356.187 104.4 357.588 103.397 358.608 102.118C359.628 100.821 360.138 99.3083 360.138 97.5794C360.138 96.0061 359.688 94.7181 358.789 93.7153C357.908 92.7125 356.706 91.8827 355.185 91.2257C353.681 90.5687 351.978 89.9895 350.076 89.4882L343.8 87.7766C339.547 86.6182 336.176 84.9153 333.686 82.6677C331.214 80.4201 329.977 77.4464 329.977 73.7466C329.977 70.6865 330.807 68.0154 332.467 65.7332C334.127 63.4511 336.374 61.679 339.21 60.4169C342.045 59.1375 345.244 58.4978 348.805 58.4978C352.401 58.4978 355.574 59.1289 358.323 60.3909C361.089 61.653 363.267 63.3906 364.858 65.6036C366.448 67.7992 367.278 70.3234 367.347 73.1761H359.619ZM376.491 66.1222V59.2239H417.595V66.1222H401.024V112.335H393.036V66.1222H376.491ZM428.139 112.335V59.2239H447.07C451.185 59.2239 454.599 59.9328 457.314 61.3505C460.045 62.7682 462.086 64.7305 463.434 67.2374C464.783 69.727 465.457 72.6056 465.457 75.8732C465.457 79.1235 464.774 81.9848 463.408 84.4571C462.06 86.9121 460.02 88.8225 457.288 90.1884C454.574 91.5542 451.159 92.2371 447.044 92.2371H432.703V85.3388H446.318C448.911 85.3388 451.021 84.9671 452.646 84.2237C454.288 83.4803 455.49 82.3997 456.251 80.982C457.011 79.5643 457.392 77.8614 457.392 75.8732C457.392 73.8676 457.003 72.1301 456.225 70.6606C455.464 69.191 454.262 68.0672 452.62 67.2892C450.995 66.4939 448.86 66.0963 446.214 66.0963H436.152V112.335H428.139ZM454.357 88.373L467.48 112.335H458.351L445.488 88.373H454.357ZM481.155 112.335H472.649L491.762 59.2239H501.02L520.133 112.335H511.627L496.611 68.8712H496.196L481.155 112.335ZM482.581 91.5369H510.174V98.2796H482.581V91.5369ZM570.88 76.4956H562.788C562.477 74.7667 561.898 73.2452 561.051 71.9313C560.204 70.6173 559.166 69.5022 557.939 68.5859C556.711 67.6696 555.337 66.978 553.815 66.5112C552.311 66.0444 550.712 65.811 549.018 65.811C545.958 65.811 543.217 66.5804 540.797 68.1191C538.394 69.6578 536.492 71.914 535.092 74.8877C533.709 77.8614 533.017 81.4921 533.017 85.7797C533.017 90.1019 533.709 93.7499 535.092 96.7236C536.492 99.6973 538.402 101.945 540.823 103.466C543.243 104.988 545.966 105.748 548.992 105.748C550.669 105.748 552.259 105.524 553.764 105.074C555.285 104.607 556.66 103.924 557.887 103.025C559.115 102.126 560.152 101.029 560.999 99.7318C561.863 98.4179 562.46 96.9138 562.788 95.2194L570.88 95.2454C570.447 97.856 569.609 100.259 568.364 102.455C567.137 104.633 565.555 106.518 563.618 108.108C561.699 109.682 559.504 110.9 557.031 111.765C554.559 112.629 551.862 113.062 548.94 113.062C544.341 113.062 540.244 111.972 536.648 109.794C533.052 107.598 530.216 104.46 528.141 100.38C526.084 96.3 525.055 91.4332 525.055 85.7797C525.055 80.1089 526.093 75.2421 528.167 71.1792C530.242 67.099 533.077 63.9698 536.674 61.7913C540.27 59.5957 544.358 58.4978 548.94 58.4978C551.758 58.4978 554.386 58.9041 556.824 59.7167C559.279 60.512 561.483 61.6876 563.437 63.2436C565.39 64.7823 567.007 66.6668 568.286 68.8971C569.566 71.1101 570.43 73.6429 570.88 76.4956ZM579.31 66.1222V59.2239H620.414V66.1222H603.843V112.335H595.855V66.1222H579.31Z" fill="#FFFCFC"/>
<defs>
<linearGradient id="paint0_linear_13_172" x1="128.387" y1="0.000854492" x2="128.387" y2="149.587" gradientUnits="userSpaceOnUse">
<stop stop-color="#2FA2E3"/>
<stop offset="1" stop-color="#1A597D"/>
</linearGradient>
<linearGradient id="paint1_linear_13_172" x1="111.41" y1="0" x2="111.41" y2="170.671" gradientUnits="userSpaceOnUse">
<stop stop-color="#2FA2E3"/>
<stop offset="1" stop-color="#1A597D"/>
</linearGradient>
</defs>
</svg>
