<svg width="41" height="41" viewBox="0 0 41 41" fill="none" xmlns="http://www.w3.org/2000/svg">
<path d="M20.6875 10.5176C26.2246 10.5176 30.7949 15.0879 30.7949 20.625C30.7949 26.25 26.2246 30.7324 20.6875 30.7324C15.0625 30.7324 10.5801 26.25 10.5801 20.625C10.5801 15.0879 15.0625 10.5176 20.6875 10.5176ZM20.6875 27.2168C24.291 27.2168 27.1914 24.3164 27.1914 20.625C27.1914 17.0215 24.291 14.1211 20.6875 14.1211C16.9961 14.1211 14.0957 17.0215 14.0957 20.625C14.0957 24.3164 17.084 27.2168 20.6875 27.2168ZM33.5195 10.166C33.5195 11.4844 32.4648 12.5391 31.1465 12.5391C29.8281 12.5391 28.7734 11.4844 28.7734 10.166C28.7734 8.84766 29.8281 7.79297 31.1465 7.79297C32.4648 7.79297 33.5195 8.84766 33.5195 10.166ZM40.1992 12.5391C40.375 15.791 40.375 25.5469 40.1992 28.7988C40.0234 31.9629 39.3203 34.6875 37.0352 37.0605C34.75 39.3457 31.9375 40.0488 28.7734 40.2246C25.5215 40.4004 15.7656 40.4004 12.5137 40.2246C9.34961 40.0488 6.625 39.3457 4.25195 37.0605C1.9668 34.6875 1.26367 31.9629 1.08789 28.7988C0.912109 25.5469 0.912109 15.791 1.08789 12.5391C1.26367 9.375 1.9668 6.5625 4.25195 4.27734C6.625 1.99219 9.34961 1.28906 12.5137 1.11328C15.7656 0.9375 25.5215 0.9375 28.7734 1.11328C31.9375 1.28906 34.75 1.99219 37.0352 4.27734C39.3203 6.5625 40.0234 9.375 40.1992 12.5391ZM35.9805 32.2266C37.0352 29.6777 36.7715 23.5254 36.7715 20.625C36.7715 17.8125 37.0352 11.6602 35.9805 9.02344C35.2773 7.35352 33.959 5.94727 32.2891 5.33203C29.6523 4.27734 23.5 4.54102 20.6875 4.54102C17.7871 4.54102 11.6348 4.27734 9.08594 5.33203C7.32812 6.03516 6.00977 7.35352 5.30664 9.02344C4.25195 11.6602 4.51562 17.8125 4.51562 20.625C4.51562 23.5254 4.25195 29.6777 5.30664 32.2266C6.00977 33.9844 7.32812 35.3027 9.08594 36.0059C11.6348 37.0605 17.7871 36.7969 20.6875 36.7969C23.5 36.7969 29.6523 37.0605 32.2891 36.0059C33.959 35.3027 35.3652 33.9844 35.9805 32.2266Z" fill="#E3E8EA"/>
</svg>
