<svg width="215" height="164" viewBox="0 0 215 164" fill="none" xmlns="http://www.w3.org/2000/svg">
<path d="M32.6349 119.001V143.724H50.4367C50.4367 143.724 75.1589 144.711 91.4789 131.36C91.4789 131.36 112.743 114.052 121.15 101.689L214.111 0.000854492H174.057C172.124 0.000854492 165.518 10.0967 164.328 11.5034C157.789 19.2329 151.193 26.9153 144.682 34.6778C130.395 51.7128 116.112 68.7478 101.824 85.7828C95.1672 93.7193 88.4492 101.722 80.2868 108.101C66.5779 118.818 49.6135 122.055 32.6255 119.006L32.6349 119.001Z" fill="#E3E8EA"/>
<path d="M179.496 164C177.614 164 170.839 152.733 169.743 151.307C162.287 141.602 154.717 132 147.312 122.262C130.555 100.226 113.797 78.1945 97.0398 56.1586C91.1498 48.4103 85.1139 40.5255 77.0833 35.0307C68.2153 28.9571 57.4185 26.1956 46.7016 25.4429C43.6343 25.2265 0 26.9577 0 26.0403C0 17.4593 0 8.87831 0 0.292586C14.2594 1.25701 28.5705 -0.159047 42.8628 0.0150197C57.155 0.189086 71.8519 2.08971 84.3095 9.09472C96.8046 16.1185 106.021 27.654 114.908 38.9025C147.9 80.6644 180.987 122.342 214.111 163.995C214.111 163.995 179.505 163.995 179.496 163.995V164Z" fill="#E3E8EA"/>
</svg>
