<svg width="648" height="423" viewBox="0 0 648 423" fill="none" xmlns="http://www.w3.org/2000/svg">
<rect x="0.5" y="0.5" width="298" height="421" rx="18.14" fill="#3C3C43" fill-opacity="0.29" stroke="#353535"/>
<rect x="354.123" y="133.239" width="164.794" height="75.8209" rx="10.8316" fill="#5D5D5D"/>
<rect x="492.469" y="79.4907" width="117.362" height="29.2027" rx="7.71392" fill="#363636" fill-opacity="0.8"/>
<rect x="470.107" y="220.688" width="164.794" height="41.0052" rx="10.8316" fill="#5D5D5D"/>
<rect x="468" y="377.693" width="179.025" height="44.546" rx="11.7669" fill="#B7B4B4"/>
<rect x="380.016" y="41" width="117.362" height="29.2027" rx="7.71392" fill="#363636" fill-opacity="0.8"/>
<rect x="493" width="104" height="25.8779" rx="6.83568" fill="#262626" fill-opacity="0.8"/>
<rect x="342" y="280.693" width="255" height="84" rx="11.77" fill="#B7B4B4"/>
<path d="M468 405H345.722C335.427 405 327.082 396.655 327.082 386.36V130.64C327.082 120.345 318.736 112 308.442 112H299" stroke="url(#paint0_linear_166_22)" stroke-width="2"/>
<circle cx="394.912" cy="404.912" r="14.9123" fill="#353535"/>
<rect x="29.5" y="133.5" width="241" height="267" rx="10.5" stroke="#4D4E4F"/>
<rect x="29" y="91" width="242" height="19" fill="#1A597D"/>
<rect x="29" y="33" width="242" height="19" fill="#4D4E4F"/>
<rect x="29" y="65" width="183" height="11" fill="#A7D910"/>
<path d="M389.5 51H482.5" stroke="#2FA2E3"/>
<path d="M504.5 90H597.5" stroke="#A7D910"/>
<path d="M504 9H586.5" stroke="#1A597D" stroke-width="0.887097"/>
<path d="M525 99H597" stroke="#A7D910"/>
<path d="M492 232H618" stroke="#A7D910"/>
<path d="M521 242H618" stroke="#A7D910"/>
<path d="M521 252H618" stroke="#A7D910"/>
<path d="M389 60H461" stroke="#2FA2E3"/>
<path d="M368 154H496" stroke="#2FA2E3"/>
<path d="M368 164H496" stroke="#2FA2E3"/>
<path d="M368 174H467" stroke="#2FA2E3"/>
<path d="M368 184H496" stroke="#2FA2E3"/>
<path d="M522.186 16.9839H586.057" stroke="#1A597D" stroke-width="0.887097"/>
<path d="M363.75 309V302.004H361.044V301.3H367.27V302.004H364.564V309H363.75ZM370.257 309.055C369.656 309.055 369.128 308.93 368.673 308.681C368.218 308.424 367.863 308.076 367.606 307.636C367.349 307.189 367.221 306.679 367.221 306.107C367.221 305.535 367.342 305.029 367.584 304.589C367.833 304.149 368.171 303.804 368.596 303.555C369.029 303.298 369.513 303.17 370.048 303.17C370.591 303.17 371.071 303.295 371.489 303.544C371.914 303.786 372.248 304.131 372.49 304.578C372.732 305.018 372.853 305.528 372.853 306.107C372.853 306.144 372.849 306.184 372.842 306.228C372.842 306.265 372.842 306.305 372.842 306.349H367.815V305.766H372.424L372.116 305.997C372.116 305.579 372.024 305.209 371.841 304.886C371.665 304.556 371.423 304.299 371.115 304.116C370.807 303.933 370.451 303.841 370.048 303.841C369.652 303.841 369.296 303.933 368.981 304.116C368.666 304.299 368.42 304.556 368.244 304.886C368.068 305.216 367.98 305.594 367.98 306.019V306.14C367.98 306.58 368.075 306.969 368.266 307.306C368.464 307.636 368.735 307.896 369.08 308.087C369.432 308.27 369.832 308.362 370.279 308.362C370.631 308.362 370.957 308.3 371.258 308.175C371.566 308.05 371.83 307.86 372.05 307.603L372.49 308.109C372.233 308.417 371.911 308.652 371.522 308.813C371.141 308.974 370.719 309.055 370.257 309.055ZM377.391 303.17C377.86 303.17 378.271 303.262 378.623 303.445C378.982 303.621 379.261 303.892 379.459 304.259C379.664 304.626 379.767 305.088 379.767 305.645V309H378.986V305.722C378.986 305.113 378.832 304.655 378.524 304.347C378.223 304.032 377.798 303.874 377.248 303.874C376.837 303.874 376.478 303.958 376.17 304.127C375.869 304.288 375.634 304.527 375.466 304.842C375.304 305.15 375.224 305.524 375.224 305.964V309H374.443V303.225H375.191V304.809L375.07 304.512C375.253 304.094 375.546 303.768 375.95 303.533C376.353 303.291 376.833 303.17 377.391 303.17ZM384.34 311.189C383.812 311.189 383.306 311.112 382.822 310.958C382.338 310.804 381.946 310.584 381.645 310.298L382.041 309.704C382.312 309.946 382.646 310.137 383.042 310.276C383.445 310.423 383.871 310.496 384.318 310.496C385.051 310.496 385.59 310.324 385.935 309.979C386.28 309.642 386.452 309.114 386.452 308.395V306.954L386.562 305.964L386.485 304.974V303.225H387.233V308.296C387.233 309.293 386.987 310.023 386.496 310.485C386.012 310.954 385.293 311.189 384.34 311.189ZM384.197 308.78C383.647 308.78 383.152 308.663 382.712 308.428C382.272 308.186 381.924 307.852 381.667 307.427C381.418 307.002 381.293 306.514 381.293 305.964C381.293 305.414 381.418 304.93 381.667 304.512C381.924 304.087 382.272 303.757 382.712 303.522C383.152 303.287 383.647 303.17 384.197 303.17C384.71 303.17 385.172 303.276 385.583 303.489C385.994 303.702 386.32 304.017 386.562 304.435C386.804 304.853 386.925 305.363 386.925 305.964C386.925 306.565 386.804 307.075 386.562 307.493C386.32 307.911 385.994 308.23 385.583 308.45C385.172 308.67 384.71 308.78 384.197 308.78ZM384.274 308.087C384.699 308.087 385.077 307.999 385.407 307.823C385.737 307.64 385.997 307.39 386.188 307.075C386.379 306.752 386.474 306.382 386.474 305.964C386.474 305.546 386.379 305.179 386.188 304.864C385.997 304.549 385.737 304.303 385.407 304.127C385.077 303.944 384.699 303.852 384.274 303.852C383.856 303.852 383.478 303.944 383.141 304.127C382.811 304.303 382.551 304.549 382.36 304.864C382.177 305.179 382.085 305.546 382.085 305.964C382.085 306.382 382.177 306.752 382.36 307.075C382.551 307.39 382.811 307.64 383.141 307.823C383.478 307.999 383.856 308.087 384.274 308.087ZM391.76 309.055C391.203 309.055 390.701 308.93 390.253 308.681C389.813 308.424 389.465 308.076 389.208 307.636C388.952 307.189 388.823 306.679 388.823 306.107C388.823 305.528 388.952 305.018 389.208 304.578C389.465 304.138 389.813 303.793 390.253 303.544C390.693 303.295 391.196 303.17 391.76 303.17C392.332 303.17 392.838 303.295 393.278 303.544C393.726 303.793 394.074 304.138 394.323 304.578C394.58 305.018 394.708 305.528 394.708 306.107C394.708 306.679 394.58 307.189 394.323 307.636C394.074 308.076 393.726 308.424 393.278 308.681C392.831 308.93 392.325 309.055 391.76 309.055ZM391.76 308.362C392.178 308.362 392.549 308.27 392.871 308.087C393.194 307.896 393.447 307.632 393.63 307.295C393.821 306.95 393.916 306.554 393.916 306.107C393.916 305.652 393.821 305.256 393.63 304.919C393.447 304.582 393.194 304.321 392.871 304.138C392.549 303.947 392.182 303.852 391.771 303.852C391.361 303.852 390.994 303.947 390.671 304.138C390.349 304.321 390.092 304.582 389.901 304.919C389.711 305.256 389.615 305.652 389.615 306.107C389.615 306.554 389.711 306.95 389.901 307.295C390.092 307.632 390.349 307.896 390.671 308.087C390.994 308.27 391.357 308.362 391.76 308.362ZM401.569 309.055C401.077 309.055 400.648 308.963 400.282 308.78C399.915 308.597 399.629 308.322 399.424 307.955C399.226 307.588 399.127 307.13 399.127 306.58V303.225H399.908V306.492C399.908 307.108 400.058 307.574 400.359 307.889C400.667 308.197 401.096 308.351 401.646 308.351C402.049 308.351 402.397 308.27 402.691 308.109C402.991 307.94 403.219 307.698 403.373 307.383C403.534 307.068 403.615 306.69 403.615 306.25V303.225H404.396V309H403.648V307.416L403.769 307.702C403.585 308.127 403.299 308.461 402.911 308.703C402.529 308.938 402.082 309.055 401.569 309.055ZM409.52 303.17C409.99 303.17 410.4 303.262 410.752 303.445C411.112 303.621 411.39 303.892 411.588 304.259C411.794 304.626 411.896 305.088 411.896 305.645V309H411.115V305.722C411.115 305.113 410.961 304.655 410.653 304.347C410.353 304.032 409.927 303.874 409.377 303.874C408.967 303.874 408.607 303.958 408.299 304.127C407.999 304.288 407.764 304.527 407.595 304.842C407.434 305.15 407.353 305.524 407.353 305.964V309H406.572V303.225H407.32V304.809L407.199 304.512C407.383 304.094 407.676 303.768 408.079 303.533C408.483 303.291 408.963 303.17 409.52 303.17ZM417.625 309V307.724L417.592 307.515V305.381C417.592 304.89 417.453 304.512 417.174 304.248C416.903 303.984 416.496 303.852 415.953 303.852C415.579 303.852 415.223 303.914 414.886 304.039C414.549 304.164 414.263 304.329 414.028 304.534L413.676 303.951C413.969 303.702 414.321 303.511 414.732 303.379C415.143 303.24 415.575 303.17 416.03 303.17C416.778 303.17 417.354 303.357 417.757 303.731C418.168 304.098 418.373 304.659 418.373 305.414V309H417.625ZM415.634 309.055C415.201 309.055 414.824 308.985 414.501 308.846C414.186 308.699 413.944 308.501 413.775 308.252C413.606 307.995 413.522 307.702 413.522 307.372C413.522 307.071 413.592 306.8 413.731 306.558C413.878 306.309 414.112 306.111 414.435 305.964C414.765 305.81 415.205 305.733 415.755 305.733H417.746V306.316H415.777C415.22 306.316 414.831 306.415 414.611 306.613C414.398 306.811 414.292 307.057 414.292 307.35C414.292 307.68 414.42 307.944 414.677 308.142C414.934 308.34 415.293 308.439 415.755 308.439C416.195 308.439 416.573 308.34 416.888 308.142C417.211 307.937 417.445 307.643 417.592 307.262L417.768 307.801C417.621 308.182 417.365 308.487 416.998 308.714C416.639 308.941 416.184 309.055 415.634 309.055ZM424.924 309.055C424.448 309.055 423.997 308.989 423.571 308.857C423.146 308.718 422.812 308.545 422.57 308.34L422.922 307.724C423.157 307.9 423.458 308.054 423.824 308.186C424.191 308.311 424.576 308.373 424.979 308.373C425.529 308.373 425.925 308.289 426.167 308.12C426.409 307.944 426.53 307.713 426.53 307.427C426.53 307.214 426.461 307.049 426.321 306.932C426.189 306.807 426.013 306.716 425.793 306.657C425.573 306.591 425.328 306.536 425.056 306.492C424.785 306.448 424.514 306.397 424.242 306.338C423.978 306.279 423.736 306.195 423.516 306.085C423.296 305.968 423.117 305.81 422.977 305.612C422.845 305.414 422.779 305.15 422.779 304.82C422.779 304.505 422.867 304.222 423.043 303.973C423.219 303.724 423.476 303.529 423.813 303.39C424.158 303.243 424.576 303.17 425.067 303.17C425.441 303.17 425.815 303.221 426.189 303.324C426.563 303.419 426.871 303.548 427.113 303.709L426.772 304.336C426.516 304.16 426.241 304.035 425.947 303.962C425.654 303.881 425.361 303.841 425.067 303.841C424.547 303.841 424.162 303.933 423.912 304.116C423.67 304.292 423.549 304.519 423.549 304.798C423.549 305.018 423.615 305.19 423.747 305.315C423.887 305.44 424.066 305.539 424.286 305.612C424.514 305.678 424.759 305.733 425.023 305.777C425.295 305.821 425.562 305.876 425.826 305.942C426.098 306.001 426.343 306.085 426.563 306.195C426.791 306.298 426.97 306.448 427.102 306.646C427.242 306.837 427.311 307.09 427.311 307.405C427.311 307.742 427.216 308.036 427.025 308.285C426.842 308.527 426.571 308.718 426.211 308.857C425.859 308.989 425.43 309.055 424.924 309.055ZM430.57 309.055C430.028 309.055 429.61 308.908 429.316 308.615C429.023 308.322 428.876 307.907 428.876 307.372V301.949H429.657V307.328C429.657 307.665 429.742 307.926 429.91 308.109C430.086 308.292 430.336 308.384 430.658 308.384C431.003 308.384 431.289 308.285 431.516 308.087L431.791 308.648C431.637 308.787 431.45 308.89 431.23 308.956C431.018 309.022 430.798 309.055 430.57 309.055ZM427.842 303.874V303.225H431.417V303.874H427.842ZM436.832 309V307.724L436.799 307.515V305.381C436.799 304.89 436.66 304.512 436.381 304.248C436.11 303.984 435.703 303.852 435.16 303.852C434.786 303.852 434.43 303.914 434.093 304.039C433.756 304.164 433.47 304.329 433.235 304.534L432.883 303.951C433.176 303.702 433.528 303.511 433.939 303.379C434.35 303.24 434.782 303.17 435.237 303.17C435.985 303.17 436.561 303.357 436.964 303.731C437.375 304.098 437.58 304.659 437.58 305.414V309H436.832ZM434.841 309.055C434.408 309.055 434.031 308.985 433.708 308.846C433.393 308.699 433.151 308.501 432.982 308.252C432.813 307.995 432.729 307.702 432.729 307.372C432.729 307.071 432.799 306.8 432.938 306.558C433.085 306.309 433.319 306.111 433.642 305.964C433.972 305.81 434.412 305.733 434.962 305.733H436.953V306.316H434.984C434.427 306.316 434.038 306.415 433.818 306.613C433.605 306.811 433.499 307.057 433.499 307.35C433.499 307.68 433.627 307.944 433.884 308.142C434.141 308.34 434.5 308.439 434.962 308.439C435.402 308.439 435.78 308.34 436.095 308.142C436.418 307.937 436.652 307.643 436.799 307.262L436.975 307.801C436.828 308.182 436.572 308.487 436.205 308.714C435.846 308.941 435.391 309.055 434.841 309.055ZM439.701 309V303.225H440.449V304.798L440.372 304.523C440.534 304.083 440.805 303.749 441.186 303.522C441.568 303.287 442.041 303.17 442.605 303.17V303.929C442.576 303.929 442.547 303.929 442.517 303.929C442.488 303.922 442.459 303.918 442.429 303.918C441.821 303.918 441.344 304.105 440.999 304.479C440.655 304.846 440.482 305.37 440.482 306.052V309H439.701ZM446.103 309.055C445.561 309.055 445.143 308.908 444.849 308.615C444.556 308.322 444.409 307.907 444.409 307.372V301.949H445.19V307.328C445.19 307.665 445.275 307.926 445.443 308.109C445.619 308.292 445.869 308.384 446.191 308.384C446.536 308.384 446.822 308.285 447.049 308.087L447.324 308.648C447.17 308.787 446.983 308.89 446.763 308.956C446.551 309.022 446.331 309.055 446.103 309.055ZM443.375 303.874V303.225H446.95V303.874H443.375ZM451.133 309.055C450.642 309.055 450.213 308.963 449.846 308.78C449.48 308.597 449.194 308.322 448.988 307.955C448.79 307.588 448.691 307.13 448.691 306.58V303.225H449.472V306.492C449.472 307.108 449.623 307.574 449.923 307.889C450.231 308.197 450.66 308.351 451.21 308.351C451.614 308.351 451.962 308.27 452.255 308.109C452.556 307.94 452.783 307.698 452.937 307.383C453.099 307.068 453.179 306.69 453.179 306.25V303.225H453.96V309H453.212V307.416L453.333 307.702C453.15 308.127 452.864 308.461 452.475 308.703C452.094 308.938 451.647 309.055 451.133 309.055ZM459.118 309.055C458.619 309.055 458.168 308.941 457.765 308.714C457.362 308.479 457.039 308.146 456.797 307.713C456.562 307.273 456.445 306.738 456.445 306.107C456.445 305.476 456.562 304.945 456.797 304.512C457.032 304.072 457.351 303.738 457.754 303.511C458.157 303.284 458.612 303.17 459.118 303.17C459.668 303.17 460.159 303.295 460.592 303.544C461.032 303.786 461.377 304.131 461.626 304.578C461.875 305.018 462 305.528 462 306.107C462 306.694 461.875 307.207 461.626 307.647C461.377 308.087 461.032 308.432 460.592 308.681C460.159 308.93 459.668 309.055 459.118 309.055ZM456.137 311.134V303.225H456.885V304.963L456.808 306.118L456.918 307.284V311.134H456.137ZM459.063 308.362C459.474 308.362 459.84 308.27 460.163 308.087C460.486 307.896 460.742 307.632 460.933 307.295C461.124 306.95 461.219 306.554 461.219 306.107C461.219 305.66 461.124 305.267 460.933 304.93C460.742 304.593 460.486 304.329 460.163 304.138C459.84 303.947 459.474 303.852 459.063 303.852C458.652 303.852 458.282 303.947 457.952 304.138C457.629 304.329 457.373 304.593 457.182 304.93C456.999 305.267 456.907 305.66 456.907 306.107C456.907 306.554 456.999 306.95 457.182 307.295C457.373 307.632 457.629 307.896 457.952 308.087C458.282 308.27 458.652 308.362 459.063 308.362ZM468.77 309.055C468.22 309.055 467.725 308.93 467.285 308.681C466.852 308.432 466.511 308.087 466.262 307.647C466.013 307.2 465.888 306.686 465.888 306.107C465.888 305.52 466.013 305.007 466.262 304.567C466.511 304.127 466.852 303.786 467.285 303.544C467.725 303.295 468.22 303.17 468.77 303.17C469.276 303.17 469.727 303.284 470.123 303.511C470.526 303.738 470.845 304.072 471.08 304.512C471.322 304.945 471.443 305.476 471.443 306.107C471.443 306.73 471.326 307.262 471.091 307.702C470.856 308.142 470.537 308.479 470.134 308.714C469.738 308.941 469.283 309.055 468.77 309.055ZM468.825 308.362C469.236 308.362 469.602 308.27 469.925 308.087C470.255 307.896 470.512 307.632 470.695 307.295C470.886 306.95 470.981 306.554 470.981 306.107C470.981 305.652 470.886 305.256 470.695 304.919C470.512 304.582 470.255 304.321 469.925 304.138C469.602 303.947 469.236 303.852 468.825 303.852C468.422 303.852 468.059 303.947 467.736 304.138C467.413 304.321 467.157 304.582 466.966 304.919C466.775 305.256 466.68 305.652 466.68 306.107C466.68 306.554 466.775 306.95 466.966 307.295C467.157 307.632 467.413 307.896 467.736 308.087C468.059 308.27 468.422 308.362 468.825 308.362ZM471.003 309V307.262L471.08 306.096L470.97 304.93V300.838H471.751V309H471.003ZM476.379 309.055C475.778 309.055 475.25 308.93 474.795 308.681C474.34 308.424 473.985 308.076 473.728 307.636C473.471 307.189 473.343 306.679 473.343 306.107C473.343 305.535 473.464 305.029 473.706 304.589C473.955 304.149 474.293 303.804 474.718 303.555C475.151 303.298 475.635 303.17 476.17 303.17C476.713 303.17 477.193 303.295 477.611 303.544C478.036 303.786 478.37 304.131 478.612 304.578C478.854 305.018 478.975 305.528 478.975 306.107C478.975 306.144 478.971 306.184 478.964 306.228C478.964 306.265 478.964 306.305 478.964 306.349H473.937V305.766H478.546L478.238 305.997C478.238 305.579 478.146 305.209 477.963 304.886C477.787 304.556 477.545 304.299 477.237 304.116C476.929 303.933 476.573 303.841 476.17 303.841C475.774 303.841 475.418 303.933 475.103 304.116C474.788 304.299 474.542 304.556 474.366 304.886C474.19 305.216 474.102 305.594 474.102 306.019V306.14C474.102 306.58 474.197 306.969 474.388 307.306C474.586 307.636 474.857 307.896 475.202 308.087C475.554 308.27 475.954 308.362 476.401 308.362C476.753 308.362 477.079 308.3 477.38 308.175C477.688 308.05 477.952 307.86 478.172 307.603L478.612 308.109C478.355 308.417 478.033 308.652 477.644 308.813C477.263 308.974 476.841 309.055 476.379 309.055ZM485.269 309.055C484.727 309.055 484.309 308.908 484.015 308.615C483.722 308.322 483.575 307.907 483.575 307.372V301.949H484.356V307.328C484.356 307.665 484.441 307.926 484.609 308.109C484.785 308.292 485.035 308.384 485.357 308.384C485.702 308.384 485.988 308.285 486.215 308.087L486.49 308.648C486.336 308.787 486.149 308.89 485.929 308.956C485.717 309.022 485.497 309.055 485.269 309.055ZM482.541 303.874V303.225H486.116V303.874H482.541ZM490.161 309.055C489.56 309.055 489.032 308.93 488.577 308.681C488.122 308.424 487.767 308.076 487.51 307.636C487.253 307.189 487.125 306.679 487.125 306.107C487.125 305.535 487.246 305.029 487.488 304.589C487.737 304.149 488.075 303.804 488.5 303.555C488.933 303.298 489.417 303.17 489.952 303.17C490.495 303.17 490.975 303.295 491.393 303.544C491.818 303.786 492.152 304.131 492.394 304.578C492.636 305.018 492.757 305.528 492.757 306.107C492.757 306.144 492.753 306.184 492.746 306.228C492.746 306.265 492.746 306.305 492.746 306.349H487.719V305.766H492.328L492.02 305.997C492.02 305.579 491.928 305.209 491.745 304.886C491.569 304.556 491.327 304.299 491.019 304.116C490.711 303.933 490.355 303.841 489.952 303.841C489.556 303.841 489.2 303.933 488.885 304.116C488.57 304.299 488.324 304.556 488.148 304.886C487.972 305.216 487.884 305.594 487.884 306.019V306.14C487.884 306.58 487.979 306.969 488.17 307.306C488.368 307.636 488.639 307.896 488.984 308.087C489.336 308.27 489.736 308.362 490.183 308.362C490.535 308.362 490.861 308.3 491.162 308.175C491.47 308.05 491.734 307.86 491.954 307.603L492.394 308.109C492.137 308.417 491.815 308.652 491.426 308.813C491.045 308.974 490.623 309.055 490.161 309.055ZM496.745 309.055C496.173 309.055 495.659 308.93 495.205 308.681C494.757 308.424 494.405 308.076 494.149 307.636C493.892 307.189 493.764 306.679 493.764 306.107C493.764 305.528 493.892 305.018 494.149 304.578C494.405 304.138 494.757 303.793 495.205 303.544C495.659 303.295 496.173 303.17 496.745 303.17C497.236 303.17 497.68 303.265 498.076 303.456C498.472 303.647 498.783 303.933 499.011 304.314L498.428 304.71C498.23 304.417 497.984 304.2 497.691 304.061C497.397 303.922 497.078 303.852 496.734 303.852C496.323 303.852 495.953 303.947 495.623 304.138C495.293 304.321 495.032 304.582 494.842 304.919C494.651 305.256 494.556 305.652 494.556 306.107C494.556 306.562 494.651 306.958 494.842 307.295C495.032 307.632 495.293 307.896 495.623 308.087C495.953 308.27 496.323 308.362 496.734 308.362C497.078 308.362 497.397 308.292 497.691 308.153C497.984 308.014 498.23 307.801 498.428 307.515L499.011 307.911C498.783 308.285 498.472 308.571 498.076 308.769C497.68 308.96 497.236 309.055 496.745 309.055ZM503.493 303.17C503.962 303.17 504.373 303.262 504.725 303.445C505.084 303.621 505.363 303.892 505.561 304.259C505.766 304.626 505.869 305.088 505.869 305.645V309H505.088V305.722C505.088 305.113 504.934 304.655 504.626 304.347C504.325 304.032 503.9 303.874 503.35 303.874C502.939 303.874 502.58 303.958 502.272 304.127C501.971 304.288 501.737 304.527 501.568 304.842C501.407 305.15 501.326 305.524 501.326 305.964V309H500.545V303.225H501.293V304.809L501.172 304.512C501.355 304.094 501.649 303.768 502.052 303.533C502.455 303.291 502.936 303.17 503.493 303.17ZM510.333 309.055C509.775 309.055 509.273 308.93 508.826 308.681C508.386 308.424 508.037 308.076 507.781 307.636C507.524 307.189 507.396 306.679 507.396 306.107C507.396 305.528 507.524 305.018 507.781 304.578C508.037 304.138 508.386 303.793 508.826 303.544C509.266 303.295 509.768 303.17 510.333 303.17C510.905 303.17 511.411 303.295 511.851 303.544C512.298 303.793 512.646 304.138 512.896 304.578C513.152 305.018 513.281 305.528 513.281 306.107C513.281 306.679 513.152 307.189 512.896 307.636C512.646 308.076 512.298 308.424 511.851 308.681C511.403 308.93 510.897 309.055 510.333 309.055ZM510.333 308.362C510.751 308.362 511.121 308.27 511.444 308.087C511.766 307.896 512.019 307.632 512.203 307.295C512.393 306.95 512.489 306.554 512.489 306.107C512.489 305.652 512.393 305.256 512.203 304.919C512.019 304.582 511.766 304.321 511.444 304.138C511.121 303.947 510.754 303.852 510.344 303.852C509.933 303.852 509.566 303.947 509.244 304.138C508.921 304.321 508.664 304.582 508.474 304.919C508.283 305.256 508.188 305.652 508.188 306.107C508.188 306.554 508.283 306.95 508.474 307.295C508.664 307.632 508.921 307.896 509.244 308.087C509.566 308.27 509.929 308.362 510.333 308.362ZM514.875 309V300.838H515.656V309H514.875ZM520.183 309.055C519.626 309.055 519.124 308.93 518.676 308.681C518.236 308.424 517.888 308.076 517.631 307.636C517.375 307.189 517.246 306.679 517.246 306.107C517.246 305.528 517.375 305.018 517.631 304.578C517.888 304.138 518.236 303.793 518.676 303.544C519.116 303.295 519.619 303.17 520.183 303.17C520.755 303.17 521.261 303.295 521.701 303.544C522.149 303.793 522.497 304.138 522.746 304.578C523.003 305.018 523.131 305.528 523.131 306.107C523.131 306.679 523.003 307.189 522.746 307.636C522.497 308.076 522.149 308.424 521.701 308.681C521.254 308.93 520.748 309.055 520.183 309.055ZM520.183 308.362C520.601 308.362 520.972 308.27 521.294 308.087C521.617 307.896 521.87 307.632 522.053 307.295C522.244 306.95 522.339 306.554 522.339 306.107C522.339 305.652 522.244 305.256 522.053 304.919C521.87 304.582 521.617 304.321 521.294 304.138C520.972 303.947 520.605 303.852 520.194 303.852C519.784 303.852 519.417 303.947 519.094 304.138C518.772 304.321 518.515 304.582 518.324 304.919C518.134 305.256 518.038 305.652 518.038 306.107C518.038 306.554 518.134 306.95 518.324 307.295C518.515 307.632 518.772 307.896 519.094 308.087C519.417 308.27 519.78 308.362 520.183 308.362ZM527.19 311.189C526.662 311.189 526.156 311.112 525.672 310.958C525.188 310.804 524.795 310.584 524.495 310.298L524.891 309.704C525.162 309.946 525.496 310.137 525.892 310.276C526.295 310.423 526.72 310.496 527.168 310.496C527.901 310.496 528.44 310.324 528.785 309.979C529.129 309.642 529.302 309.114 529.302 308.395V306.954L529.412 305.964L529.335 304.974V303.225H530.083V308.296C530.083 309.293 529.837 310.023 529.346 310.485C528.862 310.954 528.143 311.189 527.19 311.189ZM527.047 308.78C526.497 308.78 526.002 308.663 525.562 308.428C525.122 308.186 524.773 307.852 524.517 307.427C524.267 307.002 524.143 306.514 524.143 305.964C524.143 305.414 524.267 304.93 524.517 304.512C524.773 304.087 525.122 303.757 525.562 303.522C526.002 303.287 526.497 303.17 527.047 303.17C527.56 303.17 528.022 303.276 528.433 303.489C528.843 303.702 529.17 304.017 529.412 304.435C529.654 304.853 529.775 305.363 529.775 305.964C529.775 306.565 529.654 307.075 529.412 307.493C529.17 307.911 528.843 308.23 528.433 308.45C528.022 308.67 527.56 308.78 527.047 308.78ZM527.124 308.087C527.549 308.087 527.927 307.999 528.257 307.823C528.587 307.64 528.847 307.39 529.038 307.075C529.228 306.752 529.324 306.382 529.324 305.964C529.324 305.546 529.228 305.179 529.038 304.864C528.847 304.549 528.587 304.303 528.257 304.127C527.927 303.944 527.549 303.852 527.124 303.852C526.706 303.852 526.328 303.944 525.991 304.127C525.661 304.303 525.4 304.549 525.21 304.864C525.026 305.179 524.935 305.546 524.935 305.964C524.935 306.382 525.026 306.752 525.21 307.075C525.4 307.39 525.661 307.64 525.991 307.823C526.328 307.999 526.706 308.087 527.124 308.087ZM532.256 309V303.225H533.037V309H532.256ZM531.937 302.323L533.444 300.959H534.489L532.707 302.323H531.937ZM538.829 309V307.724L538.796 307.515V305.381C538.796 304.89 538.657 304.512 538.378 304.248C538.107 303.984 537.7 303.852 537.157 303.852C536.783 303.852 536.427 303.914 536.09 304.039C535.753 304.164 535.467 304.329 535.232 304.534L534.88 303.951C535.173 303.702 535.525 303.511 535.936 303.379C536.347 303.24 536.779 303.17 537.234 303.17C537.982 303.17 538.558 303.357 538.961 303.731C539.372 304.098 539.577 304.659 539.577 305.414V309H538.829ZM536.838 309.055C536.405 309.055 536.028 308.985 535.705 308.846C535.39 308.699 535.148 308.501 534.979 308.252C534.81 307.995 534.726 307.702 534.726 307.372C534.726 307.071 534.796 306.8 534.935 306.558C535.082 306.309 535.316 306.111 535.639 305.964C535.969 305.81 536.409 305.733 536.959 305.733H538.95V306.316H536.981C536.424 306.316 536.035 306.415 535.815 306.613C535.602 306.811 535.496 307.057 535.496 307.35C535.496 307.68 535.624 307.944 535.881 308.142C536.138 308.34 536.497 308.439 536.959 308.439C537.399 308.439 537.777 308.34 538.092 308.142C538.415 307.937 538.649 307.643 538.796 307.262L538.972 307.801C538.825 308.182 538.569 308.487 538.202 308.714C537.843 308.941 537.388 309.055 536.838 309.055ZM544.621 311.189C544.35 311.189 544.09 311.145 543.84 311.057C543.598 310.969 543.389 310.837 543.213 310.661L543.576 310.078C543.723 310.217 543.881 310.324 544.049 310.397C544.225 310.478 544.42 310.518 544.632 310.518C544.889 310.518 545.109 310.445 545.292 310.298C545.483 310.159 545.663 309.909 545.831 309.55L546.205 308.703L546.293 308.582L548.669 303.225H549.439L546.546 309.693C546.385 310.067 546.205 310.364 546.007 310.584C545.817 310.804 545.608 310.958 545.38 311.046C545.153 311.141 544.9 311.189 544.621 311.189ZM546.161 309.165L543.499 303.225H544.313L546.667 308.527L546.161 309.165ZM364.388 326.055C363.838 326.055 363.343 325.93 362.903 325.681C362.47 325.432 362.129 325.087 361.88 324.647C361.631 324.207 361.506 323.694 361.506 323.107C361.506 322.528 361.631 322.018 361.88 321.578C362.129 321.131 362.47 320.786 362.903 320.544C363.343 320.295 363.838 320.17 364.388 320.17C364.901 320.17 365.356 320.284 365.752 320.511C366.155 320.738 366.474 321.072 366.709 321.512C366.944 321.945 367.061 322.476 367.061 323.107C367.061 323.738 366.94 324.273 366.698 324.713C366.463 325.146 366.144 325.479 365.741 325.714C365.345 325.941 364.894 326.055 364.388 326.055ZM364.443 325.362C364.854 325.362 365.22 325.27 365.543 325.087C365.873 324.896 366.13 324.632 366.313 324.295C366.504 323.95 366.599 323.554 366.599 323.107C366.599 322.66 366.504 322.267 366.313 321.93C366.13 321.593 365.873 321.329 365.543 321.138C365.22 320.947 364.854 320.852 364.443 320.852C364.04 320.852 363.677 320.947 363.354 321.138C363.031 321.329 362.775 321.593 362.584 321.93C362.393 322.267 362.298 322.66 362.298 323.107C362.298 323.554 362.393 323.95 362.584 324.295C362.775 324.632 363.031 324.896 363.354 325.087C363.677 325.27 364.04 325.362 364.443 325.362ZM366.588 328.134V324.284L366.698 323.118L366.621 321.963V320.225H367.369V328.134H366.588ZM371.931 326.055C371.44 326.055 371.011 325.963 370.644 325.78C370.277 325.597 369.991 325.322 369.786 324.955C369.588 324.588 369.489 324.13 369.489 323.58V320.225H370.27V323.492C370.27 324.108 370.42 324.574 370.721 324.889C371.029 325.197 371.458 325.351 372.008 325.351C372.411 325.351 372.76 325.27 373.053 325.109C373.354 324.94 373.581 324.698 373.735 324.383C373.896 324.068 373.977 323.69 373.977 323.25V320.225H374.758V326H374.01V324.416L374.131 324.702C373.948 325.127 373.662 325.461 373.273 325.703C372.892 325.938 372.444 326.055 371.931 326.055ZM376.935 326V320.225H377.716V326H376.935ZM377.331 318.949C377.169 318.949 377.034 318.894 376.924 318.784C376.814 318.674 376.759 318.542 376.759 318.388C376.759 318.234 376.814 318.106 376.924 318.003C377.034 317.893 377.169 317.838 377.331 317.838C377.492 317.838 377.628 317.889 377.738 317.992C377.848 318.095 377.903 318.223 377.903 318.377C377.903 318.538 377.848 318.674 377.738 318.784C377.635 318.894 377.499 318.949 377.331 318.949ZM382.342 326.055C381.74 326.055 381.212 325.93 380.758 325.681C380.303 325.424 379.947 325.076 379.691 324.636C379.434 324.189 379.306 323.679 379.306 323.107C379.306 322.535 379.427 322.029 379.669 321.589C379.918 321.149 380.255 320.804 380.681 320.555C381.113 320.298 381.597 320.17 382.133 320.17C382.675 320.17 383.156 320.295 383.574 320.544C383.999 320.786 384.333 321.131 384.575 321.578C384.817 322.018 384.938 322.528 384.938 323.107C384.938 323.144 384.934 323.184 384.927 323.228C384.927 323.265 384.927 323.305 384.927 323.349H379.9V322.766H384.509L384.201 322.997C384.201 322.579 384.109 322.209 383.926 321.886C383.75 321.556 383.508 321.299 383.2 321.116C382.892 320.933 382.536 320.841 382.133 320.841C381.737 320.841 381.381 320.933 381.066 321.116C380.75 321.299 380.505 321.556 380.329 321.886C380.153 322.216 380.065 322.594 380.065 323.019V323.14C380.065 323.58 380.16 323.969 380.351 324.306C380.549 324.636 380.82 324.896 381.165 325.087C381.517 325.27 381.916 325.362 382.364 325.362C382.716 325.362 383.042 325.3 383.343 325.175C383.651 325.05 383.915 324.86 384.135 324.603L384.575 325.109C384.318 325.417 383.995 325.652 383.607 325.813C383.225 325.974 382.804 326.055 382.342 326.055ZM386.527 326V320.225H387.275V321.798L387.198 321.523C387.36 321.083 387.631 320.749 388.012 320.522C388.394 320.287 388.867 320.17 389.431 320.17V320.929C389.402 320.929 389.373 320.929 389.343 320.929C389.314 320.922 389.285 320.918 389.255 320.918C388.647 320.918 388.17 321.105 387.825 321.479C387.481 321.846 387.308 322.37 387.308 323.052V326H386.527ZM393.157 326.055C392.6 326.055 392.097 325.93 391.65 325.681C391.21 325.424 390.862 325.076 390.605 324.636C390.348 324.189 390.22 323.679 390.22 323.107C390.22 322.528 390.348 322.018 390.605 321.578C390.862 321.138 391.21 320.793 391.65 320.544C392.09 320.295 392.592 320.17 393.157 320.17C393.729 320.17 394.235 320.295 394.675 320.544C395.122 320.793 395.471 321.138 395.72 321.578C395.977 322.018 396.105 322.528 396.105 323.107C396.105 323.679 395.977 324.189 395.72 324.636C395.471 325.076 395.122 325.424 394.675 325.681C394.228 325.93 393.722 326.055 393.157 326.055ZM393.157 325.362C393.575 325.362 393.945 325.27 394.268 325.087C394.591 324.896 394.844 324.632 395.027 324.295C395.218 323.95 395.313 323.554 395.313 323.107C395.313 322.652 395.218 322.256 395.027 321.919C394.844 321.582 394.591 321.321 394.268 321.138C393.945 320.947 393.579 320.852 393.168 320.852C392.757 320.852 392.391 320.947 392.068 321.138C391.745 321.321 391.489 321.582 391.298 321.919C391.107 322.256 391.012 322.652 391.012 323.107C391.012 323.554 391.107 323.95 391.298 324.295C391.489 324.632 391.745 324.896 392.068 325.087C392.391 325.27 392.754 325.362 393.157 325.362ZM402.976 326.055C402.404 326.055 401.891 325.93 401.436 325.681C400.989 325.424 400.637 325.076 400.38 324.636C400.124 324.189 399.995 323.679 399.995 323.107C399.995 322.528 400.124 322.018 400.38 321.578C400.637 321.138 400.989 320.793 401.436 320.544C401.891 320.295 402.404 320.17 402.976 320.17C403.468 320.17 403.911 320.265 404.307 320.456C404.703 320.647 405.015 320.933 405.242 321.314L404.659 321.71C404.461 321.417 404.216 321.2 403.922 321.061C403.629 320.922 403.31 320.852 402.965 320.852C402.555 320.852 402.184 320.947 401.854 321.138C401.524 321.321 401.264 321.582 401.073 321.919C400.883 322.256 400.787 322.652 400.787 323.107C400.787 323.562 400.883 323.958 401.073 324.295C401.264 324.632 401.524 324.896 401.854 325.087C402.184 325.27 402.555 325.362 402.965 325.362C403.31 325.362 403.629 325.292 403.922 325.153C404.216 325.014 404.461 324.801 404.659 324.515L405.242 324.911C405.015 325.285 404.703 325.571 404.307 325.769C403.911 325.96 403.468 326.055 402.976 326.055ZM406.777 326V320.225H407.525V321.798L407.448 321.523C407.609 321.083 407.88 320.749 408.262 320.522C408.643 320.287 409.116 320.17 409.681 320.17V320.929C409.651 320.929 409.622 320.929 409.593 320.929C409.563 320.922 409.534 320.918 409.505 320.918C408.896 320.918 408.419 321.105 408.075 321.479C407.73 321.846 407.558 322.37 407.558 323.052V326H406.777ZM413.505 326.055C412.904 326.055 412.376 325.93 411.921 325.681C411.466 325.424 411.111 325.076 410.854 324.636C410.597 324.189 410.469 323.679 410.469 323.107C410.469 322.535 410.59 322.029 410.832 321.589C411.081 321.149 411.419 320.804 411.844 320.555C412.277 320.298 412.761 320.17 413.296 320.17C413.839 320.17 414.319 320.295 414.737 320.544C415.162 320.786 415.496 321.131 415.738 321.578C415.98 322.018 416.101 322.528 416.101 323.107C416.101 323.144 416.097 323.184 416.09 323.228C416.09 323.265 416.09 323.305 416.09 323.349H411.063V322.766H415.672L415.364 322.997C415.364 322.579 415.272 322.209 415.089 321.886C414.913 321.556 414.671 321.299 414.363 321.116C414.055 320.933 413.699 320.841 413.296 320.841C412.9 320.841 412.544 320.933 412.229 321.116C411.914 321.299 411.668 321.556 411.492 321.886C411.316 322.216 411.228 322.594 411.228 323.019V323.14C411.228 323.58 411.323 323.969 411.514 324.306C411.712 324.636 411.983 324.896 412.328 325.087C412.68 325.27 413.08 325.362 413.527 325.362C413.879 325.362 414.205 325.3 414.506 325.175C414.814 325.05 415.078 324.86 415.298 324.603L415.738 325.109C415.481 325.417 415.159 325.652 414.77 325.813C414.389 325.974 413.967 326.055 413.505 326.055ZM421.148 326V324.724L421.115 324.515V322.381C421.115 321.89 420.976 321.512 420.697 321.248C420.426 320.984 420.019 320.852 419.476 320.852C419.102 320.852 418.747 320.914 418.409 321.039C418.072 321.164 417.786 321.329 417.551 321.534L417.199 320.951C417.493 320.702 417.845 320.511 418.255 320.379C418.666 320.24 419.099 320.17 419.553 320.17C420.301 320.17 420.877 320.357 421.28 320.731C421.691 321.098 421.896 321.659 421.896 322.414V326H421.148ZM419.157 326.055C418.725 326.055 418.347 325.985 418.024 325.846C417.709 325.699 417.467 325.501 417.298 325.252C417.13 324.995 417.045 324.702 417.045 324.372C417.045 324.071 417.115 323.8 417.254 323.558C417.401 323.309 417.636 323.111 417.958 322.964C418.288 322.81 418.728 322.733 419.278 322.733H421.269V323.316H419.3C418.743 323.316 418.354 323.415 418.134 323.613C417.922 323.811 417.815 324.057 417.815 324.35C417.815 324.68 417.944 324.944 418.2 325.142C418.457 325.34 418.816 325.439 419.278 325.439C419.718 325.439 420.096 325.34 420.411 325.142C420.734 324.937 420.969 324.643 421.115 324.262L421.291 324.801C421.145 325.182 420.888 325.487 420.521 325.714C420.162 325.941 419.707 326.055 419.157 326.055ZM424.018 326V320.225H424.766V321.798L424.689 321.523C424.85 321.083 425.121 320.749 425.503 320.522C425.884 320.287 426.357 320.17 426.922 320.17V320.929C426.892 320.929 426.863 320.929 426.834 320.929C426.804 320.922 426.775 320.918 426.746 320.918C426.137 320.918 425.66 321.105 425.316 321.479C424.971 321.846 424.799 322.37 424.799 323.052V326H424.018ZM433.699 326.055C433.207 326.055 432.778 325.963 432.412 325.78C432.045 325.597 431.759 325.322 431.554 324.955C431.356 324.588 431.257 324.13 431.257 323.58V320.225H432.038V323.492C432.038 324.108 432.188 324.574 432.489 324.889C432.797 325.197 433.226 325.351 433.776 325.351C434.179 325.351 434.527 325.27 434.821 325.109C435.121 324.94 435.349 324.698 435.503 324.383C435.664 324.068 435.745 323.69 435.745 323.25V320.225H436.526V326H435.778V324.416L435.899 324.702C435.715 325.127 435.429 325.461 435.041 325.703C434.659 325.938 434.212 326.055 433.699 326.055ZM441.65 320.17C442.12 320.17 442.53 320.262 442.882 320.445C443.242 320.621 443.52 320.892 443.718 321.259C443.924 321.626 444.026 322.088 444.026 322.645V326H443.245V322.722C443.245 322.113 443.091 321.655 442.783 321.347C442.483 321.032 442.057 320.874 441.507 320.874C441.097 320.874 440.737 320.958 440.429 321.127C440.129 321.288 439.894 321.527 439.725 321.842C439.564 322.15 439.483 322.524 439.483 322.964V326H438.702V320.225H439.45V321.809L439.329 321.512C439.513 321.094 439.806 320.768 440.209 320.533C440.613 320.291 441.093 320.17 441.65 320.17ZM449.755 326V324.724L449.722 324.515V322.381C449.722 321.89 449.583 321.512 449.304 321.248C449.033 320.984 448.626 320.852 448.083 320.852C447.709 320.852 447.353 320.914 447.016 321.039C446.679 321.164 446.393 321.329 446.158 321.534L445.806 320.951C446.099 320.702 446.451 320.511 446.862 320.379C447.273 320.24 447.705 320.17 448.16 320.17C448.908 320.17 449.484 320.357 449.887 320.731C450.298 321.098 450.503 321.659 450.503 322.414V326H449.755ZM447.764 326.055C447.331 326.055 446.954 325.985 446.631 325.846C446.316 325.699 446.074 325.501 445.905 325.252C445.736 324.995 445.652 324.702 445.652 324.372C445.652 324.071 445.722 323.8 445.861 323.558C446.008 323.309 446.242 323.111 446.565 322.964C446.895 322.81 447.335 322.733 447.885 322.733H449.876V323.316H447.907C447.35 323.316 446.961 323.415 446.741 323.613C446.528 323.811 446.422 324.057 446.422 324.35C446.422 324.68 446.55 324.944 446.807 325.142C447.064 325.34 447.423 325.439 447.885 325.439C448.325 325.439 448.703 325.34 449.018 325.142C449.341 324.937 449.575 324.643 449.722 324.262L449.898 324.801C449.751 325.182 449.495 325.487 449.128 325.714C448.769 325.941 448.314 326.055 447.764 326.055ZM455.503 326V320.225H456.284V326H455.503ZM455.899 318.949C455.738 318.949 455.602 318.894 455.492 318.784C455.382 318.674 455.327 318.542 455.327 318.388C455.327 318.234 455.382 318.106 455.492 318.003C455.602 317.893 455.738 317.838 455.899 317.838C456.06 317.838 456.196 317.889 456.306 317.992C456.416 318.095 456.471 318.223 456.471 318.377C456.471 318.538 456.416 318.674 456.306 318.784C456.203 318.894 456.068 318.949 455.899 318.949ZM460.756 326.055C460.206 326.055 459.711 325.93 459.271 325.681C458.838 325.432 458.497 325.087 458.248 324.647C457.999 324.2 457.874 323.686 457.874 323.107C457.874 322.52 457.999 322.007 458.248 321.567C458.497 321.127 458.838 320.786 459.271 320.544C459.711 320.295 460.206 320.17 460.756 320.17C461.262 320.17 461.713 320.284 462.109 320.511C462.512 320.738 462.831 321.072 463.066 321.512C463.308 321.945 463.429 322.476 463.429 323.107C463.429 323.73 463.312 324.262 463.077 324.702C462.842 325.142 462.523 325.479 462.12 325.714C461.724 325.941 461.269 326.055 460.756 326.055ZM460.811 325.362C461.222 325.362 461.588 325.27 461.911 325.087C462.241 324.896 462.498 324.632 462.681 324.295C462.872 323.95 462.967 323.554 462.967 323.107C462.967 322.652 462.872 322.256 462.681 321.919C462.498 321.582 462.241 321.321 461.911 321.138C461.588 320.947 461.222 320.852 460.811 320.852C460.408 320.852 460.045 320.947 459.722 321.138C459.399 321.321 459.143 321.582 458.952 321.919C458.761 322.256 458.666 322.652 458.666 323.107C458.666 323.554 458.761 323.95 458.952 324.295C459.143 324.632 459.399 324.896 459.722 325.087C460.045 325.27 460.408 325.362 460.811 325.362ZM462.989 326V324.262L463.066 323.096L462.956 321.93V317.838H463.737V326H462.989ZM468.365 326.055C467.764 326.055 467.236 325.93 466.781 325.681C466.327 325.424 465.971 325.076 465.714 324.636C465.458 324.189 465.329 323.679 465.329 323.107C465.329 322.535 465.45 322.029 465.692 321.589C465.942 321.149 466.279 320.804 466.704 320.555C467.137 320.298 467.621 320.17 468.156 320.17C468.699 320.17 469.179 320.295 469.597 320.544C470.023 320.786 470.356 321.131 470.598 321.578C470.84 322.018 470.961 322.528 470.961 323.107C470.961 323.144 470.958 323.184 470.95 323.228C470.95 323.265 470.95 323.305 470.95 323.349H465.923V322.766H470.532L470.224 322.997C470.224 322.579 470.133 322.209 469.949 321.886C469.773 321.556 469.531 321.299 469.223 321.116C468.915 320.933 468.56 320.841 468.156 320.841C467.76 320.841 467.405 320.933 467.089 321.116C466.774 321.299 466.528 321.556 466.352 321.886C466.176 322.216 466.088 322.594 466.088 323.019V323.14C466.088 323.58 466.184 323.969 466.374 324.306C466.572 324.636 466.844 324.896 467.188 325.087C467.54 325.27 467.94 325.362 468.387 325.362C468.739 325.362 469.066 325.3 469.366 325.175C469.674 325.05 469.938 324.86 470.158 324.603L470.598 325.109C470.342 325.417 470.019 325.652 469.63 325.813C469.249 325.974 468.827 326.055 468.365 326.055ZM475.499 320.17C475.968 320.17 476.379 320.262 476.731 320.445C477.09 320.621 477.369 320.892 477.567 321.259C477.772 321.626 477.875 322.088 477.875 322.645V326H477.094V322.722C477.094 322.113 476.94 321.655 476.632 321.347C476.331 321.032 475.906 320.874 475.356 320.874C474.945 320.874 474.586 320.958 474.278 321.127C473.977 321.288 473.743 321.527 473.574 321.842C473.413 322.15 473.332 322.524 473.332 322.964V326H472.551V320.225H473.299V321.809L473.178 321.512C473.361 321.094 473.655 320.768 474.058 320.533C474.461 320.291 474.942 320.17 475.499 320.17ZM481.811 326.055C481.268 326.055 480.85 325.908 480.557 325.615C480.263 325.322 480.117 324.907 480.117 324.372V318.949H480.898V324.328C480.898 324.665 480.982 324.926 481.151 325.109C481.327 325.292 481.576 325.384 481.899 325.384C482.243 325.384 482.529 325.285 482.757 325.087L483.032 325.648C482.878 325.787 482.691 325.89 482.471 325.956C482.258 326.022 482.038 326.055 481.811 326.055ZM479.083 320.874V320.225H482.658V320.874H479.083ZM484.453 326V320.225H485.234V326H484.453ZM484.849 318.949C484.688 318.949 484.552 318.894 484.442 318.784C484.332 318.674 484.277 318.542 484.277 318.388C484.277 318.234 484.332 318.106 484.442 318.003C484.552 317.893 484.688 317.838 484.849 317.838C485.011 317.838 485.146 317.889 485.256 317.992C485.366 318.095 485.421 318.223 485.421 318.377C485.421 318.538 485.366 318.674 485.256 318.784C485.154 318.894 485.018 318.949 484.849 318.949ZM489.706 326.055C489.156 326.055 488.661 325.93 488.221 325.681C487.789 325.432 487.448 325.087 487.198 324.647C486.949 324.2 486.824 323.686 486.824 323.107C486.824 322.52 486.949 322.007 487.198 321.567C487.448 321.127 487.789 320.786 488.221 320.544C488.661 320.295 489.156 320.17 489.706 320.17C490.212 320.17 490.663 320.284 491.059 320.511C491.463 320.738 491.782 321.072 492.016 321.512C492.258 321.945 492.379 322.476 492.379 323.107C492.379 323.73 492.262 324.262 492.027 324.702C491.793 325.142 491.474 325.479 491.07 325.714C490.674 325.941 490.22 326.055 489.706 326.055ZM489.761 325.362C490.172 325.362 490.539 325.27 490.861 325.087C491.191 324.896 491.448 324.632 491.631 324.295C491.822 323.95 491.917 323.554 491.917 323.107C491.917 322.652 491.822 322.256 491.631 321.919C491.448 321.582 491.191 321.321 490.861 321.138C490.539 320.947 490.172 320.852 489.761 320.852C489.358 320.852 488.995 320.947 488.672 321.138C488.35 321.321 488.093 321.582 487.902 321.919C487.712 322.256 487.616 322.652 487.616 323.107C487.616 323.554 487.712 323.95 487.902 324.295C488.093 324.632 488.35 324.896 488.672 325.087C488.995 325.27 489.358 325.362 489.761 325.362ZM491.939 326V324.262L492.016 323.096L491.906 321.93V317.838H492.687V326H491.939ZM498.481 326V324.724L498.448 324.515V322.381C498.448 321.89 498.309 321.512 498.03 321.248C497.759 320.984 497.352 320.852 496.809 320.852C496.435 320.852 496.08 320.914 495.742 321.039C495.405 321.164 495.119 321.329 494.884 321.534L494.532 320.951C494.826 320.702 495.178 320.511 495.588 320.379C495.999 320.24 496.432 320.17 496.886 320.17C497.634 320.17 498.21 320.357 498.613 320.731C499.024 321.098 499.229 321.659 499.229 322.414V326H498.481ZM496.49 326.055C496.058 326.055 495.68 325.985 495.357 325.846C495.042 325.699 494.8 325.501 494.631 325.252C494.463 324.995 494.378 324.702 494.378 324.372C494.378 324.071 494.448 323.8 494.587 323.558C494.734 323.309 494.969 323.111 495.291 322.964C495.621 322.81 496.061 322.733 496.611 322.733H498.602V323.316H496.633C496.076 323.316 495.687 323.415 495.467 323.613C495.255 323.811 495.148 324.057 495.148 324.35C495.148 324.68 495.277 324.944 495.533 325.142C495.79 325.34 496.149 325.439 496.611 325.439C497.051 325.439 497.429 325.34 497.744 325.142C498.067 324.937 498.302 324.643 498.448 324.262L498.624 324.801C498.478 325.182 498.221 325.487 497.854 325.714C497.495 325.941 497.04 326.055 496.49 326.055ZM503.65 326.055C503.1 326.055 502.605 325.93 502.165 325.681C501.732 325.432 501.391 325.087 501.142 324.647C500.892 324.2 500.768 323.686 500.768 323.107C500.768 322.52 500.892 322.007 501.142 321.567C501.391 321.127 501.732 320.786 502.165 320.544C502.605 320.295 503.1 320.17 503.65 320.17C504.156 320.17 504.607 320.284 505.003 320.511C505.406 320.738 505.725 321.072 505.96 321.512C506.202 321.945 506.323 322.476 506.323 323.107C506.323 323.73 506.205 324.262 505.971 324.702C505.736 325.142 505.417 325.479 505.014 325.714C504.618 325.941 504.163 326.055 503.65 326.055ZM503.705 325.362C504.115 325.362 504.482 325.27 504.805 325.087C505.135 324.896 505.391 324.632 505.575 324.295C505.765 323.95 505.861 323.554 505.861 323.107C505.861 322.652 505.765 322.256 505.575 321.919C505.391 321.582 505.135 321.321 504.805 321.138C504.482 320.947 504.115 320.852 503.705 320.852C503.301 320.852 502.938 320.947 502.616 321.138C502.293 321.321 502.036 321.582 501.846 321.919C501.655 322.256 501.56 322.652 501.56 323.107C501.56 323.554 501.655 323.95 501.846 324.295C502.036 324.632 502.293 324.896 502.616 325.087C502.938 325.27 503.301 325.362 503.705 325.362ZM505.883 326V324.262L505.96 323.096L505.85 321.93V317.838H506.631V326H505.883ZM513.984 326.055C513.434 326.055 512.939 325.93 512.499 325.681C512.066 325.432 511.725 325.087 511.476 324.647C511.226 324.2 511.102 323.686 511.102 323.107C511.102 322.52 511.226 322.007 511.476 321.567C511.725 321.127 512.066 320.786 512.499 320.544C512.939 320.295 513.434 320.17 513.984 320.17C514.49 320.17 514.941 320.284 515.337 320.511C515.74 320.738 516.059 321.072 516.294 321.512C516.536 321.945 516.657 322.476 516.657 323.107C516.657 323.73 516.539 324.262 516.305 324.702C516.07 325.142 515.751 325.479 515.348 325.714C514.952 325.941 514.497 326.055 513.984 326.055ZM514.039 325.362C514.449 325.362 514.816 325.27 515.139 325.087C515.469 324.896 515.725 324.632 515.909 324.295C516.099 323.95 516.195 323.554 516.195 323.107C516.195 322.652 516.099 322.256 515.909 321.919C515.725 321.582 515.469 321.321 515.139 321.138C514.816 320.947 514.449 320.852 514.039 320.852C513.635 320.852 513.272 320.947 512.95 321.138C512.627 321.321 512.37 321.582 512.18 321.919C511.989 322.256 511.894 322.652 511.894 323.107C511.894 323.554 511.989 323.95 512.18 324.295C512.37 324.632 512.627 324.896 512.95 325.087C513.272 325.27 513.635 325.362 514.039 325.362ZM516.217 326V324.262L516.294 323.096L516.184 321.93V317.838H516.965V326H516.217ZM521.593 326.055C520.991 326.055 520.463 325.93 520.009 325.681C519.554 325.424 519.198 325.076 518.942 324.636C518.685 324.189 518.557 323.679 518.557 323.107C518.557 322.535 518.678 322.029 518.92 321.589C519.169 321.149 519.506 320.804 519.932 320.555C520.364 320.298 520.848 320.17 521.384 320.17C521.926 320.17 522.407 320.295 522.825 320.544C523.25 320.786 523.584 321.131 523.826 321.578C524.068 322.018 524.189 322.528 524.189 323.107C524.189 323.144 524.185 323.184 524.178 323.228C524.178 323.265 524.178 323.305 524.178 323.349H519.151V322.766H523.76L523.452 322.997C523.452 322.579 523.36 322.209 523.177 321.886C523.001 321.556 522.759 321.299 522.451 321.116C522.143 320.933 521.787 320.841 521.384 320.841C520.988 320.841 520.632 320.933 520.317 321.116C520.001 321.299 519.756 321.556 519.58 321.886C519.404 322.216 519.316 322.594 519.316 323.019V323.14C519.316 323.58 519.411 323.969 519.602 324.306C519.8 324.636 520.071 324.896 520.416 325.087C520.768 325.27 521.167 325.362 521.615 325.362C521.967 325.362 522.293 325.3 522.594 325.175C522.902 325.05 523.166 324.86 523.386 324.603L523.826 325.109C523.569 325.417 523.246 325.652 522.858 325.813C522.476 325.974 522.055 326.055 521.593 326.055ZM535.873 320.17C536.343 320.17 536.75 320.262 537.094 320.445C537.446 320.621 537.718 320.892 537.908 321.259C538.106 321.626 538.205 322.088 538.205 322.645V326H537.424V322.722C537.424 322.113 537.278 321.655 536.984 321.347C536.698 321.032 536.291 320.874 535.763 320.874C535.367 320.874 535.023 320.958 534.729 321.127C534.443 321.288 534.22 321.527 534.058 321.842C533.904 322.15 533.827 322.524 533.827 322.964V326H533.046V322.722C533.046 322.113 532.9 321.655 532.606 321.347C532.313 321.032 531.902 320.874 531.374 320.874C530.986 320.874 530.645 320.958 530.351 321.127C530.058 321.288 529.831 321.527 529.669 321.842C529.515 322.15 529.438 322.524 529.438 322.964V326H528.657V320.225H529.405V321.787L529.284 321.512C529.46 321.094 529.743 320.768 530.131 320.533C530.527 320.291 530.993 320.17 531.528 320.17C532.093 320.17 532.573 320.313 532.969 320.599C533.365 320.878 533.622 321.299 533.739 321.864L533.431 321.743C533.6 321.274 533.897 320.896 534.322 320.61C534.755 320.317 535.272 320.17 535.873 320.17ZM543.942 326V324.724L543.909 324.515V322.381C543.909 321.89 543.77 321.512 543.491 321.248C543.22 320.984 542.813 320.852 542.27 320.852C541.896 320.852 541.541 320.914 541.203 321.039C540.866 321.164 540.58 321.329 540.345 321.534L539.993 320.951C540.287 320.702 540.639 320.511 541.049 320.379C541.46 320.24 541.893 320.17 542.347 320.17C543.095 320.17 543.671 320.357 544.074 320.731C544.485 321.098 544.69 321.659 544.69 322.414V326H543.942ZM541.951 326.055C541.519 326.055 541.141 325.985 540.818 325.846C540.503 325.699 540.261 325.501 540.092 325.252C539.924 324.995 539.839 324.702 539.839 324.372C539.839 324.071 539.909 323.8 540.048 323.558C540.195 323.309 540.43 323.111 540.752 322.964C541.082 322.81 541.522 322.733 542.072 322.733H544.063V323.316H542.094C541.537 323.316 541.148 323.415 540.928 323.613C540.716 323.811 540.609 324.057 540.609 324.35C540.609 324.68 540.738 324.944 540.994 325.142C541.251 325.34 541.61 325.439 542.072 325.439C542.512 325.439 542.89 325.34 543.205 325.142C543.528 324.937 543.763 324.643 543.909 324.262L544.085 324.801C543.939 325.182 543.682 325.487 543.315 325.714C542.956 325.941 542.501 326.055 541.951 326.055ZM546.812 326V320.225H547.56V321.798L547.483 321.523C547.644 321.083 547.915 320.749 548.297 320.522C548.678 320.287 549.151 320.17 549.716 320.17V320.929C549.686 320.929 549.657 320.929 549.628 320.929C549.598 320.922 549.569 320.918 549.54 320.918C548.931 320.918 548.454 321.105 548.11 321.479C547.765 321.846 547.593 322.37 547.593 323.052V326H546.812ZM553.485 326.055C552.913 326.055 552.4 325.93 551.945 325.681C551.498 325.424 551.146 325.076 550.889 324.636C550.632 324.189 550.504 323.679 550.504 323.107C550.504 322.528 550.632 322.018 550.889 321.578C551.146 321.138 551.498 320.793 551.945 320.544C552.4 320.295 552.913 320.17 553.485 320.17C553.976 320.17 554.42 320.265 554.816 320.456C555.212 320.647 555.524 320.933 555.751 321.314L555.168 321.71C554.97 321.417 554.724 321.2 554.431 321.061C554.138 320.922 553.819 320.852 553.474 320.852C553.063 320.852 552.693 320.947 552.363 321.138C552.033 321.321 551.773 321.582 551.582 321.919C551.391 322.256 551.296 322.652 551.296 323.107C551.296 323.562 551.391 323.958 551.582 324.295C551.773 324.632 552.033 324.896 552.363 325.087C552.693 325.27 553.063 325.362 553.474 325.362C553.819 325.362 554.138 325.292 554.431 325.153C554.724 325.014 554.97 324.801 555.168 324.515L555.751 324.911C555.524 325.285 555.212 325.571 554.816 325.769C554.42 325.96 553.976 326.055 553.485 326.055ZM560.904 326V324.724L560.871 324.515V322.381C560.871 321.89 560.732 321.512 560.453 321.248C560.182 320.984 559.775 320.852 559.232 320.852C558.858 320.852 558.503 320.914 558.165 321.039C557.828 321.164 557.542 321.329 557.307 321.534L556.955 320.951C557.249 320.702 557.601 320.511 558.011 320.379C558.422 320.24 558.855 320.17 559.309 320.17C560.057 320.17 560.633 320.357 561.036 320.731C561.447 321.098 561.652 321.659 561.652 322.414V326H560.904ZM558.913 326.055C558.481 326.055 558.103 325.985 557.78 325.846C557.465 325.699 557.223 325.501 557.054 325.252C556.886 324.995 556.801 324.702 556.801 324.372C556.801 324.071 556.871 323.8 557.01 323.558C557.157 323.309 557.392 323.111 557.714 322.964C558.044 322.81 558.484 322.733 559.034 322.733H561.025V323.316H559.056C558.499 323.316 558.11 323.415 557.89 323.613C557.678 323.811 557.571 324.057 557.571 324.35C557.571 324.68 557.7 324.944 557.956 325.142C558.213 325.34 558.572 325.439 559.034 325.439C559.474 325.439 559.852 325.34 560.167 325.142C560.49 324.937 560.725 324.643 560.871 324.262L561.047 324.801C560.901 325.182 560.644 325.487 560.277 325.714C559.918 325.941 559.463 326.055 558.913 326.055ZM363.64 343.055C363.163 343.055 362.712 342.989 362.287 342.857C361.862 342.718 361.528 342.545 361.286 342.34L361.638 341.724C361.873 341.9 362.173 342.054 362.54 342.186C362.907 342.311 363.292 342.373 363.695 342.373C364.245 342.373 364.641 342.289 364.883 342.12C365.125 341.944 365.246 341.713 365.246 341.427C365.246 341.214 365.176 341.049 365.037 340.932C364.905 340.807 364.729 340.716 364.509 340.657C364.289 340.591 364.043 340.536 363.772 340.492C363.501 340.448 363.229 340.397 362.958 340.338C362.694 340.279 362.452 340.195 362.232 340.085C362.012 339.968 361.832 339.81 361.693 339.612C361.561 339.414 361.495 339.15 361.495 338.82C361.495 338.505 361.583 338.222 361.759 337.973C361.935 337.724 362.192 337.529 362.529 337.39C362.874 337.243 363.292 337.17 363.783 337.17C364.157 337.17 364.531 337.221 364.905 337.324C365.279 337.419 365.587 337.548 365.829 337.709L365.488 338.336C365.231 338.16 364.956 338.035 364.663 337.962C364.37 337.881 364.076 337.841 363.783 337.841C363.262 337.841 362.877 337.933 362.628 338.116C362.386 338.292 362.265 338.519 362.265 338.798C362.265 339.018 362.331 339.19 362.463 339.315C362.602 339.44 362.782 339.539 363.002 339.612C363.229 339.678 363.475 339.733 363.739 339.777C364.01 339.821 364.278 339.876 364.542 339.942C364.813 340.001 365.059 340.085 365.279 340.195C365.506 340.298 365.686 340.448 365.818 340.646C365.957 340.837 366.027 341.09 366.027 341.405C366.027 341.742 365.932 342.036 365.741 342.285C365.558 342.527 365.286 342.718 364.927 342.857C364.575 342.989 364.146 343.055 363.64 343.055ZM369.814 343.055C369.257 343.055 368.754 342.93 368.307 342.681C367.867 342.424 367.519 342.076 367.262 341.636C367.005 341.189 366.877 340.679 366.877 340.107C366.877 339.528 367.005 339.018 367.262 338.578C367.519 338.138 367.867 337.793 368.307 337.544C368.747 337.295 369.249 337.17 369.814 337.17C370.386 337.17 370.892 337.295 371.332 337.544C371.779 337.793 372.128 338.138 372.377 338.578C372.634 339.018 372.762 339.528 372.762 340.107C372.762 340.679 372.634 341.189 372.377 341.636C372.128 342.076 371.779 342.424 371.332 342.681C370.885 342.93 370.379 343.055 369.814 343.055ZM369.814 342.362C370.232 342.362 370.602 342.27 370.925 342.087C371.248 341.896 371.501 341.632 371.684 341.295C371.875 340.95 371.97 340.554 371.97 340.107C371.97 339.652 371.875 339.256 371.684 338.919C371.501 338.582 371.248 338.321 370.925 338.138C370.602 337.947 370.236 337.852 369.825 337.852C369.414 337.852 369.048 337.947 368.725 338.138C368.402 338.321 368.146 338.582 367.955 338.919C367.764 339.256 367.669 339.652 367.669 340.107C367.669 340.554 367.764 340.95 367.955 341.295C368.146 341.632 368.402 341.896 368.725 342.087C369.048 342.27 369.411 342.362 369.814 342.362ZM369.099 336.323L370.606 334.959H371.651L369.869 336.323H369.099ZM374.357 343V334.838H375.138V343H374.357ZM377.311 343V337.225H378.092V343H377.311ZM377.707 335.949C377.545 335.949 377.41 335.894 377.3 335.784C377.19 335.674 377.135 335.542 377.135 335.388C377.135 335.234 377.19 335.106 377.3 335.003C377.41 334.893 377.545 334.838 377.707 334.838C377.868 334.838 378.004 334.889 378.114 334.992C378.224 335.095 378.279 335.223 378.279 335.377C378.279 335.538 378.224 335.674 378.114 335.784C378.011 335.894 377.875 335.949 377.707 335.949ZM382.564 343.055C382.014 343.055 381.519 342.93 381.079 342.681C380.646 342.432 380.305 342.087 380.056 341.647C379.806 341.2 379.682 340.686 379.682 340.107C379.682 339.52 379.806 339.007 380.056 338.567C380.305 338.127 380.646 337.786 381.079 337.544C381.519 337.295 382.014 337.17 382.564 337.17C383.07 337.17 383.521 337.284 383.917 337.511C384.32 337.738 384.639 338.072 384.874 338.512C385.116 338.945 385.237 339.476 385.237 340.107C385.237 340.73 385.119 341.262 384.885 341.702C384.65 342.142 384.331 342.479 383.928 342.714C383.532 342.941 383.077 343.055 382.564 343.055ZM382.619 342.362C383.029 342.362 383.396 342.27 383.719 342.087C384.049 341.896 384.305 341.632 384.489 341.295C384.679 340.95 384.775 340.554 384.775 340.107C384.775 339.652 384.679 339.256 384.489 338.919C384.305 338.582 384.049 338.321 383.719 338.138C383.396 337.947 383.029 337.852 382.619 337.852C382.215 337.852 381.852 337.947 381.53 338.138C381.207 338.321 380.95 338.582 380.76 338.919C380.569 339.256 380.474 339.652 380.474 340.107C380.474 340.554 380.569 340.95 380.76 341.295C380.95 341.632 381.207 341.896 381.53 342.087C381.852 342.27 382.215 342.362 382.619 342.362ZM384.797 343V341.262L384.874 340.096L384.764 338.93V334.838H385.545V343H384.797ZM391.339 343V341.724L391.306 341.515V339.381C391.306 338.89 391.167 338.512 390.888 338.248C390.617 337.984 390.21 337.852 389.667 337.852C389.293 337.852 388.937 337.914 388.6 338.039C388.263 338.164 387.977 338.329 387.742 338.534L387.39 337.951C387.683 337.702 388.035 337.511 388.446 337.379C388.857 337.24 389.289 337.17 389.744 337.17C390.492 337.17 391.068 337.357 391.471 337.731C391.882 338.098 392.087 338.659 392.087 339.414V343H391.339ZM389.348 343.055C388.915 343.055 388.538 342.985 388.215 342.846C387.9 342.699 387.658 342.501 387.489 342.252C387.32 341.995 387.236 341.702 387.236 341.372C387.236 341.071 387.306 340.8 387.445 340.558C387.592 340.309 387.826 340.111 388.149 339.964C388.479 339.81 388.919 339.733 389.469 339.733H391.46V340.316H389.491C388.934 340.316 388.545 340.415 388.325 340.613C388.112 340.811 388.006 341.057 388.006 341.35C388.006 341.68 388.134 341.944 388.391 342.142C388.648 342.34 389.007 342.439 389.469 342.439C389.909 342.439 390.287 342.34 390.602 342.142C390.925 341.937 391.159 341.643 391.306 341.262L391.482 341.801C391.335 342.182 391.079 342.487 390.712 342.714C390.353 342.941 389.898 343.055 389.348 343.055ZM397.131 345.189C396.86 345.189 396.599 345.145 396.35 345.057C396.108 344.969 395.899 344.837 395.723 344.661L396.086 344.078C396.233 344.217 396.39 344.324 396.559 344.397C396.735 344.478 396.929 344.518 397.142 344.518C397.399 344.518 397.619 344.445 397.802 344.298C397.993 344.159 398.172 343.909 398.341 343.55L398.715 342.703L398.803 342.582L401.179 337.225H401.949L399.056 343.693C398.895 344.067 398.715 344.364 398.517 344.584C398.326 344.804 398.117 344.958 397.89 345.046C397.663 345.141 397.41 345.189 397.131 345.189ZM398.671 343.165L396.009 337.225H396.823L399.177 342.527L398.671 343.165ZM408.326 343.055C407.754 343.055 407.241 342.93 406.786 342.681C406.339 342.424 405.987 342.076 405.73 341.636C405.473 341.189 405.345 340.679 405.345 340.107C405.345 339.528 405.473 339.018 405.73 338.578C405.987 338.138 406.339 337.793 406.786 337.544C407.241 337.295 407.754 337.17 408.326 337.17C408.817 337.17 409.261 337.265 409.657 337.456C410.053 337.647 410.365 337.933 410.592 338.314L410.009 338.71C409.811 338.417 409.565 338.2 409.272 338.061C408.979 337.922 408.66 337.852 408.315 337.852C407.904 337.852 407.534 337.947 407.204 338.138C406.874 338.321 406.614 338.582 406.423 338.919C406.232 339.256 406.137 339.652 406.137 340.107C406.137 340.562 406.232 340.958 406.423 341.295C406.614 341.632 406.874 341.896 407.204 342.087C407.534 342.27 407.904 342.362 408.315 342.362C408.66 342.362 408.979 342.292 409.272 342.153C409.565 342.014 409.811 341.801 410.009 341.515L410.592 341.911C410.365 342.285 410.053 342.571 409.657 342.769C409.261 342.96 408.817 343.055 408.326 343.055ZM414.383 343.055C413.826 343.055 413.324 342.93 412.876 342.681C412.436 342.424 412.088 342.076 411.831 341.636C411.575 341.189 411.446 340.679 411.446 340.107C411.446 339.528 411.575 339.018 411.831 338.578C412.088 338.138 412.436 337.793 412.876 337.544C413.316 337.295 413.819 337.17 414.383 337.17C414.955 337.17 415.461 337.295 415.901 337.544C416.349 337.793 416.697 338.138 416.946 338.578C417.203 339.018 417.331 339.528 417.331 340.107C417.331 340.679 417.203 341.189 416.946 341.636C416.697 342.076 416.349 342.424 415.901 342.681C415.454 342.93 414.948 343.055 414.383 343.055ZM414.383 342.362C414.801 342.362 415.172 342.27 415.494 342.087C415.817 341.896 416.07 341.632 416.253 341.295C416.444 340.95 416.539 340.554 416.539 340.107C416.539 339.652 416.444 339.256 416.253 338.919C416.07 338.582 415.817 338.321 415.494 338.138C415.172 337.947 414.805 337.852 414.394 337.852C413.984 337.852 413.617 337.947 413.294 338.138C412.972 338.321 412.715 338.582 412.524 338.919C412.334 339.256 412.238 339.652 412.238 340.107C412.238 340.554 412.334 340.95 412.524 341.295C412.715 341.632 412.972 341.896 413.294 342.087C413.617 342.27 413.98 342.362 414.383 342.362ZM421.874 337.17C422.343 337.17 422.754 337.262 423.106 337.445C423.465 337.621 423.744 337.892 423.942 338.259C424.147 338.626 424.25 339.088 424.25 339.645V343H423.469V339.722C423.469 339.113 423.315 338.655 423.007 338.347C422.706 338.032 422.281 337.874 421.731 337.874C421.32 337.874 420.961 337.958 420.653 338.127C420.352 338.288 420.118 338.527 419.949 338.842C419.788 339.15 419.707 339.524 419.707 339.964V343H418.926V334.838H419.707V338.809L419.553 338.512C419.736 338.094 420.03 337.768 420.433 337.533C420.836 337.291 421.317 337.17 421.874 337.17ZM428.813 343.055C428.211 343.055 427.683 342.93 427.229 342.681C426.774 342.424 426.418 342.076 426.162 341.636C425.905 341.189 425.777 340.679 425.777 340.107C425.777 339.535 425.898 339.029 426.14 338.589C426.389 338.149 426.726 337.804 427.152 337.555C427.584 337.298 428.068 337.17 428.604 337.17C429.146 337.17 429.627 337.295 430.045 337.544C430.47 337.786 430.804 338.131 431.046 338.578C431.288 339.018 431.409 339.528 431.409 340.107C431.409 340.144 431.405 340.184 431.398 340.228C431.398 340.265 431.398 340.305 431.398 340.349H426.371V339.766H430.98L430.672 339.997C430.672 339.579 430.58 339.209 430.397 338.886C430.221 338.556 429.979 338.299 429.671 338.116C429.363 337.933 429.007 337.841 428.604 337.841C428.208 337.841 427.852 337.933 427.537 338.116C427.221 338.299 426.976 338.556 426.8 338.886C426.624 339.216 426.536 339.594 426.536 340.019V340.14C426.536 340.58 426.631 340.969 426.822 341.306C427.02 341.636 427.291 341.896 427.636 342.087C427.988 342.27 428.387 342.362 428.835 342.362C429.187 342.362 429.513 342.3 429.814 342.175C430.122 342.05 430.386 341.86 430.606 341.603L431.046 342.109C430.789 342.417 430.466 342.652 430.078 342.813C429.696 342.974 429.275 343.055 428.813 343.055ZM432.998 343V337.225H433.746V338.798L433.669 338.523C433.831 338.083 434.102 337.749 434.483 337.522C434.865 337.287 435.338 337.17 435.902 337.17V337.929C435.873 337.929 435.844 337.929 435.814 337.929C435.785 337.922 435.756 337.918 435.726 337.918C435.118 337.918 434.641 338.105 434.296 338.479C433.952 338.846 433.779 339.37 433.779 340.052V343H432.998ZM439.727 343.055C439.125 343.055 438.597 342.93 438.143 342.681C437.688 342.424 437.332 342.076 437.076 341.636C436.819 341.189 436.691 340.679 436.691 340.107C436.691 339.535 436.812 339.029 437.054 338.589C437.303 338.149 437.64 337.804 438.066 337.555C438.498 337.298 438.982 337.17 439.518 337.17C440.06 337.17 440.541 337.295 440.959 337.544C441.384 337.786 441.718 338.131 441.96 338.578C442.202 339.018 442.323 339.528 442.323 340.107C442.323 340.144 442.319 340.184 442.312 340.228C442.312 340.265 442.312 340.305 442.312 340.349H437.285V339.766H441.894L441.586 339.997C441.586 339.579 441.494 339.209 441.311 338.886C441.135 338.556 440.893 338.299 440.585 338.116C440.277 337.933 439.921 337.841 439.518 337.841C439.122 337.841 438.766 337.933 438.451 338.116C438.135 338.299 437.89 338.556 437.714 338.886C437.538 339.216 437.45 339.594 437.45 340.019V340.14C437.45 340.58 437.545 340.969 437.736 341.306C437.934 341.636 438.205 341.896 438.55 342.087C438.902 342.27 439.301 342.362 439.749 342.362C440.101 342.362 440.427 342.3 440.728 342.175C441.036 342.05 441.3 341.86 441.52 341.603L441.96 342.109C441.703 342.417 441.38 342.652 440.992 342.813C440.61 342.974 440.189 343.055 439.727 343.055ZM446.86 337.17C447.33 337.17 447.74 337.262 448.092 337.445C448.452 337.621 448.73 337.892 448.928 338.259C449.134 338.626 449.236 339.088 449.236 339.645V343H448.455V339.722C448.455 339.113 448.301 338.655 447.993 338.347C447.693 338.032 447.267 337.874 446.717 337.874C446.307 337.874 445.947 337.958 445.639 338.127C445.339 338.288 445.104 338.527 444.935 338.842C444.774 339.15 444.693 339.524 444.693 339.964V343H443.912V337.225H444.66V338.809L444.539 338.512C444.723 338.094 445.016 337.768 445.419 337.533C445.823 337.291 446.303 337.17 446.86 337.17ZM453.172 343.055C452.629 343.055 452.211 342.908 451.918 342.615C451.625 342.322 451.478 341.907 451.478 341.372V335.949H452.259V341.328C452.259 341.665 452.343 341.926 452.512 342.109C452.688 342.292 452.937 342.384 453.26 342.384C453.605 342.384 453.891 342.285 454.118 342.087L454.393 342.648C454.239 342.787 454.052 342.89 453.832 342.956C453.619 343.022 453.399 343.055 453.172 343.055ZM450.444 337.874V337.225H454.019V337.874H450.444ZM458.063 343.055C457.462 343.055 456.934 342.93 456.479 342.681C456.025 342.424 455.669 342.076 455.412 341.636C455.156 341.189 455.027 340.679 455.027 340.107C455.027 339.535 455.148 339.029 455.39 338.589C455.64 338.149 455.977 337.804 456.402 337.555C456.835 337.298 457.319 337.17 457.854 337.17C458.397 337.17 458.877 337.295 459.295 337.544C459.721 337.786 460.054 338.131 460.296 338.578C460.538 339.018 460.659 339.528 460.659 340.107C460.659 340.144 460.656 340.184 460.648 340.228C460.648 340.265 460.648 340.305 460.648 340.349H455.621V339.766H460.23L459.922 339.997C459.922 339.579 459.831 339.209 459.647 338.886C459.471 338.556 459.229 338.299 458.921 338.116C458.613 337.933 458.258 337.841 457.854 337.841C457.458 337.841 457.103 337.933 456.787 338.116C456.472 338.299 456.226 338.556 456.05 338.886C455.874 339.216 455.786 339.594 455.786 340.019V340.14C455.786 340.58 455.882 340.969 456.072 341.306C456.27 341.636 456.542 341.896 456.886 342.087C457.238 342.27 457.638 342.362 458.085 342.362C458.437 342.362 458.764 342.3 459.064 342.175C459.372 342.05 459.636 341.86 459.856 341.603L460.296 342.109C460.04 342.417 459.717 342.652 459.328 342.813C458.947 342.974 458.525 343.055 458.063 343.055Z" fill="black"/>
<path d="M486.598 398.066C486.019 398.066 485.483 397.971 484.992 397.78C484.501 397.582 484.075 397.307 483.716 396.955C483.357 396.603 483.074 396.189 482.869 395.712C482.671 395.235 482.572 394.715 482.572 394.15C482.572 393.585 482.671 393.065 482.869 392.588C483.074 392.111 483.357 391.697 483.716 391.345C484.083 390.993 484.512 390.722 485.003 390.531C485.494 390.333 486.03 390.234 486.609 390.234C487.166 390.234 487.691 390.329 488.182 390.52C488.673 390.703 489.088 390.982 489.425 391.356L488.908 391.873C488.593 391.55 488.244 391.319 487.863 391.18C487.482 391.033 487.071 390.96 486.631 390.96C486.169 390.96 485.74 391.041 485.344 391.202C484.948 391.356 484.603 391.58 484.31 391.873C484.017 392.159 483.786 392.496 483.617 392.885C483.456 393.266 483.375 393.688 483.375 394.15C483.375 394.612 483.456 395.037 483.617 395.426C483.786 395.807 484.017 396.145 484.31 396.438C484.603 396.724 484.948 396.948 485.344 397.109C485.74 397.263 486.169 397.34 486.631 397.34C487.071 397.34 487.482 397.267 487.863 397.12C488.244 396.973 488.593 396.739 488.908 396.416L489.425 396.933C489.088 397.307 488.673 397.589 488.182 397.78C487.691 397.971 487.163 398.066 486.598 398.066ZM490.995 398V389.838H491.776V398H490.995ZM497.568 398V396.724L497.535 396.515V394.381C497.535 393.89 497.396 393.512 497.117 393.248C496.846 392.984 496.439 392.852 495.896 392.852C495.522 392.852 495.167 392.914 494.829 393.039C494.492 393.164 494.206 393.329 493.971 393.534L493.619 392.951C493.913 392.702 494.265 392.511 494.675 392.379C495.086 392.24 495.519 392.17 495.973 392.17C496.721 392.17 497.297 392.357 497.7 392.731C498.111 393.098 498.316 393.659 498.316 394.414V398H497.568ZM495.577 398.055C495.145 398.055 494.767 397.985 494.444 397.846C494.129 397.699 493.887 397.501 493.718 397.252C493.55 396.995 493.465 396.702 493.465 396.372C493.465 396.071 493.535 395.8 493.674 395.558C493.821 395.309 494.056 395.111 494.378 394.964C494.708 394.81 495.148 394.733 495.698 394.733H497.689V395.316H495.72C495.163 395.316 494.774 395.415 494.554 395.613C494.342 395.811 494.235 396.057 494.235 396.35C494.235 396.68 494.364 396.944 494.62 397.142C494.877 397.34 495.236 397.439 495.698 397.439C496.138 397.439 496.516 397.34 496.831 397.142C497.154 396.937 497.389 396.643 497.535 396.262L497.711 396.801C497.565 397.182 497.308 397.487 496.941 397.714C496.582 397.941 496.127 398.055 495.577 398.055ZM500.438 398V392.225H501.186V393.798L501.109 393.523C501.27 393.083 501.541 392.749 501.923 392.522C502.304 392.287 502.777 392.17 503.342 392.17V392.929C503.312 392.929 503.283 392.929 503.254 392.929C503.224 392.922 503.195 392.918 503.166 392.918C502.557 392.918 502.08 393.105 501.736 393.479C501.391 393.846 501.219 394.37 501.219 395.052V398H500.438ZM507.067 398.055C506.51 398.055 506.007 397.93 505.56 397.681C505.12 397.424 504.772 397.076 504.515 396.636C504.258 396.189 504.13 395.679 504.13 395.107C504.13 394.528 504.258 394.018 504.515 393.578C504.772 393.138 505.12 392.793 505.56 392.544C506 392.295 506.502 392.17 507.067 392.17C507.639 392.17 508.145 392.295 508.585 392.544C509.032 392.793 509.381 393.138 509.63 393.578C509.887 394.018 510.015 394.528 510.015 395.107C510.015 395.679 509.887 396.189 509.63 396.636C509.381 397.076 509.032 397.424 508.585 397.681C508.138 397.93 507.632 398.055 507.067 398.055ZM507.067 397.362C507.485 397.362 507.855 397.27 508.178 397.087C508.501 396.896 508.754 396.632 508.937 396.295C509.128 395.95 509.223 395.554 509.223 395.107C509.223 394.652 509.128 394.256 508.937 393.919C508.754 393.582 508.501 393.321 508.178 393.138C507.855 392.947 507.489 392.852 507.078 392.852C506.667 392.852 506.301 392.947 505.978 393.138C505.655 393.321 505.399 393.582 505.208 393.919C505.017 394.256 504.922 394.652 504.922 395.107C504.922 395.554 505.017 395.95 505.208 396.295C505.399 396.632 505.655 396.896 505.978 397.087C506.301 397.27 506.664 397.362 507.067 397.362ZM510.975 399.606L511.459 397.571L511.547 398.044C511.379 398.044 511.236 397.989 511.118 397.879C511.008 397.769 510.953 397.626 510.953 397.45C510.953 397.274 511.008 397.131 511.118 397.021C511.236 396.911 511.375 396.856 511.536 396.856C511.705 396.856 511.841 396.915 511.943 397.032C512.053 397.149 512.108 397.289 512.108 397.45C512.108 397.509 512.105 397.567 512.097 397.626C512.09 397.685 512.075 397.751 512.053 397.824C512.031 397.897 512.002 397.985 511.965 398.088L511.503 399.606H510.975ZM520.277 398V396.724L520.244 396.515V394.381C520.244 393.89 520.105 393.512 519.826 393.248C519.555 392.984 519.148 392.852 518.605 392.852C518.231 392.852 517.876 392.914 517.538 393.039C517.201 393.164 516.915 393.329 516.68 393.534L516.328 392.951C516.622 392.702 516.974 392.511 517.384 392.379C517.795 392.24 518.228 392.17 518.682 392.17C519.43 392.17 520.006 392.357 520.409 392.731C520.82 393.098 521.025 393.659 521.025 394.414V398H520.277ZM518.286 398.055C517.854 398.055 517.476 397.985 517.153 397.846C516.838 397.699 516.596 397.501 516.427 397.252C516.259 396.995 516.174 396.702 516.174 396.372C516.174 396.071 516.244 395.8 516.383 395.558C516.53 395.309 516.765 395.111 517.087 394.964C517.417 394.81 517.857 394.733 518.407 394.733H520.398V395.316H518.429C517.872 395.316 517.483 395.415 517.263 395.613C517.051 395.811 516.944 396.057 516.944 396.35C516.944 396.68 517.073 396.944 517.329 397.142C517.586 397.34 517.945 397.439 518.407 397.439C518.847 397.439 519.225 397.34 519.54 397.142C519.863 396.937 520.098 396.643 520.244 396.262L520.42 396.801C520.274 397.182 520.017 397.487 519.65 397.714C519.291 397.941 518.836 398.055 518.286 398.055ZM525.611 400.189C525.083 400.189 524.577 400.112 524.093 399.958C523.609 399.804 523.216 399.584 522.916 399.298L523.312 398.704C523.583 398.946 523.917 399.137 524.313 399.276C524.716 399.423 525.141 399.496 525.589 399.496C526.322 399.496 526.861 399.324 527.206 398.979C527.55 398.642 527.723 398.114 527.723 397.395V395.954L527.833 394.964L527.756 393.974V392.225H528.504V397.296C528.504 398.293 528.258 399.023 527.767 399.485C527.283 399.954 526.564 400.189 525.611 400.189ZM525.468 397.78C524.918 397.78 524.423 397.663 523.983 397.428C523.543 397.186 523.194 396.852 522.938 396.427C522.688 396.002 522.564 395.514 522.564 394.964C522.564 394.414 522.688 393.93 522.938 393.512C523.194 393.087 523.543 392.757 523.983 392.522C524.423 392.287 524.918 392.17 525.468 392.17C525.981 392.17 526.443 392.276 526.854 392.489C527.264 392.702 527.591 393.017 527.833 393.435C528.075 393.853 528.196 394.363 528.196 394.964C528.196 395.565 528.075 396.075 527.833 396.493C527.591 396.911 527.264 397.23 526.854 397.45C526.443 397.67 525.981 397.78 525.468 397.78ZM525.545 397.087C525.97 397.087 526.348 396.999 526.678 396.823C527.008 396.64 527.268 396.39 527.459 396.075C527.649 395.752 527.745 395.382 527.745 394.964C527.745 394.546 527.649 394.179 527.459 393.864C527.268 393.549 527.008 393.303 526.678 393.127C526.348 392.944 525.97 392.852 525.545 392.852C525.127 392.852 524.749 392.944 524.412 393.127C524.082 393.303 523.821 393.549 523.631 393.864C523.447 394.179 523.356 394.546 523.356 394.964C523.356 395.382 523.447 395.752 523.631 396.075C523.821 396.39 524.082 396.64 524.412 396.823C524.749 396.999 525.127 397.087 525.545 397.087ZM533.13 398.055C532.529 398.055 532.001 397.93 531.546 397.681C531.091 397.424 530.736 397.076 530.479 396.636C530.222 396.189 530.094 395.679 530.094 395.107C530.094 394.535 530.215 394.029 530.457 393.589C530.706 393.149 531.044 392.804 531.469 392.555C531.902 392.298 532.386 392.17 532.921 392.17C533.464 392.17 533.944 392.295 534.362 392.544C534.787 392.786 535.121 393.131 535.363 393.578C535.605 394.018 535.726 394.528 535.726 395.107C535.726 395.144 535.722 395.184 535.715 395.228C535.715 395.265 535.715 395.305 535.715 395.349H530.688V394.766H535.297L534.989 394.997C534.989 394.579 534.897 394.209 534.714 393.886C534.538 393.556 534.296 393.299 533.988 393.116C533.68 392.933 533.324 392.841 532.921 392.841C532.525 392.841 532.169 392.933 531.854 393.116C531.539 393.299 531.293 393.556 531.117 393.886C530.941 394.216 530.853 394.594 530.853 395.019V395.14C530.853 395.58 530.948 395.969 531.139 396.306C531.337 396.636 531.608 396.896 531.953 397.087C532.305 397.27 532.705 397.362 533.152 397.362C533.504 397.362 533.83 397.3 534.131 397.175C534.439 397.05 534.703 396.86 534.923 396.603L535.363 397.109C535.106 397.417 534.784 397.652 534.395 397.813C534.014 397.974 533.592 398.055 533.13 398.055ZM540.264 392.17C540.733 392.17 541.144 392.262 541.496 392.445C541.855 392.621 542.134 392.892 542.332 393.259C542.537 393.626 542.64 394.088 542.64 394.645V398H541.859V394.722C541.859 394.113 541.705 393.655 541.397 393.347C541.096 393.032 540.671 392.874 540.121 392.874C539.71 392.874 539.351 392.958 539.043 393.127C538.742 393.288 538.507 393.527 538.339 393.842C538.177 394.15 538.097 394.524 538.097 394.964V398H537.316V392.225H538.064V393.809L537.943 393.512C538.126 393.094 538.419 392.768 538.823 392.533C539.226 392.291 539.706 392.17 540.264 392.17ZM547.048 398.055C546.498 398.055 546.003 397.93 545.563 397.681C545.13 397.432 544.789 397.087 544.54 396.647C544.291 396.2 544.166 395.686 544.166 395.107C544.166 394.52 544.291 394.007 544.54 393.567C544.789 393.127 545.13 392.786 545.563 392.544C546.003 392.295 546.498 392.17 547.048 392.17C547.554 392.17 548.005 392.284 548.401 392.511C548.804 392.738 549.123 393.072 549.358 393.512C549.6 393.945 549.721 394.476 549.721 395.107C549.721 395.73 549.604 396.262 549.369 396.702C549.134 397.142 548.815 397.479 548.412 397.714C548.016 397.941 547.561 398.055 547.048 398.055ZM547.103 397.362C547.514 397.362 547.88 397.27 548.203 397.087C548.533 396.896 548.79 396.632 548.973 396.295C549.164 395.95 549.259 395.554 549.259 395.107C549.259 394.652 549.164 394.256 548.973 393.919C548.79 393.582 548.533 393.321 548.203 393.138C547.88 392.947 547.514 392.852 547.103 392.852C546.7 392.852 546.337 392.947 546.014 393.138C545.691 393.321 545.435 393.582 545.244 393.919C545.053 394.256 544.958 394.652 544.958 395.107C544.958 395.554 545.053 395.95 545.244 396.295C545.435 396.632 545.691 396.896 546.014 397.087C546.337 397.27 546.7 397.362 547.103 397.362ZM549.281 398V396.262L549.358 395.096L549.248 393.93V389.838H550.029V398H549.281ZM555.823 398V396.724L555.79 396.515V394.381C555.79 393.89 555.651 393.512 555.372 393.248C555.101 392.984 554.694 392.852 554.151 392.852C553.777 392.852 553.422 392.914 553.084 393.039C552.747 393.164 552.461 393.329 552.226 393.534L551.874 392.951C552.168 392.702 552.52 392.511 552.93 392.379C553.341 392.24 553.774 392.17 554.228 392.17C554.976 392.17 555.552 392.357 555.955 392.731C556.366 393.098 556.571 393.659 556.571 394.414V398H555.823ZM553.832 398.055C553.4 398.055 553.022 397.985 552.699 397.846C552.384 397.699 552.142 397.501 551.973 397.252C551.805 396.995 551.72 396.702 551.72 396.372C551.72 396.071 551.79 395.8 551.929 395.558C552.076 395.309 552.311 395.111 552.633 394.964C552.963 394.81 553.403 394.733 553.953 394.733H555.944V395.316H553.975C553.418 395.316 553.029 395.415 552.809 395.613C552.597 395.811 552.49 396.057 552.49 396.35C552.49 396.68 552.619 396.944 552.875 397.142C553.132 397.34 553.491 397.439 553.953 397.439C554.393 397.439 554.771 397.34 555.086 397.142C555.409 396.937 555.644 396.643 555.79 396.262L555.966 396.801C555.82 397.182 555.563 397.487 555.196 397.714C554.837 397.941 554.382 398.055 553.832 398.055ZM558.693 398V392.225H559.441V393.798L559.364 393.523C559.525 393.083 559.796 392.749 560.178 392.522C560.559 392.287 561.032 392.17 561.597 392.17V392.929C561.567 392.929 561.538 392.929 561.509 392.929C561.479 392.922 561.45 392.918 561.421 392.918C560.812 392.918 560.335 393.105 559.991 393.479C559.646 393.846 559.474 394.37 559.474 395.052V398H558.693ZM565.421 398.055C564.82 398.055 564.292 397.93 563.837 397.681C563.382 397.424 563.027 397.076 562.77 396.636C562.513 396.189 562.385 395.679 562.385 395.107C562.385 394.535 562.506 394.029 562.748 393.589C562.997 393.149 563.335 392.804 563.76 392.555C564.193 392.298 564.677 392.17 565.212 392.17C565.755 392.17 566.235 392.295 566.653 392.544C567.078 392.786 567.412 393.131 567.654 393.578C567.896 394.018 568.017 394.528 568.017 395.107C568.017 395.144 568.013 395.184 568.006 395.228C568.006 395.265 568.006 395.305 568.006 395.349H562.979V394.766H567.588L567.28 394.997C567.28 394.579 567.188 394.209 567.005 393.886C566.829 393.556 566.587 393.299 566.279 393.116C565.971 392.933 565.615 392.841 565.212 392.841C564.816 392.841 564.46 392.933 564.145 393.116C563.83 393.299 563.584 393.556 563.408 393.886C563.232 394.216 563.144 394.594 563.144 395.019V395.14C563.144 395.58 563.239 395.969 563.43 396.306C563.628 396.636 563.899 396.896 564.244 397.087C564.596 397.27 564.996 397.362 565.443 397.362C565.795 397.362 566.121 397.3 566.422 397.175C566.73 397.05 566.994 396.86 567.214 396.603L567.654 397.109C567.397 397.417 567.075 397.652 566.686 397.813C566.305 397.974 565.883 398.055 565.421 398.055ZM576.823 392.17C577.292 392.17 577.699 392.262 578.044 392.445C578.396 392.621 578.667 392.892 578.858 393.259C579.056 393.626 579.155 394.088 579.155 394.645V398H578.374V394.722C578.374 394.113 578.227 393.655 577.934 393.347C577.648 393.032 577.241 392.874 576.713 392.874C576.317 392.874 575.972 392.958 575.679 393.127C575.393 393.288 575.169 393.527 575.008 393.842C574.854 394.15 574.777 394.524 574.777 394.964V398H573.996V394.722C573.996 394.113 573.849 393.655 573.556 393.347C573.262 393.032 572.852 392.874 572.324 392.874C571.935 392.874 571.594 392.958 571.301 393.127C571.007 393.288 570.78 393.527 570.619 393.842C570.465 394.15 570.388 394.524 570.388 394.964V398H569.607V392.225H570.355V393.787L570.234 393.512C570.41 393.094 570.692 392.768 571.081 392.533C571.477 392.291 571.942 392.17 572.478 392.17C573.042 392.17 573.523 392.313 573.919 392.599C574.315 392.878 574.571 393.299 574.689 393.864L574.381 393.743C574.549 393.274 574.846 392.896 575.272 392.61C575.704 392.317 576.221 392.17 576.823 392.17ZM583.627 398.055C583.069 398.055 582.567 397.93 582.12 397.681C581.68 397.424 581.331 397.076 581.075 396.636C580.818 396.189 580.69 395.679 580.69 395.107C580.69 394.528 580.818 394.018 581.075 393.578C581.331 393.138 581.68 392.793 582.12 392.544C582.56 392.295 583.062 392.17 583.627 392.17C584.199 392.17 584.705 392.295 585.145 392.544C585.592 392.793 585.94 393.138 586.19 393.578C586.446 394.018 586.575 394.528 586.575 395.107C586.575 395.679 586.446 396.189 586.19 396.636C585.94 397.076 585.592 397.424 585.145 397.681C584.697 397.93 584.191 398.055 583.627 398.055ZM583.627 397.362C584.045 397.362 584.415 397.27 584.738 397.087C585.06 396.896 585.313 396.632 585.497 396.295C585.687 395.95 585.783 395.554 585.783 395.107C585.783 394.652 585.687 394.256 585.497 393.919C585.313 393.582 585.06 393.321 584.738 393.138C584.415 392.947 584.048 392.852 583.638 392.852C583.227 392.852 582.86 392.947 582.538 393.138C582.215 393.321 581.958 393.582 581.768 393.919C581.577 394.256 581.482 394.652 581.482 395.107C581.482 395.554 581.577 395.95 581.768 396.295C581.958 396.632 582.215 396.896 582.538 397.087C582.86 397.27 583.223 397.362 583.627 397.362ZM589.72 398.055C589.243 398.055 588.792 397.989 588.367 397.857C587.942 397.718 587.608 397.545 587.366 397.34L587.718 396.724C587.953 396.9 588.253 397.054 588.62 397.186C588.987 397.311 589.372 397.373 589.775 397.373C590.325 397.373 590.721 397.289 590.963 397.12C591.205 396.944 591.326 396.713 591.326 396.427C591.326 396.214 591.256 396.049 591.117 395.932C590.985 395.807 590.809 395.716 590.589 395.657C590.369 395.591 590.123 395.536 589.852 395.492C589.581 395.448 589.309 395.397 589.038 395.338C588.774 395.279 588.532 395.195 588.312 395.085C588.092 394.968 587.912 394.81 587.773 394.612C587.641 394.414 587.575 394.15 587.575 393.82C587.575 393.505 587.663 393.222 587.839 392.973C588.015 392.724 588.272 392.529 588.609 392.39C588.954 392.243 589.372 392.17 589.863 392.17C590.237 392.17 590.611 392.221 590.985 392.324C591.359 392.419 591.667 392.548 591.909 392.709L591.568 393.336C591.311 393.16 591.036 393.035 590.743 392.962C590.45 392.881 590.156 392.841 589.863 392.841C589.342 392.841 588.957 392.933 588.708 393.116C588.466 393.292 588.345 393.519 588.345 393.798C588.345 394.018 588.411 394.19 588.543 394.315C588.682 394.44 588.862 394.539 589.082 394.612C589.309 394.678 589.555 394.733 589.819 394.777C590.09 394.821 590.358 394.876 590.622 394.942C590.893 395.001 591.139 395.085 591.359 395.195C591.586 395.298 591.766 395.448 591.898 395.646C592.037 395.837 592.107 396.09 592.107 396.405C592.107 396.742 592.012 397.036 591.821 397.285C591.638 397.527 591.366 397.718 591.007 397.857C590.655 397.989 590.226 398.055 589.72 398.055ZM598.245 398.055C597.702 398.055 597.284 397.908 596.991 397.615C596.698 397.322 596.551 396.907 596.551 396.372V390.949H597.332V396.328C597.332 396.665 597.416 396.926 597.585 397.109C597.761 397.292 598.01 397.384 598.333 397.384C598.678 397.384 598.964 397.285 599.191 397.087L599.466 397.648C599.312 397.787 599.125 397.89 598.905 397.956C598.692 398.022 598.472 398.055 598.245 398.055ZM595.517 392.874V392.225H599.092V392.874H595.517ZM603.275 398.055C602.783 398.055 602.354 397.963 601.988 397.78C601.621 397.597 601.335 397.322 601.13 396.955C600.932 396.588 600.833 396.13 600.833 395.58V392.225H601.614V395.492C601.614 396.108 601.764 396.574 602.065 396.889C602.373 397.197 602.802 397.351 603.352 397.351C603.755 397.351 604.103 397.27 604.397 397.109C604.697 396.94 604.925 396.698 605.079 396.383C605.24 396.068 605.321 395.69 605.321 395.25V392.225H606.102V398H605.354V396.416L605.475 396.702C605.291 397.127 605.005 397.461 604.617 397.703C604.235 397.938 603.788 398.055 603.275 398.055ZM483.089 412V406.225H483.837V407.798L483.76 407.523C483.921 407.083 484.193 406.749 484.574 406.522C484.955 406.287 485.428 406.17 485.993 406.17V406.929C485.964 406.929 485.934 406.929 485.905 406.929C485.876 406.922 485.846 406.918 485.817 406.918C485.208 406.918 484.732 407.105 484.387 407.479C484.042 407.846 483.87 408.37 483.87 409.052V412H483.089ZM489.817 412.055C489.216 412.055 488.688 411.93 488.233 411.681C487.779 411.424 487.423 411.076 487.166 410.636C486.91 410.189 486.781 409.679 486.781 409.107C486.781 408.535 486.902 408.029 487.144 407.589C487.394 407.149 487.731 406.804 488.156 406.555C488.589 406.298 489.073 406.17 489.608 406.17C490.151 406.17 490.631 406.295 491.049 406.544C491.475 406.786 491.808 407.131 492.05 407.578C492.292 408.018 492.413 408.528 492.413 409.107C492.413 409.144 492.41 409.184 492.402 409.228C492.402 409.265 492.402 409.305 492.402 409.349H487.375V408.766H491.984L491.676 408.997C491.676 408.579 491.585 408.209 491.401 407.886C491.225 407.556 490.983 407.299 490.675 407.116C490.367 406.933 490.012 406.841 489.608 406.841C489.212 406.841 488.857 406.933 488.541 407.116C488.226 407.299 487.98 407.556 487.804 407.886C487.628 408.216 487.54 408.594 487.54 409.019V409.14C487.54 409.58 487.636 409.969 487.826 410.306C488.024 410.636 488.296 410.896 488.64 411.087C488.992 411.27 489.392 411.362 489.839 411.362C490.191 411.362 490.518 411.3 490.818 411.175C491.126 411.05 491.39 410.86 491.61 410.603L492.05 411.109C491.794 411.417 491.471 411.652 491.082 411.813C490.701 411.974 490.279 412.055 489.817 412.055ZM496.39 412.055C495.899 412.055 495.47 411.963 495.103 411.78C494.736 411.597 494.45 411.322 494.245 410.955C494.047 410.588 493.948 410.13 493.948 409.58V406.225H494.729V409.492C494.729 410.108 494.879 410.574 495.18 410.889C495.488 411.197 495.917 411.351 496.467 411.351C496.87 411.351 497.219 411.27 497.512 411.109C497.813 410.94 498.04 410.698 498.194 410.383C498.355 410.068 498.436 409.69 498.436 409.25V406.225H499.217V412H498.469V410.416L498.59 410.702C498.407 411.127 498.121 411.461 497.732 411.703C497.351 411.938 496.903 412.055 496.39 412.055ZM504.342 406.17C504.811 406.17 505.222 406.262 505.574 406.445C505.933 406.621 506.212 406.892 506.41 407.259C506.615 407.626 506.718 408.088 506.718 408.645V412H505.937V408.722C505.937 408.113 505.783 407.655 505.475 407.347C505.174 407.032 504.749 406.874 504.199 406.874C503.788 406.874 503.429 406.958 503.121 407.127C502.82 407.288 502.585 407.527 502.417 407.842C502.255 408.15 502.175 408.524 502.175 408.964V412H501.394V406.225H502.142V407.809L502.021 407.512C502.204 407.094 502.497 406.768 502.901 406.533C503.304 406.291 503.784 406.17 504.342 406.17ZM508.827 412V406.225H509.608V412H508.827ZM509.223 404.949C509.062 404.949 508.926 404.894 508.816 404.784C508.706 404.674 508.651 404.542 508.651 404.388C508.651 404.234 508.706 404.106 508.816 404.003C508.926 403.893 509.062 403.838 509.223 403.838C509.385 403.838 509.52 403.889 509.63 403.992C509.74 404.095 509.795 404.223 509.795 404.377C509.795 404.538 509.74 404.674 509.63 404.784C509.528 404.894 509.392 404.949 509.223 404.949ZM514.135 412.055C513.578 412.055 513.076 411.93 512.628 411.681C512.188 411.424 511.84 411.076 511.583 410.636C511.327 410.189 511.198 409.679 511.198 409.107C511.198 408.528 511.327 408.018 511.583 407.578C511.84 407.138 512.188 406.793 512.628 406.544C513.068 406.295 513.571 406.17 514.135 406.17C514.707 406.17 515.213 406.295 515.653 406.544C516.101 406.793 516.449 407.138 516.698 407.578C516.955 408.018 517.083 408.528 517.083 409.107C517.083 409.679 516.955 410.189 516.698 410.636C516.449 411.076 516.101 411.424 515.653 411.681C515.206 411.93 514.7 412.055 514.135 412.055ZM514.135 411.362C514.553 411.362 514.924 411.27 515.246 411.087C515.569 410.896 515.822 410.632 516.005 410.295C516.196 409.95 516.291 409.554 516.291 409.107C516.291 408.652 516.196 408.256 516.005 407.919C515.822 407.582 515.569 407.321 515.246 407.138C514.924 406.947 514.557 406.852 514.146 406.852C513.736 406.852 513.369 406.947 513.046 407.138C512.724 407.321 512.467 407.582 512.276 407.919C512.086 408.256 511.99 408.652 511.99 409.107C511.99 409.554 512.086 409.95 512.276 410.295C512.467 410.632 512.724 410.896 513.046 411.087C513.369 411.27 513.732 411.362 514.135 411.362ZM513.42 405.323L514.927 403.959H515.972L514.19 405.323H513.42ZM521.626 406.17C522.095 406.17 522.506 406.262 522.858 406.445C523.217 406.621 523.496 406.892 523.694 407.259C523.899 407.626 524.002 408.088 524.002 408.645V412H523.221V408.722C523.221 408.113 523.067 407.655 522.759 407.347C522.458 407.032 522.033 406.874 521.483 406.874C521.072 406.874 520.713 406.958 520.405 407.127C520.104 407.288 519.87 407.527 519.701 407.842C519.54 408.15 519.459 408.524 519.459 408.964V412H518.678V406.225H519.426V407.809L519.305 407.512C519.488 407.094 519.782 406.768 520.185 406.533C520.588 406.291 521.069 406.17 521.626 406.17Z" fill="black"/>
<defs>
<linearGradient id="paint0_linear_166_22" x1="383.5" y1="112" x2="224.058" y2="320.092" gradientUnits="userSpaceOnUse">
<stop offset="0.0231552" stop-color="#1F176A"/>
<stop offset="0.45" stop-color="#1A597D"/>
<stop offset="0.776" stop-color="#2FA2E3"/>
<stop offset="1" stop-color="#2FA2E3"/>
</linearGradient>
</defs>
</svg>
