<svg width="569" height="472" viewBox="0 0 569 472" fill="none" xmlns="http://www.w3.org/2000/svg">
<rect x="0.466009" y="0.466009" width="383.991" height="78.2895" rx="18.1743" fill="#3C3C43" fill-opacity="0.29" stroke="#353535" stroke-width="0.932018"/>
<g filter="url(#filter0_d_170_22)">
<rect x="156.466" y="209.466" width="408.068" height="254.068" rx="18.1743" stroke="#353535" stroke-width="0.932018" shape-rendering="crispEdges"/>
</g>
<g filter="url(#filter1_d_170_22)">
<path d="M156 227.64C156 217.346 164.346 209 174.64 209H546.36C556.654 209 565 217.346 565 227.64V255H156V227.64Z" fill="#3C3C43" fill-opacity="0.29" shape-rendering="crispEdges"/>
<path d="M156.466 227.64C156.466 217.603 164.603 209.466 174.64 209.466H546.36C556.397 209.466 564.534 217.603 564.534 227.64V254.534H156.466V227.64Z" stroke="#353535" stroke-width="0.932018" shape-rendering="crispEdges"/>
</g>
<path d="M359.947 207.482V156.687C359.947 146.393 351.602 138.047 341.307 138.047H199.64C189.346 138.047 181 129.702 181 119.407V77" stroke="url(#paint0_linear_170_22)" stroke-width="1.86404"/>
<path d="M359.947 207.482V156.687C359.947 146.393 351.602 138.047 341.307 138.047H199.64C189.346 138.047 181 129.702 181 119.407V77" stroke="black" stroke-opacity="0.2" stroke-width="1.86404"/>
<circle cx="262.829" cy="140.735" r="14.9123" fill="#353535"/>
<circle cx="180" cy="233" r="4.375" stroke="#E3E8EA" stroke-width="1.25"/>
<circle cx="195" cy="233" r="4.375" stroke="#E3E8EA" stroke-width="1.25"/>
<circle cx="210" cy="233" r="4.375" stroke="#E3E8EA" stroke-width="1.25"/>
<rect x="350.5" y="299.5" width="195" height="54.6216" rx="2.14865" stroke="#4D4E4F"/>
<path d="M350.5 369.189C350.5 368.003 351.462 367.041 352.649 367.041H440.054C441.241 367.041 442.203 368.003 442.203 369.189V445.999C442.203 447.186 441.24 448.149 440.053 448.149H352.65C351.463 448.149 350.5 447.186 350.5 445.999V369.189Z" stroke="#1A597D"/>
<rect x="457.77" y="367.041" width="87.7297" height="36.0811" rx="2.14865" stroke="#4D4E4F"/>
<rect x="457.27" y="407.595" width="88.7297" height="37.0811" rx="2.64865" fill="#2FA2E3" fill-opacity="0.5"/>
<rect x="350" y="287" width="196" height="6" fill="#A7D910"/>
<rect x="175" y="361" width="92" height="6" fill="#4D4E4F"/>
<rect x="175" y="373" width="31" height="6" fill="#171ECB"/>
<rect x="175" y="385" width="62" height="6" fill="#1A597D"/>
<rect x="175" y="397" width="46" height="6" fill="#2FA2E3"/>
<rect x="485" y="264" width="61" height="17" rx="8.5" fill="#E3E8EA"/>
<rect x="175.5" y="268.5" width="91" height="80" rx="7.5" stroke="#4D4E4F"/>
<path d="M317 265V446" stroke="#4D4E4F" stroke-width="0.75"/>
<path d="M28 45V34.824H24.064V33.8H33.12V34.824H29.184V45H28ZM34.5528 45V36.6H35.6408V38.888L35.5288 38.488C35.7634 37.848 36.1581 37.3627 36.7128 37.032C37.2674 36.6907 37.9554 36.52 38.7768 36.52V37.624C38.7341 37.624 38.6914 37.624 38.6488 37.624C38.6061 37.6133 38.5634 37.608 38.5208 37.608C37.6354 37.608 36.9421 37.88 36.4408 38.424C35.9394 38.9573 35.6888 39.72 35.6888 40.712V45H34.5528ZM45.4886 45V43.144L45.4406 42.84V39.736C45.4406 39.0213 45.238 38.472 44.8326 38.088C44.438 37.704 43.846 37.512 43.0566 37.512C42.5126 37.512 41.9953 37.6027 41.5046 37.784C41.014 37.9653 40.598 38.2053 40.2566 38.504L39.7446 37.656C40.1713 37.2933 40.6833 37.016 41.2806 36.824C41.878 36.6213 42.5073 36.52 43.1686 36.52C44.2566 36.52 45.094 36.792 45.6806 37.336C46.278 37.8693 46.5766 38.6853 46.5766 39.784V45H45.4886ZM42.5926 45.08C41.9633 45.08 41.414 44.9787 40.9446 44.776C40.486 44.5627 40.134 44.2747 39.8886 43.912C39.6433 43.5387 39.5206 43.112 39.5206 42.632C39.5206 42.1947 39.622 41.8 39.8246 41.448C40.038 41.0853 40.3793 40.7973 40.8486 40.584C41.3286 40.36 41.9686 40.248 42.7686 40.248H45.6646V41.096H42.8006C41.99 41.096 41.4246 41.24 41.1046 41.528C40.7953 41.816 40.6406 42.1733 40.6406 42.6C40.6406 43.08 40.8273 43.464 41.2006 43.752C41.574 44.04 42.0966 44.184 42.7686 44.184C43.4086 44.184 43.958 44.04 44.4166 43.752C44.886 43.4533 45.2273 43.0267 45.4406 42.472L45.6966 43.256C45.4833 43.8107 45.11 44.2533 44.5766 44.584C44.054 44.9147 43.3926 45.08 42.5926 45.08ZM53.9501 36.52C54.6328 36.52 55.2301 36.6533 55.7421 36.92C56.2648 37.176 56.6701 37.5707 56.9581 38.104C57.2568 38.6373 57.4061 39.3093 57.4061 40.12V45H56.2701V40.232C56.2701 39.3467 56.0461 38.68 55.5981 38.232C55.1608 37.7733 54.5421 37.544 53.7421 37.544C53.1448 37.544 52.6221 37.6667 52.1741 37.912C51.7368 38.1467 51.3955 38.4933 51.1501 38.952C50.9155 39.4 50.7981 39.944 50.7981 40.584V45H49.6621V36.6H50.7501V38.904L50.5741 38.472C50.8408 37.864 51.2675 37.3893 51.8541 37.048C52.4408 36.696 53.1395 36.52 53.9501 36.52ZM62.7306 45.08C62.0373 45.08 61.3813 44.984 60.7626 44.792C60.144 44.5893 59.6586 44.3387 59.3066 44.04L59.8186 43.144C60.16 43.4 60.5973 43.624 61.1306 43.816C61.664 43.9973 62.224 44.088 62.8106 44.088C63.6106 44.088 64.1866 43.9653 64.5386 43.72C64.8906 43.464 65.0666 43.128 65.0666 42.712C65.0666 42.4027 64.9653 42.1627 64.7626 41.992C64.5706 41.8107 64.3146 41.6773 63.9946 41.592C63.6746 41.496 63.3173 41.416 62.9226 41.352C62.528 41.288 62.1333 41.2133 61.7386 41.128C61.3546 41.0427 61.0026 40.92 60.6826 40.76C60.3626 40.5893 60.1013 40.36 59.8986 40.072C59.7066 39.784 59.6106 39.4 59.6106 38.92C59.6106 38.4613 59.7386 38.0507 59.9946 37.688C60.2506 37.3253 60.624 37.0427 61.1146 36.84C61.616 36.6267 62.224 36.52 62.9386 36.52C63.4826 36.52 64.0266 36.5947 64.5706 36.744C65.1146 36.8827 65.5626 37.0693 65.9146 37.304L65.4186 38.216C65.0453 37.96 64.6453 37.7787 64.2186 37.672C63.792 37.5547 63.3653 37.496 62.9386 37.496C62.1813 37.496 61.6213 37.6293 61.2586 37.896C60.9066 38.152 60.7306 38.4827 60.7306 38.888C60.7306 39.208 60.8266 39.4587 61.0186 39.64C61.2213 39.8213 61.4826 39.9653 61.8026 40.072C62.1333 40.168 62.4906 40.248 62.8746 40.312C63.2693 40.376 63.6586 40.456 64.0426 40.552C64.4373 40.6373 64.7946 40.76 65.1146 40.92C65.4453 41.0693 65.7066 41.288 65.8986 41.576C66.1013 41.8533 66.2026 42.2213 66.2026 42.68C66.2026 43.1707 66.064 43.5973 65.7866 43.96C65.52 44.312 65.1253 44.5893 64.6026 44.792C64.0906 44.984 63.4666 45.08 62.7306 45.08ZM68.4791 45V35.544C68.4791 34.7973 68.6978 34.1947 69.1351 33.736C69.5725 33.2773 70.2018 33.048 71.0231 33.048C71.3431 33.048 71.6525 33.0907 71.9511 33.176C72.2498 33.2613 72.5005 33.3947 72.7031 33.576L72.3191 34.424C72.1591 34.2853 71.9725 34.184 71.7591 34.12C71.5458 34.0453 71.3165 34.008 71.0711 34.008C70.5911 34.008 70.2231 34.1413 69.9671 34.408C69.7111 34.6747 69.5831 35.0693 69.5831 35.592V36.872L69.6151 37.4V45H68.4791ZM66.9751 37.544V36.6H72.1751V37.544H66.9751ZM76.9924 45.08C76.1817 45.08 75.451 44.8987 74.8004 44.536C74.1604 44.1627 73.6537 43.656 73.2804 43.016C72.907 42.3653 72.7204 41.624 72.7204 40.792C72.7204 39.9493 72.907 39.208 73.2804 38.568C73.6537 37.928 74.1604 37.4267 74.8004 37.064C75.4404 36.7013 76.171 36.52 76.9924 36.52C77.8244 36.52 78.5604 36.7013 79.2004 37.064C79.851 37.4267 80.3577 37.928 80.7204 38.568C81.0937 39.208 81.2804 39.9493 81.2804 40.792C81.2804 41.624 81.0937 42.3653 80.7204 43.016C80.3577 43.656 79.851 44.1627 79.2004 44.536C78.5497 44.8987 77.8137 45.08 76.9924 45.08ZM76.9924 44.072C77.6004 44.072 78.139 43.9387 78.6084 43.672C79.0777 43.3947 79.4457 43.0107 79.7124 42.52C79.9897 42.0187 80.1284 41.4427 80.1284 40.792C80.1284 40.1307 79.9897 39.5547 79.7124 39.064C79.4457 38.5733 79.0777 38.1947 78.6084 37.928C78.139 37.6507 77.6057 37.512 77.0084 37.512C76.411 37.512 75.8777 37.6507 75.4084 37.928C74.939 38.1947 74.5657 38.5733 74.2884 39.064C74.011 39.5547 73.8724 40.1307 73.8724 40.792C73.8724 41.4427 74.011 42.0187 74.2884 42.52C74.5657 43.0107 74.939 43.3947 75.4084 43.672C75.8777 43.9387 76.4057 44.072 76.9924 44.072ZM83.5996 45V36.6H84.6876V38.888L84.5756 38.488C84.8103 37.848 85.205 37.3627 85.7596 37.032C86.3143 36.6907 87.0023 36.52 87.8236 36.52V37.624C87.781 37.624 87.7383 37.624 87.6956 37.624C87.653 37.6133 87.6103 37.608 87.5676 37.608C86.6823 37.608 85.989 37.88 85.4876 38.424C84.9863 38.9573 84.7356 39.72 84.7356 40.712V45H83.5996ZM100.393 36.52C101.075 36.52 101.667 36.6533 102.169 36.92C102.681 37.176 103.075 37.5707 103.353 38.104C103.641 38.6373 103.785 39.3093 103.785 40.12V45H102.649V40.232C102.649 39.3467 102.435 38.68 102.009 38.232C101.593 37.7733 101.001 37.544 100.233 37.544C99.6565 37.544 99.1552 37.6667 98.7285 37.912C98.3125 38.1467 97.9872 38.4933 97.7525 38.952C97.5285 39.4 97.4165 39.944 97.4165 40.584V45H96.2805V40.232C96.2805 39.3467 96.0672 38.68 95.6405 38.232C95.2138 37.7733 94.6165 37.544 93.8485 37.544C93.2832 37.544 92.7872 37.6667 92.3605 37.912C91.9338 38.1467 91.6032 38.4933 91.3685 38.952C91.1445 39.4 91.0325 39.944 91.0325 40.584V45H89.8965V36.6H90.9845V38.872L90.8085 38.472C91.0645 37.864 91.4752 37.3893 92.0405 37.048C92.6165 36.696 93.2938 36.52 94.0725 36.52C94.8938 36.52 95.5925 36.728 96.1685 37.144C96.7445 37.5493 97.1178 38.1627 97.2885 38.984L96.8405 38.808C97.0858 38.1253 97.5178 37.576 98.1365 37.16C98.7658 36.7333 99.5178 36.52 100.393 36.52ZM112.129 45V43.144L112.081 42.84V39.736C112.081 39.0213 111.879 38.472 111.473 38.088C111.079 37.704 110.487 37.512 109.697 37.512C109.153 37.512 108.636 37.6027 108.145 37.784C107.655 37.9653 107.239 38.2053 106.897 38.504L106.385 37.656C106.812 37.2933 107.324 37.016 107.921 36.824C108.519 36.6213 109.148 36.52 109.809 36.52C110.897 36.52 111.735 36.792 112.321 37.336C112.919 37.8693 113.217 38.6853 113.217 39.784V45H112.129ZM109.233 45.08C108.604 45.08 108.055 44.9787 107.585 44.776C107.127 44.5627 106.775 44.2747 106.529 43.912C106.284 43.5387 106.161 43.112 106.161 42.632C106.161 42.1947 106.263 41.8 106.465 41.448C106.679 41.0853 107.02 40.7973 107.489 40.584C107.969 40.36 108.609 40.248 109.409 40.248H112.305V41.096H109.441C108.631 41.096 108.065 41.24 107.745 41.528C107.436 41.816 107.281 42.1733 107.281 42.6C107.281 43.08 107.468 43.464 107.841 43.752C108.215 44.04 108.737 44.184 109.409 44.184C110.049 44.184 110.599 44.04 111.057 43.752C111.527 43.4533 111.868 43.0267 112.081 42.472L112.337 43.256C112.124 43.8107 111.751 44.2533 111.217 44.584C110.695 44.9147 110.033 45.08 109.233 45.08ZM123.146 45.08C122.357 45.08 121.749 44.8667 121.322 44.44C120.896 44.0133 120.682 43.4107 120.682 42.632V34.744H121.818V42.568C121.818 43.0587 121.941 43.4373 122.186 43.704C122.442 43.9707 122.805 44.104 123.274 44.104C123.776 44.104 124.192 43.96 124.522 43.672L124.922 44.488C124.698 44.6907 124.426 44.84 124.106 44.936C123.797 45.032 123.477 45.08 123.146 45.08ZM119.178 37.544V36.6H124.378V37.544H119.178ZM130.462 45.08C129.748 45.08 129.124 44.9467 128.59 44.68C128.057 44.4133 127.641 44.0133 127.342 43.48C127.054 42.9467 126.91 42.28 126.91 41.48V36.6H128.046V41.352C128.046 42.248 128.265 42.9253 128.702 43.384C129.15 43.832 129.774 44.056 130.574 44.056C131.161 44.056 131.668 43.9387 132.094 43.704C132.532 43.4587 132.862 43.1067 133.086 42.648C133.321 42.1893 133.438 41.64 133.438 41V36.6H134.574V45H133.486V42.696L133.662 43.112C133.396 43.7307 132.98 44.216 132.414 44.568C131.86 44.9093 131.209 45.08 130.462 45.08ZM144.088 45L140.36 36.6H141.544L144.968 44.392H144.408L147.88 36.6H149L145.256 45H144.088ZM150.6 45V36.6H151.736V45H150.6ZM151.176 34.744C150.941 34.744 150.744 34.664 150.584 34.504C150.424 34.344 150.344 34.152 150.344 33.928C150.344 33.704 150.424 33.5173 150.584 33.368C150.744 33.208 150.941 33.128 151.176 33.128C151.41 33.128 151.608 33.2027 151.768 33.352C151.928 33.5013 152.008 33.688 152.008 33.912C152.008 34.1467 151.928 34.344 151.768 34.504C151.618 34.664 151.421 34.744 151.176 34.744ZM157.153 45.08C156.459 45.08 155.803 44.984 155.185 44.792C154.566 44.5893 154.081 44.3387 153.729 44.04L154.241 43.144C154.582 43.4 155.019 43.624 155.553 43.816C156.086 43.9973 156.646 44.088 157.233 44.088C158.033 44.088 158.609 43.9653 158.961 43.72C159.313 43.464 159.489 43.128 159.489 42.712C159.489 42.4027 159.387 42.1627 159.185 41.992C158.993 41.8107 158.737 41.6773 158.417 41.592C158.097 41.496 157.739 41.416 157.345 41.352C156.95 41.288 156.555 41.2133 156.161 41.128C155.777 41.0427 155.425 40.92 155.105 40.76C154.785 40.5893 154.523 40.36 154.321 40.072C154.129 39.784 154.033 39.4 154.033 38.92C154.033 38.4613 154.161 38.0507 154.417 37.688C154.673 37.3253 155.046 37.0427 155.537 36.84C156.038 36.6267 156.646 36.52 157.361 36.52C157.905 36.52 158.449 36.5947 158.993 36.744C159.537 36.8827 159.985 37.0693 160.337 37.304L159.841 38.216C159.467 37.96 159.067 37.7787 158.641 37.672C158.214 37.5547 157.787 37.496 157.361 37.496C156.603 37.496 156.043 37.6293 155.681 37.896C155.329 38.152 155.153 38.4827 155.153 38.888C155.153 39.208 155.249 39.4587 155.441 39.64C155.643 39.8213 155.905 39.9653 156.225 40.072C156.555 40.168 156.913 40.248 157.297 40.312C157.691 40.376 158.081 40.456 158.465 40.552C158.859 40.6373 159.217 40.76 159.537 40.92C159.867 41.0693 160.129 41.288 160.321 41.576C160.523 41.8533 160.625 42.2213 160.625 42.68C160.625 43.1707 160.486 43.5973 160.209 43.96C159.942 44.312 159.547 44.5893 159.025 44.792C158.513 44.984 157.889 45.08 157.153 45.08ZM162.709 45V36.6H163.845V45H162.709ZM163.285 34.744C163.05 34.744 162.853 34.664 162.693 34.504C162.533 34.344 162.453 34.152 162.453 33.928C162.453 33.704 162.533 33.5173 162.693 33.368C162.853 33.208 163.05 33.128 163.285 33.128C163.52 33.128 163.717 33.2027 163.877 33.352C164.037 33.5013 164.117 33.688 164.117 33.912C164.117 34.1467 164.037 34.344 163.877 34.504C163.728 34.664 163.53 34.744 163.285 34.744ZM170.43 45.08C169.619 45.08 168.889 44.8987 168.238 44.536C167.598 44.1627 167.091 43.656 166.718 43.016C166.345 42.3653 166.158 41.624 166.158 40.792C166.158 39.9493 166.345 39.208 166.718 38.568C167.091 37.928 167.598 37.4267 168.238 37.064C168.878 36.7013 169.609 36.52 170.43 36.52C171.262 36.52 171.998 36.7013 172.638 37.064C173.289 37.4267 173.795 37.928 174.158 38.568C174.531 39.208 174.718 39.9493 174.718 40.792C174.718 41.624 174.531 42.3653 174.158 43.016C173.795 43.656 173.289 44.1627 172.638 44.536C171.987 44.8987 171.251 45.08 170.43 45.08ZM170.43 44.072C171.038 44.072 171.577 43.9387 172.046 43.672C172.515 43.3947 172.883 43.0107 173.15 42.52C173.427 42.0187 173.566 41.4427 173.566 40.792C173.566 40.1307 173.427 39.5547 173.15 39.064C172.883 38.5733 172.515 38.1947 172.046 37.928C171.577 37.6507 171.043 37.512 170.446 37.512C169.849 37.512 169.315 37.6507 168.846 37.928C168.377 38.1947 168.003 38.5733 167.726 39.064C167.449 39.5547 167.31 40.1307 167.31 40.792C167.31 41.4427 167.449 42.0187 167.726 42.52C168.003 43.0107 168.377 43.3947 168.846 43.672C169.315 43.9387 169.843 44.072 170.43 44.072ZM169.39 35.288L171.582 33.304H173.102L170.51 35.288H169.39ZM181.325 36.52C182.008 36.52 182.605 36.6533 183.117 36.92C183.64 37.176 184.045 37.5707 184.333 38.104C184.632 38.6373 184.781 39.3093 184.781 40.12V45H183.645V40.232C183.645 39.3467 183.421 38.68 182.973 38.232C182.536 37.7733 181.917 37.544 181.117 37.544C180.52 37.544 179.997 37.6667 179.549 37.912C179.112 38.1467 178.77 38.4933 178.525 38.952C178.29 39.4 178.173 39.944 178.173 40.584V45H177.037V36.6H178.125V38.904L177.949 38.472C178.216 37.864 178.642 37.3893 179.229 37.048C179.816 36.696 180.514 36.52 181.325 36.52ZM195.381 45.08C194.581 45.08 193.861 44.8987 193.221 44.536C192.592 44.1733 192.096 43.672 191.733 43.032C191.37 42.3813 191.189 41.6347 191.189 40.792C191.189 39.9387 191.37 39.192 191.733 38.552C192.096 37.912 192.592 37.416 193.221 37.064C193.861 36.7013 194.581 36.52 195.381 36.52C196.117 36.52 196.773 36.6853 197.349 37.016C197.936 37.3467 198.4 37.832 198.741 38.472C199.093 39.1013 199.269 39.8747 199.269 40.792C199.269 41.6987 199.098 42.472 198.757 43.112C198.416 43.752 197.952 44.2427 197.365 44.584C196.789 44.9147 196.128 45.08 195.381 45.08ZM195.461 44.072C196.058 44.072 196.592 43.9387 197.061 43.672C197.541 43.3947 197.914 43.0107 198.181 42.52C198.458 42.0187 198.597 41.4427 198.597 40.792C198.597 40.1307 198.458 39.5547 198.181 39.064C197.914 38.5733 197.541 38.1947 197.061 37.928C196.592 37.6507 196.058 37.512 195.461 37.512C194.874 37.512 194.346 37.6507 193.877 37.928C193.408 38.1947 193.034 38.5733 192.757 39.064C192.48 39.5547 192.341 40.1307 192.341 40.792C192.341 41.4427 192.48 42.0187 192.757 42.52C193.034 43.0107 193.408 43.3947 193.877 43.672C194.346 43.9387 194.874 44.072 195.461 44.072ZM198.629 45V42.472L198.741 40.776L198.581 39.08V33.128H199.717V45H198.629ZM202.881 45V36.6H204.017V45H202.881ZM203.457 34.744C203.222 34.744 203.025 34.664 202.865 34.504C202.705 34.344 202.625 34.152 202.625 33.928C202.625 33.704 202.705 33.5173 202.865 33.368C203.025 33.208 203.222 33.128 203.457 33.128C203.692 33.128 203.889 33.2027 204.049 33.352C204.209 33.5013 204.289 33.688 204.289 33.912C204.289 34.1467 204.209 34.344 204.049 34.504C203.9 34.664 203.702 34.744 203.457 34.744ZM210.762 48.184C209.994 48.184 209.258 48.072 208.554 47.848C207.85 47.624 207.279 47.304 206.842 46.888L207.418 46.024C207.812 46.376 208.298 46.6533 208.874 46.856C209.46 47.0693 210.079 47.176 210.73 47.176C211.796 47.176 212.58 46.9253 213.082 46.424C213.583 45.9333 213.834 45.1653 213.834 44.12V42.024L213.994 40.584L213.882 39.144V36.6H214.97V43.976C214.97 45.4267 214.612 46.488 213.898 47.16C213.194 47.8427 212.148 48.184 210.762 48.184ZM210.554 44.68C209.754 44.68 209.034 44.5093 208.394 44.168C207.754 43.816 207.247 43.3307 206.874 42.712C206.511 42.0933 206.33 41.384 206.33 40.584C206.33 39.784 206.511 39.08 206.874 38.472C207.247 37.8533 207.754 37.3733 208.394 37.032C209.034 36.6907 209.754 36.52 210.554 36.52C211.3 36.52 211.972 36.6747 212.57 36.984C213.167 37.2933 213.642 37.752 213.994 38.36C214.346 38.968 214.522 39.7093 214.522 40.584C214.522 41.4587 214.346 42.2 213.994 42.808C213.642 43.416 213.167 43.88 212.57 44.2C211.972 44.52 211.3 44.68 210.554 44.68ZM210.666 43.672C211.284 43.672 211.834 43.544 212.314 43.288C212.794 43.0213 213.172 42.6587 213.45 42.2C213.727 41.7307 213.866 41.192 213.866 40.584C213.866 39.976 213.727 39.4427 213.45 38.984C213.172 38.5253 212.794 38.168 212.314 37.912C211.834 37.6453 211.284 37.512 210.666 37.512C210.058 37.512 209.508 37.6453 209.018 37.912C208.538 38.168 208.159 38.5253 207.882 38.984C207.615 39.4427 207.482 39.976 207.482 40.584C207.482 41.192 207.615 41.7307 207.882 42.2C208.159 42.6587 208.538 43.0213 209.018 43.288C209.508 43.544 210.058 43.672 210.666 43.672ZM218.131 45V36.6H219.267V45H218.131ZM218.707 34.744C218.472 34.744 218.275 34.664 218.115 34.504C217.955 34.344 217.875 34.152 217.875 33.928C217.875 33.704 217.955 33.5173 218.115 33.368C218.275 33.208 218.472 33.128 218.707 33.128C218.942 33.128 219.139 33.2027 219.299 33.352C219.459 33.5013 219.539 33.688 219.539 33.912C219.539 34.1467 219.459 34.344 219.299 34.504C219.15 34.664 218.952 34.744 218.707 34.744ZM225.084 45.08C224.294 45.08 223.686 44.8667 223.26 44.44C222.833 44.0133 222.62 43.4107 222.62 42.632V34.744H223.756V42.568C223.756 43.0587 223.878 43.4373 224.124 43.704C224.38 43.9707 224.742 44.104 225.212 44.104C225.713 44.104 226.129 43.96 226.46 43.672L226.86 44.488C226.636 44.6907 226.364 44.84 226.044 44.936C225.734 45.032 225.414 45.08 225.084 45.08ZM221.116 37.544V36.6H226.316V37.544H221.116ZM234.192 45V43.144L234.144 42.84V39.736C234.144 39.0213 233.941 38.472 233.536 38.088C233.141 37.704 232.549 37.512 231.76 37.512C231.216 37.512 230.698 37.6027 230.208 37.784C229.717 37.9653 229.301 38.2053 228.96 38.504L228.448 37.656C228.874 37.2933 229.386 37.016 229.984 36.824C230.581 36.6213 231.21 36.52 231.872 36.52C232.96 36.52 233.797 36.792 234.384 37.336C234.981 37.8693 235.28 38.6853 235.28 39.784V45H234.192ZM231.296 45.08C230.666 45.08 230.117 44.9787 229.648 44.776C229.189 44.5627 228.837 44.2747 228.592 43.912C228.346 43.5387 228.224 43.112 228.224 42.632C228.224 42.1947 228.325 41.8 228.528 41.448C228.741 41.0853 229.082 40.7973 229.552 40.584C230.032 40.36 230.672 40.248 231.472 40.248H234.368V41.096H231.504C230.693 41.096 230.128 41.24 229.808 41.528C229.498 41.816 229.344 42.1733 229.344 42.6C229.344 43.08 229.53 43.464 229.904 43.752C230.277 44.04 230.8 44.184 231.472 44.184C232.112 44.184 232.661 44.04 233.12 43.752C233.589 43.4533 233.93 43.0267 234.144 42.472L234.4 43.256C234.186 43.8107 233.813 44.2533 233.28 44.584C232.757 44.9147 232.096 45.08 231.296 45.08ZM238.365 45V33.128H239.501V45H238.365ZM250.338 45.08C249.506 45.08 248.759 44.8987 248.098 44.536C247.447 44.1627 246.935 43.656 246.562 43.016C246.188 42.3653 246.002 41.624 246.002 40.792C246.002 39.9493 246.188 39.208 246.562 38.568C246.935 37.928 247.447 37.4267 248.098 37.064C248.759 36.7013 249.506 36.52 250.338 36.52C251.052 36.52 251.698 36.6587 252.274 36.936C252.85 37.2133 253.303 37.6293 253.634 38.184L252.786 38.76C252.498 38.3333 252.14 38.0187 251.714 37.816C251.287 37.6133 250.823 37.512 250.322 37.512C249.724 37.512 249.186 37.6507 248.706 37.928C248.226 38.1947 247.847 38.5733 247.57 39.064C247.292 39.5547 247.154 40.1307 247.154 40.792C247.154 41.4533 247.292 42.0293 247.57 42.52C247.847 43.0107 248.226 43.3947 248.706 43.672C249.186 43.9387 249.724 44.072 250.322 44.072C250.823 44.072 251.287 43.9707 251.714 43.768C252.14 43.5653 252.498 43.256 252.786 42.84L253.634 43.416C253.303 43.96 252.85 44.376 252.274 44.664C251.698 44.9413 251.052 45.08 250.338 45.08ZM259.149 45.08C258.338 45.08 257.607 44.8987 256.957 44.536C256.317 44.1627 255.81 43.656 255.437 43.016C255.063 42.3653 254.877 41.624 254.877 40.792C254.877 39.9493 255.063 39.208 255.437 38.568C255.81 37.928 256.317 37.4267 256.957 37.064C257.597 36.7013 258.327 36.52 259.149 36.52C259.981 36.52 260.717 36.7013 261.357 37.064C262.007 37.4267 262.514 37.928 262.877 38.568C263.25 39.208 263.437 39.9493 263.437 40.792C263.437 41.624 263.25 42.3653 262.877 43.016C262.514 43.656 262.007 44.1627 261.357 44.536C260.706 44.8987 259.97 45.08 259.149 45.08ZM259.149 44.072C259.757 44.072 260.295 43.9387 260.765 43.672C261.234 43.3947 261.602 43.0107 261.869 42.52C262.146 42.0187 262.285 41.4427 262.285 40.792C262.285 40.1307 262.146 39.5547 261.869 39.064C261.602 38.5733 261.234 38.1947 260.765 37.928C260.295 37.6507 259.762 37.512 259.165 37.512C258.567 37.512 258.034 37.6507 257.565 37.928C257.095 38.1947 256.722 38.5733 256.445 39.064C256.167 39.5547 256.029 40.1307 256.029 40.792C256.029 41.4427 256.167 42.0187 256.445 42.52C256.722 43.0107 257.095 43.3947 257.565 43.672C258.034 43.9387 258.562 44.072 259.149 44.072ZM270.044 36.52C270.727 36.52 271.324 36.6533 271.836 36.92C272.359 37.176 272.764 37.5707 273.052 38.104C273.351 38.6373 273.5 39.3093 273.5 40.12V45H272.364V40.232C272.364 39.3467 272.14 38.68 271.692 38.232C271.255 37.7733 270.636 37.544 269.836 37.544C269.239 37.544 268.716 37.6667 268.268 37.912C267.831 38.1467 267.489 38.4933 267.244 38.952C267.009 39.4 266.892 39.944 266.892 40.584V45H265.756V36.6H266.844V38.904L266.668 38.472C266.935 37.864 267.361 37.3893 267.948 37.048C268.535 36.696 269.233 36.52 270.044 36.52ZM280.996 45V33.8H285.556C286.751 33.8 287.796 34.04 288.692 34.52C289.599 34.9893 290.303 35.6453 290.804 36.488C291.305 37.3307 291.556 38.3013 291.556 39.4C291.556 40.4987 291.305 41.4693 290.804 42.312C290.303 43.1547 289.599 43.816 288.692 44.296C287.796 44.7653 286.751 45 285.556 45H280.996ZM282.18 43.976H285.492C286.484 43.976 287.343 43.784 288.068 43.4C288.804 43.0053 289.375 42.4667 289.78 41.784C290.185 41.0907 290.388 40.296 290.388 39.4C290.388 38.4933 290.185 37.6987 289.78 37.016C289.375 36.3333 288.804 35.8 288.068 35.416C287.343 35.0213 286.484 34.824 285.492 34.824H282.18V43.976ZM292.256 45L296.848 38.792V39.704L292.528 33.8H293.888L297.52 38.728L296.992 38.744L300.624 33.8H301.904L297.632 39.624V38.792L302.208 45H300.832L296.96 39.736H297.456L293.616 45H292.256ZM302.001 45L307.121 33.8H308.289L313.409 45H312.161L307.457 34.488H307.937L303.233 45H302.001ZM304.017 42.008L304.369 41.048H310.881L311.233 42.008H304.017Z" fill="white"/>
<circle cx="262.91" cy="140.91" r="14.91" fill="#1A597D"/>
<g clip-path="url(#clip0_170_22)">
<path d="M266.586 137.231H265.504C265.504 137.435 265.496 137.627 265.506 137.817C265.534 138.364 265.524 138.917 265.612 139.454C265.753 140.328 266.263 141.018 266.861 141.643C267.395 142.202 268.055 142.597 268.693 143.021C269.457 143.528 270.209 144.052 270.805 144.762C271.531 145.628 271.838 146.621 271.682 147.748C271.642 148.038 271.437 148.215 271.179 148.184C270.93 148.155 270.772 147.943 270.818 147.649C270.909 147.078 270.834 146.534 270.59 146.014C270.317 145.431 269.887 144.97 269.376 144.595C268.689 144.093 267.975 143.627 267.28 143.135C266.316 142.452 265.513 141.626 265.023 140.53C264.706 139.822 264.608 139.076 264.615 138.309C264.618 137.955 264.615 137.601 264.615 137.232H263.335C263.335 137.54 263.335 137.844 263.335 138.148C263.337 142.367 263.34 146.586 263.342 150.804C263.342 151.328 263.345 151.851 263.34 152.375C263.336 152.683 263.147 152.863 262.862 152.845C262.679 152.833 262.521 152.682 262.48 152.468C262.463 152.383 262.456 152.295 262.456 152.208C262.453 147.69 262.451 143.172 262.452 138.654C262.452 138.237 262.466 137.819 262.473 137.402C262.474 137.348 262.473 137.293 262.473 137.228H261.167C261.167 137.3 261.168 137.366 261.167 137.432C261.161 137.98 261.178 138.529 261.142 139.075C261.073 140.113 260.616 140.99 259.975 141.79C259.325 142.601 258.488 143.179 257.641 143.753C256.94 144.227 256.238 144.703 255.671 145.345C255.186 145.896 254.932 146.533 254.932 147.268C254.932 147.397 254.961 147.526 254.983 147.655C255.023 147.894 254.903 148.108 254.69 148.17C254.458 148.237 254.21 148.135 254.165 147.884C254.101 147.527 254.055 147.153 254.09 146.796C254.208 145.606 254.866 144.71 255.775 144.001C256.53 143.412 257.333 142.886 258.111 142.327C258.855 141.792 259.456 141.13 259.884 140.314C260.229 139.654 260.297 138.942 260.3 138.215C260.302 137.892 260.301 137.569 260.301 137.231H259.248C259.248 137.293 259.248 137.352 259.248 137.411C259.244 138.04 259.242 138.669 259.235 139.298C259.229 139.836 259.062 140.325 258.777 140.777C258.677 140.934 258.586 141.098 258.481 141.252C258.308 141.503 258.028 141.572 257.82 141.424C257.619 141.281 257.6 141.034 257.767 140.775C257.906 140.561 258.079 140.361 258.17 140.128C258.273 139.861 258.344 139.566 258.356 139.281C258.384 138.621 258.37 137.96 258.364 137.299C258.364 137.243 258.315 137.155 258.268 137.137C257.102 136.694 256.672 135.463 256.772 134.378C257.002 131.876 259.144 129.447 261.927 129.011C265.086 128.516 268.101 130.466 268.896 133.561C269.088 134.305 269.153 135.06 268.856 135.801C268.613 136.406 268.199 136.851 267.59 137.1C267.482 137.144 267.445 137.195 267.447 137.315C267.456 137.901 267.461 138.487 267.451 139.073C267.441 139.656 267.608 140.176 267.95 140.645C268.005 140.72 268.061 140.796 268.109 140.876C268.214 141.052 268.195 141.249 268.066 141.374C267.921 141.515 267.728 141.545 267.553 141.439C267.475 141.391 267.401 141.327 267.348 141.253C266.87 140.593 266.557 139.878 266.583 139.039C266.601 138.442 266.586 137.845 266.586 137.231L266.586 137.231ZM263.867 129.913C264.124 130.268 264.426 130.612 264.645 131.003C265.356 132.27 265.532 133.657 265.471 135.085C265.462 135.274 265.304 135.435 265.119 135.467C264.844 135.515 264.623 135.294 264.609 134.965C264.587 134.449 264.586 133.931 264.529 133.419C264.453 132.743 264.264 132.092 263.937 131.488C263.677 131.008 263.333 130.595 262.916 130.236C262.872 130.271 262.837 130.296 262.804 130.325C261.898 131.129 261.452 132.172 261.29 133.344C261.213 133.897 261.208 134.46 261.174 135.019C261.161 135.244 261.048 135.411 260.866 135.456C260.569 135.53 260.298 135.306 260.315 134.951C260.346 134.288 260.364 133.619 260.47 132.965C260.616 132.057 260.929 131.199 261.507 130.462C261.658 130.269 261.827 130.091 262.001 129.892C261.892 129.915 261.802 129.934 261.713 129.955C261.622 129.976 261.531 129.996 261.442 130.024C260.068 130.452 259.017 131.29 258.292 132.532C257.841 133.306 257.577 134.136 257.658 135.042C257.718 135.705 258.141 136.317 258.979 136.321C259.802 136.325 260.624 136.328 261.447 136.327C263.248 136.326 265.049 136.329 266.85 136.315C267.528 136.31 268.012 135.87 268.127 135.206C268.244 134.529 268.13 133.877 267.881 133.251C267.355 131.93 266.443 130.952 265.173 130.315C264.752 130.103 264.311 129.945 263.867 129.912V129.913Z" fill="white"/>
<path d="M268.369 149.247C268.657 148.772 268.769 148.258 268.709 147.703C268.623 146.913 268.199 146.316 267.635 145.799C267.341 145.53 267.037 145.273 266.74 145.008C266.657 144.934 266.575 144.856 266.502 144.771C266.334 144.577 266.333 144.382 266.492 144.2C266.641 144.031 266.898 143.988 267.079 144.148C267.609 144.617 268.141 145.088 268.64 145.59C269.128 146.081 269.428 146.688 269.552 147.375C269.792 148.692 269.351 149.747 268.302 150.555C268.087 150.721 267.85 150.867 267.605 150.983C267.273 151.141 266.961 150.934 267.01 150.595C267.025 150.49 267.117 150.375 267.206 150.306C267.355 150.189 267.531 150.105 267.685 150.013C267.419 149.79 267.145 149.595 266.913 149.359C266.577 149.017 266.382 148.596 266.369 148.107C266.361 147.811 266.535 147.591 266.776 147.57C267.029 147.547 267.212 147.723 267.257 148.032C267.345 148.639 267.756 149.092 268.37 149.248L268.369 149.247Z" fill="white"/>
<path d="M257.442 149.242C257.802 149.119 258.077 148.892 258.313 148.612C258.469 148.428 258.516 148.206 258.548 147.975C258.584 147.713 258.743 147.567 258.973 147.569C259.213 147.571 259.391 147.726 259.416 147.986C259.464 148.469 259.276 148.883 258.965 149.229C258.756 149.463 258.491 149.646 258.251 149.851C258.204 149.891 258.153 149.926 258.097 149.968C258.138 150.025 258.175 150.073 258.208 150.123C258.319 150.292 258.313 150.47 258.195 150.605C258.064 150.754 257.855 150.812 257.69 150.687C257.418 150.482 257.138 150.271 256.926 150.01C255.974 148.842 255.939 147.326 256.809 146.049C257.245 145.41 257.829 144.912 258.401 144.403C258.485 144.329 258.568 144.254 258.657 144.186C258.883 144.013 259.144 144.029 259.309 144.221C259.472 144.41 259.459 144.654 259.251 144.854C259.009 145.086 258.75 145.301 258.501 145.527C258.1 145.891 257.695 146.251 257.425 146.733C257.012 147.472 256.977 148.232 257.296 149.011C257.317 149.062 257.348 149.11 257.377 149.158C257.396 149.189 257.421 149.216 257.442 149.242V149.242Z" fill="white"/>
<path d="M261.173 147.309C261.173 148.735 261.174 150.161 261.173 151.588C261.173 151.693 261.175 151.802 261.151 151.903C261.097 152.13 260.923 152.257 260.705 152.245C260.512 152.235 260.346 152.079 260.31 151.862C260.292 151.752 260.284 151.639 260.284 151.527C260.281 149.049 260.28 146.57 260.279 144.092C260.279 143.687 260.279 143.283 260.285 142.878C260.286 142.781 260.298 142.676 260.335 142.588C260.403 142.426 260.536 142.337 260.717 142.34C260.891 142.342 261.074 142.472 261.126 142.644C261.156 142.743 261.165 142.852 261.165 142.956C261.168 144.407 261.167 145.858 261.167 147.309C261.169 147.309 261.171 147.309 261.173 147.309L261.173 147.309Z" fill="white"/>
<path d="M265.507 146.063C265.507 147.097 265.507 148.131 265.507 149.166C265.507 149.24 265.509 149.316 265.501 149.39C265.478 149.598 265.322 149.759 265.134 149.777C264.91 149.798 264.717 149.684 264.654 149.477C264.625 149.384 264.614 149.281 264.614 149.183C264.612 147.519 264.61 145.856 264.614 144.192C264.615 143.726 264.626 143.259 264.643 142.792C264.653 142.497 264.808 142.338 265.057 142.342C265.327 142.347 265.506 142.537 265.506 142.829C265.507 143.907 265.506 144.985 265.507 146.063Z" fill="white"/>
<path d="M274.518 138.378C273.311 138.413 272.105 138.447 270.899 138.484C270.732 138.489 270.609 138.427 270.537 138.274C270.46 138.108 270.455 137.934 270.592 137.808C270.676 137.732 270.807 137.674 270.92 137.668C271.915 137.62 272.91 137.587 273.906 137.545C274.098 137.536 274.288 137.502 274.48 137.485C274.688 137.466 274.863 137.527 274.977 137.711C275.079 137.875 275.074 138.042 274.973 138.204C274.868 138.372 274.698 138.402 274.518 138.378H274.518Z" fill="white"/>
<path d="M253.288 138.388C252.74 138.388 252.192 138.387 251.645 138.389C251.521 138.39 251.396 138.41 251.273 138.405C250.983 138.392 250.79 138.172 250.808 137.886C250.825 137.638 251.041 137.48 251.325 137.494C252.519 137.551 253.713 137.607 254.906 137.66C255.262 137.676 255.464 138.003 255.292 138.297C255.216 138.426 255.105 138.484 254.951 138.483C254.397 138.478 253.843 138.481 253.288 138.481C253.288 138.45 253.288 138.419 253.288 138.388Z" fill="white"/>
<path d="M272.665 139.792C273.274 139.792 273.884 139.795 274.493 139.791C274.776 139.79 275.003 139.94 275.044 140.169C275.087 140.414 274.959 140.632 274.717 140.704C274.654 140.724 274.583 140.727 274.516 140.726C273.478 140.701 272.44 140.674 271.402 140.647C271.29 140.644 271.178 140.65 271.066 140.643C270.807 140.626 270.661 140.462 270.663 140.201C270.666 139.947 270.805 139.805 271.077 139.802C271.606 139.796 272.135 139.8 272.665 139.8C272.665 139.798 272.665 139.795 272.665 139.793V139.792Z" fill="white"/>
<path d="M253.164 140.681C252.647 140.681 252.13 140.678 251.613 140.683C251.49 140.684 251.368 140.725 251.245 140.725C250.999 140.725 250.802 140.529 250.778 140.279C250.757 140.068 250.918 139.855 251.158 139.823C251.327 139.801 251.503 139.832 251.676 139.831C252.679 139.821 253.683 139.809 254.686 139.797C255.024 139.793 255.24 140.052 255.146 140.353C255.089 140.539 254.934 140.644 254.697 140.646C254.186 140.649 253.675 140.646 253.164 140.646C253.164 140.658 253.164 140.67 253.164 140.681H253.164Z" fill="white"/>
<path d="M269.268 139.686C269.55 139.701 269.778 139.932 269.765 140.19C269.751 140.476 269.514 140.699 269.239 140.683C268.967 140.666 268.748 140.424 268.766 140.158C268.784 139.88 269.006 139.672 269.268 139.686Z" fill="white"/>
<path d="M268.992 137.668C269.276 137.664 269.506 137.877 269.505 138.144C269.505 138.434 269.283 138.662 269.005 138.66C268.74 138.659 268.511 138.428 268.508 138.158C268.504 137.897 268.727 137.671 268.992 137.668H268.992Z" fill="white"/>
<path d="M256.086 140.175C256.085 139.919 256.318 139.688 256.576 139.687C256.834 139.686 257.078 139.917 257.083 140.165C257.089 140.44 256.846 140.69 256.58 140.685C256.317 140.68 256.088 140.444 256.086 140.175V140.175Z" fill="white"/>
<path d="M257.312 138.163C257.319 138.415 257.092 138.649 256.831 138.66C256.565 138.672 256.32 138.429 256.318 138.154C256.317 137.899 256.527 137.681 256.786 137.67C257.057 137.658 257.306 137.892 257.312 138.163H257.312Z" fill="white"/>
<path d="M270.368 141.36C270.633 141.359 270.853 141.576 270.855 141.844C270.858 142.118 270.652 142.331 270.381 142.334C270.117 142.337 269.884 142.098 269.889 141.83C269.894 141.573 270.11 141.361 270.368 141.36V141.36Z" fill="white"/>
<path d="M255.931 141.848C255.929 142.107 255.697 142.336 255.439 142.334C255.191 142.332 254.964 142.091 254.964 141.83C254.964 141.573 255.18 141.361 255.443 141.36C255.702 141.359 255.932 141.588 255.931 141.848Z" fill="white"/>
</g>
<defs>
<filter id="filter0_d_170_22" x="152.272" y="209" width="416.456" height="262.456" filterUnits="userSpaceOnUse" color-interpolation-filters="sRGB">
<feFlood flood-opacity="0" result="BackgroundImageFix"/>
<feColorMatrix in="SourceAlpha" type="matrix" values="0 0 0 0 0 0 0 0 0 0 0 0 0 0 0 0 0 0 127 0" result="hardAlpha"/>
<feOffset dy="3.72807"/>
<feGaussianBlur stdDeviation="1.86404"/>
<feComposite in2="hardAlpha" operator="out"/>
<feColorMatrix type="matrix" values="0 0 0 0 0 0 0 0 0 0 0 0 0 0 0 0 0 0 0.25 0"/>
<feBlend mode="normal" in2="BackgroundImageFix" result="effect1_dropShadow_170_22"/>
<feBlend mode="normal" in="SourceGraphic" in2="effect1_dropShadow_170_22" result="shape"/>
</filter>
<filter id="filter1_d_170_22" x="152.272" y="209" width="416.456" height="53.4561" filterUnits="userSpaceOnUse" color-interpolation-filters="sRGB">
<feFlood flood-opacity="0" result="BackgroundImageFix"/>
<feColorMatrix in="SourceAlpha" type="matrix" values="0 0 0 0 0 0 0 0 0 0 0 0 0 0 0 0 0 0 127 0" result="hardAlpha"/>
<feOffset dy="3.72807"/>
<feGaussianBlur stdDeviation="1.86404"/>
<feComposite in2="hardAlpha" operator="out"/>
<feColorMatrix type="matrix" values="0 0 0 0 0 0 0 0 0 0 0 0 0 0 0 0 0 0 0.25 0"/>
<feBlend mode="normal" in2="BackgroundImageFix" result="effect1_dropShadow_170_22"/>
<feBlend mode="normal" in="SourceGraphic" in2="effect1_dropShadow_170_22" result="shape"/>
</filter>
<linearGradient id="paint0_linear_170_22" x1="270.474" y1="77" x2="270.474" y2="207.482" gradientUnits="userSpaceOnUse">
<stop stop-color="#1A597D"/>
<stop offset="1" stop-color="#A7D910"/>
</linearGradient>
<clipPath id="clip0_170_22">
<rect width="24.2761" height="23.9115" fill="white" transform="translate(250.776 128.934)"/>
</clipPath>
</defs>
</svg>
