<svg width="40" height="40" viewBox="0 0 40 40" fill="none" xmlns="http://www.w3.org/2000/svg">
<path d="M8.78906 40H0.615234V13.7207H8.78906V40ZM4.6582 10.2051C2.10938 10.2051 0 8.00781 0 5.37109C0 2.82227 2.10938 0.712891 4.6582 0.712891C7.29492 0.712891 9.4043 2.82227 9.4043 5.37109C9.4043 8.00781 7.29492 10.2051 4.6582 10.2051ZM39.2871 40H31.2012V27.2559C31.2012 24.1797 31.1133 20.3125 26.8945 20.3125C22.6758 20.3125 22.0605 23.5645 22.0605 26.9922V40H13.8867V13.7207H21.709V17.3242H21.7969C22.9395 15.3027 25.5762 13.1055 29.5312 13.1055C37.793 13.1055 39.375 18.5547 39.375 25.5859V40H39.2871Z" fill="white"/>
</svg>
