<svg width="503" height="362" viewBox="0 0 503 362" fill="none" xmlns="http://www.w3.org/2000/svg">
<path d="M401.254 336L482.357 336C457.039 303.387 402.284 230.694 385.805 200.828C369.327 170.961 382.373 144.613 390.955 135.172L482.357 6.10352e-05L401.254 6.81254e-05L327.875 109.425C315.516 125.904 311.568 160.92 311.139 176.368C310.109 203.145 326.158 231.295 334.311 242.023L401.254 336Z" fill="url(#paint0_linear_48_168)" fill-opacity="0.4"/>
<g filter="url(#filter0_f_48_168)">
<path fill-rule="evenodd" clip-rule="evenodd" d="M274.967 245.237C274.196 212.8 259.876 183.718 237.448 163.431C237.81 180.758 230.117 194.541 224.402 200.828L133 336H214.103L274.967 245.237Z" fill="url(#paint1_linear_48_168)"/>
</g>
<circle cx="161" cy="248" r="114" fill="#474748" fill-opacity="0.5"/>
<path fill-rule="evenodd" clip-rule="evenodd" d="M133 0H214.103L281.045 93.977C289.199 104.705 305.248 132.855 304.218 159.632C303.789 175.08 299.841 210.097 287.482 226.575L274.967 245.237C274.196 212.8 259.876 183.718 237.448 163.431C237.267 154.737 235.057 145.151 229.551 135.172C213.073 105.306 158.318 32.613 133 0Z" fill="url(#paint2_linear_48_168)" fill-opacity="0.4"/>
<path d="M7.51959 313V249.582H36.3296C43.215 249.582 49.285 250.911 54.5397 253.568C59.7943 256.165 63.9014 259.819 66.8609 264.53C69.8204 269.241 71.3002 274.828 71.3002 281.291C71.3002 287.693 69.8204 293.28 66.8609 298.051C63.9014 302.762 59.7943 306.447 54.5397 309.104C49.285 311.701 43.215 313 36.3296 313H7.51959ZM22.1964 300.951H35.6048C39.8327 300.951 43.4868 300.165 46.5671 298.595C49.7078 296.964 52.1237 294.669 53.8149 291.71C55.5664 288.75 56.4422 285.277 56.4422 281.291C56.4422 277.244 55.5664 273.771 53.8149 270.872C52.1237 267.913 49.7078 265.648 46.5671 264.077C43.4868 262.447 39.8327 261.631 35.6048 261.631H22.1964V300.951ZM73.7074 313L95.5414 284.371L95.2696 292.163L74.3416 264.259H90.1961L103.423 282.469L97.4439 282.65L111.124 264.259H126.163L105.145 291.891V284.281L126.888 313H110.852L96.9909 293.612L102.88 294.428L89.1089 313H73.7074ZM126.41 313L154.677 249.582H169.172L197.529 313H182.128L158.935 257.011H164.733L141.449 313H126.41ZM140.543 299.41L144.439 288.267H177.054L181.041 299.41H140.543Z" fill="white"/>
<path d="M229.341 313.356C225.247 313.356 221.539 312.407 218.216 310.508C214.953 308.609 212.342 305.88 210.384 302.32C208.486 298.76 207.536 294.577 207.536 289.771C207.536 284.846 208.486 280.634 210.384 277.133C212.342 273.632 214.953 270.933 218.216 269.034C221.539 267.135 225.247 266.186 229.341 266.186C233.732 266.186 237.648 267.195 241.089 269.212C244.59 271.17 247.319 273.929 249.277 277.489C251.295 280.99 252.303 285.084 252.303 289.771C252.303 294.399 251.295 298.493 249.277 302.053C247.319 305.613 244.59 308.402 241.089 310.419C237.648 312.377 233.732 313.356 229.341 313.356ZM206.023 313V246.962H210.473V281.583L209.583 289.682L210.295 297.781V313H206.023ZM229.074 309.351C232.634 309.351 235.838 308.55 238.686 306.948C241.534 305.287 243.759 302.973 245.361 300.006C247.023 297.039 247.853 293.628 247.853 289.771C247.853 285.855 247.023 282.443 245.361 279.536C243.759 276.569 241.534 274.285 238.686 272.683C235.838 271.022 232.634 270.191 229.074 270.191C225.514 270.191 222.31 271.022 219.462 272.683C216.674 274.285 214.449 276.569 212.787 279.536C211.185 282.443 210.384 285.855 210.384 289.771C210.384 293.628 211.185 297.039 212.787 300.006C214.449 302.973 216.674 305.287 219.462 306.948C222.31 308.55 225.514 309.351 229.074 309.351ZM277.829 313.356C273.972 313.356 270.353 312.792 266.971 311.665C263.648 310.538 261.067 309.114 259.228 307.393L261.275 303.833C263.055 305.376 265.428 306.711 268.395 307.838C271.362 308.906 274.566 309.44 278.007 309.44C282.872 309.44 286.373 308.639 288.509 307.037C290.645 305.435 291.713 303.329 291.713 300.718C291.713 298.819 291.149 297.336 290.022 296.268C288.954 295.141 287.5 294.28 285.661 293.687C283.822 293.094 281.804 292.619 279.609 292.263C277.414 291.848 275.218 291.403 273.023 290.928C270.828 290.453 268.81 289.771 266.971 288.881C265.132 287.991 263.648 286.775 262.521 285.232C261.453 283.63 260.919 281.524 260.919 278.913C260.919 276.54 261.572 274.404 262.877 272.505C264.182 270.606 266.14 269.093 268.751 267.966C271.362 266.779 274.625 266.186 278.541 266.186C281.448 266.186 284.356 266.601 287.263 267.432C290.23 268.263 292.633 269.36 294.472 270.725L292.425 274.285C290.467 272.802 288.272 271.734 285.839 271.081C283.406 270.428 280.944 270.102 278.452 270.102C273.943 270.102 270.62 270.933 268.484 272.594C266.407 274.255 265.369 276.332 265.369 278.824C265.369 280.782 265.903 282.354 266.971 283.541C268.098 284.668 269.582 285.558 271.421 286.211C273.26 286.804 275.278 287.309 277.473 287.724C279.668 288.08 281.864 288.495 284.059 288.97C286.254 289.445 288.272 290.127 290.111 291.017C291.95 291.848 293.404 293.034 294.472 294.577C295.599 296.06 296.163 298.078 296.163 300.629C296.163 303.18 295.451 305.405 294.027 307.304C292.662 309.203 290.615 310.686 287.886 311.754C285.157 312.822 281.804 313.356 277.829 313.356ZM322.11 313.356C318.016 313.356 314.871 312.229 312.676 309.974C310.54 307.719 309.472 304.634 309.472 300.718V256.396H313.922V300.273C313.922 303.24 314.664 305.524 316.147 307.126C317.63 308.728 319.766 309.529 322.555 309.529C325.462 309.529 327.865 308.669 329.764 306.948L331.633 310.063C330.446 311.19 328.993 312.021 327.272 312.555C325.611 313.089 323.89 313.356 322.11 313.356ZM300.928 270.369V266.542H328.696V270.369H300.928ZM344.043 313V266.542H348.315V279.269L347.87 277.845C349.175 274.107 351.371 271.229 354.456 269.212C357.541 267.195 361.398 266.186 366.026 266.186V270.547C365.848 270.547 365.67 270.547 365.492 270.547C365.314 270.488 365.136 270.458 364.958 270.458C359.796 270.458 355.761 272.09 352.854 275.353C349.947 278.557 348.493 283.037 348.493 288.792V313H344.043ZM404.091 313V302.409L403.913 300.807V283.363C403.913 279.032 402.727 275.739 400.353 273.484C398.039 271.229 394.628 270.102 390.118 270.102C386.914 270.102 383.918 270.666 381.129 271.793C378.4 272.861 376.056 274.255 374.098 275.976L371.873 272.772C374.187 270.695 376.976 269.093 380.239 267.966C383.503 266.779 386.914 266.186 390.474 266.186C396.23 266.186 400.65 267.64 403.735 270.547C406.821 273.454 408.363 277.786 408.363 283.541V313H404.091ZM387.359 313.356C383.918 313.356 380.922 312.822 378.37 311.754C375.878 310.627 373.95 309.054 372.585 307.037C371.28 305.02 370.627 302.706 370.627 300.095C370.627 297.722 371.161 295.586 372.229 293.687C373.357 291.729 375.196 290.157 377.747 288.97C380.299 287.724 383.71 287.101 387.982 287.101H405.07V290.572H388.071C383.265 290.572 379.883 291.462 377.925 293.242C376.027 295.022 375.077 297.247 375.077 299.917C375.077 302.884 376.205 305.257 378.459 307.037C380.714 308.817 383.888 309.707 387.982 309.707C391.898 309.707 395.191 308.817 397.861 307.037C400.591 305.257 402.608 302.676 403.913 299.294L405.159 302.32C403.913 305.702 401.777 308.402 398.751 310.419C395.785 312.377 391.987 313.356 387.359 313.356ZM445.121 313.356C440.612 313.356 436.577 312.347 433.017 310.33C429.516 308.313 426.728 305.524 424.651 301.964C422.634 298.404 421.625 294.34 421.625 289.771C421.625 285.143 422.634 281.049 424.651 277.489C426.728 273.929 429.516 271.17 433.017 269.212C436.577 267.195 440.612 266.186 445.121 266.186C448.859 266.186 452.241 266.898 455.267 268.322C458.352 269.746 460.844 271.882 462.743 274.73L459.45 277.133C457.789 274.76 455.712 273.009 453.22 271.882C450.728 270.755 448.028 270.191 445.121 270.191C441.502 270.191 438.238 271.022 435.331 272.683C432.483 274.285 430.228 276.569 428.567 279.536C426.965 282.443 426.164 285.855 426.164 289.771C426.164 293.687 426.965 297.128 428.567 300.095C430.228 303.002 432.483 305.287 435.331 306.948C438.238 308.55 441.502 309.351 445.121 309.351C448.028 309.351 450.728 308.787 453.22 307.66C455.712 306.533 457.789 304.782 459.45 302.409L462.743 304.812C460.844 307.66 458.352 309.796 455.267 311.22C452.241 312.644 448.859 313.356 445.121 313.356ZM490.115 313.356C486.021 313.356 482.876 312.229 480.681 309.974C478.545 307.719 477.477 304.634 477.477 300.718V256.396H481.927V300.273C481.927 303.24 482.668 305.524 484.152 307.126C485.635 308.728 487.771 309.529 490.56 309.529C493.467 309.529 495.87 308.669 497.769 306.948L499.638 310.063C498.451 311.19 496.997 312.021 495.277 312.555C493.615 313.089 491.895 313.356 490.115 313.356ZM468.933 270.369V266.542H496.701V270.369H468.933Z" fill="#777474"/>
<defs>
<filter id="filter0_f_48_168" x="123" y="153.431" width="161.967" height="192.568" filterUnits="userSpaceOnUse" color-interpolation-filters="sRGB">
<feFlood flood-opacity="0" result="BackgroundImageFix"/>
<feBlend mode="normal" in="SourceGraphic" in2="BackgroundImageFix" result="shape"/>
<feGaussianBlur stdDeviation="5" result="effect1_foregroundBlur_48_168"/>
</filter>
<linearGradient id="paint0_linear_48_168" x1="396.724" y1="336" x2="396.724" y2="6.85214e-05" gradientUnits="userSpaceOnUse">
<stop stop-color="#1A597D"/>
<stop offset="1" stop-color="#A7D910"/>
</linearGradient>
<linearGradient id="paint1_linear_48_168" x1="203.984" y1="163.431" x2="203.984" y2="336" gradientUnits="userSpaceOnUse">
<stop stop-color="#1A597D"/>
<stop offset="1" stop-color="#A7D910"/>
</linearGradient>
<linearGradient id="paint2_linear_48_168" x1="218.633" y1="0" x2="218.633" y2="336" gradientUnits="userSpaceOnUse">
<stop stop-color="#1A597D"/>
<stop offset="1" stop-color="#A7D910"/>
</linearGradient>
</defs>
</svg>
