<svg width="61" height="47" viewBox="0 0 61 47" fill="none" xmlns="http://www.w3.org/2000/svg">
<path d="M9.15376 33.8784V40.8127H14.147C14.147 40.8127 21.0812 41.0898 25.6588 37.3449C25.6588 37.3449 31.6232 32.4903 33.9812 29.0225L60.0557 0.500244H48.821C48.2786 0.500244 46.426 3.33201 46.0921 3.72656C44.2579 5.89459 42.4079 8.04943 40.5816 10.2267C36.5742 15.0048 32.568 19.7829 28.5605 24.561C26.6933 26.7871 24.809 29.0317 22.5196 30.821C18.6744 33.827 13.916 34.7348 9.15112 33.8798L9.15376 33.8784Z" fill="url(#paint0_linear_48_31)"/>
<path d="M50.3464 46.5C49.8185 46.5 47.9184 43.3397 47.6109 42.9398C45.5194 40.2176 43.3963 37.5244 41.3193 34.7929C36.619 28.6121 31.9188 22.4326 27.2185 16.2518C25.5664 14.0785 23.8734 11.8669 21.6209 10.3257C19.1336 8.62213 16.1052 7.84755 13.0992 7.63642C12.2389 7.57572 0 8.06131 0 7.804C0 5.39713 0 2.99026 0 0.582067C3.99958 0.852576 8.01367 0.455389 12.0225 0.504213C16.0313 0.553036 20.1536 1.08614 23.6478 3.05096C27.1525 5.02106 29.7375 8.25661 32.2302 11.4117C41.4842 23.1254 50.7647 34.8153 60.0557 46.4987C60.0557 46.4987 50.349 46.4987 50.3464 46.4987V46.5Z" fill="url(#paint1_linear_48_31)"/>
<defs>
<linearGradient id="paint0_linear_48_31" x1="34.6034" y1="0.500244" x2="34.6034" y2="40.8173" gradientUnits="userSpaceOnUse">
<stop stop-color="#2FA2E3"/>
<stop offset="1" stop-color="#1A597D"/>
</linearGradient>
<linearGradient id="paint1_linear_48_31" x1="30.0278" y1="0.5" x2="30.0278" y2="46.5" gradientUnits="userSpaceOnUse">
<stop stop-color="#2FA2E3"/>
<stop offset="1" stop-color="#1A597D"/>
</linearGradient>
</defs>
</svg>
