<svg width="40" height="40" viewBox="0 0 40 40" fill="none" xmlns="http://www.w3.org/2000/svg">
<path d="M33.7109 6.23828C37.4023 9.92969 39.6875 14.7637 39.6875 20.0371C39.6875 30.7598 30.7227 39.5488 19.9121 39.5488C16.6602 39.5488 13.4961 38.6699 10.5957 37.1758L0.3125 39.8125L3.03711 29.7051C1.36719 26.8047 0.400391 23.4648 0.400391 19.9492C0.400391 9.22656 9.18945 0.4375 19.9121 0.4375C25.1855 0.4375 30.1074 2.54688 33.7109 6.23828ZM19.9121 36.209C28.877 36.209 36.3477 28.9141 36.3477 20.0371C36.3477 15.6426 34.502 11.5996 31.4258 8.52344C28.3496 5.44727 24.3066 3.77734 20 3.77734C11.0352 3.77734 3.74023 11.0723 3.74023 19.9492C3.74023 23.0254 4.61914 26.0137 6.20117 28.6504L6.64062 29.2656L4.9707 35.2422L11.123 33.5723L11.6504 33.9238C14.1992 35.418 17.0117 36.209 19.9121 36.209ZM28.877 24.0801C29.3164 24.3438 29.668 24.4316 29.7559 24.6953C29.9316 24.8711 29.9316 25.8379 29.4922 26.9805C29.0527 28.123 27.1191 29.1777 26.2402 29.2656C24.6582 29.5293 23.4277 29.4414 20.3516 28.0352C15.4297 25.9258 12.2656 21.0039 12.002 20.7402C11.7383 20.3887 10.0684 18.1035 10.0684 15.6426C10.0684 13.2695 11.2988 12.127 11.7383 11.5996C12.1777 11.0723 12.7051 10.9844 13.0566 10.9844C13.3203 10.9844 13.6719 10.9844 13.9355 10.9844C14.2871 10.9844 14.6387 10.8965 15.0781 11.8633C15.4297 12.8301 16.4844 15.2031 16.5723 15.4668C16.6602 15.7305 16.748 15.9941 16.5723 16.3457C15.6934 18.1914 14.6387 18.1035 15.166 18.9824C17.0996 22.2344 18.9453 23.377 21.8457 24.7832C22.2852 25.0469 22.5488 24.959 22.9004 24.6953C23.1641 24.3438 24.1309 23.2012 24.3945 22.7617C24.7461 22.2344 25.0977 22.3223 25.5371 22.498C25.9766 22.6738 28.3496 23.8164 28.877 24.0801Z" fill="white"/>
</svg>
